<svg width="112" height="15" viewBox="0 0 112 15" fill="none" xmlns="http://www.w3.org/2000/svg">
<path d="M12.5667 9.33095C12.3622 9.5291 12.2683 9.81566 12.3149 10.0967L13.0167 13.9806C13.0759 14.3098 12.9369 14.643 12.6614 14.8332C12.3914 15.0306 12.0323 15.0543 11.7378 14.8964L8.24146 13.0728C8.11989 13.0081 7.98489 12.9733 7.84675 12.9694H7.63281C7.55861 12.9804 7.48598 13.0041 7.41967 13.0404L3.92253 14.8727C3.74965 14.9595 3.55388 14.9903 3.36205 14.9595C2.89471 14.8711 2.58289 14.4259 2.65946 13.9562L3.36205 10.0722C3.40862 9.78882 3.31468 9.50068 3.11022 9.29938L0.259621 6.53641C0.0212163 6.3051 -0.0616729 5.95776 0.0472672 5.64436C0.15305 5.33175 0.423032 5.10361 0.749062 5.05229L4.67248 4.48312C4.97089 4.45233 5.23297 4.27077 5.36718 4.00236L7.09601 0.457864C7.13706 0.378922 7.18995 0.306295 7.25389 0.24472L7.32494 0.189461C7.36204 0.148411 7.40467 0.114466 7.45204 0.0868363L7.53808 0.0552595L7.67228 0H8.00463C8.30145 0.0307874 8.56275 0.208407 8.69932 0.473653L10.451 4.00236C10.5774 4.2605 10.8229 4.4397 11.1063 4.48312L15.0297 5.05229C15.3612 5.09966 15.6383 5.32859 15.7481 5.64436C15.8515 5.96092 15.7623 6.30826 15.5191 6.53641L12.5667 9.33095Z" fill="#EE3E3C"/>
<path d="M36.5667 9.33095C36.3622 9.5291 36.2683 9.81566 36.3149 10.0967L37.0167 13.9806C37.0759 14.3098 36.9369 14.643 36.6614 14.8332C36.3914 15.0306 36.0323 15.0543 35.7378 14.8964L32.2415 13.0728C32.1199 13.0081 31.9849 12.9733 31.8467 12.9694H31.6328C31.5586 12.9804 31.486 13.0041 31.4197 13.0404L27.9225 14.8727C27.7497 14.9595 27.5539 14.9903 27.362 14.9595C26.8947 14.8711 26.5829 14.4259 26.6595 13.9562L27.362 10.0722C27.4086 9.78882 27.3147 9.50068 27.1102 9.29938L24.2596 6.53641C24.0212 6.3051 23.9383 5.95776 24.0473 5.64436C24.153 5.33175 24.423 5.10361 24.7491 5.05229L28.6725 4.48312C28.9709 4.45233 29.233 4.27077 29.3672 4.00236L31.096 0.457864C31.1371 0.378922 31.1899 0.306295 31.2539 0.24472L31.3249 0.189461C31.362 0.148411 31.4047 0.114466 31.452 0.0868363L31.5381 0.0552595L31.6723 0H32.0046C32.3015 0.0307874 32.5628 0.208407 32.6993 0.473653L34.451 4.00236C34.5774 4.2605 34.8229 4.4397 35.1063 4.48312L39.0297 5.05229C39.3612 5.09966 39.6383 5.32859 39.7481 5.64436C39.8515 5.96092 39.7623 6.30826 39.5191 6.53641L36.5667 9.33095Z" fill="#EE3E3C"/>
<path d="M60.5667 9.33095C60.3622 9.5291 60.2683 9.81566 60.3149 10.0967L61.0167 13.9806C61.0759 14.3098 60.9369 14.643 60.6614 14.8332C60.3914 15.0306 60.0323 15.0543 59.7378 14.8964L56.2415 13.0728C56.1199 13.0081 55.9849 12.9733 55.8467 12.9694H55.6328C55.5586 12.9804 55.486 13.0041 55.4197 13.0404L51.9225 14.8727C51.7497 14.9595 51.5539 14.9903 51.362 14.9595C50.8947 14.8711 50.5829 14.4259 50.6595 13.9562L51.362 10.0722C51.4086 9.78882 51.3147 9.50068 51.1102 9.29938L48.2596 6.53641C48.0212 6.3051 47.9383 5.95776 48.0473 5.64436C48.153 5.33175 48.423 5.10361 48.7491 5.05229L52.6725 4.48312C52.9709 4.45233 53.233 4.27077 53.3672 4.00236L55.096 0.457864C55.1371 0.378922 55.1899 0.306295 55.2539 0.24472L55.3249 0.189461C55.362 0.148411 55.4047 0.114466 55.452 0.0868363L55.5381 0.0552595L55.6723 0H56.0046C56.3015 0.0307874 56.5628 0.208407 56.6993 0.473653L58.451 4.00236C58.5774 4.2605 58.8229 4.4397 59.1063 4.48312L63.0297 5.05229C63.3612 5.09966 63.6383 5.32859 63.7481 5.64436C63.8515 5.96092 63.7623 6.30826 63.5191 6.53641L60.5667 9.33095Z" fill="#EE3E3C"/>
<path opacity="0.2" d="M84.5667 9.33095C84.3622 9.5291 84.2683 9.81566 84.3149 10.0967L85.0167 13.9806C85.0759 14.3098 84.9369 14.643 84.6614 14.8332C84.3914 15.0306 84.0323 15.0543 83.7378 14.8964L80.2415 13.0728C80.1199 13.0081 79.9849 12.9733 79.8467 12.9694H79.6328C79.5586 12.9804 79.486 13.0041 79.4197 13.0404L75.9225 14.8727C75.7497 14.9595 75.5539 14.9903 75.362 14.9595C74.8947 14.8711 74.5829 14.4259 74.6595 13.9562L75.362 10.0722C75.4086 9.78882 75.3147 9.50068 75.1102 9.29938L72.2596 6.53641C72.0212 6.3051 71.9383 5.95776 72.0473 5.64436C72.153 5.33175 72.423 5.10361 72.7491 5.05229L76.6725 4.48312C76.9709 4.45233 77.233 4.27077 77.3672 4.00236L79.096 0.457864C79.1371 0.378922 79.1899 0.306295 79.2539 0.24472L79.3249 0.189461C79.362 0.148411 79.4047 0.114466 79.452 0.0868363L79.5381 0.0552595L79.6723 0H80.0046C80.3015 0.0307874 80.5628 0.208407 80.6993 0.473653L82.451 4.00236C82.5774 4.2605 82.8229 4.4397 83.1063 4.48312L87.0297 5.05229C87.3612 5.09966 87.6383 5.32859 87.7481 5.64436C87.8515 5.96092 87.7623 6.30826 87.5191 6.53641L84.5667 9.33095Z" fill="#2E2E3E"/>
<path opacity="0.2" d="M108.567 9.33095C108.362 9.5291 108.268 9.81566 108.315 10.0967L109.017 13.9806C109.076 14.3098 108.937 14.643 108.661 14.8332C108.391 15.0306 108.032 15.0543 107.738 14.8964L104.241 13.0728C104.12 13.0081 103.985 12.9733 103.847 12.9694H103.633C103.559 12.9804 103.486 13.0041 103.42 13.0404L99.9225 14.8727C99.7497 14.9595 99.5539 14.9903 99.362 14.9595C98.8947 14.8711 98.5829 14.4259 98.6595 13.9562L99.362 10.0722C99.4086 9.78882 99.3147 9.50068 99.1102 9.29938L96.2596 6.53641C96.0212 6.3051 95.9383 5.95776 96.0473 5.64436C96.153 5.33175 96.423 5.10361 96.7491 5.05229L100.672 4.48312C100.971 4.45233 101.233 4.27077 101.367 4.00236L103.096 0.457864C103.137 0.378922 103.19 0.306295 103.254 0.24472L103.325 0.189461C103.362 0.148411 103.405 0.114466 103.452 0.0868363L103.538 0.0552595L103.672 0H104.005C104.301 0.0307874 104.563 0.208407 104.699 0.473653L106.451 4.00236C106.577 4.2605 106.823 4.4397 107.106 4.48312L111.03 5.05229C111.361 5.09966 111.638 5.32859 111.748 5.64436C111.851 5.96092 111.762 6.30826 111.519 6.53641L108.567 9.33095Z" fill="#2E2E3E"/>
</svg>
