<svg width="25" height="30" viewBox="0 0 25 30" fill="none" xmlns="http://www.w3.org/2000/svg">
<path d="M25 21.4659C24.3172 22.9887 23.9906 23.668 23.1098 25.0142C21.8827 26.8929 20.1509 29.2344 18.0084 29.2543C16.1034 29.2718 15.6135 28.0077 13.0282 28.0226C10.4428 28.0375 9.9035 29.2767 7.9985 29.2593C5.85599 29.2394 4.21571 27.1268 2.98859 25.2456C-0.445353 19.9903 -0.801614 13.8217 1.31368 10.5445C2.81789 8.21298 5.19048 6.84937 7.42205 6.84937C9.6932 6.84937 11.1232 8.10348 13.001 8.10348C14.8243 8.10348 15.9352 6.84937 18.5601 6.84937C20.5468 6.84937 22.6497 7.93677 24.1489 9.81795C19.238 12.5228 20.0371 19.5797 25 21.4659Z" fill="white"/>
<path d="M16.5683 4.75023C17.5233 3.51851 18.2482 1.77667 17.9835 0C16.4248 0.106998 14.6015 1.10482 13.5352 2.40622C12.5678 3.58818 11.7712 5.33748 12.0804 7.0395C13.7851 7.09176 15.5466 6.06905 16.5683 4.75023Z" fill="white"/>
</svg>
