<svg width="8" height="5" viewBox="0 0 8 5" fill="none" xmlns="http://www.w3.org/2000/svg">
<path d="M7.47337 1.4868C7.76518 1.19164 7.76518 0.716624 7.47336 0.421466C7.22856 0.173869 6.84652 0.124995 6.54728 0.302993L5.02245 1.21C4.5241 1.50643 4.27493 1.65464 4 1.65464C3.72507 1.65464 3.4759 1.50643 2.97755 1.21L1.45272 0.302993C1.15348 0.124995 0.77144 0.173869 0.526642 0.421466C0.23482 0.716624 0.234816 1.19164 0.526633 1.4868L2.57775 3.56144C3.24754 4.23892 3.58244 4.57765 4 4.57765C4.41756 4.57765 4.75246 4.23892 5.42225 3.56144L7.47337 1.4868Z" fill="#EE3E3C"/>
</svg>
