<svg width="20" height="18" viewBox="0 0 20 18" fill="none" xmlns="http://www.w3.org/2000/svg">
<path opacity="0.4" d="M19.3319 2.45658C19.0333 2.4536 18.7371 2.45445 18.4402 2.45573C18.2925 2.45616 18.1444 2.45658 17.9964 2.45658H17.979L17.9657 2.44509C17.9003 2.39104 17.9072 2.31868 17.9116 2.27101C17.9128 2.25952 17.9141 2.24845 17.9141 2.23738C17.912 2.00584 17.912 1.7726 17.912 1.53936C17.912 1.30654 17.912 1.07372 17.91 0.841758C17.91 0.402087 17.7115 0.139476 17.3355 0.0807398C16.7839 -0.00353401 16.1836 -0.021836 15.4981 0.0258341C14.6794 0.0837191 13.906 0.240349 13.1995 0.491468C11.9169 0.952847 10.9135 1.6713 10.1319 2.6877C10.1178 2.7043 10.1061 2.72004 10.0944 2.73537C10.075 2.7609 10.0561 2.78559 10.0355 2.80687L10 2.8439L9.96449 2.80645C9.94432 2.78516 9.92536 2.76048 9.90599 2.73537C9.89429 2.71962 9.88219 2.7043 9.86968 2.6894C9.08735 1.6713 8.08392 0.952847 6.80089 0.491043C6.09441 0.239924 5.32096 0.0832936 4.50192 0.0254085C3.81723 -0.0214103 3.21565 -0.00310838 2.66411 0.0807398C2.28848 0.139476 2.08997 0.402513 2.08997 0.841333C2.08796 1.07372 2.08796 1.30654 2.08796 1.53936C2.08796 1.7726 2.08796 2.00584 2.08594 2.23781C2.08594 2.24803 2.08715 2.25952 2.08836 2.27101C2.0928 2.31868 2.09966 2.39104 2.03429 2.44509L2.02058 2.45658H2.00323C1.85515 2.45658 1.70748 2.45616 1.55941 2.45573C1.26326 2.45445 0.96631 2.4536 0.668146 2.45658C0.249748 2.46084 0 2.74133 0 3.20781V17.2364C0 17.3292 -3.00608e-09 17.4165 0.0225943 17.5029C0.146056 17.9204 0.486181 18.083 0.931208 17.9387C2.63708 17.3786 4.22191 17.1032 5.75429 17.1032C5.96772 17.1032 6.17995 17.1087 6.39137 17.119C7.64656 17.1841 8.73189 17.445 9.71031 17.9157C9.81158 17.9642 9.90761 17.9923 10.004 18C10.0924 17.9919 10.1884 17.9642 10.2897 17.9157C11.2681 17.445 12.3538 17.1841 13.6086 17.119C15.3379 17.0334 17.1257 17.2998 19.0688 17.9387C19.5126 18.0826 19.8539 17.92 19.9782 17.5012C20 17.4165 20 17.3292 20 17.2364V3.20781C20 2.74133 19.7498 2.46084 19.3319 2.45658ZM7.82207 15.8336C5.78011 15.5284 3.65866 15.6944 1.33791 16.3392L1.27456 16.3567V3.8654H2.08957L2.08997 6.12292C2.09038 8.63156 2.09118 11.2249 2.0815 13.7761C2.07948 14.0502 2.16704 14.2847 2.32842 14.4379C2.46681 14.5686 2.64515 14.6248 2.84406 14.6001C3.86363 14.4771 4.8949 14.5478 5.90801 14.8099C6.67581 15.0134 7.3137 15.3169 7.85838 15.7378L8.02058 15.8629L7.82207 15.8336ZM9.4065 8.62262C9.40771 9.07463 9.40892 9.52707 9.40892 9.97951V15.2573L9.32499 15.1773C7.8253 13.7535 5.94916 13.1002 3.41578 13.127L3.36494 13.1274V1.43806L3.41255 1.43508C4.21424 1.38443 5.0228 1.45934 5.81561 1.65768C7.2213 2.01521 8.28122 2.71366 9.05588 3.79262C9.31571 4.16164 9.42506 4.48937 9.42142 4.88946C9.40044 6.13228 9.40367 7.39852 9.4065 8.62262ZM10.5911 15.2573V9.97951C10.5911 9.5275 10.5923 9.07506 10.5935 8.62262C10.5967 7.39852 10.6 6.13228 10.579 4.88988V4.88946C10.5753 4.48979 10.6847 4.16164 10.9437 3.79305C11.7192 2.71366 12.7787 2.01563 14.184 1.65768C14.9772 1.45977 15.7845 1.38528 16.5875 1.43508L16.6347 1.43806V13.1274L16.5838 13.127C16.535 13.1266 16.4862 13.1262 16.4382 13.1262C13.948 13.1262 12.1662 13.7616 10.6754 15.1773L10.5911 15.2573ZM18.725 16.3562L18.6617 16.3388C16.3413 15.694 14.2203 15.5284 12.1779 15.8331L11.979 15.8625L12.1408 15.7374C12.6855 15.3169 13.3234 15.013 14.0912 14.8095C15.1051 14.5478 16.1352 14.4775 17.1555 14.5997C17.3528 14.6252 17.5336 14.5686 17.6712 14.4371C17.8322 14.2847 17.9201 14.0498 17.9181 13.7757C17.9084 11.2057 17.9092 8.59282 17.9096 6.06631L17.91 3.86455H18.7254V16.3562H18.725Z" fill="#2E2E3E"/>
</svg>
