<svg width="20" height="18" viewBox="0 0 20 18" fill="none" xmlns="http://www.w3.org/2000/svg">
<path opacity="0.4" d="M19.9572 1.7017L19.956 1.6977C19.9484 1.6745 19.9404 1.6517 19.9324 1.6297C19.7192 1.0417 19.304 0.707697 18.6984 0.636897C18.6072 0.626497 18.5064 0.621696 18.382 0.621696C16.1576 0.621696 13.9324 0.621697 11.7004 0.620897C8.33918 0.620897 4.97798 0.620896 1.61678 0.618896C1.05958 0.618896 0.661983 0.774897 0.365583 1.1105C0.123983 1.3845 0.00158279 1.6953 0.00158279 2.0345V2.6845C0.000782791 6.2993 -0.000417209 10.0373 0.00158279 13.7145C0.00278279 14.4593 0.619983 15.0929 1.37798 15.1269C1.44798 15.1301 1.51798 15.1301 1.58638 15.1293L11.3392 15.1289L11.2032 15.9865L11.1484 16.3297C11.1168 16.5245 11.084 16.7257 11.0544 16.9249C11.0008 17.2885 11.1092 17.5757 11.3772 17.7773C11.5284 17.8913 11.6944 17.9489 11.8708 17.9489C12.012 17.9489 12.1588 17.9109 12.3068 17.8369C12.6764 17.6517 13.0484 17.4557 13.4076 17.2657L13.4516 17.2425C13.602 17.1629 13.7528 17.0833 13.9032 17.0049L14.0332 16.9381C14.1488 16.8789 14.28 16.8121 14.4032 16.7401C14.5476 16.6577 14.6796 16.6581 14.8348 16.7413C15.3896 17.0373 16.0164 17.3665 16.8068 17.7789C16.9116 17.8325 17.0344 17.8925 17.164 17.9181C17.4556 17.9753 17.7328 17.9061 17.926 17.7277C18.1204 17.5493 18.2128 17.2769 18.1792 16.9809C18.134 16.5833 18.0636 16.1665 18.0068 15.8321L17.9896 15.7317C17.9664 15.5925 17.9432 15.4533 17.9208 15.3137C17.9132 15.2685 17.9076 15.2225 17.9008 15.1697L17.8952 15.1285H18.4024C18.506 15.1285 18.6036 15.1237 18.6916 15.1141L18.7088 15.1121C18.8164 15.0997 18.9164 15.0789 19.0136 15.0493L19.0224 15.0469C19.2352 14.9817 19.4112 14.8757 19.5604 14.7237C19.7284 14.5509 19.8616 14.3149 19.9676 13.9989C19.9892 13.9009 20 13.7981 20 13.6929V2.0481C20 1.9281 19.9856 1.8117 19.9572 1.7017ZM18.4392 13.8069H17.6752L17.6668 13.7557C17.6532 13.6761 17.6396 13.5965 17.6256 13.5177C17.5768 13.2357 17.5264 12.9437 17.4844 12.6457C17.4776 12.5945 17.5128 12.5177 17.5484 12.4685C18.5968 11.0161 18.506 9.1681 17.3224 7.8701C16.3076 6.7581 15.0184 6.3933 13.59 6.8145C12.1828 7.2301 11.2964 8.2285 11.028 9.7017C10.8476 10.6889 11.0712 11.6241 11.6936 12.4805C11.7392 12.5437 11.756 12.5961 11.7524 12.6205C11.7088 12.9177 11.6588 13.2093 11.6064 13.5185L11.5572 13.8065H1.57958C1.31398 13.8065 1.31398 13.8065 1.31398 13.5349V2.2041C1.31398 1.9473 1.32678 1.9345 1.58838 1.9345H18.4104C18.6724 1.9345 18.6852 1.9473 18.6852 2.2033V13.5533C18.6848 13.7993 18.678 13.8061 18.4392 13.8069ZM12.6864 15.0653C12.7424 14.7209 12.7988 14.3785 12.8552 14.0349L12.9356 13.5401C14.0452 14.0765 15.1748 14.0769 16.296 13.5421L16.44 14.4177C16.4756 14.6337 16.5104 14.8493 16.5456 15.0653L16.74 16.2585C16.6344 16.2037 16.5304 16.1505 16.4276 16.0977C16.1532 15.9577 15.8688 15.8125 15.594 15.6517C15.264 15.4585 14.9344 15.3605 14.6132 15.3605C14.2936 15.3605 13.968 15.4573 13.6456 15.6485C13.4032 15.7917 13.1464 15.9229 12.8944 16.0513C12.7808 16.1089 12.6668 16.1673 12.5536 16.2269C12.5336 16.2373 12.5132 16.2473 12.49 16.2577L12.6864 15.0653ZM14.6164 12.6357V12.6557L14.6148 12.6357C13.3524 12.6349 12.2836 11.5673 12.2804 10.3045C12.2784 9.0241 13.3224 7.9781 14.6076 7.9733H14.6164C15.8888 7.9733 16.9352 9.0117 16.9488 10.2881C16.9548 10.9037 16.7128 11.4897 16.2684 11.9381C15.8228 12.3877 15.236 12.6357 14.6164 12.6357Z" fill="#2E2E3E"/>
<path opacity="0.4" d="M16.4236 4.0208C14.7648 4.0196 13.1048 4.0196 11.4468 4.02H4.70397L4.25277 4.0196C3.85957 4.0184 3.47557 4.018 3.09277 4.0224C2.75557 4.0256 2.47197 4.2892 2.44677 4.6224C2.42157 4.9664 2.64277 5.252 2.98437 5.3176C3.07717 5.3356 3.17477 5.3368 3.26637 5.3368C7.61357 5.338 11.9592 5.3384 16.3056 5.3372H16.3476C16.3616 5.3372 16.3752 5.3372 16.3896 5.3372C16.4276 5.3372 16.4768 5.3368 16.5264 5.3308C16.7876 5.2984 16.9712 5.166 17.0724 4.9372C17.1636 4.7324 17.1484 4.5112 17.0312 4.3304C16.9052 4.1372 16.6776 4.0212 16.4236 4.0208Z" fill="#2E2E3E"/>
<path opacity="0.4" d="M8.69657 7.21519C6.48137 7.21359 4.77697 7.21439 3.17057 7.21679C3.05617 7.21679 2.94057 7.23799 2.84497 7.27639C2.56497 7.38879 2.39657 7.69719 2.45337 7.99319C2.51457 8.30879 2.78457 8.52959 3.11137 8.53079C3.52017 8.53239 3.92897 8.53239 4.33817 8.53239L5.92257 8.53199H6.56257C6.89217 8.53199 7.22217 8.53239 7.55217 8.53239C7.93337 8.53239 8.31457 8.53239 8.69577 8.53159C9.12097 8.53119 9.41177 8.27199 9.42017 7.88639C9.42417 7.70719 9.36337 7.54799 9.24337 7.42559C9.11057 7.29039 8.91657 7.21559 8.69657 7.21519Z" fill="#2E2E3E"/>
</svg>
