<svg width="11" height="11" viewBox="0 0 11 11" fill="none" xmlns="http://www.w3.org/2000/svg">
<path d="M3.72881 7.64426C3.81634 7.74972 3.97368 7.75275 4.06022 7.64628C4.49636 7.10839 4.93594 6.56697 5.37404 6.02403C6.85701 4.18581 8.339 2.34709 9.82098 0.508878C9.95964 0.337318 10.1165 0.18796 10.3097 0.0814914C10.4966 -0.0214446 10.6888 -0.038096 10.8595 0.0971337C11.006 0.213694 11.0139 0.393832 10.9893 0.565897C10.9573 0.791448 10.8732 1.0064 10.7528 1.19815C8.82726 4.2721 6.9052 7.34756 4.97478 10.418C4.52881 11.1274 3.63047 11.2021 3.08764 10.5658C2.15291 9.47087 1.23294 8.3628 0.319851 7.24917C-0.145789 6.68151 -0.0936688 5.97206 0.415242 5.52247C0.925627 5.07187 1.62876 5.14605 2.1121 5.71421C2.65543 6.35302 3.18843 7.00041 3.72734 7.64275C3.72783 7.64325 3.72832 7.64376 3.72881 7.64426Z" fill="white"/>
</svg>
