<svg width="10" height="10" viewBox="0 0 10 10" fill="none" xmlns="http://www.w3.org/2000/svg">
<path d="M3.38983 6.94933C3.4694 7.0452 3.61244 7.04795 3.69111 6.95116C4.0876 6.46217 4.48722 5.96997 4.88549 5.47639C6.23365 3.80528 7.58091 2.13372 8.92817 0.462616C9.05422 0.306652 9.19682 0.170872 9.37249 0.0740831C9.54235 -0.0194951 9.71713 -0.0346327 9.87223 0.0883033C10.0054 0.194267 10.0126 0.358029 9.99024 0.514451C9.96119 0.719498 9.88475 0.914911 9.77523 1.08922C8.02478 3.88372 6.27745 6.6796 4.52253 9.47089C4.1171 10.1158 3.30043 10.1837 2.80694 9.6053C1.95719 8.60988 1.12085 7.60254 0.290774 6.59015C-0.132536 6.0741 -0.0851534 5.42914 0.377492 5.02042C0.841479 4.61079 1.48069 4.67822 1.92009 5.19474C2.41403 5.77547 2.89858 6.36401 3.38849 6.94795C3.38894 6.94841 3.38938 6.94887 3.38983 6.94933Z" fill="#2E2E3E"/>
</svg>
