<svg width="16" height="20" viewBox="0 0 16 20" fill="none" xmlns="http://www.w3.org/2000/svg">
<path opacity="0.4" d="M15.2885 1.49047C15.0793 1.28207 14.8017 1.16767 14.5069 1.16767C14.5057 1.16767 14.5045 1.16767 14.5033 1.16767V1.21727L14.4973 1.16767C12.6557 1.16567 11.6741 1.16487 9.83254 1.16927C9.71854 1.16927 9.67574 1.14167 9.62334 1.03487C9.36974 0.512871 8.97054 0.183671 8.42814 0.0536706C8.39374 0.0456706 8.35854 0.0380705 8.32654 0.0328705L8.31454 0.0288705C7.99014 -0.0299295 7.65414 0.00207056 7.34734 0.122871L7.19174 0.192871C7.02334 0.275671 6.88414 0.372071 6.76574 0.488071C6.63134 0.620471 6.46494 0.802871 6.37334 1.03687C6.33254 1.14087 6.28854 1.16967 6.16974 1.16967C6.16894 1.16967 6.16814 1.16967 6.16774 1.16967C4.72694 1.16607 3.91134 1.16687 2.74094 1.16647H1.49294C0.882142 1.16647 0.385742 1.66327 0.385742 2.27367V18.8929C0.385342 19.5033 0.882142 20.0001 1.49294 20.0001H14.5069C15.1177 20.0001 15.6141 19.5033 15.6141 18.8929V2.27487C15.6141 1.97847 15.4981 1.70007 15.2885 1.49047ZM9.75694 4.75247C11.0413 4.75247 12.0885 3.72127 12.1153 2.44247H14.0105C14.1921 2.44247 14.3397 2.59007 14.3397 2.77167V18.3945C14.3397 18.5761 14.1921 18.7237 14.0105 18.7237H1.98214C1.80054 18.7237 1.65294 18.5761 1.65294 18.3945V2.77247C1.65294 2.59087 1.80054 2.44327 1.98214 2.44327H3.87014C3.89654 3.72127 4.94414 4.75247 6.22854 4.75247H9.75694ZM9.74294 3.48447H6.25014C5.65894 3.48447 5.17454 3.01647 5.14854 2.43167H6.86774C7.19254 2.43167 7.46174 2.16647 7.46774 1.82967C7.47454 1.51407 7.69974 1.27207 7.99174 1.26647C8.28774 1.25447 8.52374 1.50927 8.53054 1.84047C8.53734 2.16407 8.80694 2.42727 9.13014 2.42727H10.8441C10.8213 3.01407 10.3357 3.48447 9.74294 3.48447Z" fill="#2E2E3E"/>
<path opacity="0.4" d="M3.62586 15.7817C3.89306 14.9781 4.15546 14.1893 4.41666 13.4001C4.43386 13.3477 4.48026 13.2729 4.51906 13.2337C6.49546 11.2533 8.47226 9.27291 10.4491 7.29251C10.4603 7.28131 10.4739 7.27211 10.4759 7.27051C11.1579 7.95371 11.8379 8.63491 12.5347 9.33331C12.5063 9.35531 12.4643 9.38091 12.4303 9.41491C10.4871 11.3605 8.54466 13.3069 6.60186 15.2529C6.55346 15.3013 6.50946 15.3533 6.43826 15.3773C5.63866 15.6425 4.83946 15.9097 4.02586 16.1813C3.77946 16.2629 3.54426 16.0277 3.62586 15.7817ZM4.96306 14.8429C5.26746 14.7405 5.54386 14.6429 5.82346 14.5553C5.92306 14.5241 6.01386 14.4701 6.08786 14.3961C7.21866 13.2605 8.35106 12.1261 9.48426 10.9925C9.52146 10.9553 9.57026 10.9297 9.59866 10.9093C9.35306 10.6637 9.13146 10.4417 8.89146 10.2013C8.86866 10.2309 8.84026 10.2773 8.80266 10.3149C7.84906 11.2717 6.90986 12.2433 5.93386 13.1769C5.48786 13.6033 5.14186 14.0613 5.01786 14.6717C5.00786 14.7185 4.98866 14.7633 4.96306 14.8429ZM11.1343 9.32131L10.4847 8.67171L9.65906 9.49891L10.3083 10.1477L11.1343 9.32131Z" fill="#2E2E3E"/>
</svg>
