<svg width="963" height="719" viewBox="0 0 963 719" fill="none" xmlns="http://www.w3.org/2000/svg">
<path d="M939.418 368.211C925.933 338.618 900.219 311.682 889.713 279.886C871.879 225.863 900.396 166.354 888.897 110.581C878.832 61.7419 835.263 22.1696 787.654 18.6055C748.08 15.6462 710.581 34.9356 671.315 39.9253C605.454 48.2847 541.071 16.2942 475.342 4.78113C416.168 -5.58715 354.611 1.00103 299.167 23.6384C263.102 38.37 226.176 64.9388 220.901 105.137C216.862 135.961 232.71 168.017 224.963 197.998C219.158 220.528 200.838 237.268 180.886 247.68C160.933 258.07 138.928 263.405 118.026 271.57C73.2207 289.045 32.3663 321.424 12.2149 366.677C-7.93638 411.931 -3.74278 470.663 29.188 507.772C44.9029 525.506 65.6943 537.322 83.1308 553.198C105.776 573.827 105.313 607.221 118.688 633.25C132.461 660.078 157.291 677.726 182.254 691.917C213.463 709.651 249.683 717.989 284.798 713.647C334.989 707.427 416.655 673.26 467 668.378C518.029 663.41 557.118 692.484 607 706.006C662.135 720.932 695.13 723.865 750.155 710.256C805.179 696.648 856.584 660.488 880.267 607.005C897.946 567.088 899.403 520.646 917.744 481.052C928.736 457.313 945.929 435.497 947.828 409.079C948.843 394.52 945.289 381.107 939.418 368.211Z" fill="url(#paint0_linear_2509_1245)" fill-opacity="0.5"/>
<path d="M286.553 205.15C302.087 197.582 286.935 191.726 276.577 189.792C268.2 188.225 247.408 186.297 254.441 171.612C261.817 156.224 271.77 173.503 278.873 174.919C294.748 178.077 276.905 160.139 272.59 155.319C266.683 148.71 254.315 135.235 267.754 131.596C278.636 128.65 291.463 143.008 296.741 150.262C300.501 155.44 310.863 180.33 318.713 173.905C324.659 169.026 315.779 143.959 332.555 160.944C339.371 167.848 339.468 179.913 343.019 188.191C348.205 200.314 350.383 205.341 361.193 201.127C366.793 198.94 366.322 191.713 373.862 195.947C377.743 198.131 379.871 209.578 380.206 213.581C383.261 250.436 370.766 276.427 364.108 280.237C355.092 285.395 337.052 280.753 328.591 276.868C324.382 274.938 316.746 271.805 316.732 265.924C316.724 259.342 326.894 259.36 326.909 255.493C326.98 244.519 307.901 256.723 302.217 255.668C294.853 254.304 281.8 242.557 288.717 235.096C289.432 234.331 320.513 229.236 301.704 220.895C291.3 216.276 282.057 232.547 271.515 222.534C256.373 208.134 280.731 207.988 286.553 205.15Z" fill="url(#paint1_linear_2509_1245)"/>
<path d="M289.742 210.702C296.383 207.16 303.298 203.873 310.757 202.554C304.865 196.42 298.729 190.364 294.036 183.394C292.709 181.427 295.97 179.689 297.281 181.643C297.848 182.489 298.483 183.314 299.09 184.141C299.47 181.838 298.472 178.552 298.101 176.779C297.141 172.202 295.029 168.205 292.825 164.133C291.698 162.05 294.942 160.285 296.07 162.382C298.93 167.67 301.267 172.753 302.228 178.731C302.704 181.671 303.16 184.851 301.672 187.451C308.133 195.382 315.922 202.521 322.596 210.181C324.775 205.936 326.257 201.572 326.673 196.73C327.135 191.464 326.032 186.241 326.087 180.97C326.111 178.6 329.805 178.714 329.768 181.099C329.684 187.437 330.978 193.539 329.968 199.863C329.195 204.639 327.443 208.958 325.151 213.185C332.864 222.431 340.099 232.113 346.247 242.468C348.295 245.91 350.197 249.436 352.044 252.98C355.012 247.543 357.363 241.952 358.803 235.883C359.604 232.505 360.513 228.935 360.633 225.465C360.732 222.837 360.232 220.417 361.037 217.851C361.742 215.588 365.283 216.64 364.564 218.905C363.586 222.032 364.359 225.926 363.858 229.221C363.376 232.402 362.698 235.587 361.901 238.698C360.251 245.08 357.507 250.973 354.226 256.663C354.178 256.751 354.111 256.785 354.062 256.859C357.209 263.004 360.288 269.168 363.714 275.147C363.953 275.307 364.181 275.511 364.351 275.831C364.691 276.501 365.321 277.424 365.578 278.255C371.842 290.672 378.147 303.072 384.249 315.559C385.282 317.693 382.051 319.442 381.004 317.31C374.919 304.863 368.632 292.504 362.401 280.14C362.369 280.087 362.324 280.063 362.29 279.996C360.361 276.781 358.551 273.499 356.793 270.17C350.264 272.47 342.656 271.198 336.206 269.26C333.931 268.584 334.983 265.043 337.259 265.733C342.874 267.424 349.307 268.551 355.05 266.855C351.127 259.254 347.377 251.554 343.013 244.189C341.278 241.265 339.45 238.405 337.556 235.579C337.438 235.674 337.35 235.78 337.203 235.863C328.424 240.383 318.723 242.76 308.832 242.114C306.465 241.964 306.579 238.27 308.961 238.433C318.232 239.036 327.223 236.864 335.454 232.632C335.467 232.617 335.482 232.629 335.508 232.613C329.701 224.314 323.288 216.435 316.604 208.818C315.464 207.52 314.284 206.241 313.104 204.975C312.941 205.494 312.548 205.949 311.817 206.072C304.562 207.316 297.944 210.479 291.504 213.919C289.408 215.061 287.644 211.817 289.742 210.702Z" fill="white" fill-opacity="0.4"/>
<path d="M371.446 346.079C356.949 330.53 344.557 313.971 329.202 299.561C342.474 278.535 347.671 239.083 344.3 234.96C336.718 225.703 327.14 240.135 325.25 247.158C321.835 259.872 323.682 286.46 325.894 296.533C324.069 294.9 322.222 293.311 320.289 291.743C316.079 288.329 311.87 284.892 307.661 281.456C311.591 274.004 320.74 258.584 315.65 233.456C314.791 229.247 313.266 223.727 308.777 222.095C302.549 219.84 302.077 226.82 301.926 231.244C301.647 238.825 302.442 264.855 302.141 276.967C293.722 270.095 285.261 263.223 276.799 256.393C281.545 240.801 287.237 221.88 280.257 206.052C275.682 195.701 267.543 204.334 265.717 211.185C262.474 223.448 264.88 237.837 269.239 250.358C265.223 247.158 261.229 243.958 257.191 240.78C256.482 240.221 255.731 239.663 255.022 239.104C258.007 231.652 261.701 224.78 261.98 216.468C262.259 208.286 258.694 200.833 253.433 194.734C251.113 192.05 248.665 188.484 244.778 188.033C239.323 187.389 241.621 193.231 242.63 196.774C244.799 204.334 246.603 212.173 247.935 219.883C248.665 224.157 249.502 228.13 250.576 232.168C250.855 233.22 251.027 234.659 251.199 236.162C245.422 231.738 239.559 227.421 233.588 223.19C233.953 209.424 234.319 192.78 225.084 181.483C219.027 174.052 214.324 182.944 214.388 188.935C214.474 198.235 218.383 207.878 223.58 216.275C220.939 214.492 218.297 212.731 215.634 210.992C211.103 195.507 205.733 176.264 191.323 167.029C182.152 161.145 180.176 172.635 182.346 179.185C184.493 185.65 188.38 191.684 193.105 197.118C191.838 196.388 190.593 195.615 189.325 194.906C186.34 193.209 183.333 191.62 180.284 190.138C178.244 176.479 175.709 159.921 164.606 150.342C157.347 144.093 154.254 153.65 155.371 159.534C157.132 168.876 162.888 177.897 169.653 185.37C164.885 183.395 160.053 181.591 155.199 179.872C151.828 169.113 147.683 156.141 137.546 149.827C130.888 145.682 129.599 153.8 131.232 158.439C133.615 165.161 138.641 171.217 144.397 176.178C139.049 174.374 133.68 172.613 128.332 170.745C125.24 166.707 121.675 162.713 118.475 159.298C114.716 155.26 109.905 151.352 103.999 151.846C96.2035 152.511 94.6786 158.031 99.0598 164.087C101.057 166.858 103.72 168.705 106.727 170.015C103.699 170.573 100.885 171.733 99.0169 173.494C93.884 178.283 98.5874 182.922 104.15 183.974C110.335 185.156 116.713 182.815 122.727 181.655C127.173 180.796 131.876 181.225 136.343 180.817C139.887 182.02 143.43 183.201 146.974 184.425C137.76 183.846 127.624 184.941 120.021 189.451C115.79 191.942 111.581 199.008 119.355 200.103C131.811 201.843 143.903 193.66 153.653 187.411L153.76 186.809C163.704 190.374 173.497 194.283 182.968 199.33C179.79 199.33 176.654 199.652 173.691 200.404C168.278 201.778 161.406 208.114 169.524 211.808C179.962 216.554 192.182 214.256 203.135 211.271C212.992 217.435 222.678 223.942 232.171 230.707C221.841 227.078 210.072 225.102 199.935 227.636C194.136 229.096 186.748 235.904 195.468 239.856C209.449 246.213 226.415 240.801 239.988 236.871L240.16 236.506C244.563 239.77 248.923 243.056 253.196 246.428C255.28 248.06 257.298 249.735 259.36 251.368C245.207 246.063 229.229 242.82 215.677 245.698C207.924 247.33 198.324 255.942 210.265 261.59C229.358 270.632 251.886 264.447 269.948 259.937C275.833 264.747 281.696 269.601 287.58 274.412C273.556 273.918 244.52 271.169 235.092 271.061C230.668 271.018 220.316 272.049 222.807 279.158C224.182 283.088 232.171 286.439 236.015 287.341C244.584 289.381 276.09 286.46 296.665 281.821C300.853 285.214 305.062 288.586 309.314 291.915C310.882 293.139 312.428 294.385 313.932 295.652C293.229 293.096 252.509 290.841 242.694 294.063C237.712 295.695 229.98 299.668 231.204 306.025C232.493 312.618 242.566 312.232 247.741 313.284C259.661 315.732 297.373 309.333 304.181 307.142C309.443 305.445 314.555 302.546 319.623 300.613C322.995 303.641 326.216 306.777 329.352 309.955C313.073 313.306 275.833 318.396 264.171 320.973C258.866 322.154 246.775 326.32 251.736 334.116C254.485 338.433 264.987 340.194 269.841 340.216C280.128 340.259 313.889 329.112 337.255 318.288C346.92 328.79 356.047 339.765 366.098 350.546C369.148 353.789 374.495 349.365 371.446 346.079Z" fill="url(#paint2_linear_2509_1245)"/>
<path d="M714.068 213.154C696.947 210.816 709.512 200.52 718.747 195.447C726.216 191.342 745.364 183.015 734.096 171.262C722.283 158.948 718.226 178.472 711.92 182.036C697.826 189.995 709.172 167.381 711.767 161.454C715.313 153.331 722.853 136.666 708.95 137.407C697.692 138.008 689.993 155.655 687.244 164.195C685.29 170.288 683.221 197.169 673.757 193.518C666.585 190.74 667.19 164.154 656.559 185.529C652.241 194.217 655.917 205.708 655.131 214.682C653.99 227.818 653.492 233.274 641.907 232.647C635.903 232.319 634.094 225.307 628.254 231.684C625.249 234.971 626.803 246.51 627.736 250.417C636.346 286.382 656.335 307.17 663.85 308.709C674.026 310.793 689.713 300.747 696.537 294.414C699.932 291.266 706.208 285.905 704.384 280.313C702.335 274.058 692.679 277.252 691.458 273.583C687.962 263.181 709.898 268.814 714.968 266.037C721.538 262.44 730.268 247.204 721.367 242.277C720.449 241.773 689.331 246.642 704.594 232.843C713.034 225.205 726.897 237.775 733.784 224.97C743.669 206.56 720.485 214.031 714.068 213.154Z" fill="url(#paint3_linear_2509_1245)"/>
<path d="M712.772 219.424C705.357 218.133 697.761 217.171 690.264 218.248C693.945 210.58 697.882 202.911 700.163 194.823C700.808 192.54 697.168 191.908 696.533 194.174C696.259 195.154 695.913 196.136 695.595 197.112C694.515 195.042 694.436 191.61 694.234 189.809C693.717 185.161 694.475 180.705 695.296 176.148C695.716 173.817 692.083 173.154 691.667 175.499C690.602 181.415 689.97 186.973 690.924 192.952C691.39 195.894 691.951 199.058 694.176 201.063C690.516 210.615 685.347 219.829 681.4 229.191C678.004 225.839 675.233 222.156 673.325 217.687C671.241 212.828 670.657 207.522 668.958 202.532C668.196 200.289 664.722 201.551 665.501 203.805C667.562 209.8 668.238 216 671.174 221.692C673.399 225.988 676.413 229.543 679.911 232.843C675.472 244.036 671.623 255.494 669.018 267.25C668.148 271.16 667.442 275.103 666.795 279.048C662.277 274.81 658.297 270.233 655.033 264.917C653.218 261.959 651.238 258.851 650.04 255.592C649.126 253.126 648.844 250.672 647.278 248.485C645.901 246.556 642.866 248.662 644.257 250.588C646.163 253.254 646.645 257.194 648.15 260.168C649.602 263.039 651.241 265.852 652.97 268.559C656.53 274.107 660.978 278.847 665.872 283.227C665.945 283.296 666.019 283.308 666.09 283.363C665.019 290.183 664.02 297 662.633 303.75C662.456 303.977 662.303 304.242 662.242 304.599C662.128 305.342 661.818 306.416 661.833 307.286C659.761 321.038 657.646 334.786 655.75 348.555C655.434 350.905 659.05 351.557 659.379 349.204C661.271 335.479 663.382 321.775 665.44 308.083C665.454 308.023 665.489 307.986 665.5 307.912C666.329 304.255 667.023 300.572 667.653 296.861C674.574 297.006 681.404 293.421 686.926 289.565C688.875 288.212 686.769 285.177 684.823 286.544C680.017 289.904 674.258 292.984 668.273 293.167C669.625 284.721 670.782 276.235 672.628 267.875C673.363 264.555 674.205 261.267 675.122 257.991C675.263 258.044 675.381 258.118 675.546 258.151C685.297 259.702 695.256 258.93 704.45 255.227C706.651 254.345 705.389 250.871 703.177 251.77C694.559 255.239 685.339 255.984 676.198 254.535C676.181 254.524 676.171 254.541 676.14 254.534C679.065 244.837 682.696 235.348 686.666 226.025C687.344 224.436 688.065 222.851 688.79 221.281C689.107 221.723 689.622 222.033 690.355 221.92C697.636 220.837 704.911 221.773 712.103 223.029C714.451 223.46 715.113 219.827 712.772 219.424Z" fill="white" fill-opacity="0.4"/>
<path d="M656.196 346.079C670.692 330.53 683.084 313.971 698.44 299.561C685.167 278.535 679.97 239.083 683.342 234.96C690.923 225.703 700.501 240.135 702.391 247.158C705.806 259.872 703.959 286.46 701.747 296.533C703.573 294.9 705.42 293.311 707.352 291.743C711.562 288.329 715.771 284.892 719.981 281.456C716.05 274.004 706.901 258.584 711.991 233.456C712.85 229.247 714.375 223.727 718.864 222.095C725.092 219.84 725.564 226.82 725.715 231.244C725.994 238.825 725.199 264.855 725.5 276.967C733.919 270.095 742.38 263.223 750.842 256.393C746.096 240.801 740.405 221.88 747.384 206.052C751.959 195.701 760.098 204.334 761.924 211.185C765.167 223.448 762.762 237.837 758.402 250.358C762.418 247.158 766.413 243.958 770.45 240.78C771.159 240.221 771.911 239.663 772.619 239.104C769.634 231.652 765.94 224.78 765.661 216.468C765.382 208.286 768.947 200.833 774.208 194.734C776.528 192.05 778.976 188.484 782.863 188.033C788.318 187.389 786.02 193.231 785.011 196.774C782.842 204.334 781.038 212.173 779.706 219.883C778.976 224.157 778.139 228.13 777.065 232.168C776.786 233.22 776.614 234.659 776.442 236.162C782.219 231.738 788.082 227.421 794.053 223.19C793.688 209.424 793.322 192.78 802.557 181.483C808.614 174.052 813.317 182.944 813.253 188.935C813.167 198.235 809.258 207.878 804.061 216.275C806.702 214.492 809.344 212.731 812.007 210.992C816.538 195.507 821.908 176.264 836.318 167.029C845.489 161.145 847.464 172.635 845.295 179.185C843.148 185.65 839.26 191.684 834.536 197.118C835.803 196.388 837.048 195.615 838.316 194.906C841.301 193.209 844.307 191.62 847.357 190.138C849.397 176.479 851.932 159.921 863.035 150.342C870.294 144.093 873.386 153.65 872.27 159.534C870.509 168.876 864.753 177.897 857.988 185.37C862.756 183.395 867.588 181.591 872.441 179.872C875.813 169.113 879.958 156.141 890.095 149.827C896.753 145.682 898.041 153.8 896.409 158.439C894.025 165.161 889 171.217 883.244 176.178C888.592 174.374 893.961 172.613 899.308 170.745C902.401 166.707 905.966 162.713 909.166 159.298C912.924 155.26 917.735 151.352 923.641 151.846C931.437 152.511 932.962 158.031 928.581 164.087C926.583 166.858 923.92 168.705 920.914 170.015C923.942 170.573 926.755 171.733 928.624 173.494C933.757 178.283 929.053 182.922 923.491 183.974C917.306 185.156 910.927 182.815 904.914 181.655C900.468 180.796 895.765 181.225 891.298 180.817C887.754 182.02 884.211 183.201 880.667 184.425C889.88 183.846 900.017 184.941 907.62 189.451C911.851 191.942 916.06 199.008 908.286 200.103C895.829 201.843 883.738 193.66 873.988 187.411L873.88 186.809C863.937 190.374 854.144 194.283 844.673 199.33C847.851 199.33 850.987 199.652 853.95 200.404C859.362 201.778 866.235 208.114 858.117 211.808C847.679 216.554 835.459 214.256 824.506 211.271C814.649 217.435 804.963 223.942 795.47 230.707C805.8 227.078 817.569 225.102 827.706 227.636C833.505 229.096 840.893 235.904 832.173 239.856C818.192 246.213 801.226 240.801 787.653 236.871L787.481 236.506C783.078 239.77 778.719 243.056 774.445 246.428C772.361 248.06 770.343 249.735 768.281 251.368C782.434 246.063 798.412 242.82 811.964 245.698C819.717 247.33 829.317 255.942 817.376 261.59C798.284 270.632 775.755 264.447 757.693 259.937C751.809 264.747 745.946 269.601 740.061 274.412C754.085 273.918 783.121 271.169 792.549 271.061C796.973 271.018 807.325 272.049 804.834 279.158C803.459 283.088 795.47 286.439 791.626 287.341C783.057 289.381 751.551 286.46 730.977 281.821C726.789 285.214 722.579 288.586 718.327 291.915C716.759 293.139 715.213 294.385 713.709 295.652C734.413 293.096 775.132 290.841 784.947 294.063C789.929 295.695 797.661 299.668 796.437 306.025C795.148 312.618 785.076 312.232 779.9 313.284C767.98 315.732 730.268 309.333 723.46 307.142C718.198 305.445 713.087 302.546 708.018 300.613C704.646 303.641 701.425 306.777 698.289 309.955C714.569 313.306 751.809 318.396 763.47 320.973C768.775 322.154 780.866 326.32 775.905 334.116C773.156 338.433 762.654 340.194 757.801 340.216C747.513 340.259 713.752 329.112 690.386 318.288C680.722 328.79 671.594 339.765 661.543 350.546C658.494 353.789 653.146 349.365 656.196 346.079Z" fill="url(#paint4_linear_2509_1245)"/>
<path d="M917.697 416.349L959.233 286.266L860.333 277.891L703.92 400.049L689.23 437.203L832.371 455.2L822.342 486.878L818.304 499.571L890.658 506.465L904.94 464.65L939.066 466.411L954.894 420.666L930.755 417.874L917.697 416.349ZM856.103 377.541L846.138 407.48L822.556 404.688L784.135 400.135L872.317 328.747L856.103 377.541Z" fill="url(#paint5_linear_2509_1245)"/>
<path d="M689.23 437.225L692.13 470.535L822.342 486.9L832.371 455.222L689.23 437.225ZM784.135 400.156L822.556 404.709L856.103 377.542L872.317 328.747L784.135 400.156ZM939.045 466.411L904.919 464.65L890.637 506.465L818.283 499.571L821.182 532.881L893.536 539.775L907.818 497.96L941.944 499.721L957.772 453.976L954.873 420.666L939.045 466.411ZM917.697 416.35L930.733 417.874L962.11 319.577L959.211 286.267L917.697 416.35Z" fill="url(#paint6_linear_2509_1245)"/>
<path d="M239.491 398.481L271.942 265.842L172.699 264.318L25.0912 396.978L13 435.055L157.043 443.131L149.204 475.431L146.047 488.382L218.702 490.271L230.063 447.576L264.232 446.975L276.881 400.242L252.613 399.125L239.491 398.481ZM175.362 364.011L167.48 394.572L143.77 393.413L105.134 391.523L188.184 314.207L175.362 364.011Z" fill="url(#paint7_linear_2509_1245)"/>
<path d="M13 435.055L18.1973 468.086L149.225 475.431L157.064 443.131L13 435.055ZM105.134 391.544L143.77 393.434L175.362 364.033L188.184 314.25L105.134 391.544ZM264.232 446.953L230.063 447.555L218.702 490.25L146.047 488.36L151.244 521.391L223.899 523.281L235.26 480.586L269.429 479.984L282.079 433.251L276.881 400.221L264.232 446.953ZM239.491 398.481L252.613 399.104L277.139 298.873L271.942 265.843L239.491 398.481Z" fill="url(#paint8_linear_2509_1245)"/>
<path d="M696.343 377.892C696.343 417.237 673.878 452.91 637.476 478.961C634.447 481.108 631.355 483.234 628.133 485.232C626.244 486.413 624.375 487.551 622.421 488.647C621.819 489.055 621.218 489.377 620.574 489.763C617.009 491.804 613.379 493.758 609.621 495.605C606.807 497.022 603.908 498.354 600.987 499.642C596.692 501.597 592.289 503.401 587.801 505.076C580.885 507.739 573.691 510.08 566.281 512.099C565.551 512.335 564.778 512.528 564.026 512.743C555.801 514.955 547.296 516.802 538.577 518.22C531.919 519.358 525.111 520.238 518.217 520.904C513.75 521.312 509.261 521.634 504.708 521.806C504.064 521.849 503.463 521.871 502.818 521.914C498.824 522.107 494.786 522.193 490.727 522.193H488.3C375.914 521.291 285.176 457.055 285.176 377.914C285.176 298.258 377.224 233.699 490.706 233.699C604.316 233.657 696.343 298.236 696.343 377.892Z" fill="url(#paint9_linear_2509_1245)"/>
<path d="M626.332 377.892C626.332 403.836 611.513 427.353 587.524 444.534C585.526 445.951 583.486 447.347 581.36 448.679C580.114 449.452 578.89 450.204 577.602 450.934C577.194 451.191 576.807 451.428 576.377 451.664C574.037 453.017 571.631 454.306 569.161 455.508C567.293 456.432 565.403 457.334 563.47 458.171C560.635 459.46 557.736 460.641 554.772 461.758C550.219 463.498 545.473 465.065 540.576 466.375C540.082 466.526 539.588 466.655 539.094 466.805C533.661 468.265 528.077 469.489 522.321 470.413C517.94 471.165 513.451 471.744 508.898 472.174C505.956 472.432 502.992 472.668 500.007 472.775C499.578 472.797 499.191 472.818 498.762 472.84C496.12 472.969 493.478 473.012 490.794 473.012H489.205C415.089 472.41 355.277 430.059 355.277 377.871C355.277 325.361 415.97 282.773 490.815 282.773C565.639 282.795 626.332 325.382 626.332 377.892Z" fill="url(#paint10_linear_2509_1245)"/>
<path d="M585.826 353.344L579.769 381.779L578.653 386.977L527.302 350.896L534.561 318.596L523.974 309.747L489.16 473.054H490.749C493.434 473.054 496.076 473.011 498.717 472.882C499.147 472.861 499.533 472.84 499.963 472.818L503.571 456.689L522.277 470.434C528.033 469.511 533.638 468.286 539.05 466.826C539.544 466.697 540.038 466.568 540.532 466.397L506.706 442.622L513.794 411.116L565.445 449.001L563.469 458.193C565.402 457.355 567.291 456.474 569.16 455.53C571.63 454.305 575.259 452.287 577.6 450.955L596.414 362.214L585.826 353.344ZM568.773 433.452L517.015 397.049L524.188 364.899L575.388 402.504L568.773 433.452Z" fill="white"/>
<path d="M525.84 350.875L584.234 391.917L592.395 390.864L535.504 350.875H525.84Z" fill="#E0E7EE"/>
<path d="M520.512 399.885L578.906 440.926L587.067 439.874L530.155 399.885H520.512Z" fill="#E0E7EE"/>
<path d="M604.894 362.193L587.52 444.534C585.522 445.951 583.482 447.347 581.356 448.679C580.11 449.452 578.886 450.204 577.598 450.934L596.411 362.193H604.894Z" fill="#E0E7EE"/>
<path d="M596.416 362.193L585.828 353.345H594.333L604.899 362.193H596.416Z" fill="#E0E7EE"/>
<path d="M534.559 318.574H543.063L532.475 309.705H523.992L534.559 318.574Z" fill="#E0E7EE"/>
<path d="M534.558 318.574H543.063L535.803 350.875H527.32L534.558 318.574Z" fill="#E0E7EE"/>
<path fill-rule="evenodd" clip-rule="evenodd" d="M486.283 472.966C484.471 457.767 482.097 442.675 479.129 427.675C467.639 399.67 469.507 386.977 469.507 386.977H469.529C469.379 386.44 469.234 385.903 469.089 385.366C468.944 384.829 468.799 384.293 468.648 383.756L492.53 387.106L542.678 387.385C541.69 393.119 543.558 398.789 547.209 404.416C548.777 406.327 550.517 408.539 552.321 411.095C559.322 420.986 567.294 435.691 570.853 454.666C570.293 454.951 569.729 455.232 569.161 455.508C567.293 456.432 565.403 457.334 563.47 458.171C560.635 459.46 557.736 460.641 554.772 461.758C550.314 463.461 545.67 465 540.881 466.293C537.478 450.615 529.325 435.134 514.672 419.664L513.728 419.879C515.268 436.747 516.413 453.847 517.033 471.231C514.351 471.603 511.636 471.916 508.898 472.174C505.956 472.432 502.992 472.668 500.007 472.775C499.792 472.786 499.588 472.797 499.383 472.808C499.18 472.818 498.976 472.829 498.762 472.84C496.12 472.969 493.478 473.012 490.794 473.012H489.205C488.228 473.004 487.254 472.988 486.283 472.966Z" fill="#1A1715"/>
<path d="M533.677 238.876C530.155 227.45 522.939 218.258 517.333 207.906C515.894 205.243 514.133 202.688 512.823 199.939C512.308 198.843 509.58 193.517 506.767 188.041C502.858 180.438 494.504 177.131 487.052 180.245C482.563 182.113 479.041 186.065 477.409 191.047C474.789 199.101 469.527 209.732 466.584 213.147C461.129 219.482 454.472 225.539 450.413 233.077C448.072 237.437 448.05 242.312 446.719 247.015C448.072 242.956 452.775 239.778 455.975 237.415C456.448 240.959 454.601 246.242 454.236 249.893C453.634 255.928 454.515 261.533 456.491 267.181C460.915 279.81 469.935 288.443 477.215 299.138C478.933 301.651 480.072 304.379 481.962 306.784C482.627 307.622 483.809 309.791 484.797 309.748C486.171 309.705 489.629 305.195 490.574 304.293C499.68 295.487 511.277 290.226 517.935 278.8C522.402 271.133 523.69 262.543 526.676 254.382C528.265 258.977 527.599 264.196 528.823 268.857C532.882 259.02 536.92 249.378 533.677 238.876Z" fill="#1A1715"/>
<path d="M524.639 256.272C521.417 258.634 521.31 262.844 521.847 266.129C522.212 268.384 522.985 270.511 523.995 272.551C527.366 279.359 539.887 303.864 549.702 313.571C554.019 317.845 560.634 318.639 565.852 315.547C577.385 308.674 596.693 296.647 601.89 290.269C601.181 289.345 601.439 289.646 600.494 288.443C599.549 287.262 597.573 284.492 596.284 283.096C589.004 288.937 560.784 294.092 560.784 294.092C560.784 294.092 544.226 269.308 540.746 259.493C538.685 253.995 532.821 250.258 524.639 256.272Z" fill="url(#paint11_linear_2509_1245)"/>
<path d="M601.889 290.247C611.403 285.158 619.156 278.908 621.325 267.697C621.711 265.721 618.017 263.488 615.054 265.507C612.09 267.525 607.73 272.465 606.141 276.395C605.733 274.935 606.442 272.336 605.948 271.026C605.475 269.716 605.153 267.826 602.748 269.909C600.342 272.014 597.293 279.058 596.391 282.967C598.13 285.523 600.085 287.735 601.889 290.247Z" fill="#FAB9B5"/>
<path d="M492.847 254.704C495.811 257.367 495.51 261.576 494.651 264.798C494.072 266.988 493.084 269.05 491.881 270.983C487.843 277.426 472.982 300.577 462.265 309.275C457.562 313.098 450.882 313.249 446.007 309.641C435.205 301.651 417.186 287.799 412.633 280.948C413.427 280.11 413.148 280.368 414.201 279.273C415.253 278.178 417.486 275.622 418.904 274.355C425.583 280.884 453.159 288.787 453.159 288.787C453.159 288.787 472.08 265.743 476.504 256.314C479.102 251.074 485.288 247.917 492.847 254.704Z" fill="url(#paint12_linear_2509_1245)"/>
<path d="M412.633 280.926C403.678 274.913 396.569 267.955 395.495 256.594C395.302 254.596 399.189 252.728 401.938 255.026C404.687 257.324 408.531 262.671 409.734 266.73C410.292 265.313 409.841 262.671 410.443 261.404C411.044 260.159 411.56 258.29 413.75 260.61C415.941 262.929 418.282 270.253 418.797 274.226C416.843 276.588 414.674 278.607 412.633 280.926Z" fill="#FAB9B5"/>
<path d="M544.285 392.045C538.228 396.169 531.549 398.703 524.419 400.013C505.111 403.557 482.84 398.102 462.953 390.306C462.953 390.306 466.368 377.892 471.544 366.574C477.407 353.624 484.387 340.996 483.678 326.413C483.334 319.627 481.187 312.539 478.652 306.333C476.569 301.286 475.839 296.174 476.72 290.762C477.364 286.746 478.609 282.838 479.404 278.864C480.65 272.142 488.918 251.89 488.918 251.89L493.45 254.059L498.282 256.336C499.248 256.228 501.353 255.562 501.804 254.639C501.868 254.51 501.911 254.381 501.911 254.231L501.761 251.396L516.816 251.589L517.052 253.952C517.246 255.713 516.966 257.066 518.835 257.152C520.295 257.216 522.099 256.765 523.817 256.185C526.631 255.219 529.208 253.866 529.573 253.887C529.659 253.887 540.161 291.106 538.421 300.556C536.424 311.53 530.797 319.67 529.659 331.138C529.294 334.66 529.981 340.33 531.119 343.659C538.013 364.47 544.285 392.045 544.285 392.045Z" fill="url(#paint13_linear_2509_1245)"/>
<path d="M508.892 282.666C508.892 282.666 492.312 283.181 493.429 254.038L498.261 256.314C499.228 256.207 501.332 255.541 501.783 254.618C501.848 254.489 501.891 254.36 501.891 254.21L501.74 251.375L516.795 251.568L517.032 253.93C517.225 255.692 516.946 257.045 518.814 257.13C520.275 257.195 522.079 256.744 523.797 256.164C525.515 269.093 519.394 282.322 508.892 282.666Z" fill="#FAB9B5"/>
<path d="M501.892 254.21C508.614 255.842 513.318 254.596 516.775 251.547L515.959 240.164L500.883 243.643L501.892 254.21Z" fill="#F7ADAB"/>
<path d="M533.995 212.76C532.985 212.674 531.826 213.039 530.687 213.684C529.227 206.897 525.662 199.681 521.259 194.699C519.412 192.229 517.286 190.618 514.945 189.63C513.678 189.007 512.411 188.599 511.144 188.47C510.263 188.384 509.404 188.363 508.545 188.363C507.686 188.341 506.827 188.363 505.946 188.449C504.679 188.556 503.391 188.943 502.124 189.544C499.783 190.489 497.635 192.078 495.767 194.527C491.3 199.445 487.648 206.618 486.124 213.383C484.985 212.717 483.847 212.331 482.816 212.417C479.402 212.696 478.263 218.022 479.187 222.081C480.347 227.214 484.255 228.846 487.885 229.898C489.538 233.313 491.858 236.642 494.564 239.455C497.399 242.784 501.05 245.276 505.216 246.306C505.345 246.349 505.453 246.371 505.581 246.392C505.818 246.457 506.054 246.521 506.312 246.564C506.483 246.586 506.655 246.586 506.805 246.607C506.956 246.629 507.085 246.629 507.235 246.65C507.557 246.672 507.879 246.693 508.201 246.693C508.524 246.693 508.846 246.672 509.168 246.65C509.318 246.629 509.447 246.629 509.597 246.607C509.769 246.586 509.941 246.586 510.091 246.564C510.349 246.521 510.585 246.457 510.822 246.392C510.95 246.371 511.058 246.349 511.187 246.306C515.375 245.34 519.069 242.892 521.925 239.606C524.652 236.835 527.036 233.528 528.712 230.156C532.341 229.168 536.271 227.579 537.495 222.446C538.483 218.43 537.409 213.082 533.995 212.76Z" fill="#FAB9B5"/>
<path d="M500.435 222.79C501.585 222.79 502.518 221.857 502.518 220.706C502.518 219.556 501.585 218.623 500.435 218.623C499.284 218.623 498.352 219.556 498.352 220.706C498.352 221.857 499.284 222.79 500.435 222.79Z" fill="#1A1715"/>
<path d="M517.29 222.897C518.441 222.897 519.373 221.964 519.373 220.814C519.373 219.663 518.441 218.731 517.29 218.731C516.14 218.731 515.207 219.663 515.207 220.814C515.207 221.964 516.14 222.897 517.29 222.897Z" fill="#1A1715"/>
<path d="M496.292 216.905C496.271 216.905 496.249 216.883 496.228 216.883C495.927 216.755 495.777 216.39 495.906 216.089C497.538 212.438 500.888 212.588 502.456 213.168C502.778 213.297 502.928 213.641 502.8 213.941C502.671 214.263 502.37 214.414 502.005 214.306C501.898 214.263 498.59 213.082 497.022 216.604C496.915 216.862 496.593 217.012 496.292 216.905Z" fill="#1A1715"/>
<path d="M514.133 211.944C514.112 211.923 514.112 211.901 514.09 211.88C513.94 211.579 514.069 211.214 514.37 211.064C517.978 209.26 520.49 211.493 521.306 212.911C521.478 213.211 521.371 213.576 521.07 213.727C520.77 213.898 520.426 213.813 520.233 213.512C520.168 213.404 518.386 210.419 514.906 212.137C514.627 212.288 514.284 212.202 514.133 211.944Z" fill="#1A1715"/>
<path d="M501.608 232.218C501.586 232.196 501.586 232.175 501.565 232.153C501.371 231.788 501.522 231.337 501.908 231.144C506.354 228.932 509.404 231.659 510.434 233.42C510.649 233.785 510.52 234.236 510.155 234.43C509.79 234.644 509.361 234.537 509.124 234.151C509.06 234.022 506.848 230.349 502.595 232.475C502.252 232.647 501.822 232.54 501.608 232.218Z" fill="#1A1715"/>
<path d="M510.527 229.383C510.205 229.383 509.926 229.125 509.926 228.803C509.926 228.481 510.184 228.223 510.527 228.223C510.549 228.223 511.665 228.202 511.966 227.601C512.095 227.321 512.245 226.462 510.592 224.401C510.398 224.143 510.441 223.778 510.699 223.563C510.957 223.37 511.322 223.413 511.537 223.67C513.083 225.582 513.577 227.042 513.04 228.116C512.417 229.383 510.613 229.383 510.527 229.383Z" fill="#1A1715"/>
<path d="M532.558 200.003C530.969 193.023 525.578 186.623 518.19 184.111C510.931 181.641 501.611 182.156 494.996 185.957C486.642 190.768 480.499 202.731 484.795 212.352C486.169 215.423 487.178 219.976 489.627 222.382C490.765 218.859 490.121 215.015 491.56 211.686C494.158 211.278 496.8 210.419 499.205 209.582C502.856 208.314 506.636 205.931 509.578 203.439C511.962 201.421 513.53 199.273 515.291 196.803C513.895 199.81 516.064 205.437 518.147 207.692C519.973 209.646 522.743 210.333 524.59 212.395C526.158 214.156 526.609 216.325 526.695 218.645C526.76 220.556 526.523 222.446 525.986 224.228C526.158 223.627 527.404 222.704 527.79 222.124C528.413 221.243 528.929 220.298 529.401 219.332C530.346 217.356 531.055 215.23 531.506 213.082C532.386 209.131 533.417 203.761 532.558 200.003Z" fill="#1A1715"/>
<defs>
<linearGradient id="paint0_linear_2509_1245" x1="473.991" y1="608.356" x2="473.991" y2="-61.5443" gradientUnits="userSpaceOnUse">
<stop offset="0.00196314" stop-color="#F4D6D6" stop-opacity="0.6"/>
<stop offset="0.3434" stop-color="#F3E1E1" stop-opacity="0.58"/>
<stop offset="0.9968" stop-color="#F2F2F2" stop-opacity="0.69"/>
</linearGradient>
<linearGradient id="paint1_linear_2509_1245" x1="355.404" y1="294.162" x2="265.322" y2="291.941" gradientUnits="userSpaceOnUse">
<stop stop-color="#EE3E3C"/>
<stop offset="1" stop-color="#FF842C"/>
</linearGradient>
<linearGradient id="paint2_linear_2509_1245" x1="89.0042" y1="137.944" x2="214.236" y2="417.329" gradientUnits="userSpaceOnUse">
<stop stop-color="#FFA091"/>
<stop offset="1" stop-color="#FF2D78"/>
</linearGradient>
<linearGradient id="paint3_linear_2509_1245" x1="676.467" y1="319.218" x2="761.348" y2="288.969" gradientUnits="userSpaceOnUse">
<stop stop-color="#EE3E3C"/>
<stop offset="1" stop-color="#FF842C"/>
</linearGradient>
<linearGradient id="paint4_linear_2509_1245" x1="938.636" y1="137.944" x2="813.405" y2="417.329" gradientUnits="userSpaceOnUse">
<stop stop-color="#FFA091"/>
<stop offset="1" stop-color="#FF2D78"/>
</linearGradient>
<linearGradient id="paint5_linear_2509_1245" x1="760.299" y1="540.185" x2="919.326" y2="262.24" gradientUnits="userSpaceOnUse">
<stop offset="0.00194311" stop-color="#574DFF"/>
<stop offset="0.1796" stop-color="#6A6DFF"/>
<stop offset="0.4238" stop-color="#8093FF"/>
<stop offset="0.6499" stop-color="#90AFFF"/>
<stop offset="0.8491" stop-color="#9ABFFF"/>
<stop offset="1" stop-color="#9DC5FF"/>
</linearGradient>
<linearGradient id="paint6_linear_2509_1245" x1="918.355" y1="291.546" x2="1234.23" y2="-252.296" gradientUnits="userSpaceOnUse">
<stop offset="0.00194311" stop-color="#574DFF"/>
<stop offset="0.1796" stop-color="#6A6DFF"/>
<stop offset="0.4238" stop-color="#8093FF"/>
<stop offset="0.6499" stop-color="#90AFFF"/>
<stop offset="0.8491" stop-color="#9ABFFF"/>
<stop offset="1" stop-color="#9DC5FF"/>
</linearGradient>
<linearGradient id="paint7_linear_2509_1245" x1="93.2019" y1="502.901" x2="226.356" y2="293.505" gradientUnits="userSpaceOnUse">
<stop offset="0.00194311" stop-color="#574DFF"/>
<stop offset="0.1796" stop-color="#6A6DFF"/>
<stop offset="0.4238" stop-color="#8093FF"/>
<stop offset="0.6499" stop-color="#90AFFF"/>
<stop offset="0.8491" stop-color="#9ABFFF"/>
<stop offset="1" stop-color="#9DC5FF"/>
</linearGradient>
<linearGradient id="paint8_linear_2509_1245" x1="478.519" y1="-21.907" x2="840.397" y2="-536.267" gradientUnits="userSpaceOnUse">
<stop offset="0.00194311" stop-color="#574DFF"/>
<stop offset="0.1796" stop-color="#6A6DFF"/>
<stop offset="0.4238" stop-color="#8093FF"/>
<stop offset="0.6499" stop-color="#90AFFF"/>
<stop offset="0.8491" stop-color="#9ABFFF"/>
<stop offset="1" stop-color="#9DC5FF"/>
</linearGradient>
<linearGradient id="paint9_linear_2509_1245" x1="351.791" y1="552.876" x2="563.335" y2="286.567" gradientUnits="userSpaceOnUse">
<stop offset="0.00194311" stop-color="#574DFF"/>
<stop offset="0.1796" stop-color="#6A6DFF"/>
<stop offset="0.4238" stop-color="#8093FF"/>
<stop offset="0.6499" stop-color="#90AFFF"/>
<stop offset="0.8491" stop-color="#9ABFFF"/>
<stop offset="1" stop-color="#9DC5FF"/>
</linearGradient>
<linearGradient id="paint10_linear_2509_1245" x1="482.108" y1="390.106" x2="760.229" y2="-0.766022" gradientUnits="userSpaceOnUse">
<stop offset="0.00194311" stop-color="#574DFF"/>
<stop offset="0.1796" stop-color="#6A6DFF"/>
<stop offset="0.4238" stop-color="#8093FF"/>
<stop offset="0.6499" stop-color="#90AFFF"/>
<stop offset="0.8491" stop-color="#9ABFFF"/>
<stop offset="1" stop-color="#9DC5FF"/>
</linearGradient>
<linearGradient id="paint11_linear_2509_1245" x1="581.097" y1="322.135" x2="524.044" y2="311.575" gradientUnits="userSpaceOnUse">
<stop stop-color="#EE3E3C"/>
<stop offset="1" stop-color="#FF842C"/>
</linearGradient>
<linearGradient id="paint12_linear_2509_1245" x1="473.848" y1="316.758" x2="415.451" y2="305.129" gradientUnits="userSpaceOnUse">
<stop stop-color="#EE3E3C"/>
<stop offset="1" stop-color="#FF842C"/>
</linearGradient>
<linearGradient id="paint13_linear_2509_1245" x1="523.222" y1="412.112" x2="463.832" y2="407.335" gradientUnits="userSpaceOnUse">
<stop stop-color="#EE3E3C"/>
<stop offset="1" stop-color="#FF842C"/>
</linearGradient>
</defs>
</svg>
