<svg width="140" height="50" viewBox="0 0 140 50" fill="none" xmlns="http://www.w3.org/2000/svg">
<rect width="140" height="50" rx="10" fill="white"/>
<path d="M55.086 15.199C52.688 14.714 48.82 14.057 47.74 16.315C44.438 22.034 42.542 28.02 41.115 30.589C41.265 30.676 47.842 34.491 48.307 34.717C49.786 35.435 52.254 35.112 53.306 33.215C56.223 27.953 55.482 29.323 58.581 23.955C60.584 20.485 58.08 15.805 55.086 15.199Z" fill="#EA4535"/>
<path d="M34.334 38.418C32.723 36.576 31.542 32.889 32.957 30.825C37.091 23.664 40.401 19.33 43.003 14.984C44.383 15.781 49.913 18.918 50.281 19.241C51.517 20.325 52.54 22.396 51.423 24.255C48.325 29.412 47.054 31.746 43.905 37.2C41.903 40.671 36.346 40.72 34.334 38.418Z" fill="#FBBD13"/>
<path d="M49.162 11.548C45.94 9.66503 44.284 9.91203 42.552 10.19C40.977 10.584 38.847 11.728 37.949 13.199C35.684 16.909 33.539 20.58 30.76 25.554C29.904 27.086 30.539 28.968 31.329 29.715C31.864 30.221 35.803 32.395 36.53 32.707C37.558 33.149 39.098 32.841 40.027 31.885C40.284 31.621 46.16 21.528 47.814 18.551C48.513 17.295 49.142 16.6 50.186 15.929C52.204 14.87 53.779 14.734 56.192 15.616C56.193 15.618 50.941 12.574 49.162 11.548Z" fill="#2EA94E"/>
<path d="M28.433 35.235C25.192 33.386 24.577 31.829 23.952 30.189C23.506 28.628 23.432 26.211 24.257 24.698C26.337 20.882 26.322 20.863 29.241 15.968C30.14 14.461 32.088 14.07 33.13 14.38C33.836 14.59 37.688 16.915 38.322 17.388C39.219 18.057 39.723 19.545 39.359 20.827C39.259 21.181 35.577 27.643 33.826 30.564C33.087 31.797 32.8 32.689 32.742 33.929C32.834 36.206 33.503 37.639 35.474 39.287C35.472 39.289 30.21 36.263 28.433 35.235Z" fill="#4675BA"/>
<path d="M71.8954 33.2404V14.5822H77.9408C80.2317 14.5822 81.7251 14.6755 82.4208 14.8622C83.4899 15.1422 84.3851 15.7531 85.1063 16.6949C85.8275 17.6283 86.1881 18.8374 86.1881 20.3222C86.1881 21.4677 85.9802 22.4307 85.5644 23.2113C85.1487 23.9919 84.6184 24.607 83.9735 25.0567C83.3372 25.4979 82.6881 25.7907 82.0263 25.9349C81.1269 26.1131 79.8245 26.2022 78.119 26.2022H75.6626V33.2404H71.8954ZM75.6626 17.7386V23.0331H77.7245C79.2093 23.0331 80.202 22.9355 80.7026 22.7404C81.2032 22.5452 81.5935 22.2398 81.8735 21.824C82.162 21.4083 82.3063 20.9246 82.3063 20.3731C82.3063 19.6943 82.1069 19.1343 81.7081 18.6931C81.3093 18.2519 80.8045 17.9761 80.1935 17.8658C79.7439 17.781 78.8402 17.7386 77.4826 17.7386H75.6626ZM91.9281 23.8476L88.6826 23.2622C89.0475 21.9555 89.6753 20.9883 90.5663 20.3604C91.4572 19.7325 92.7808 19.4186 94.5372 19.4186C96.1323 19.4186 97.3202 19.6095 98.1008 19.9913C98.8814 20.3646 99.4287 20.844 99.7426 21.4295C100.065 22.0064 100.226 23.0713 100.226 24.624L100.188 28.7985C100.188 29.9864 100.243 30.8646 100.354 31.4331C100.472 31.9931 100.689 32.5955 101.003 33.2404H97.4644C97.3711 33.0028 97.2565 32.6507 97.1208 32.184C97.0614 31.9719 97.019 31.8319 96.9935 31.764C96.3826 32.3579 95.7293 32.8034 95.0335 33.1004C94.3378 33.3973 93.5953 33.5458 92.8062 33.5458C91.4147 33.5458 90.316 33.1682 89.5099 32.4131C88.7123 31.6579 88.3135 30.7034 88.3135 29.5495C88.3135 28.7858 88.496 28.107 88.8608 27.5131C89.2256 26.9107 89.7347 26.4525 90.3881 26.1386C91.0499 25.8161 92.0002 25.5361 93.239 25.2986C94.9105 24.9846 96.0687 24.6919 96.7135 24.4204V24.064C96.7135 23.3767 96.5438 22.8889 96.2044 22.6004C95.865 22.3034 95.2244 22.1549 94.2826 22.1549C93.6462 22.1549 93.1499 22.2822 92.7935 22.5367C92.4372 22.7828 92.1487 23.2198 91.9281 23.8476ZM96.7135 26.7495C96.2553 26.9022 95.5299 27.0846 94.5372 27.2967C93.5444 27.5089 92.8953 27.7167 92.5899 27.9204C92.1232 28.2513 91.8899 28.6713 91.8899 29.1804C91.8899 29.681 92.0766 30.1137 92.4499 30.4785C92.8232 30.8434 93.2984 31.0258 93.8753 31.0258C94.5202 31.0258 95.1353 30.8137 95.7208 30.3895C96.1535 30.067 96.4378 29.6725 96.5735 29.2058C96.6668 28.9004 96.7135 28.3192 96.7135 27.4622V26.7495ZM102.072 19.724H105.877L109.11 29.3204L112.266 19.724H115.97L111.197 32.7313L110.344 35.0858C110.03 35.8749 109.729 36.4773 109.441 36.8931C109.161 37.3088 108.834 37.644 108.461 37.8985C108.096 38.1616 107.642 38.3652 107.099 38.5094C106.564 38.6537 105.958 38.7258 105.279 38.7258C104.592 38.7258 103.917 38.6537 103.255 38.5094L102.937 35.7094C103.497 35.8197 104.002 35.8749 104.452 35.8749C105.283 35.8749 105.898 35.6288 106.297 35.1367C106.696 34.6531 107.001 34.0337 107.213 33.2785L102.072 19.724Z" fill="#A7A7A7"/>
</svg>
