<svg width="18" height="20" viewBox="0 0 18 20" fill="none" xmlns="http://www.w3.org/2000/svg">
<path d="M9.8196 13.6974C9.8204 14.1338 9.48 14.4782 9.046 14.4802C8.6 14.4826 8.2564 14.1382 8.2588 13.6922C8.2612 13.2574 8.604 12.9186 9.0416 12.9194C9.4768 12.9202 9.8188 13.2622 9.8196 13.6974Z" fill="#2E2E3E" fill-opacity="0.4"/>
<path d="M9.04883 17.2146C8.61083 17.2178 8.26323 16.8806 8.25883 16.4486C8.25443 16.0006 8.59443 15.6538 9.03883 15.6538C9.47523 15.6538 9.81763 15.9942 9.81923 16.429C9.82083 16.8662 9.48203 17.2114 9.04883 17.2146Z" fill="#2E2E3E" fill-opacity="0.4"/>
<path d="M17.9366 19.1161C17.9138 18.7293 17.5926 18.4261 17.2046 18.4261H16.2134L16.2142 17.9665C16.215 17.7073 16.2154 17.4573 16.2134 17.2073C16.2106 16.7949 15.8946 16.4837 15.4786 16.4837C15.0762 16.4865 14.7582 16.8017 14.7558 17.2009C14.751 17.4361 14.7518 17.6701 14.7522 17.9033L14.7526 18.4265H3.32584V17.3753C3.31424 16.0705 3.75904 14.8609 4.64824 13.7805C5.29704 12.9961 6.12584 12.3693 7.18224 11.8637C7.51584 11.7049 7.75264 11.4941 7.90584 11.2201C8.23744 10.6281 8.30264 9.9721 8.10544 9.2153C7.96544 8.6789 7.61424 8.3049 6.96624 8.0029C5.86304 7.4833 4.97863 6.7657 4.33663 5.8697C4.04943 5.4697 3.83744 5.0733 3.68984 4.6577L3.66583 4.5909H11.0978C11.249 4.5897 11.4002 4.5905 11.5534 4.5901C11.8054 4.5901 12.0678 4.5905 12.327 4.5849C12.6946 4.5793 12.9926 4.2933 13.0206 3.9185C13.0354 3.7041 12.969 3.5057 12.8334 3.3601C12.693 3.2101 12.4902 3.1269 12.2614 3.1269H3.33783V1.4785H14.7498V1.5285C14.7498 1.6729 14.7514 1.8157 14.753 1.9573C14.7562 2.2725 14.7594 2.5701 14.7466 2.8745C14.7034 4.0057 14.3734 5.0233 13.7666 5.8989C13.1018 6.8581 12.1694 7.5813 10.9154 8.1085C10.4906 8.2881 10.201 8.5925 10.0282 9.0397C9.88504 9.4029 9.83624 9.8033 9.87824 10.2653C9.95904 11.0837 10.321 11.6213 10.9854 11.9077C11.259 12.0297 11.5142 12.1865 11.7738 12.3501C12.5498 12.8353 13.1982 13.4317 13.7002 14.1225C13.915 14.4157 14.2034 14.5329 14.5126 14.4489C14.7554 14.3817 14.9402 14.2149 15.0194 13.9921C15.1018 13.7601 15.0594 13.5009 14.903 13.2813C14.1218 12.1833 13.0526 11.2965 11.7254 10.6453C11.4398 10.5021 11.3262 10.3057 11.3334 9.9677C11.3354 9.9177 11.3426 9.8697 11.3498 9.8229C11.3554 9.7865 11.361 9.7509 11.3634 9.7153C11.3754 9.5465 11.4774 9.4717 11.5866 9.4157C11.665 9.3765 11.7438 9.3385 11.8222 9.2997C12.1746 9.1269 12.539 8.9489 12.8722 8.7353C14.6434 7.6013 15.7314 6.0005 16.1066 3.9781C16.217 3.3909 16.2154 2.7861 16.2138 2.2009C16.2134 2.0577 16.213 1.9141 16.2142 1.7709C16.2162 1.7149 16.2158 1.6617 16.215 1.6053L16.2142 1.4629H17.1662C17.6182 1.4601 17.9342 1.1589 17.9342 0.7309C17.9342 0.3017 17.6186 0.0021 17.1662 0.0021C11.7514 -0.0007 6.25904 -0.0007 0.841435 0.0021C0.388635 0.0021 0.0702352 0.2997 0.0674352 0.7253C0.0658352 0.9377 0.139835 1.1205 0.281435 1.2549C0.422235 1.3881 0.623035 1.4625 0.847435 1.4637H1.86504V1.5137C1.86504 1.6585 1.86424 1.8013 1.86384 1.9421C1.86264 2.2189 1.86104 2.4901 1.86504 2.7605C1.88304 4.5773 2.52784 6.1733 3.78184 7.5049C4.49584 8.2613 5.36024 8.8745 6.42504 9.3797C6.55984 9.4421 6.71623 9.5449 6.72423 9.7809C6.72703 9.9189 6.72424 10.0569 6.72104 10.2109C6.71344 10.4305 6.57064 10.5309 6.43184 10.6001C6.11304 10.7637 5.75064 10.9497 5.41784 11.1717C2.96224 12.8257 1.79944 14.9461 1.86184 17.6541C1.86624 17.8305 1.86584 18.0041 1.86504 18.1853L1.86464 18.4269H0.799035C0.605035 18.4269 0.424235 18.5009 0.290235 18.6353L0.272235 18.6489C0.257035 18.6649 0.243435 18.6809 0.231835 18.6969C0.207035 18.7257 0.189435 18.7497 0.177835 18.7705C0.128635 18.8449 0.0966351 18.9197 0.0810351 18.9969C0.0722351 19.0273 0.0694352 19.0537 0.0670352 19.0773C0.0610352 19.1089 0.0610352 19.1357 0.0610352 19.1641C0.0610352 19.1957 0.0638352 19.2269 0.0670352 19.2585L0.0710352 19.2669L0.0698352 19.2737C0.0722352 19.3001 0.0790351 19.3245 0.0862351 19.3505C0.104235 19.4185 0.124235 19.4673 0.150235 19.5113L0.159835 19.5289C0.168235 19.5437 0.176635 19.5597 0.186635 19.5741C0.206635 19.6029 0.229835 19.6317 0.252635 19.6569C0.275435 19.6821 0.303835 19.7081 0.329435 19.7309C0.358235 19.7553 0.389835 19.7773 0.433435 19.8041C0.436635 19.8041 0.445435 19.8113 0.450635 19.8153L0.484635 19.8309C0.584635 19.8753 0.693035 19.8989 0.798235 19.8989H17.2038C17.2954 19.8989 17.389 19.8805 17.4734 19.8457L17.4858 19.8417C17.575 19.8053 17.6562 19.7501 17.7214 19.6825C17.7454 19.6609 17.763 19.6409 17.7754 19.6217L17.851 19.5089C17.8866 19.4489 17.911 19.3849 17.9246 19.3173C17.9262 19.3025 17.929 19.2865 17.9314 19.2709L17.9366 19.2393L17.9394 19.1629C17.9394 19.1501 17.9398 19.1373 17.937 19.1221L17.9366 19.1161Z" fill="#2E2E3E" fill-opacity="0.4"/>
</svg>
