<svg width="72" height="65" viewBox="0 0 72 65" fill="none" xmlns="http://www.w3.org/2000/svg">
<path d="M24.5614 52.3303C22.4885 52.3303 20.4906 52.3303 18.4934 52.3303C13.8292 52.3303 9.16572 52.3367 4.50159 52.3283C1.10303 52.3225 -0.731346 49.7895 0.321575 46.5606C1.32602 43.4804 2.34792 40.4067 3.35882 37.329C3.4435 37.0716 3.60638 36.8265 3.5146 36.4856C3.02789 36.4856 2.53084 36.4953 2.03443 36.4836C0.966643 36.4584 0.227207 35.8012 0.184547 34.8517C0.139948 33.8575 0.845127 33.1066 1.9601 33.0639C3.31875 33.0121 4.67934 33.0173 6.03928 33.0192C9.89805 33.0238 13.7562 33.0393 17.6149 33.0503C17.8373 33.0509 18.0596 33.0412 18.2813 33.0548C19.397 33.1247 20.1383 33.8362 20.1138 34.8064C20.0892 35.7877 19.331 36.4785 18.2161 36.4817C14.8847 36.4921 11.5534 36.4856 8.22204 36.4856C7.91825 36.4856 7.61446 36.4856 7.24862 36.4856C6.39219 39.0645 5.539 41.6292 4.68903 44.1945C4.28829 45.4034 3.8772 46.6091 3.50231 47.8264C3.27092 48.5793 3.48809 48.8911 4.27148 48.8924C10.9064 48.9002 17.5413 48.893 24.1762 48.8872C24.2246 48.8872 24.2731 48.8445 24.3468 48.8102C24.935 39.9325 28.8655 32.985 36.713 28.6447C44.5656 24.3019 52.5275 24.6965 60.4512 28.9552C62.0845 24.0018 63.7237 19.0303 65.3958 13.9592C65.0177 13.9592 64.7476 13.9592 64.4774 13.9592C48.1813 13.9488 31.8859 13.9443 15.5899 13.9107C14.8783 13.9094 14.5253 14.106 14.3857 14.7949C14.2985 15.2257 14.1492 15.6519 13.9714 16.0555C13.5972 16.9029 12.6651 17.2858 11.8164 16.9779C11.0214 16.6901 10.5147 15.7987 10.7861 14.9579C11.9496 11.3505 13.0245 7.70694 14.3793 4.17138C15.4147 1.46958 17.6473 0.0252137 20.5462 0.0187454C36.2592 -0.0161832 51.9722 0.00451534 67.6853 0.0258606C70.8485 0.0303884 72.7094 2.64422 71.7185 5.67137C69.0245 13.9048 66.3111 22.1325 63.5783 30.3537C63.3889 30.9242 63.4878 31.2185 63.9325 31.604C71.1355 37.8465 73.8677 48.2139 70.6876 57.1401C70.2946 58.2436 69.8254 58.6058 68.6593 58.6058C55.0282 58.611 41.3978 58.6103 27.7667 58.6064C26.5489 58.6058 26.0765 58.2481 25.677 57.1019C25.1457 55.5806 24.7902 54.0178 24.5614 52.3303ZM68.4977 47.708C68.0879 43.373 66.5257 39.6046 63.767 36.3019C62.3929 37.5942 61.5267 37.7644 60.6975 36.9545C59.8591 36.1357 60.0149 35.3012 61.3108 33.8491C58.0021 31.0962 54.2364 29.5089 49.9414 29.1389C49.7733 31.0522 49.2924 31.7579 48.2007 31.7676C47.1297 31.7773 46.696 31.1544 46.3961 29.1253C42.1353 29.5497 38.3586 31.082 35.0647 33.8575C36.3025 35.2023 36.4803 36.0755 35.7376 36.8827C34.9652 37.723 34.2064 37.5955 32.5698 36.3349C29.8544 39.6246 28.2747 43.3743 27.8869 47.6285C29.9921 48.0043 30.4717 48.3277 30.5169 49.3613C30.5344 49.765 30.4277 50.1207 30.1944 50.4538C29.6159 51.2811 28.6968 51.1194 27.8623 51.1912C28.042 52.5858 28.1959 53.9014 28.66 55.1356C41.7184 55.1356 54.7264 55.1356 67.746 55.1356C68.1196 53.8335 68.4027 52.5502 68.479 51.2274C66.5018 51.0082 65.7675 50.4784 65.8367 49.3542C65.9058 48.252 66.6382 47.7773 68.4977 47.708ZM15.8129 10.5025C16.2052 10.5025 16.4819 10.5025 16.7579 10.5025C32.9389 10.5077 49.1192 10.5012 65.3002 10.5446C66.2781 10.5472 66.6937 10.2684 66.9471 9.35117C67.3957 7.72569 67.9884 6.14097 68.4829 4.52713C68.7188 3.75612 68.51 3.50773 67.7143 3.4644C67.4655 3.45081 67.2147 3.45922 66.9652 3.45922C57.1961 3.44887 47.4264 3.43917 37.6573 3.42882C32.0786 3.423 26.5005 3.412 20.9217 3.41071C19.205 3.41006 17.986 4.14745 17.4495 5.60734C16.869 7.18753 16.3778 8.80072 15.8129 10.5025ZM6.7199 27.1667C6.35083 28.3291 6.77613 29.2663 7.79156 29.582C8.74236 29.8782 9.59943 29.3485 9.98531 28.2081C10.3841 27.0283 10.8152 25.8563 11.1397 24.6558C11.3129 24.0148 11.6167 23.8718 12.2411 23.8737C19.0945 23.897 25.9485 23.8886 32.8025 23.8867C33.1347 23.8867 33.4715 23.8919 33.7992 23.8453C34.6142 23.7308 35.1863 23.0684 35.2128 22.2483C35.2483 21.1467 34.4985 20.485 33.1825 20.485C22.8065 20.4824 12.4305 20.4837 2.05447 20.4844C1.86056 20.4844 1.66342 20.476 1.47274 20.5051C0.778552 20.6124 0.306063 21.0148 0.0908246 21.6732C-0.126353 22.3388 0.0539821 22.9339 0.545862 23.4261C0.949838 23.8311 1.47016 23.8899 2.00858 23.8893C3.89142 23.8867 5.77427 23.888 7.80837 23.888C7.41215 25.0762 7.05277 26.1176 6.7199 27.1667ZM5.68378 55.1737C4.37749 55.1757 3.58246 55.8341 3.58957 56.8969C3.59604 57.9299 4.36973 58.6013 5.62561 58.6045C9.78365 58.6149 13.941 58.6155 18.0991 58.6039C19.3369 58.6006 20.1254 57.8975 20.1151 56.8723C20.1047 55.8432 19.3129 55.1776 18.0739 55.175C15.9952 55.1698 13.9158 55.1737 11.8371 55.1737C9.78623 55.1731 7.73533 55.1705 5.68378 55.1737ZM36.7117 64.99C37.7917 64.9822 38.495 64.316 38.5215 63.3425C38.5486 62.3522 37.8803 61.6064 36.8209 61.6012C32.3041 61.5773 27.7874 61.589 23.2706 61.5915C22.6837 61.5922 22.1873 61.8069 21.846 62.3037C21.4698 62.8503 21.4 63.4402 21.7071 64.032C22.0419 64.6769 22.5952 64.9965 23.3281 64.9965C25.5729 64.9952 27.8171 64.9958 30.0619 64.9958C32.2776 64.9952 34.4946 65.0068 36.7117 64.99ZM45.6334 64.9764C46.5189 64.893 47.1517 64.1743 47.1627 63.3076C47.1737 62.4266 46.5693 61.6834 45.6709 61.6258C44.68 61.5624 43.6794 61.5637 42.6879 61.6194C41.7804 61.6705 41.1638 62.3904 41.1554 63.2681C41.147 64.1627 41.8108 64.9046 42.7312 64.9809C43.1979 65.0197 43.6704 64.9874 44.1409 64.9867C44.6386 64.9848 45.1402 65.023 45.6334 64.9764ZM48.1897 53.851C46.3896 53.8542 44.7614 52.7656 44.0957 51.1136C43.3996 49.3866 43.8371 47.4112 45.1919 46.1634C46.5383 44.9235 48.4819 44.6181 50.1295 45.4713C50.6388 45.7352 50.9691 45.7055 51.4429 45.4008C54.049 43.7255 56.6758 42.0813 59.311 40.4506C60.5759 39.668 62.018 40.362 62.0567 41.7436C62.0787 42.5211 61.6528 43.0198 61.0193 43.4138C58.4345 45.0205 55.8666 46.6537 53.2759 48.2501C52.8073 48.5392 52.6037 48.8186 52.6115 49.4176C52.6425 51.8937 50.6537 53.8464 48.1897 53.851ZM49.1929 49.5243C49.1451 48.9765 48.9227 48.5418 48.2938 48.4635C47.7114 48.3911 47.1756 48.8348 47.1756 49.4047C47.1749 50.0146 47.5246 50.4098 48.1141 50.4564C48.7081 50.5036 49.0836 50.1608 49.1929 49.5243ZM50.9988 7.50901C50.9891 8.21599 51.5204 8.71599 52.2896 8.72375C53.4821 8.73604 54.6753 7.61703 54.6527 6.50707C54.6378 5.7671 54.1498 5.32467 53.3561 5.33308C52.2314 5.34537 51.0137 6.46956 50.9988 7.50901ZM65.2336 6.50642C65.2187 5.82338 64.7133 5.35637 63.981 5.3486C62.8531 5.33696 61.6457 6.45209 61.6386 7.51224C61.6334 8.25609 62.1169 8.69982 62.9216 8.69206C64.076 8.68106 65.2569 7.56399 65.2336 6.50642ZM59.9561 6.56529C59.9722 5.86089 59.4254 5.34537 58.6659 5.3499C57.5477 5.35637 56.3203 6.50707 56.3313 7.54006C56.3384 8.22763 56.827 8.68041 57.5749 8.69335C58.717 8.71211 59.9322 7.62673 59.9561 6.56529Z" fill="#EE3CA7"/>
</svg>
