<svg width="66" height="66" viewBox="0 0 66 66" fill="none" xmlns="http://www.w3.org/2000/svg">
<path d="M65.006 34.2229C64.9683 33.8976 64.9336 33.5718 64.899 33.2466C64.8242 32.5459 64.7471 31.8213 64.6395 31.1098C62.9218 19.7487 57.3797 11.063 48.1679 5.29371C44.1945 2.80542 39.7291 1.35741 34.8961 0.989131C34.8064 0.981957 34.7173 0.955053 34.6288 0.929943C34.5738 0.914399 34.5188 0.898855 34.4644 0.885702L34.4303 0.87793L30.5825 0.880321C30.2645 0.922769 29.9452 0.961032 29.6259 0.999295C28.9396 1.0818 28.2294 1.16729 27.5334 1.29165C20.4058 2.56329 14.3052 5.98005 9.40221 11.4487C3.23889 18.3222 0.0810098 26.7215 0.0158432 36.4128C-0.00807106 39.9444 0.000298911 43.5351 0.00747321 47.0074L0.0140497 50.5013C0.0140497 50.768 0.0272025 51.1177 0.125251 51.4525C0.28189 51.987 0.666313 52.3989 1.18047 52.5837C1.70718 52.7714 2.28292 52.6955 2.75882 52.372C3.43559 51.9123 3.52886 51.2373 3.52826 50.5749C3.52706 49.3833 3.52288 48.1918 3.51929 47.0003C3.50793 43.6995 3.49657 40.2875 3.54679 36.9335C3.58386 34.4793 3.73153 32.5243 4.01193 30.7822C5.4151 22.0792 9.47993 15.1111 16.0928 10.0706C22.8869 4.89314 30.4671 3.23648 38.6195 5.14664C45.6988 6.80509 51.5105 10.9674 55.8928 17.5169C59.5948 23.0501 61.4786 29.4675 61.4906 36.5916C61.4954 39.3453 61.4948 42.0996 61.4942 44.854V50.4194C61.4936 50.7058 61.4936 51.0011 61.5504 51.2959C61.6723 51.9314 62.083 52.393 62.7066 52.595C62.9033 52.6584 63.0964 52.6895 63.2841 52.6895C63.7242 52.6895 64.1307 52.5167 64.4637 52.1801C64.6299 52.0115 64.7375 51.8106 64.841 51.6163C64.881 51.5404 64.9217 51.4651 64.9653 51.3933L65.0084 51.3216L65.006 34.2229Z" fill="#803CEE"/>
<path d="M16.0083 35.9956L15.3393 35.9914C14.3618 35.9854 13.3514 35.9794 12.3548 36.0039C11.7994 36.0171 11.1501 36.0536 10.5457 36.2192C7.59643 37.0311 5.89492 39.2736 5.87699 42.3723C5.83932 49.1072 5.84052 54.5596 5.88058 59.532C5.91107 63.3165 8.5261 65.8651 12.3871 65.8741C12.8217 65.8753 13.2563 65.8753 13.6916 65.8753C14.1531 65.8753 14.6147 65.8747 15.0762 65.8747L15.8445 65.8741C17.5472 65.8735 18.1803 65.2452 18.1809 63.5562L18.1821 47.4918C18.1827 44.3835 18.1833 41.2758 18.1791 38.167C18.1767 36.6933 17.4874 36.0027 16.0083 35.9956ZM9.40016 54.8436C9.39897 50.731 9.39777 46.6183 9.40076 42.5056C9.40256 40.5763 10.4291 39.5486 12.3709 39.5325C12.6824 39.5295 12.9933 39.5289 13.306 39.5289C13.5648 39.5289 13.8255 39.5295 14.088 39.5301L14.6015 39.5307V62.272C14.3307 62.2756 14.0617 62.2822 13.7944 62.2888C12.9807 62.3097 12.2119 62.3294 11.4496 62.2463C10.3442 62.1255 9.45038 61.0733 9.41511 59.8513C9.3894 58.9647 9.39299 58.0589 9.39718 57.1836L9.40016 56.2133V54.8436Z" fill="#803CEE"/>
<path d="M59.1478 43.1224C59.1478 42.5693 59.1269 42.0133 59.0856 41.4681C58.8781 38.7389 56.4275 36.2787 53.7324 36.0981C52.5187 36.0162 51.2836 36.0102 50.089 36.0043L49.197 35.9983C49.1755 35.9983 49.1546 35.9983 49.1343 35.9983C48.2799 35.9983 47.7359 36.1591 47.376 36.516C47.0041 36.8843 46.8385 37.4535 46.8385 38.3628L46.8379 63.4364C46.8385 65.282 47.4232 65.8744 49.2431 65.8744L50.2546 65.8762C50.6355 65.8768 51.0163 65.878 51.3972 65.878C51.8742 65.878 52.3513 65.8768 52.8278 65.8721C54.3476 65.8583 55.6671 65.4189 56.7504 64.5675C58.3742 63.2899 59.1609 61.5573 59.1556 59.2717C59.1478 56.0247 59.1484 52.7784 59.1496 49.5308C59.149 47.3947 59.1496 45.2585 59.1478 43.1224ZM55.6204 57.7047C55.6222 58.3301 55.624 58.9554 55.6162 59.5814C55.5971 61.1669 54.6818 62.1904 53.1662 62.319C52.5002 62.3764 51.8264 62.3614 51.1144 62.3471C50.8812 62.3423 50.6462 62.3375 50.4077 62.3351V39.6357C50.6905 39.6309 50.9727 39.6213 51.2537 39.6117C52.1068 39.5819 52.9103 39.5538 53.6983 39.6715C54.8432 39.8425 55.6132 40.9216 55.615 42.3565C55.6204 45.8946 55.6192 49.4328 55.6186 52.9709L55.618 56.8815L55.6204 57.7047Z" fill="#803CEE"/>
</svg>
