<svg width="71" height="66" viewBox="0 0 71 66" fill="none" xmlns="http://www.w3.org/2000/svg">
<path d="M70.2625 12.0535C69.9635 11.641 69.3328 11.1453 68.0298 11.1302C67.8582 11.1276 67.6867 11.1289 67.5151 11.1289H14.8919C14.8907 11.1188 14.8894 11.1087 14.8894 11.0986L14.5904 7.63229C14.4378 5.85624 14.2852 4.08145 14.1313 2.30665C14.0102 0.911541 13.1487 0.0361269 11.8835 0.0247743C8.42344 -0.00928355 5.36706 -0.00802203 2.539 0.0272972C1.86415 0.0361271 1.26498 0.314897 0.852501 0.813151C0.426147 1.3278 0.253334 2.02157 0.376952 2.71787C0.573731 3.82916 1.48068 4.52546 2.74208 4.53429C4.58247 4.5469 6.45313 4.54438 8.26198 4.54186L9.62808 4.53933C9.67727 4.53933 9.74161 4.53807 9.79332 4.5406C9.79206 4.55195 9.79332 4.5633 9.79458 4.57592C9.84126 5.36303 9.92577 6.15645 10.0078 6.92212C10.0431 7.24757 10.0771 7.57427 10.1099 7.89971C10.284 9.66946 10.4568 11.4392 10.6296 13.2077C11.0169 17.1584 11.4029 21.1091 11.799 25.0598C12.0008 27.0756 12.2114 29.09 12.4221 31.1045C12.7942 34.6642 13.1789 38.3449 13.5056 41.9677C13.9824 47.2542 17.8158 50.8114 23.0469 50.8164C27.6157 50.8215 32.2627 50.824 37.056 50.824C41.8493 50.824 46.7877 50.8215 51.9393 50.8164C56.3088 50.8114 59.7083 48.3315 61.034 44.1802C62.4708 39.6833 63.9163 35.1082 65.3165 30.6832L66.7822 26.0475C67.9881 22.2368 69.2344 18.2975 70.4517 14.4186C70.8313 13.2039 70.5589 12.4622 70.2625 12.0535ZM65.2862 15.7002C65.2812 15.7179 65.2749 15.7355 65.2698 15.7519C62.4317 24.7218 59.5922 33.6904 56.7503 42.6589C55.9808 45.0884 54.3776 46.2703 51.851 46.2728C41.5542 46.2829 32.1555 46.2829 23.12 46.2728C20.1721 46.2691 18.3759 44.6671 18.0618 41.7608C17.3655 35.3138 16.6793 28.757 16.0158 22.4159C15.7812 20.1769 15.5478 17.9392 15.312 15.699H65.2862V15.7002Z" fill="#FFB342"/>
<path d="M24.8393 53.2976C21.3377 53.2976 18.4793 56.132 18.4629 59.6172C18.4478 63.1189 21.3566 66.0176 24.8709 65.9999C28.3549 65.9823 31.2132 63.1038 31.1993 59.6273C31.1842 56.1269 28.341 53.2963 24.8393 53.2976ZM21.9381 59.6387C21.9406 58.0102 23.25 56.7362 24.8961 56.7602C26.493 56.7841 27.7355 58.0708 27.7179 59.6841C27.7002 61.2772 26.4035 62.55 24.8103 62.5361C23.2197 62.521 21.9369 61.2268 21.9381 59.6387Z" fill="#FFB342"/>
<path d="M48.0555 53.3001C44.5526 53.2661 41.6778 56.0866 41.6564 59.5756C41.6349 63.1201 44.4769 65.9961 48.0038 65.9987C51.5029 66.0012 54.3461 63.1681 54.3574 59.6689C54.3675 56.1496 51.5811 53.3342 48.0555 53.3001ZM48.0302 62.5361C46.4232 62.5512 45.0722 61.199 45.0987 59.6033C45.1252 58.0152 46.4232 56.7551 48.0252 56.7614C49.6196 56.7677 50.91 58.0543 50.9113 59.6387C50.9138 61.2154 49.6158 62.5197 48.0302 62.5361Z" fill="#FFB342"/>
<path d="M39.6351 19.507C33.125 19.2169 27.6178 24.0544 27.3806 30.2718C27.1271 36.9182 31.962 42.1744 38.5768 42.4419C44.8157 42.6941 50.1023 37.675 50.3672 31.2482C50.6131 25.2338 45.6218 19.7732 39.6351 19.507ZM38.8821 22.9305C43.2831 22.9431 46.8642 26.5204 46.8857 30.9215C46.9071 35.3767 43.3437 38.9591 38.8808 38.9692C34.4369 38.978 30.8116 35.3793 30.8142 30.9593C30.8167 26.5532 34.471 22.9179 38.8821 22.9305Z" fill="#FFB342"/>
<path d="M42.9357 32.0858C42.6671 31.9105 42.3832 31.7402 42.1095 31.5737C41.6731 31.3101 41.2215 31.0389 40.7939 30.7285C40.4356 30.4687 40.1556 29.9515 40.1279 29.4987C40.0988 29.0357 40.114 28.5753 40.1279 28.1301C40.1392 27.7857 40.1493 27.459 40.1417 27.1323C40.1253 26.4486 39.6409 25.9365 38.9901 25.915C38.372 25.8936 37.8876 26.349 37.8107 26.9809L37.8069 26.9771L37.8056 27.0162C37.8043 27.0326 37.7993 27.0478 37.798 27.0642C37.7867 27.2382 37.7829 27.4136 37.7804 27.5889L37.6946 29.5933H37.6706V29.5983C37.6719 30.0121 37.6732 30.4258 37.6681 30.8396C37.6618 31.3643 37.8586 31.7326 38.29 32.0013L38.8942 32.3772C39.8201 32.9549 40.7775 33.5516 41.7311 34.1104C42.3757 34.4875 43.0556 34.3563 43.4226 33.7837C43.791 33.2122 43.5904 32.5134 42.9357 32.0858Z" fill="#FFB342"/>
</svg>
