<svg width="100" height="50" viewBox="0 0 100 50" fill="none" xmlns="http://www.w3.org/2000/svg">
<rect width="100" height="50" rx="10" fill="white"/>
<path fill-rule="evenodd" clip-rule="evenodd" d="M49.9266 36.1116C52.5533 38.5319 56.0808 40 59.9177 40C68.1579 40 74.8274 33.279 74.8274 25.0127C74.8274 16.7213 68.1579 10 59.9177 10C56.0808 10 52.5533 11.4678 49.9266 13.8884C46.9137 16.6437 45.008 20.6094 45.008 25.0127C45.0083 29.4161 46.9137 33.3821 49.9266 36.1116V36.1116Z" fill="#E9B040"/>
<path fill-rule="evenodd" clip-rule="evenodd" d="M72.8452 33.356C72.8452 33.0984 73.0513 32.8926 73.3086 32.8926C73.5917 32.8926 73.7975 33.0987 73.7975 33.356C73.7975 33.6397 73.5914 33.8454 73.3086 33.8454C73.0513 33.8454 72.8452 33.6397 72.8452 33.356ZM73.3086 33.7427C73.5147 33.7427 73.6944 33.5621 73.6944 33.3563C73.6944 33.1505 73.5144 32.9959 73.3086 32.9959C73.128 32.9959 72.9483 33.1505 72.9483 33.3563C72.9483 33.5621 73.1283 33.7427 73.3086 33.7427ZM73.2571 33.5881H73.154V33.1502H73.3341C73.3601 33.1502 73.4117 33.1502 73.4371 33.1763C73.4886 33.2017 73.4886 33.2278 73.4886 33.2793C73.4886 33.3308 73.4632 33.3823 73.4117 33.3823L73.5147 33.5884H73.3856L73.3341 33.4078H73.2571V33.5881V33.3305H73.3601C73.3856 33.3305 73.3856 33.3045 73.3856 33.279C73.3856 33.2529 73.3856 33.2529 73.3601 33.2275H73.2571V33.5881V33.5881Z" fill="#E9B040"/>
<path fill-rule="evenodd" clip-rule="evenodd" d="M54.7421 23.4164C54.6906 22.8758 54.5875 22.3608 54.4845 21.8199H45.3686C45.4717 21.2792 45.6262 20.7643 45.7805 20.249H54.0468C53.8674 19.7069 53.6612 19.1741 53.4289 18.6524H46.4245C46.6822 18.107 46.9658 17.5742 47.2744 17.0558H52.5536C52.2139 16.5059 51.8353 15.9809 51.4207 15.485H48.4075C48.8736 14.9158 49.3815 14.3822 49.9269 13.8884C47.2747 11.4935 43.7724 10 39.9097 10C31.6952 10 25 16.7213 25 25.0127C25 33.279 31.6952 40 39.9097 40C43.7724 40 47.2744 38.5319 49.9269 36.1116C50.4639 35.6265 50.9633 35.1013 51.4207 34.5404H48.4075C47.9954 34.0255 47.635 33.5106 47.2744 32.9438H52.5536C52.8855 32.4346 53.1782 31.9009 53.4292 31.3473H46.4245C46.1927 30.8323 45.9611 30.3174 45.7805 29.7761H54.0468C54.2269 29.2612 54.356 28.7208 54.4842 28.1795C54.5872 27.6646 54.6903 27.1242 54.7418 26.5829C54.794 26.0609 54.8199 25.5365 54.8194 25.0118C54.8194 24.472 54.7936 23.9314 54.7421 23.4164V23.4164Z" fill="#CC2131"/>
<path fill-rule="evenodd" clip-rule="evenodd" d="M72.8452 28.4893C72.8452 28.2063 73.0513 28.0005 73.3086 28.0005C73.5917 28.0005 73.7975 28.2066 73.7975 28.4893C73.7975 28.747 73.5914 28.9788 73.3086 28.9788C73.0513 28.9788 72.8452 28.7467 72.8452 28.4893ZM73.3086 28.8497C73.5147 28.8497 73.6944 28.6951 73.6944 28.4893C73.6944 28.2836 73.5144 28.129 73.3086 28.129C73.128 28.129 72.9483 28.2836 72.9483 28.4893C72.9483 28.6951 73.1283 28.8497 73.3086 28.8497ZM73.2571 28.6951H73.154V28.2833H73.4371C73.4886 28.3093 73.4886 28.3608 73.4886 28.4124C73.4886 28.4378 73.4632 28.4893 73.4117 28.5154L73.5147 28.6954H73.3856L73.3341 28.5409H73.2571V28.6951V28.4636H73.3086C73.3341 28.4636 73.3601 28.4636 73.3601 28.4375C73.3856 28.4375 73.3856 28.4121 73.3856 28.386C73.3856 28.386 73.3856 28.3605 73.3601 28.3605C73.3601 28.3345 73.3341 28.3605 73.3086 28.3605H73.2571V28.6951V28.6951Z" fill="white"/>
<path fill-rule="evenodd" clip-rule="evenodd" d="M44.8537 29.339C44.3646 29.4675 44.0039 29.5451 43.6436 29.5451C42.871 29.5451 42.4073 29.0557 42.4073 28.1801C42.4073 28.0001 42.4331 27.8197 42.4588 27.6136L42.5619 27.0217L42.6392 26.5323L43.3344 22.3093H44.8795L44.6992 23.2364H45.6778L45.4459 24.7814H44.4673L44.0554 27.3048C44.0297 27.4339 44.0297 27.5109 44.0297 27.5624C44.0297 27.8973 44.1842 28.0258 44.5704 28.0258C44.7507 28.0258 44.905 28.0004 45.0595 27.9743L44.8537 29.339V29.339ZM49.8496 29.2875C49.2831 29.4421 48.7682 29.5191 48.2015 29.5191C46.4503 29.5191 45.4459 28.592 45.4459 26.7641C45.4459 24.6266 46.6307 23.0815 48.2785 23.0815C49.5917 23.0815 50.4415 23.9571 50.4415 25.3215C50.4415 25.7855 50.39 26.2231 50.2615 26.8411H47.0425C47.0168 26.9442 47.0168 26.9957 47.0168 27.0472C47.0168 27.7682 47.5059 28.1286 48.433 28.1286C49.0252 28.1286 49.5402 28.0001 50.1069 27.7428L49.8496 29.2875ZM48.8967 25.6052V25.296C48.8967 24.7811 48.6134 24.4977 48.1242 24.4977C47.609 24.4977 47.2486 24.8839 47.094 25.6049H48.8967V25.6052V25.6052ZM32.4932 29.416H30.8966L31.8237 23.5709L29.738 29.416H28.6308L28.502 23.5967L27.5234 29.416H25.9526L27.2143 21.8198H29.5576L29.6092 26.5068L31.18 21.8198H33.7552L32.4932 29.416V29.416ZM36.3819 26.6611C36.2274 26.635 36.1758 26.635 36.0728 26.635C35.1457 26.635 34.6823 26.9954 34.6823 27.5621C34.6823 27.9485 34.9141 28.2061 35.2745 28.2061C36.047 28.2061 36.3559 27.5621 36.3819 26.6611ZM37.6694 29.416H36.2789L36.3046 28.7726C35.944 29.2614 35.4548 29.5191 34.605 29.5191C33.8325 29.5191 33.163 28.8241 33.163 27.8197C33.163 27.5367 33.2145 27.2794 33.2918 27.0217C33.5491 26.0686 34.502 25.4767 35.9698 25.4506C36.1501 25.4506 36.4331 25.4506 36.6908 25.4767C36.742 25.2706 36.742 25.193 36.742 25.0645C36.742 24.6523 36.4074 24.5235 35.6606 24.5235C35.1972 24.5235 34.682 24.6008 34.3216 24.7296L34.0898 24.7811L33.9867 24.8066L34.2186 23.4161C34.9654 23.1842 35.506 23.0815 36.0986 23.0815C37.4891 23.0815 38.2358 23.7252 38.2358 24.9096C38.2358 25.2188 38.2616 25.4506 38.1585 26.1201L37.7982 28.3347L37.7467 28.7211L37.7209 29.0302L37.6951 29.2363L37.6694 29.416V29.416ZM57.6264 23.2876C58.0898 23.2876 58.502 23.4164 59.0685 23.6995L59.3515 22.0513C59.197 21.9741 59.1455 21.9741 58.9397 21.8968L58.2962 21.7164C58.0902 21.6649 57.8328 21.6392 57.5492 21.6392C56.7506 21.6392 56.2872 21.6649 55.7983 21.9483C55.5407 22.1286 55.2058 22.3605 54.8451 22.7724L54.6391 22.7208L52.9909 23.8795L53.0685 23.2357H51.3686L50.3648 29.4157H51.9875L52.5794 26.0943C52.5794 26.0943 52.8115 25.6303 52.9143 25.4764C53.2234 25.0899 53.4807 25.09 53.8153 25.09H53.9444C53.8904 25.4824 53.8644 25.8782 53.8668 26.2744C53.8668 28.2828 54.9997 29.5448 56.7509 29.5448C57.1888 29.5448 57.5755 29.4933 58.1674 29.3387L58.4511 27.5879C57.9362 27.8709 57.4725 27.9998 57.0861 27.9998C56.1335 27.9998 55.5665 27.2787 55.5665 26.1459C55.5659 24.472 56.416 23.2876 57.6264 23.2876V23.2876ZM71.2996 21.8198L70.9395 23.9828C70.5531 23.3906 70.0894 23.1072 69.4715 23.1072C68.6213 23.1072 67.8233 23.5964 67.3339 24.5235V24.498L66.304 23.8798L66.4071 23.2361H64.6817L63.7031 29.416H65.2997L65.8406 26.0946C65.8406 26.0946 66.2525 25.6306 66.3556 25.4767C66.6132 25.1675 66.8705 25.1157 67.0766 25.0903C66.8965 25.6052 66.7935 26.2231 66.7935 26.9187C66.7935 28.4638 67.5915 29.4936 68.7759 29.4936C69.3684 29.4936 69.8318 29.2875 70.2695 28.7981L70.1925 29.416H71.7121L72.948 21.8198H71.2996V21.8198ZM69.3172 27.9485C68.7762 27.9485 68.4931 27.5367 68.4931 26.7381C68.4931 25.5276 69.0081 24.6523 69.7545 24.6523C70.321 24.6523 70.6046 25.0903 70.6046 25.8628C70.6046 27.0987 70.0897 27.9485 69.3172 27.9485V27.9485ZM61.8755 26.6611C61.721 26.635 61.6694 26.635 61.5664 26.635C60.6387 26.635 60.1753 26.9954 60.1753 27.5621C60.1753 27.9485 60.4074 28.2061 60.7678 28.2061C61.5403 28.2061 61.8495 27.5621 61.8755 26.6611ZM63.163 29.416H61.7464L61.7979 28.7726C61.4376 29.2614 60.9478 29.5191 60.0986 29.5191C59.3 29.5191 58.6051 28.8496 58.6051 27.8197C58.6051 26.3522 59.7119 25.4509 61.4631 25.4509C61.6437 25.4509 61.9265 25.4509 62.1586 25.477C62.2101 25.2709 62.2362 25.1933 62.2362 25.0648C62.2362 24.6526 61.9013 24.5238 61.1288 24.5238C60.6908 24.5238 60.1501 24.6011 59.7898 24.7299L59.5837 24.7814L59.4807 24.8069L59.7122 23.4164C60.4593 23.1845 61.0003 23.0818 61.5922 23.0818C62.9827 23.0818 63.7037 23.7255 63.7037 24.9099C63.7037 25.2191 63.7552 25.4509 63.6267 26.1204L63.2918 28.335L63.2403 28.7214L63.1888 29.0305L63.1633 29.2366V29.416H63.163V29.416ZM41.0426 24.5493C41.3517 24.5493 41.7894 24.575 42.2531 24.6523L42.4849 23.2103C42.0212 23.1588 41.4032 23.0815 41.0426 23.0815C39.2402 23.0815 38.648 24.0601 38.648 25.193C38.648 25.9401 38.9826 26.4805 39.8582 26.8923C40.5019 27.2015 40.605 27.2527 40.605 27.5364C40.605 27.9222 40.2704 28.1543 39.6521 28.1543C39.1629 28.1543 38.6992 28.0767 38.1843 27.8967L38.004 29.3127L38.0294 29.3387L38.3386 29.3903C38.4416 29.4157 38.5704 29.4418 38.7507 29.4672C39.1369 29.4933 39.4718 29.5188 39.6779 29.5188C41.4805 29.5188 42.2273 28.8238 42.2273 27.4588C42.2273 26.6093 41.8151 26.0943 41.0168 25.734C40.3216 25.4245 40.2443 25.3736 40.2443 25.09C40.2443 24.8069 40.5534 24.5493 41.0426 24.5493V24.5493Z" fill="#1B3771"/>
<path fill-rule="evenodd" clip-rule="evenodd" d="M59.7895 21.5621L59.5058 23.2103C58.9393 22.9269 58.5272 22.7984 58.0638 22.7984C56.8533 22.7984 56.0038 23.9828 56.0038 25.6567C56.0038 26.8156 56.5702 27.5106 57.5234 27.5106C57.9092 27.5106 58.3729 27.3821 58.8878 27.1247L58.6047 28.8495C58.0122 29.0041 57.6261 29.0817 57.1882 29.0817C55.4373 29.0817 54.3557 27.8197 54.3557 25.7858C54.3557 23.0817 55.8492 21.176 57.9865 21.176C58.2695 21.176 58.5269 21.2018 58.7329 21.2533L59.377 21.4079C59.5834 21.4852 59.6349 21.5109 59.7895 21.5621V21.5621ZM54.5875 22.6953H54.4329C53.8926 22.6953 53.5834 22.9529 53.094 23.6994L53.2485 22.7466H51.7804L50.7767 28.9268H52.3993C52.9912 25.1414 53.1458 24.4977 53.9183 24.4977H54.0214C54.1759 23.7509 54.3817 23.2099 54.6393 22.7208L54.5875 22.6953V22.6953ZM45.2659 28.8495C44.8282 29.0041 44.4676 29.0556 44.1072 29.0556C43.2832 29.0556 42.8195 28.5922 42.8195 27.6912C42.8195 27.5366 42.8452 27.3308 42.871 27.1502L42.974 26.5322L43.0513 26.0434L43.7466 21.8198H45.3432L45.1628 22.7469H45.9869L45.7808 24.2662H44.9568L44.5191 26.8414C44.4934 26.9444 44.4934 27.022 44.4934 27.099C44.4934 27.4081 44.6479 27.5369 45.034 27.5369C45.2144 27.5369 45.3686 27.5369 45.4717 27.4854L45.2659 28.8495V28.8495ZM39.0599 24.7038C39.0599 25.4766 39.4202 26.017 40.27 26.4292C40.9395 26.7383 41.0426 26.8411 41.0426 27.0987C41.0426 27.4851 40.7592 27.6651 40.1155 27.6651C39.6263 27.6651 39.1884 27.5881 38.6734 27.4336L38.4416 28.8495L38.5189 28.8756L38.8022 28.9271C38.905 28.9526 39.0341 28.9786 39.2399 28.9786C39.6002 29.0302 39.9094 29.0302 40.1155 29.0302C41.8148 29.0302 42.6134 28.3861 42.6134 26.9702C42.6134 26.1201 42.2788 25.6306 41.4805 25.2448C40.7853 24.9356 40.708 24.8587 40.708 24.5753C40.708 24.2407 40.9913 24.0861 41.5063 24.0861C41.8154 24.0861 42.253 24.1119 42.6652 24.1634L42.8968 22.7472C42.4849 22.6699 41.8412 22.6183 41.4805 22.6183C39.6778 22.618 39.0341 23.5709 39.0599 24.7038V24.7038ZM72.1242 28.9271H70.6046L70.6822 28.3346C70.2443 28.798 69.7806 29.0041 69.1881 29.0041C68.0036 29.0041 67.2311 28.0003 67.2311 26.4553C67.2311 24.395 68.4416 22.6438 69.8575 22.6438C70.5016 22.6438 70.965 22.9272 71.4032 23.4936L71.7636 21.3306H73.3602L72.1242 28.9271V28.9271ZM69.7548 27.4851C70.5019 27.4851 71.0168 26.6095 71.0168 25.399C71.0168 24.6008 70.7331 24.1886 70.1667 24.1886C69.4457 24.1886 68.9053 25.0384 68.9053 26.2489C68.9053 27.0732 69.1884 27.4851 69.7548 27.4851V27.4851ZM50.2099 28.798C49.6432 28.9786 49.1283 29.0556 48.536 29.0556C46.7334 29.0556 45.8063 28.1031 45.8063 26.2746C45.8063 24.1631 46.991 22.5923 48.6133 22.5923C49.9523 22.5923 50.8018 23.4679 50.8018 24.8326C50.8018 25.2963 50.7503 25.7342 50.5957 26.3777H47.4032C47.3774 26.4553 47.3774 26.5068 47.3774 26.5583C47.3774 27.2793 47.8669 27.6397 48.7937 27.6397C49.3859 27.6397 49.9008 27.5366 50.4675 27.2532L50.2099 28.798V28.798ZM49.3086 25.1157V24.8068C49.3086 24.2919 49.0252 24.0085 48.536 24.0085C48.0211 24.0085 47.6605 24.395 47.5059 25.1157H49.3086ZM32.9054 28.9271H31.3088L32.2359 23.0814L30.1501 28.9271H29.0427L28.9139 23.133L27.9356 28.9271H26.442L27.7037 21.3306H30.0213L30.0986 26.0431L31.6434 21.3306H34.167L32.9054 28.9271V28.9271ZM36.8968 26.1716C36.7423 26.1716 36.665 26.1461 36.5362 26.1461C35.6348 26.1461 35.1714 26.4807 35.1714 27.0987C35.1714 27.4851 35.3775 27.7166 35.7379 27.7166C36.4074 27.7166 36.8711 27.0987 36.8968 26.1716ZM38.0812 28.9271H36.742L36.7677 28.2831C36.3555 28.798 35.8149 29.0302 35.0681 29.0302C34.1925 29.0302 33.6003 28.3607 33.6003 27.3563C33.6003 25.8373 34.6301 24.9617 36.4328 24.9617C36.6132 24.9617 36.845 24.9875 37.1023 25.0129C37.1538 24.8071 37.1538 24.7299 37.1538 24.6268C37.1538 24.2149 36.8705 24.0604 36.1237 24.0604C35.6603 24.0604 35.1451 24.1119 34.7847 24.2149L34.5529 24.2922L34.3983 24.318L34.6301 22.9275C35.4284 22.6956 35.9691 22.6183 36.5616 22.6183C37.9521 22.6183 38.6989 23.2363 38.6989 24.4207C38.6989 24.7299 38.6731 24.9617 38.5701 25.657L38.2094 27.8461L38.1579 28.2319L38.1322 28.541L38.1064 28.7732L38.0812 28.9271V28.9271ZM62.3904 26.1716C62.2098 26.1716 62.1328 26.1461 62.0301 26.1461C61.103 26.1461 60.639 26.4807 60.639 27.0987C60.639 27.4851 60.8711 27.7166 61.2315 27.7166C61.8755 27.7166 62.3644 27.0987 62.3904 26.1716V26.1716ZM63.5748 28.9271H62.2359L62.2613 28.2831C61.8494 28.798 61.3088 29.0302 60.562 29.0302C59.6864 29.0302 59.0939 28.3607 59.0939 27.3563C59.0939 25.8373 60.1237 24.9617 61.9264 24.9617C62.1071 24.9617 62.3389 24.9875 62.5705 25.0129C62.622 24.8071 62.648 24.7299 62.648 24.6268C62.648 24.2149 62.3644 24.0604 61.6182 24.0604C61.1542 24.0604 60.6138 24.1119 60.2532 24.2149L60.0471 24.2922L59.8925 24.318L60.124 22.9275C60.9226 22.6956 61.463 22.6183 62.0555 22.6183C63.446 22.6183 64.167 23.2363 64.167 24.4207C64.167 24.7299 64.167 24.9617 64.0385 25.657L63.7036 27.8461L63.6521 28.2319L63.6006 28.541L63.5751 28.7732V28.9271H63.5748V28.9271ZM67.9009 22.6953H67.7463C67.206 22.6953 66.8968 22.9529 66.4074 23.6994L66.5619 22.7466H65.0938L64.1152 28.9268H65.7118C66.3043 25.1414 66.4589 24.4977 67.2314 24.4977H67.3345C67.489 23.7509 67.6948 23.2099 67.9524 22.7208L67.9009 22.6953V22.6953Z" fill="white"/>
</svg>
