<svg width="140" height="50" viewBox="0 0 140 50" fill="none" xmlns="http://www.w3.org/2000/svg">
<rect width="140" height="50" rx="10" fill="white"/>
<path d="M16.6158 36.7659C16.8598 36.1529 16.8938 35.4959 17.0068 34.8569C17.3278 33.0379 17.6238 31.2149 17.9268 29.3929C17.9728 29.1149 18.0128 28.8359 18.1198 28.5729C18.4518 27.9589 18.9848 27.7069 19.6628 27.7079C20.5608 27.7099 21.4598 27.6989 22.3578 27.7099C24.2008 27.7329 25.9288 27.3009 27.5308 26.3929C29.5988 25.2219 31.0708 23.5199 31.9878 21.3309C32.3328 20.5089 32.5118 19.6429 32.6738 18.7729C33.8918 19.6309 34.7018 20.7949 34.9298 22.2539C35.3978 25.2529 34.3918 27.7859 32.2598 29.8939C31.0458 31.0949 29.5678 31.8299 27.9088 32.1889C27.0898 32.3659 26.2488 32.4259 25.4108 32.3799C24.1978 32.3129 23.2348 33.0579 23.0418 34.4769C22.8558 35.8399 22.5948 37.1919 22.3658 38.5479C22.2838 39.0349 22.2098 39.5249 22.1128 40.0089C21.9908 40.6249 21.5138 40.9999 20.8898 40.9999C19.7478 40.9989 18.6058 40.9989 17.4628 40.9999C16.6308 41.0009 16.0538 40.2979 16.2038 39.4739C16.3598 38.6159 16.5058 37.7569 16.6558 36.8979C16.6648 36.8479 16.6588 36.8009 16.6158 36.7659Z" fill="#1485C8"/>
<path d="M32.7358 17.505V18.247C32.7328 18.412 32.7038 18.614 32.6768 18.772C32.6728 18.773 32.6698 18.773 32.6658 18.773H19.7738C19.7478 18.828 19.7238 18.884 19.7048 18.941C19.6978 18.962 19.6918 18.982 19.6858 19.003C19.6798 19.024 19.6738 19.045 19.6698 19.065C19.6648 19.086 19.6598 19.107 19.6568 19.128C19.4538 20.263 19.2628 21.4 19.0698 22.538C18.7778 24.257 18.4798 25.975 18.2058 27.698C18.1608 27.984 18.0238 28.27 18.1198 28.573C18.0128 28.836 17.9728 29.115 17.9268 29.393C17.6238 31.215 17.3278 33.038 17.0068 34.856C16.8938 35.495 16.8598 36.152 16.6158 36.765C16.3618 37.26 15.9528 37.536 15.4018 37.541C14.0538 37.555 12.7058 37.56 11.3588 37.541C10.4878 37.529 9.87781 36.782 10.0208 35.916C10.3998 33.597 10.7938 31.281 11.1828 28.965C11.5758 26.626 11.9698 24.287 12.3638 21.949L12.3948 21.766C12.4308 21.551 12.4678 21.336 12.5038 21.121C12.6468 20.272 12.7898 19.422 12.9328 18.574V18.571C13.2488 16.691 13.5658 14.811 13.8828 12.931C13.9258 12.682 13.9658 12.431 14.0138 12.182C14.0158 12.172 14.0178 12.161 14.0208 12.151L14.0428 12.02C14.1308 11.502 14.5428 11.1 15.0638 11.025C15.1768 11.008 15.2948 11 15.4138 11H26.2308C26.5048 11 26.7738 11.017 27.0378 11.05C27.2488 11.076 27.4568 11.112 27.6608 11.158C27.6918 11.165 27.7228 11.172 27.7528 11.18C28.7538 11.42 29.6638 11.891 30.4248 12.534C30.4568 12.56 30.4868 12.588 30.5188 12.615C30.5808 12.669 30.6418 12.724 30.7018 12.781C30.7198 12.797 30.7368 12.814 30.7548 12.832C30.7808 12.856 30.8058 12.881 30.8308 12.906C30.8678 12.943 30.9038 12.98 30.9398 13.018C31.0848 13.168 31.2208 13.326 31.3488 13.49C31.3788 13.529 31.4088 13.568 31.4388 13.607C31.4398 13.61 31.4418 13.612 31.4438 13.614C31.4748 13.656 31.5058 13.698 31.5358 13.741C31.5618 13.777 31.5868 13.814 31.6128 13.851C31.6328 13.88 31.6528 13.91 31.6718 13.94C31.6878 13.964 31.7038 13.988 31.7188 14.013C31.7518 14.065 31.7838 14.118 31.8158 14.171C32.3818 15.115 32.7128 16.213 32.7348 17.386V17.403C32.7348 17.435 32.7358 17.47 32.7358 17.505Z" fill="#28387F"/>
<path d="M32.6758 18.7741C32.5128 19.6441 32.3338 20.5101 31.9898 21.3321C31.0728 23.5211 29.6008 25.2231 27.5328 26.3941C25.9308 27.3011 24.2028 27.7331 22.3598 27.7111C21.4618 27.7001 20.5628 27.7101 19.6648 27.7091C18.9868 27.7081 18.4538 27.9601 18.1218 28.5741C18.0258 28.2711 18.1628 27.9851 18.2078 27.6991C18.4808 25.9771 18.7788 24.2581 19.0708 22.5391C19.2638 21.4021 19.4558 20.2651 19.6588 19.1301C19.7788 18.4571 20.4738 17.8341 21.1458 17.7321C21.4378 17.6881 21.7268 17.6831 22.0188 17.6821C24.4408 17.6811 26.8618 17.6731 29.2838 17.6861C30.2278 17.6911 31.1378 17.8891 31.9798 18.3361C32.2118 18.4591 32.4328 18.6041 32.6578 18.7381C32.6678 18.7471 32.6738 18.7591 32.6758 18.7741Z" fill="#242964"/>
<path d="M50.0848 17.2961C51.5738 17.3771 53.3408 17.1251 55.0768 17.5851C57.7858 18.3031 58.9188 20.0131 58.5068 22.7731C58.3368 23.9091 58.1348 25.0351 57.6368 26.0781C56.3788 28.7141 54.0948 29.6771 51.3608 29.8551C50.4638 29.9131 49.5598 29.9031 48.6598 29.8761C47.8428 29.8521 47.4718 30.2471 47.3578 31.0171C47.1658 32.3111 46.9318 33.5981 46.7348 34.8911C46.5878 35.8521 46.0898 36.3511 45.0778 36.2851C44.5888 36.2531 44.0958 36.2801 43.6038 36.2801C41.7208 36.2801 41.7138 36.2391 42.0258 34.3241C42.8338 29.3611 43.6238 24.3951 44.3968 19.4261C44.7098 17.4141 44.8108 17.2961 46.8738 17.2961C47.8568 17.2951 48.8398 17.2961 50.0848 17.2961ZM48.2418 26.2381C49.4358 26.1951 50.4798 26.3551 51.5178 26.0291C52.6518 25.6731 53.0918 24.8081 53.2358 23.7381C53.3398 22.9601 53.3988 22.1451 52.5588 21.6881C51.5418 21.1361 50.4338 21.2251 49.3408 21.3611C49.2188 21.3761 49.0708 21.6591 49.0368 21.8371C48.7638 23.2601 48.5168 24.6881 48.2418 26.2381Z" fill="#263D80"/>
<path d="M99.1448 17.3071C100.787 17.4081 102.721 17.0791 104.595 17.7701C106.767 18.5721 107.731 19.9611 107.58 22.2481C107.251 27.2561 104.531 29.8401 99.5218 29.8811C96.0408 29.9101 96.6928 29.5141 96.0538 32.9381C95.2908 37.0281 96.2738 36.1491 92.1808 36.2981C91.0508 36.3391 90.7338 35.9331 90.9088 34.8591C91.7638 29.6161 92.5768 24.3671 93.4238 19.1231C93.6958 17.4361 93.8758 17.3091 95.5598 17.3071C96.6668 17.3061 97.7728 17.3071 99.1448 17.3071ZM97.0258 26.1801C98.1218 26.1801 99.0588 26.2541 99.9788 26.1611C101.094 26.0481 101.881 25.3901 102.113 24.2731C102.294 23.4021 102.43 22.4761 101.559 21.8091C100.978 21.3641 98.6648 21.0591 98.1298 21.3621C97.8948 21.4951 97.8158 21.7091 97.7718 21.9621C97.5378 23.3221 97.2928 24.6791 97.0258 26.1801Z" fill="#1D9BD7"/>
<path d="M69.0138 24.7999C69.1168 23.6079 69.9118 23.6759 70.7208 23.6849C74.0098 23.7219 74.0298 23.3169 73.4308 26.7649C72.9618 29.4659 72.5658 32.1789 72.1398 34.8869C71.9898 35.8379 71.4938 36.3519 70.4758 36.2849C69.9458 36.2499 69.4108 36.2659 68.8788 36.2819C68.0158 36.3079 67.0958 36.4259 67.6028 34.7959C65.9518 36.0019 64.3988 36.5469 62.6678 36.4769C59.7618 36.3589 58.0498 34.8379 57.5748 31.9729C56.7448 26.9649 61.6618 22.3249 66.6008 23.4309C67.5128 23.6359 68.2628 24.0749 69.0138 24.7999ZM61.8498 30.2979C61.8268 32.2099 62.8048 33.2589 64.6228 33.2729C66.5208 33.2879 68.4188 31.5549 68.4158 29.8099C68.4128 28.1109 67.1988 26.9129 65.4688 26.9009C63.5228 26.8879 61.8728 28.4359 61.8498 30.2979Z" fill="#263D80"/>
<path d="M116.345 34.8569C114.323 36.2149 112.506 36.7169 110.446 36.3719C108.269 36.0069 106.971 34.6989 106.517 32.6709C105.892 29.8769 106.696 27.3989 108.756 25.3929C110.725 23.4749 113.077 22.8569 115.757 23.5069C116.533 23.6949 117.125 24.1919 117.852 24.8739C117.898 23.7389 118.535 23.6559 119.29 23.6949C120.024 23.7329 120.762 23.7019 121.499 23.7049C122.342 23.7079 122.673 24.1069 122.531 24.9549C121.98 28.2569 121.435 31.5599 120.918 34.8669C120.765 35.8439 120.271 36.3169 119.277 36.2829C118.664 36.2619 118.049 36.2589 117.436 36.2839C116.617 36.3189 115.974 36.1919 116.345 34.8569ZM114.209 26.9099C112.261 26.9119 110.599 28.5029 110.605 30.3599C110.611 32.1449 111.658 33.2519 113.37 33.2849C115.412 33.3239 117.247 31.5129 117.241 29.4629C117.237 28.0259 115.91 26.9079 114.209 26.9099Z" fill="#1D9BD7"/>
<path d="M81.8328 30.8291C83.2028 28.7171 84.4988 26.7921 85.7098 24.8151C86.2158 23.9891 86.7988 23.5721 87.7908 23.6771C88.5198 23.7541 89.2638 23.6701 89.9998 23.6981C90.9768 23.7351 91.1618 24.0891 90.5898 24.9141C87.0228 30.0561 83.4348 35.1841 79.8668 40.3251C79.5028 40.8501 79.0588 41.0851 78.4238 41.0601C77.6878 41.0301 76.9498 41.0601 76.2128 41.0501C75.8558 41.0451 75.4388 41.1471 75.2288 40.7331C75.0048 40.2901 75.2948 39.9581 75.5338 39.6231C76.3868 38.4231 77.2078 37.1981 78.0998 36.0281C78.5208 35.4761 78.5598 34.9961 78.3328 34.3511C77.2878 31.3861 76.2868 28.4061 75.2838 25.4261C74.8388 24.1041 74.9978 23.8581 76.3488 23.8721C80.2958 23.9151 79.4158 23.3671 80.5788 26.9131C80.9848 28.1511 81.3738 29.3921 81.8328 30.8291Z" fill="#263D80"/>
<path d="M124.823 36.5001C124.619 36.5001 124.414 36.5021 124.21 36.5001C122.863 36.4861 122.717 36.3391 122.919 34.9921C123.311 32.3681 123.728 29.7481 124.141 27.1271C124.592 24.2641 125.077 21.4071 125.49 18.5391C125.614 17.6771 125.949 17.3971 126.834 17.4091C130.803 17.4651 130.121 17.1581 129.581 20.6781C128.888 25.1971 128.187 29.7141 127.463 34.2281C127.105 36.4471 127.011 36.4991 124.823 36.5001Z" fill="#1D9BD7"/>
</svg>
