<svg width="25" height="29" viewBox="0 0 25 29" fill="none" xmlns="http://www.w3.org/2000/svg">
<path d="M12.9081 13.9827C8.75112 18.319 4.62172 22.6267 0.475347 26.9519C0.217514 26.6373 0.103098 26.2799 0.0431489 25.9059C0.0074272 25.6823 0.00176844 25.4521 0.00176844 25.225C-0.0001768 17.7806 0.000353681 10.3361 0 2.89168C0 2.24409 0.102744 1.62798 0.534942 1.07642C4.66204 5.38124 8.77605 9.67262 12.9081 13.9827Z" fill="white"/>
<path d="M1.78433 27.9492C5.88632 23.6705 9.95559 19.426 14.0417 15.1638C15.4292 16.6113 16.8 18.0412 18.1877 19.4886C17.6481 19.8002 17.1295 20.1 16.6106 20.3995C12.4209 22.8183 8.22998 25.2349 4.04276 27.6578C3.33982 28.0645 2.61513 28.2192 1.78433 27.9492Z" fill="white"/>
<path d="M19.6524 18.6524C18.1457 17.0803 16.667 15.5375 15.1752 13.981C16.6368 12.4564 18.0837 10.9471 19.5352 9.43298C19.5978 9.46305 19.6475 9.48303 19.6935 9.50973C21.0081 10.2691 22.3271 11.021 23.6354 11.7911C24.9171 12.5455 25.3665 14.0062 24.6796 15.2675C24.4947 15.607 24.2197 15.9531 23.8971 16.1524C22.5065 17.0111 21.0825 17.8166 19.6524 18.6524Z" fill="white"/>
<path d="M17.8101 8.42117C14.4855 6.50246 11.1733 4.56429 7.8328 2.67563C6.50827 1.92583 5.24917 1.0487 3.86628 0.406772L3.84329 0.396162C3.68944 0.325426 3.53382 0.256458 3.37643 0.192795C3.2491 0.139743 3.11824 0.0884597 2.98738 0.0407128L2.975 0.0354076C2.70797 -0.0247181 2.4604 0.00180798 2.28709 0.0407128C2.27471 0.0424812 2.2641 0.0442497 2.25526 0.0477865C2.25173 0.0477865 2.24819 0.0495549 2.24642 0.0495549C2.17922 0.0725441 2.11379 0.0937649 2.03775 0.116754C2.03421 0.118523 2.03068 0.120291 2.02891 0.120291C2.02714 0.122059 2.02537 0.122059 2.02537 0.122059C1.99177 0.13267 1.9564 0.14328 1.91927 0.155659C5.97068 4.38214 10.0009 8.58564 14.0417 12.7997C15.398 11.3868 16.7314 9.99505 18.0789 8.58917C17.9783 8.52551 17.895 8.47069 17.8101 8.42117Z" fill="white"/>
</svg>
