<svg width="194" height="253" viewBox="0 0 194 253" fill="none" xmlns="http://www.w3.org/2000/svg">
<g opacity="0.5">
<path d="M-19.2026 167.112C-19.2085 167.112 -19.2135 167.112 -19.2202 167.112C-19.599 167.104 -19.9157 166.822 -19.9661 166.447C-21.1033 158.052 -18.9523 148.897 -13.3895 138.461C-6.39792 125.343 6.29168 109.906 24.3282 92.5787C61.7604 56.6173 107.179 38.8906 140.342 25.9474C144.218 24.4347 147.927 22.9875 151.438 21.5831C183.839 8.62224 187.064 0.927681 187.092 0.851247C187.222 0.510238 187.576 0.297733 187.937 0.355688C188.298 0.412803 188.572 0.709299 188.588 1.07383C188.639 2.23041 189.369 29.7657 147.668 62.4439C113.846 88.9477 82.3915 103.389 49.0901 118.677C41.3393 122.235 33.3247 125.915 25.3471 129.729C-14.8509 148.951 -18.4131 166.305 -18.4441 166.478C-18.5113 166.845 -18.8313 167.112 -19.2026 167.112ZM186.892 3.69103C183.839 7.00034 175.332 13.6836 152.009 23.0135C148.494 24.4187 144.781 25.8684 140.902 27.3828C107.859 40.279 62.6053 57.941 25.395 93.6899C-15.8513 133.316 -19.1967 153.817 -18.7725 162.885C-15.9008 156.798 -6.34668 143.177 24.6827 128.339C32.6704 124.519 40.6908 120.837 48.4476 117.277C81.6641 102.027 113.039 87.6232 146.718 61.231C180.587 34.6902 186.031 11.2546 186.892 3.69103Z" fill="#FF8966"/>
<path d="M-19.2025 167.114C-19.2151 167.114 -19.2269 167.114 -19.2395 167.113C-19.6645 167.093 -19.9929 166.732 -19.9728 166.307C-19.9299 165.384 -18.4584 143.396 21.3088 117.231C32.0195 110.184 47.0785 102.063 64.5162 92.6603C112.19 66.9518 171.521 34.9574 187.117 0.788347C187.293 0.400302 187.752 0.230641 188.137 0.407865C188.525 0.584249 188.695 1.04117 188.518 1.42837C172.708 36.0678 113.124 68.1983 65.2478 94.0159C47.842 103.402 32.8107 111.508 22.1562 118.518C1.66878 131.997 -8.28854 144.354 -13.0341 152.346C-18.1241 160.918 -18.4315 166.326 -18.4332 166.38C-18.4533 166.792 -18.7935 167.114 -19.2025 167.114Z" fill="#FF8966"/>
<path d="M54.018 252.736C53.7618 252.736 53.5207 252.608 53.3779 252.394C39.2605 231.255 12.0326 212.21 -5.98466 199.608L-6.87666 198.984C-25.2332 186.141 -18.0804 163.855 -18.0065 163.631C-17.9225 163.378 -17.7125 163.186 -17.453 163.125C-17.1935 163.063 -16.9205 163.141 -16.7315 163.33C-11.1242 168.937 -4.414 172.059 3.35447 175.673C14.6406 180.924 27.431 186.874 40.769 202.378C47.952 210.729 56.636 223.731 57.213 238.253C57.5608 247.018 54.8083 252.125 54.6916 252.338C54.5622 252.573 54.3187 252.724 54.0499 252.736C54.039 252.736 54.028 252.736 54.018 252.736ZM-16.8777 165.33C-18.0284 170.022 -20.9925 187.23 -5.9939 197.722L-5.1019 198.346C12.6827 210.786 39.394 229.469 53.8718 250.382C55.6844 245.659 60.4308 227.594 39.6023 203.383C26.481 188.13 13.8493 182.254 2.70521 177.069C-4.46272 173.735 -11.2535 170.576 -16.8777 165.33Z" fill="#FF8966"/>
<path d="M183.807 212.232C149.959 212.233 69.9287 192.903 36.9801 175.615C17.6005 165.447 3.96679 162.984 -4.05871 162.709C-12.7183 162.412 -16.876 164.534 -16.9171 164.555C-17.2422 164.727 -17.6453 164.644 -17.8763 164.356C-18.1065 164.067 -18.1023 163.658 -17.8637 163.377C-9.46951 153.467 5.78439 150.264 30.138 153.293C52.1785 156.035 79.3065 163.519 109.913 172.292C170.247 189.584 193.515 209.927 193.743 210.131C193.96 210.324 194.049 210.623 193.974 210.903C193.899 211.185 193.672 211.399 193.388 211.459C190.876 211.984 187.636 212.231 183.807 212.232ZM-5.70496 161.097C3.24613 161.097 17.4535 163.63 37.6957 174.25C76.0232 194.361 166.267 213.775 191.432 210.234C185.849 205.877 161.612 188.711 109.489 173.771C48.8659 156.397 4.02894 145.312 -14.4721 162.08C-12.505 161.578 -9.60306 161.097 -5.70496 161.097Z" fill="#FF8966"/>
<path d="M54.018 252.736C54.0003 252.736 53.981 252.735 53.9625 252.734C53.5384 252.704 53.2192 252.335 53.2486 251.911C53.252 251.857 53.5905 246.43 50.5692 238.668C47.7782 231.497 41.467 220.806 27.2487 210.601C21.3902 206.396 15.9551 202.771 11.1591 199.574C-7.05388 187.429 -18.0477 180.098 -18.0477 163.874C-18.0477 163.668 -17.9654 163.472 -17.8192 163.327C-17.3598 162.872 -5.94686 152.319 48.0133 163.119C99.4563 173.415 155.065 195.04 188.29 207.959L193.507 209.986C193.903 210.141 194.1 210.586 193.946 210.982C193.793 211.38 193.346 211.575 192.95 211.422L187.732 209.395C154.554 196.492 99.0229 174.898 47.711 164.629C-1.40454 154.8 -14.6846 162.866 -16.5064 164.234C-16.3493 179.38 -6.23411 186.125 12.0124 198.292C16.8185 201.497 22.2654 205.13 28.1449 209.349C42.7159 219.806 49.1817 230.812 52.0399 238.204C55.1578 246.266 54.7999 251.791 54.784 252.021C54.7563 252.427 54.4186 252.736 54.018 252.736Z" fill="#FF8966"/>
</g>
</svg>
