<svg width="125" height="116" viewBox="0 0 125 116" fill="none" xmlns="http://www.w3.org/2000/svg">
<path d="M1.68053 36.421C2.21386 36.2239 2.48637 35.6316 2.28919 35.0983C2.09201 34.565 1.4998 34.2925 0.966465 34.4897C0.433129 34.6868 0.160623 35.279 0.357806 35.8124C0.554988 36.3457 1.14719 36.6182 1.68053 36.421Z" fill="#EA227A"/>
<path d="M12.5117 31.3188C12.7088 31.8517 12.4368 32.4442 11.9031 32.6415C11.3701 32.8385 10.7777 32.5666 10.5804 32.0328C10.3833 31.4999 10.6553 30.9074 11.189 30.7101C11.7231 30.5136 12.3147 30.7858 12.5117 31.3188Z" fill="#EA227A"/>
<path d="M22.735 27.5392C22.932 28.0722 22.6601 28.6646 22.1263 28.862C21.5933 29.059 21.0009 28.787 20.8036 28.2533C20.6065 27.7203 20.8785 27.1279 21.4122 26.9306C21.9463 26.734 22.5379 27.0063 22.735 27.5392Z" fill="#EA227A"/>
<path d="M32.3504 25.0819C32.8837 24.8847 33.1562 24.2925 32.9591 23.7592C32.7619 23.2259 32.1697 22.9534 31.6363 23.1505C31.103 23.3477 30.8305 23.9399 31.0277 24.4733C31.2249 25.0066 31.8171 25.2791 32.3504 25.0819Z" fill="#EA227A"/>
<path d="M42.5736 21.3021C43.107 21.105 43.3795 20.5127 43.1823 19.9794C42.9851 19.4461 42.3929 19.1736 41.8596 19.3708C41.3262 19.5679 41.0537 20.1601 41.2509 20.6935C41.4481 21.2268 42.0403 21.4993 42.5736 21.3021Z" fill="white"/>
<path d="M53.4048 16.2001C53.6019 16.7331 53.3299 17.3255 52.7962 17.5228C52.2632 17.7199 51.6708 17.4479 51.4735 16.9142C51.2764 16.3812 51.5484 15.7888 52.0821 15.5915C52.6162 15.3949 53.2078 15.6672 53.4048 16.2001Z" fill="#EA227A"/>
<path d="M63.0195 13.7431C63.5528 13.5459 63.8253 12.9537 63.6282 12.4203C63.431 11.887 62.8388 11.6145 62.3054 11.8117C61.7721 12.0089 61.4996 12.6011 61.6968 13.1344C61.894 13.6677 62.4862 13.9402 63.0195 13.7431Z" fill="#EA227A"/>
<path d="M6.47071 46.4108C6.66775 46.9438 6.3958 47.5362 5.86204 47.7335C5.32908 47.9306 4.73666 47.6586 4.53933 47.1249C4.34228 46.5919 4.61423 45.9995 5.14799 45.8022C5.68204 45.6056 6.27367 45.8778 6.47071 46.4108Z" fill="white"/>
<path d="M16.694 42.631C16.8911 43.164 16.6191 43.7564 16.0854 43.9537C15.5524 44.1508 14.96 43.8788 14.7626 43.3451C14.5656 42.8121 14.8376 42.2197 15.3713 42.0224C15.9054 41.8258 16.497 42.0981 16.694 42.631Z" fill="#EA227A"/>
<path d="M26.9173 38.8515C27.1143 39.3844 26.8423 39.9769 26.3086 40.1742C25.7756 40.3712 25.1832 40.0993 24.9859 39.5655C24.7888 39.0326 25.0608 38.4402 25.5945 38.2428C26.1286 38.0463 26.7202 38.3185 26.9173 38.8515Z" fill="#EA227A"/>
<path d="M37.1406 35.0717C37.3376 35.6047 37.0657 36.1971 36.5319 36.3944C35.999 36.5915 35.4065 36.3195 35.2092 35.7858C35.0122 35.2528 35.2841 34.6604 35.8179 34.463C36.3519 34.2665 36.9435 34.5387 37.1406 35.0717Z" fill="#EA227A"/>
<path d="M47.3638 31.2919C47.5609 31.8249 47.2889 32.4173 46.7551 32.6146C46.2214 32.812 45.6298 32.5397 45.4324 32.006C45.2354 31.473 45.5073 30.8806 46.0411 30.6833C46.5748 30.4859 47.1668 30.759 47.3638 31.2919Z" fill="#EA227A"/>
<path d="M57.5871 27.5124C57.7842 28.0453 57.5122 28.6378 56.9785 28.8351C56.4455 29.0321 55.8531 28.7602 55.6558 28.2264C55.4587 27.6935 55.7307 27.101 56.2644 26.9037C56.7985 26.7072 57.3901 26.9794 57.5871 27.5124Z" fill="#EA227A"/>
<path d="M67.8105 23.7326C68.0075 24.2655 67.7356 24.858 67.2018 25.0553C66.6688 25.2523 66.0764 24.9804 65.8791 24.4466C65.682 23.9137 65.954 23.3213 66.4877 23.1239C67.0218 22.9274 67.6134 23.1996 67.8105 23.7326Z" fill="#EA227A"/>
<path d="M10.0454 59.0463C10.5787 58.8491 10.8512 58.2569 10.6541 57.7236C10.4569 57.1902 9.86468 56.9177 9.33134 57.1149C8.79801 57.3121 8.5255 57.9043 8.72268 58.4376C8.91987 58.9709 9.51206 59.2435 10.0454 59.0463Z" fill="#EA227A"/>
<path d="M20.8766 53.944C21.0737 54.477 20.8017 55.0694 20.268 55.2667C19.735 55.4638 19.1426 55.1918 18.9452 54.6581C18.7482 54.1251 19.0201 53.5327 19.5539 53.3354C20.0877 53.138 20.6793 53.4103 20.8766 53.944Z" fill="#EA227A"/>
<path d="M31.0998 50.1645C31.2969 50.6974 31.0249 51.2899 30.4912 51.4872C29.9582 51.6842 29.3658 51.4123 29.1685 50.8785C28.9714 50.3456 29.2434 49.7531 29.7771 49.5558C30.3109 49.3585 30.9025 49.6307 31.0998 50.1645Z" fill="white"/>
<path d="M40.7153 47.7072C41.2486 47.51 41.5211 46.9178 41.3239 46.3844C41.1268 45.8511 40.5346 45.5786 40.0012 45.7758C39.4679 45.973 39.1954 46.5652 39.3926 47.0985C39.5897 47.6318 40.1819 47.9043 40.7153 47.7072Z" fill="#EA227A"/>
<path d="M50.9385 43.9274C51.4718 43.7302 51.7444 43.138 51.5472 42.6047C51.35 42.0713 50.7578 41.7988 50.2245 41.996C49.6911 42.1932 49.4186 42.7854 49.6158 43.3187C49.813 43.8521 50.4052 44.1246 50.9385 43.9274Z" fill="#EA227A"/>
<path d="M61.7697 38.8254C61.9668 39.3583 61.6948 39.9507 61.1611 40.1481C60.6281 40.3451 60.0357 40.0732 59.8383 39.5394C59.6413 39.0065 59.9132 38.414 60.447 38.2167C60.9808 38.0194 61.5724 38.2916 61.7697 38.8254Z" fill="#EA227A"/>
<path d="M71.3844 36.3683C71.9177 36.1711 72.1902 35.5789 71.993 35.0456C71.7959 34.5122 71.2037 34.2397 70.6703 34.4369C70.137 34.6341 69.8645 35.2263 70.0617 35.7596C70.2588 36.293 70.851 36.5655 71.3844 36.3683Z" fill="#EA227A"/>
<path d="M14.8357 69.0363C15.0327 69.5693 14.7608 70.1617 14.227 70.359C13.694 70.5561 13.1016 70.2841 12.9043 69.7504C12.7072 69.2174 12.9792 68.625 13.5129 68.4276C14.0467 68.2303 14.6383 68.5025 14.8357 69.0363Z" fill="#EA227A"/>
<path d="M25.059 65.2565C25.256 65.7895 24.9841 66.3819 24.4503 66.5792C23.9174 66.7763 23.3249 66.5043 23.1276 65.9706C22.9306 65.4376 23.2025 64.8452 23.7363 64.6479C24.27 64.4505 24.8616 64.7228 25.059 65.2565Z" fill="#EA227A"/>
<path d="M35.2822 61.4767C35.4792 62.0097 35.2073 62.6021 34.6735 62.7994C34.1406 62.9965 33.5482 62.7245 33.3508 62.1908C33.1538 61.6578 33.4257 61.0654 33.9595 60.8681C34.4932 60.6707 35.0849 60.943 35.2822 61.4767Z" fill="#EA227A"/>
<path d="M45.5055 57.6972C45.7026 58.2301 45.4306 58.8226 44.8969 59.0199C44.3639 59.2169 43.7715 58.945 43.5742 58.4112C43.3771 57.8783 43.6491 57.2859 44.1828 57.0885C44.7166 56.8912 45.3082 57.1634 45.5055 57.6972Z" fill="#EA227A"/>
<path d="M55.7288 53.9174C55.9258 54.4504 55.6538 55.0428 55.1201 55.2401C54.5863 55.4375 53.9947 55.1652 53.7974 54.6315C53.6003 54.0985 53.8723 53.5061 54.406 53.3087C54.9398 53.1114 55.5314 53.3836 55.7288 53.9174Z" fill="white"/>
<path d="M65.9521 50.1376C66.1491 50.6706 65.8772 51.263 65.3434 51.4603C64.8105 51.6574 64.218 51.3854 64.0207 50.8517C63.8237 50.3187 64.0956 49.7263 64.6294 49.529C65.1631 49.3316 65.7548 49.6039 65.9521 50.1376Z" fill="#EA227A"/>
<path d="M76.1754 46.3581C76.3725 46.891 76.1005 47.4835 75.5668 47.6808C75.0338 47.8778 74.4414 47.6059 74.244 47.0721C74.047 46.5392 74.3189 45.9468 74.8527 45.7494C75.3865 45.5521 75.9781 45.8243 76.1754 46.3581Z" fill="#EA227A"/>
<path d="M18.4101 81.6708C18.9434 81.4736 19.2159 80.8814 19.0187 80.3481C18.8216 79.8147 18.2293 79.5422 17.696 79.7394C17.1627 79.9366 16.8902 80.5288 17.0874 81.0621C17.2845 81.5955 17.8767 81.868 18.4101 81.6708Z" fill="#EA227A"/>
<path d="M29.2413 76.5688C29.4383 77.1017 29.1664 77.6942 28.6326 77.8915C28.0997 78.0885 27.5072 77.8166 27.3099 77.2828C27.1129 76.7499 27.3848 76.1574 27.9186 75.9601C28.4523 75.7628 29.0442 76.0358 29.2413 76.5688Z" fill="#EA227A"/>
<path d="M39.4645 72.789C39.6615 73.3219 39.3896 73.9144 38.8558 74.1117C38.3229 74.3088 37.7305 74.0368 37.5331 73.503C37.3361 72.9701 37.608 72.3777 38.1418 72.1803C38.6755 71.983 39.2675 72.256 39.4645 72.789Z" fill="#EA227A"/>
<path d="M49.0799 70.3317C49.6133 70.1345 49.8858 69.5423 49.6886 69.009C49.4914 68.4756 48.8992 68.2031 48.3659 68.4003C47.8325 68.5975 47.56 69.1897 47.7572 69.723C47.9544 70.2564 48.5466 70.5289 49.0799 70.3317Z" fill="#EA227A"/>
<path d="M59.3032 66.5521C59.8365 66.355 60.109 65.7628 59.9118 65.2294C59.7147 64.6961 59.1225 64.4236 58.5891 64.6208C58.0558 64.8179 57.7833 65.4101 57.9805 65.9435C58.1776 66.4768 58.7698 66.7493 59.3032 66.5521Z" fill="#EA227A"/>
<path d="M70.1344 61.4499C70.3314 61.9828 70.0595 62.5753 69.5257 62.7726C68.9928 62.9696 68.4003 62.6977 68.203 62.1639C68.006 61.631 68.2779 61.0385 68.8117 60.8412C69.3454 60.6439 69.9373 60.9169 70.1344 61.4499Z" fill="#EA227A"/>
<path d="M79.7491 58.9931C80.2824 58.7959 80.5549 58.2037 80.3577 57.6703C80.1605 57.137 79.5683 56.8645 79.035 57.0617C78.5017 57.2589 78.2291 57.8511 78.4263 58.3844C78.6235 58.9177 79.2157 59.1902 79.7491 58.9931Z" fill="#EA227A"/>
<path d="M22.5924 92.983C23.1257 92.7859 23.3982 92.1937 23.201 91.6603C23.0038 91.127 22.4116 90.8545 21.8783 91.0517C21.345 91.2488 21.0725 91.841 21.2696 92.3744C21.4668 92.9077 22.059 93.1802 22.5924 92.983Z" fill="#EA227A"/>
<path d="M33.4236 87.881C33.6206 88.414 33.3487 89.0064 32.8149 89.2037C32.282 89.4008 31.6895 89.1288 31.4922 88.5951C31.2951 88.0621 31.5671 87.4697 32.1009 87.2724C32.6346 87.075 33.2265 87.3481 33.4236 87.881Z" fill="#EA227A"/>
<path d="M43.6468 84.1012C43.8438 84.6342 43.5719 85.2266 43.0381 85.424C42.5052 85.621 41.9128 85.349 41.7154 84.8153C41.5184 84.2823 41.7903 83.6899 42.3241 83.4926C42.8578 83.2952 43.4498 83.5683 43.6468 84.1012Z" fill="#EA227A"/>
<path d="M53.2622 81.6439C53.7956 81.4467 54.0681 80.8545 53.8709 80.3212C53.6737 79.7879 53.0815 79.5154 52.5482 79.7126C52.0148 79.9097 51.7423 80.5019 51.9395 81.0353C52.1367 81.5686 52.7289 81.8411 53.2622 81.6439Z" fill="white"/>
<path d="M63.4855 77.8644C64.0188 77.6672 64.2913 77.075 64.0941 76.5417C63.897 76.0083 63.3047 75.7358 62.7714 75.933C62.2381 76.1302 61.9656 76.7224 62.1627 77.2557C62.3599 77.7891 62.9521 78.0616 63.4855 77.8644Z" fill="#EA227A"/>
<path d="M74.3167 72.7621C74.5137 73.2951 74.2418 73.8875 73.708 74.0848C73.1751 74.2819 72.5826 74.0099 72.3853 73.4762C72.1883 72.9432 72.4602 72.3508 72.994 72.1535C73.5277 71.9561 74.1196 72.2292 74.3167 72.7621Z" fill="#EA227A"/>
<path d="M83.9313 70.3053C84.4647 70.1081 84.7372 69.5159 84.54 68.9826C84.3428 68.4492 83.7506 68.1767 83.2173 68.3739C82.6839 68.5711 82.4114 69.1633 82.6086 69.6966C82.8058 70.23 83.398 70.5025 83.9313 70.3053Z" fill="#EA227A"/>
<path d="M27.3826 102.973C27.5797 103.506 27.3077 104.098 26.774 104.296C26.241 104.493 25.6486 104.221 25.4512 103.687C25.2542 103.154 25.5261 102.562 26.0599 102.364C26.5939 102.168 27.1856 102.44 27.3826 102.973Z" fill="#EA227A"/>
<path d="M37.6059 99.1933C37.803 99.7262 37.531 100.319 36.9973 100.516C36.4643 100.713 35.8719 100.441 35.6746 99.9073C35.4775 99.3744 35.7495 98.782 36.2832 98.5846C36.8173 98.3881 37.4089 98.6603 37.6059 99.1933Z" fill="#EA227A"/>
<path d="M47.8292 95.4137C48.0262 95.9467 47.7543 96.5391 47.2205 96.7365C46.6875 96.9335 46.0951 96.6616 45.8978 96.1278C45.7007 95.5948 45.9727 95.0024 46.5064 94.8051C47.0405 94.6085 47.6321 94.8808 47.8292 95.4137Z" fill="#EA227A"/>
<path d="M58.0525 91.634C58.2495 92.1669 57.9776 92.7593 57.4438 92.9567C56.9109 93.1537 56.3185 92.8818 56.1211 92.348C55.9241 91.8151 56.196 91.2226 56.7298 91.0253C57.2638 90.8288 57.8555 91.101 58.0525 91.634Z" fill="#EA227A"/>
<path d="M68.2757 87.8544C68.4728 88.3874 68.2008 88.9798 67.6671 89.1771C67.1333 89.3745 66.5417 89.1022 66.3443 88.5685C66.1473 88.0355 66.4192 87.4431 66.953 87.2458C67.4867 87.0484 68.0787 87.3215 68.2757 87.8544Z" fill="#EA227A"/>
<path d="M78.4991 84.0746C78.6961 84.6076 78.4241 85.2 77.8904 85.3974C77.3574 85.5944 76.765 85.3224 76.5677 84.7887C76.3706 84.2557 76.6426 83.6633 77.1763 83.466C77.7104 83.2694 78.302 83.5417 78.4991 84.0746Z" fill="white"/>
<path d="M88.7224 80.2948C88.9194 80.8278 88.6475 81.4202 88.1137 81.6176C87.5808 81.8146 86.9883 81.5427 86.791 81.0089C86.5939 80.4759 86.8659 79.8835 87.3997 79.6862C87.9337 79.4896 88.5253 79.7619 88.7224 80.2948Z" fill="#EA227A"/>
<path d="M30.957 115.608C31.4903 115.41 31.7628 114.818 31.5656 114.285C31.3684 113.751 30.7762 113.479 30.2429 113.676C29.7096 113.873 29.4371 114.466 29.6342 114.999C29.8314 115.532 30.4236 115.805 30.957 115.608Z" fill="#EA227A"/>
<path d="M41.7882 110.506C41.9852 111.038 41.7133 111.631 41.1795 111.828C40.6465 112.025 40.0541 111.753 39.8568 111.22C39.6594 110.686 39.9317 110.094 40.4654 109.897C40.9995 109.7 41.5911 109.973 41.7882 110.506Z" fill="white"/>
<path d="M52.0114 106.726C52.2084 107.259 51.9365 107.851 51.4027 108.048C50.8698 108.246 50.2773 107.974 50.08 107.44C49.8827 106.906 50.1549 106.314 50.6887 106.117C51.2227 105.921 51.8143 106.193 52.0114 106.726Z" fill="#EA227A"/>
<path d="M61.6268 104.268C62.1602 104.071 62.4327 103.479 62.2355 102.946C62.0383 102.412 61.4461 102.14 60.9128 102.337C60.3794 102.534 60.1069 103.126 60.3041 103.66C60.5013 104.193 61.0935 104.466 61.6268 104.268Z" fill="#EA227A"/>
<path d="M71.8501 100.489C72.3834 100.292 72.6559 99.6995 72.4587 99.1662C72.2615 98.6328 71.6693 98.3603 71.136 98.5575C70.6027 98.7547 70.3302 99.3469 70.5273 99.8802C70.7245 100.414 71.3167 100.686 71.8501 100.489Z" fill="#EA227A"/>
<path d="M82.6813 95.3866C82.8783 95.9196 82.6064 96.512 82.0726 96.7094C81.5397 96.9064 80.9472 96.6344 80.7499 96.1007C80.5526 95.5669 80.8248 94.9753 81.3586 94.778C81.8926 94.5814 82.4842 94.8537 82.6813 95.3866Z" fill="#EA227A"/>
<path d="M92.2959 92.9296C92.8293 92.7324 93.1018 92.1402 92.9046 91.6068C92.7074 91.0735 92.1152 90.801 91.5819 90.9982C91.0485 91.1954 90.776 91.7876 90.9732 92.3209C91.1704 92.8542 91.7626 93.1268 92.2959 92.9296Z" fill="#EA227A"/>
<path d="M73.5553 9.84779C74.0886 9.65061 74.3612 9.0584 74.164 8.52506C73.9668 7.99173 73.3746 7.71922 72.8413 7.91641C72.3079 8.11359 72.0354 8.70579 72.2326 9.23913C72.4298 9.77246 73.022 10.045 73.5553 9.84779Z" fill="#EA227A"/>
<path d="M84.3873 4.74553C84.5843 5.27849 84.3124 5.87091 83.7786 6.06825C83.2457 6.26529 82.6532 5.99334 82.4559 5.45959C82.2589 4.92663 82.5308 4.3342 83.0646 4.13686C83.5978 3.94062 84.1902 4.21257 84.3873 4.74553Z" fill="#EA227A"/>
<path d="M94.6106 0.965742C94.8076 1.4987 94.5357 2.09113 94.0019 2.28847C93.469 2.48551 92.8766 2.21356 92.6792 1.6798C92.4822 1.14684 92.7541 0.554421 93.2879 0.357084C93.8211 0.160837 94.4136 0.432782 94.6106 0.965742Z" fill="#EA227A"/>
<path d="M78.3463 19.8373C78.5433 20.3703 78.2714 20.9627 77.7376 21.16C77.2046 21.3571 76.6122 21.0851 76.4149 20.5514C76.2178 20.0184 76.4898 19.426 77.0235 19.2287C77.5576 19.0321 78.1492 19.3044 78.3463 19.8373Z" fill="white"/>
<path d="M88.5696 16.0575C88.7666 16.5905 88.4947 17.1829 87.9609 17.3803C87.428 17.5773 86.8355 17.3054 86.6382 16.7716C86.4412 16.2386 86.7131 15.6462 87.2469 15.4489C87.7801 15.2526 88.3725 15.5246 88.5696 16.0575Z" fill="#EA227A"/>
<path d="M98.7929 12.278C98.9899 12.811 98.718 13.4034 98.1842 13.6007C97.6513 13.7978 97.0589 13.5258 96.8615 12.9921C96.6645 12.4591 96.9364 11.8667 97.4702 11.6693C98.0034 11.4731 98.5959 11.745 98.7929 12.278Z" fill="#EA227A"/>
<path d="M81.9202 32.473C82.4535 32.2758 82.726 31.6836 82.5289 31.1503C82.3317 30.617 81.7395 30.3445 81.2061 30.5417C80.6728 30.7388 80.4003 31.331 80.5975 31.8644C80.7946 32.3977 81.3868 32.6702 81.9202 32.473Z" fill="#EA227A"/>
<path d="M92.7522 27.3705C92.9492 27.9035 92.6773 28.4959 92.1435 28.6932C91.6105 28.8903 91.0181 28.6183 90.8208 28.0846C90.6237 27.5516 90.8957 26.9592 91.4294 26.7619C91.9624 26.5648 92.5548 26.8368 92.7522 27.3705Z" fill="#EA227A"/>
<path d="M102.975 23.591C103.173 24.1239 102.901 24.7164 102.367 24.9137C101.834 25.1107 101.241 24.8388 101.044 24.305C100.847 23.7721 101.119 23.1797 101.653 22.9823C102.186 22.7853 102.778 23.0572 102.975 23.591Z" fill="white"/>
<path d="M86.7112 42.4628C86.9083 42.9958 86.6363 43.5882 86.1026 43.7855C85.5696 43.9826 84.9772 43.7106 84.7798 43.1769C84.5828 42.6439 84.8547 42.0515 85.3885 41.8542C85.9222 41.6568 86.5139 41.9291 86.7112 42.4628Z" fill="#EA227A"/>
<path d="M96.9345 38.683C97.1316 39.216 96.8596 39.8084 96.3259 40.0057C95.7929 40.2028 95.2005 39.9308 95.0032 39.3971C94.8061 38.8641 95.0781 38.2717 95.6118 38.0744C96.1448 37.8773 96.7372 38.1493 96.9345 38.683Z" fill="#EA227A"/>
<path d="M107.158 34.9032C107.355 35.4362 107.083 36.0286 106.549 36.226C106.016 36.423 105.424 36.1511 105.226 35.6173C105.029 35.0843 105.301 34.4919 105.835 34.2946C106.368 34.0975 106.961 34.3695 107.158 34.9032Z" fill="#EA227A"/>
<path d="M90.2849 55.0978C90.8182 54.9006 91.0907 54.3084 90.8935 53.7751C90.6963 53.2417 90.1041 52.9692 89.5708 53.1664C89.0375 53.3636 88.7649 53.9558 88.9621 54.4891C89.1593 55.0225 89.7515 55.295 90.2849 55.0978Z" fill="#EA227A"/>
<path d="M101.117 49.9953C101.314 50.5282 101.042 51.1207 100.508 51.318C99.9752 51.515 99.3828 51.2431 99.1855 50.7093C98.9884 50.1764 99.2604 49.584 99.7941 49.3866C100.327 49.1896 100.92 49.4623 101.117 49.9953Z" fill="#EA227A"/>
<path d="M111.34 46.2155C111.537 46.7485 111.265 47.3409 110.731 47.5382C110.199 47.7353 109.606 47.4633 109.409 46.9296C109.212 46.3966 109.484 45.8042 110.017 45.6068C110.55 45.4098 111.143 45.6825 111.34 46.2155Z" fill="#EA227A"/>
<path d="M94.4671 66.41C95.0005 66.2129 95.273 65.6206 95.0758 65.0873C94.8786 64.554 94.2864 64.2815 93.7531 64.4787C93.2198 64.6758 92.9472 65.268 93.1444 65.8014C93.3416 66.3347 93.9338 66.6072 94.4671 66.41Z" fill="#EA227A"/>
<path d="M105.299 61.3075C105.496 61.8405 105.224 62.4329 104.69 62.6303C104.158 62.8273 103.565 62.5553 103.368 62.0216C103.171 61.4886 103.443 60.8962 103.976 60.6989C104.509 60.5018 105.102 60.7746 105.299 61.3075Z" fill="#EA227A"/>
<path d="M115.522 57.5277C115.719 58.0607 115.448 58.6531 114.914 58.8505C114.381 59.0475 113.788 58.7756 113.591 58.2418C113.394 57.7088 113.666 57.1164 114.2 56.9191C114.733 56.7221 115.325 56.9948 115.522 57.5277Z" fill="#EA227A"/>
<path d="M99.2582 76.3996C99.4552 76.9325 99.1833 77.525 98.6495 77.7223C98.1166 77.9194 97.5241 77.6474 97.3268 77.1136C97.1297 76.5807 97.4017 75.9883 97.9355 75.7909C98.4695 75.5944 99.0611 75.8666 99.2582 76.3996Z" fill="#EA227A"/>
<path d="M109.481 72.62C109.679 73.153 109.407 73.7454 108.873 73.9428C108.34 74.1398 107.747 73.8679 107.55 73.3341C107.353 72.8011 107.625 72.2087 108.159 72.0114C108.692 71.8151 109.284 72.0871 109.481 72.62Z" fill="#EA227A"/>
<path d="M119.705 68.8403C119.902 69.3732 119.63 69.9656 119.096 70.163C118.563 70.36 117.971 70.0881 117.773 69.5543C117.576 69.0214 117.848 68.4289 118.382 68.2316C118.915 68.0353 119.508 68.3073 119.705 68.8403Z" fill="#EA227A"/>
<path d="M102.832 89.0343C103.365 88.8371 103.638 88.2449 103.44 87.7116C103.243 87.1782 102.651 86.9057 102.118 87.1029C101.584 87.3001 101.312 87.8923 101.509 88.4256C101.706 88.959 102.298 89.2315 102.832 89.0343Z" fill="#EA227A"/>
<path d="M113.664 83.932C113.861 84.465 113.589 85.0574 113.055 85.2548C112.522 85.4518 111.93 85.1799 111.732 84.6461C111.535 84.1123 111.807 83.5207 112.341 83.3234C112.874 83.1271 113.467 83.3991 113.664 83.932Z" fill="white"/>
<path d="M123.887 80.1523C124.084 80.6852 123.812 81.2776 123.278 81.475C122.745 81.672 122.153 81.4001 121.956 80.8663C121.758 80.3326 122.031 79.7409 122.564 79.5436C123.098 79.3474 123.69 79.6193 123.887 80.1523Z" fill="#EA227A"/>
</svg>
