<svg width="203" height="208" viewBox="0 0 203 208" fill="none" xmlns="http://www.w3.org/2000/svg">
<path d="M206.73 217.917C206.678 217.917 206.626 217.91 206.573 217.893C206.434 217.85 192.354 213.335 168.986 196.965C147.452 181.877 113.359 153.327 73.234 102.989C73.2326 102.987 73.2319 102.985 73.2304 102.983C56.3391 81.4079 52.3865 54.6607 52.0473 36.0216C51.6791 15.8462 55.348 0.551994 55.3856 0.399363C55.4384 0.183076 55.6215 0.0246504 55.8428 0.00222598C56.0635 -0.0180283 56.2746 0.101339 56.3687 0.303158C76.1709 43.0036 74.3271 98.7123 74.1752 102.489C96.2835 130.209 130.745 168.895 169.587 196.107C192.823 212.385 206.748 216.851 206.886 216.893C207.161 216.98 207.315 217.273 207.229 217.549C207.159 217.774 206.953 217.917 206.73 217.917ZM56.0692 2.16655C55.1715 6.49518 52.7924 19.6381 53.094 36.031C53.4282 54.1717 57.2085 80.0538 73.1711 101.189C73.4221 92.0704 73.9017 41.8339 56.0692 2.16655Z" fill="#437B78"/>
<path d="M150.472 182.773C150.377 182.773 150.283 182.747 150.2 182.697C150.064 182.614 149.972 182.473 149.952 182.316C149.933 182.161 148.05 166.591 152.107 145.733C155.852 126.481 165.566 98.6415 190.578 75.3375C190.74 75.1878 190.979 75.1538 191.176 75.2558C191.372 75.357 191.483 75.5711 191.453 75.7896C191.421 76.0355 188.091 100.621 182.925 126.709C177.377 154.728 164.106 177.769 150.653 182.74C150.594 182.762 150.533 182.773 150.472 182.773ZM190.214 77.1191C166.206 100.02 156.795 127.113 153.134 145.932C149.583 164.192 150.615 178.332 150.92 181.513C163.833 176.179 176.506 153.743 181.9 126.506C186.337 104.096 189.417 82.7976 190.214 77.1191Z" fill="#437B78"/>
<path d="M56.7963 196.345C44.0838 196.345 36.0313 194.107 35.8895 194.066C35.6971 194.011 35.5538 193.851 35.5191 193.654C35.4844 193.458 35.5647 193.258 35.726 193.14C44.3066 186.89 63.6111 177.175 89.7819 170.366C116.426 163.432 133.117 166.716 133.282 166.75C133.453 166.785 133.595 166.902 133.661 167.063C133.727 167.224 133.71 167.408 133.613 167.552C133.304 168.017 125.665 179.073 93.5752 190.13C79.5057 194.979 66.7289 196.345 56.7963 196.345ZM37.2638 193.331C42.407 194.518 65.2148 198.796 93.2337 189.142C120.554 179.728 130.052 170.187 132.22 167.633C128.527 167.081 113.055 165.391 90.0445 171.378C64.9175 177.916 46.1837 187.126 37.2638 193.331Z" fill="#437B78"/>
<path d="M35.5227 136.875C9.41559 136.875 0.567391 128.45 0.155071 128.042C0.0320984 127.92 -0.0228967 127.745 0.00893153 127.575C0.039313 127.405 0.1536 127.262 0.31057 127.192C0.596301 127.065 29.2793 114.506 58.7508 116.69C71.6738 117.647 80.8359 120.502 86.2467 122.728C92.1379 125.151 94.9279 127.327 95.0443 127.418C95.189 127.533 95.2628 127.715 95.2382 127.898C95.2143 128.08 95.0949 128.237 94.9257 128.31C94.4591 128.51 83.0885 133.239 47.6666 136.322C43.257 136.707 39.2162 136.875 35.5227 136.875ZM1.5143 127.819C2.69918 128.735 5.6447 130.7 10.9347 132.44C17.5463 134.615 29.2721 136.875 47.5762 135.28C77.3638 132.687 90.2694 128.836 93.6026 127.685C90.6564 125.74 79.4449 119.272 58.6734 117.734C32.172 115.774 6.28347 125.847 1.5143 127.819Z" fill="#437B78"/>
<path d="M111.607 146.696C111.508 146.696 111.41 146.668 111.325 146.614C111.207 146.538 111.125 146.419 111.096 146.282C111.026 145.958 104.233 113.481 113.714 84.598C123.18 55.7624 141.368 32.2804 141.55 32.0467C141.681 31.8796 141.9 31.8073 142.103 31.8652C142.308 31.9223 142.457 32.0966 142.483 32.3071C142.499 32.4424 144.026 46.1285 138.032 71.947C136.115 80.2035 134.567 88.5917 133.07 96.7043C128.399 122.006 124.365 143.858 111.722 146.684C111.683 146.692 111.645 146.696 111.607 146.696ZM141.543 33.7937C137.873 38.7509 122.956 59.7959 114.708 84.9249C105.976 111.526 111.181 141.223 112.013 145.533C123.579 142.357 127.504 121.087 132.04 96.5133C133.54 88.3892 135.09 79.9887 137.013 71.709C141.888 50.7009 141.757 37.8199 141.543 33.7937Z" fill="#437B78"/>
<path d="M150.471 182.773C150.394 182.773 150.315 182.756 150.241 182.718C149.982 182.591 149.875 182.278 150.002 182.018C150.093 181.832 159.263 163.029 170.175 128.887C181.114 94.6628 190.373 75.6765 190.466 75.4892C190.593 75.2309 190.905 75.1217 191.166 75.2504C191.425 75.3778 191.532 75.691 191.404 75.9507C191.312 76.1373 182.085 95.0635 171.172 129.206C160.233 163.43 151.032 182.294 150.94 182.48C150.85 182.665 150.664 182.773 150.471 182.773Z" fill="#437B78"/>
<path d="M31.5586 130.244C12.8024 130.244 0.59485 128.213 0.434986 128.186C0.149979 128.137 -0.0409486 127.867 0.00751712 127.583C0.0559828 127.298 0.327958 127.104 0.610795 127.155C0.818402 127.19 21.7896 130.675 51.0701 128.464C80.4656 126.242 94.6204 127.298 94.7607 127.308C95.0486 127.33 95.2642 127.582 95.2418 127.87C95.2186 128.158 94.9727 128.362 94.679 128.351C94.5409 128.341 80.4504 127.294 51.1489 129.507C44.0794 130.041 37.4917 130.244 31.5586 130.244Z" fill="#437B78"/>
<path d="M111.607 146.696C111.461 146.696 111.316 146.635 111.213 146.517C111.023 146.3 111.045 145.971 111.261 145.78C111.363 145.688 118.906 138.492 123.109 101.721C127.372 64.4144 141.343 32.4748 141.485 32.1566C141.6 31.8918 141.911 31.7739 142.174 31.8896C142.438 32.0061 142.558 32.3157 142.441 32.5797C142.301 32.8966 128.392 64.698 124.148 101.839C119.87 139.268 112.273 146.287 111.952 146.567C111.852 146.653 111.729 146.696 111.607 146.696Z" fill="#437B78"/>
<path d="M73.6442 102.088C73.4323 102.088 73.2326 101.959 73.1545 101.748C73.0482 101.466 62.5853 73.2152 62.5853 51.2111C62.5853 29.3646 55.4595 0.936265 55.3871 0.651981C55.3162 0.371314 55.4862 0.0870323 55.7669 0.0161422C56.044 -0.0540245 56.3318 0.114528 56.402 0.394471C56.4743 0.680202 63.632 29.2352 63.632 51.2104C63.632 73.0279 74.0298 101.1 74.1346 101.381C74.2359 101.652 74.0984 101.953 73.8279 102.054C73.7664 102.078 73.7043 102.088 73.6442 102.088Z" fill="#437B78"/>
<path d="M36.0341 194.087C35.7491 194.087 35.5162 193.859 35.5111 193.573C35.5053 193.285 35.736 193.046 36.0247 193.041C36.2431 193.037 58.1742 192.567 82.3072 186.685C97.7757 182.915 111.005 176.588 120.665 171.968C126.12 169.36 130.429 167.299 133.072 166.751C133.357 166.694 133.632 166.873 133.69 167.157C133.749 167.439 133.567 167.716 133.284 167.775C130.766 168.297 126.509 170.334 121.117 172.912C111.416 177.551 98.1302 183.905 82.5561 187.7C58.3044 193.612 36.2642 194.083 36.0443 194.087C36.0399 194.087 36.037 194.087 36.0341 194.087Z" fill="#437B78"/>
</svg>
