<svg width="145" height="102" viewBox="0 0 145 102" fill="none" xmlns="http://www.w3.org/2000/svg">
<path d="M1.21497 2.428C1.88545 2.428 2.42898 1.88447 2.42898 1.214C2.42898 0.543523 1.88545 0 1.21497 0C0.5445 0 0.000976562 0.543523 0.000976562 1.214C0.000976562 1.88447 0.5445 2.428 1.21497 2.428Z" fill="#EA227A"/>
<path d="M15.28 1.214C15.28 1.884 14.737 2.428 14.066 2.428C13.396 2.428 12.852 1.885 12.852 1.214C12.852 0.543997 13.395 0 14.066 0C14.737 0.001 15.28 0.543997 15.28 1.214Z" fill="#EA227A"/>
<path d="M28.132 1.214C28.132 1.884 27.589 2.428 26.918 2.428C26.248 2.428 25.704 1.885 25.704 1.214C25.704 0.543997 26.247 0 26.918 0C27.589 0.001 28.132 0.543997 28.132 1.214Z" fill="#EA227A"/>
<path d="M39.771 2.428C40.4415 2.428 40.985 1.88447 40.985 1.214C40.985 0.543523 40.4415 0 39.771 0C39.1005 0 38.557 0.543523 38.557 1.214C38.557 1.88447 39.1005 2.428 39.771 2.428Z" fill="#EA227A"/>
<path d="M52.623 2.428C53.2935 2.428 53.837 1.88447 53.837 1.214C53.837 0.543523 53.2935 0 52.623 0C51.9525 0 51.409 0.543523 51.409 1.214C51.409 1.88447 51.9525 2.428 52.623 2.428Z" fill="white"/>
<path d="M66.688 1.214C66.688 1.884 66.145 2.428 65.474 2.428C64.804 2.428 64.26 1.885 64.26 1.214C64.26 0.543997 64.803 0 65.474 0C66.145 0.001 66.688 0.543997 66.688 1.214Z" fill="#EA227A"/>
<path d="M78.326 2.428C78.9965 2.428 79.54 1.88447 79.54 1.214C79.54 0.543523 78.9965 0 78.326 0C77.6555 0 77.112 0.543523 77.112 1.214C77.112 1.88447 77.6555 2.428 78.326 2.428Z" fill="#EA227A"/>
<path d="M2.428 15.4349C2.428 16.1049 1.885 16.6489 1.214 16.6489C0.543997 16.6489 0 16.1059 0 15.4349C0 14.7649 0.542997 14.2209 1.214 14.2209C1.885 14.2219 2.428 14.7649 2.428 15.4349Z" fill="white"/>
<path d="M15.28 15.4349C15.28 16.1049 14.737 16.6489 14.066 16.6489C13.396 16.6489 12.852 16.1059 12.852 15.4349C12.852 14.7649 13.395 14.2209 14.066 14.2209C14.737 14.2219 15.28 14.7649 15.28 15.4349Z" fill="#EA227A"/>
<path d="M28.132 15.4349C28.132 16.1049 27.589 16.6489 26.918 16.6489C26.248 16.6489 25.704 16.1059 25.704 15.4349C25.704 14.7649 26.247 14.2209 26.918 14.2209C27.589 14.2219 28.132 14.7649 28.132 15.4349Z" fill="#EA227A"/>
<path d="M40.984 15.4349C40.984 16.1049 40.441 16.6489 39.77 16.6489C39.1 16.6489 38.556 16.1059 38.556 15.4349C38.556 14.7649 39.099 14.2209 39.77 14.2209C40.441 14.2219 40.984 14.7649 40.984 15.4349Z" fill="#EA227A"/>
<path d="M53.836 15.4349C53.836 16.1049 53.293 16.6489 52.622 16.6489C51.951 16.6489 51.408 16.1059 51.408 15.4349C51.408 14.7649 51.951 14.2209 52.622 14.2209C53.293 14.2209 53.836 14.7649 53.836 15.4349Z" fill="#EA227A"/>
<path d="M66.688 15.4349C66.688 16.1049 66.145 16.6489 65.474 16.6489C64.804 16.6489 64.26 16.1059 64.26 15.4349C64.26 14.7649 64.803 14.2209 65.474 14.2209C66.145 14.2219 66.688 14.7649 66.688 15.4349Z" fill="#EA227A"/>
<path d="M79.54 15.4349C79.54 16.1049 78.997 16.6489 78.326 16.6489C77.656 16.6489 77.112 16.1059 77.112 15.4349C77.112 14.7649 77.655 14.2209 78.326 14.2209C78.997 14.2219 79.54 14.7649 79.54 15.4349Z" fill="#EA227A"/>
<path d="M1.21497 30.8711C1.88545 30.8711 2.42898 30.3276 2.42898 29.6571C2.42898 28.9866 1.88545 28.4431 1.21497 28.4431C0.5445 28.4431 0.000976562 28.9866 0.000976562 29.6571C0.000976562 30.3276 0.5445 30.8711 1.21497 30.8711Z" fill="#EA227A"/>
<path d="M15.28 29.6571C15.28 30.3271 14.737 30.8711 14.066 30.8711C13.396 30.8711 12.852 30.3281 12.852 29.6571C12.852 28.9871 13.395 28.4431 14.066 28.4431C14.737 28.4431 15.28 28.9861 15.28 29.6571Z" fill="#EA227A"/>
<path d="M28.132 29.6571C28.132 30.3271 27.589 30.8711 26.918 30.8711C26.248 30.8711 25.704 30.3281 25.704 29.6571C25.704 28.9871 26.247 28.4431 26.918 28.4431C27.589 28.4431 28.132 28.9861 28.132 29.6571Z" fill="white"/>
<path d="M39.771 30.8711C40.4415 30.8711 40.985 30.3276 40.985 29.6571C40.985 28.9866 40.4415 28.4431 39.771 28.4431C39.1005 28.4431 38.557 28.9866 38.557 29.6571C38.557 30.3276 39.1005 30.8711 39.771 30.8711Z" fill="#EA227A"/>
<path d="M52.623 30.8711C53.2935 30.8711 53.837 30.3276 53.837 29.6571C53.837 28.9866 53.2935 28.4431 52.623 28.4431C51.9525 28.4431 51.409 28.9866 51.409 29.6571C51.409 30.3276 51.9525 30.8711 52.623 30.8711Z" fill="#EA227A"/>
<path d="M66.688 29.6571C66.688 30.3271 66.145 30.8711 65.474 30.8711C64.804 30.8711 64.26 30.3281 64.26 29.6571C64.26 28.9871 64.803 28.4431 65.474 28.4431C66.145 28.4431 66.688 28.9861 66.688 29.6571Z" fill="#EA227A"/>
<path d="M78.326 30.8711C78.9965 30.8711 79.54 30.3276 79.54 29.6571C79.54 28.9866 78.9965 28.4431 78.326 28.4431C77.6555 28.4431 77.112 28.9866 77.112 29.6571C77.112 30.3276 77.6555 30.8711 78.326 30.8711Z" fill="#EA227A"/>
<path d="M2.428 43.8781C2.428 44.5481 1.885 45.0921 1.214 45.0921C0.543997 45.0921 0 44.5491 0 43.8781C0 43.2081 0.542997 42.6641 1.214 42.6641C1.885 42.6641 2.428 43.2071 2.428 43.8781Z" fill="#EA227A"/>
<path d="M15.28 43.8781C15.28 44.5481 14.737 45.0921 14.066 45.0921C13.396 45.0921 12.852 44.5491 12.852 43.8781C12.852 43.2081 13.395 42.6641 14.066 42.6641C14.737 42.6641 15.28 43.2071 15.28 43.8781Z" fill="#EA227A"/>
<path d="M28.132 43.8781C28.132 44.5481 27.589 45.0921 26.918 45.0921C26.248 45.0921 25.704 44.5491 25.704 43.8781C25.704 43.2081 26.247 42.6641 26.918 42.6641C27.589 42.6641 28.132 43.2071 28.132 43.8781Z" fill="#EA227A"/>
<path d="M40.984 43.8781C40.984 44.5481 40.441 45.0921 39.77 45.0921C39.1 45.0921 38.556 44.5491 38.556 43.8781C38.556 43.2081 39.099 42.6641 39.77 42.6641C40.441 42.6641 40.984 43.2071 40.984 43.8781Z" fill="#EA227A"/>
<path d="M53.836 43.8781C53.836 44.5481 53.293 45.0921 52.622 45.0921C51.951 45.0921 51.408 44.5491 51.408 43.8781C51.408 43.2081 51.951 42.6641 52.622 42.6641C53.293 42.6641 53.836 43.2071 53.836 43.8781Z" fill="white"/>
<path d="M66.688 43.8781C66.688 44.5481 66.145 45.0921 65.474 45.0921C64.804 45.0921 64.26 44.5491 64.26 43.8781C64.26 43.2081 64.803 42.6641 65.474 42.6641C66.145 42.6641 66.688 43.2071 66.688 43.8781Z" fill="#EA227A"/>
<path d="M79.54 43.8781C79.54 44.5481 78.997 45.0921 78.326 45.0921C77.656 45.0921 77.112 44.5491 77.112 43.8781C77.112 43.2081 77.655 42.6641 78.326 42.6641C78.997 42.6641 79.54 43.2071 79.54 43.8781Z" fill="#EA227A"/>
<path d="M1.21497 59.313C1.88545 59.313 2.42898 58.7695 2.42898 58.099C2.42898 57.4285 1.88545 56.885 1.21497 56.885C0.5445 56.885 0.000976562 57.4285 0.000976562 58.099C0.000976562 58.7695 0.5445 59.313 1.21497 59.313Z" fill="#EA227A"/>
<path d="M15.28 58.099C15.28 58.769 14.737 59.313 14.066 59.313C13.396 59.313 12.852 58.77 12.852 58.099C12.852 57.429 13.395 56.885 14.066 56.885C14.737 56.885 15.28 57.429 15.28 58.099Z" fill="#EA227A"/>
<path d="M28.132 58.099C28.132 58.769 27.589 59.313 26.918 59.313C26.248 59.313 25.704 58.77 25.704 58.099C25.704 57.429 26.247 56.885 26.918 56.885C27.589 56.885 28.132 57.429 28.132 58.099Z" fill="#EA227A"/>
<path d="M39.771 59.313C40.4415 59.313 40.985 58.7695 40.985 58.099C40.985 57.4285 40.4415 56.885 39.771 56.885C39.1005 56.885 38.557 57.4285 38.557 58.099C38.557 58.7695 39.1005 59.313 39.771 59.313Z" fill="#EA227A"/>
<path d="M52.623 59.313C53.2935 59.313 53.837 58.7695 53.837 58.099C53.837 57.4285 53.2935 56.885 52.623 56.885C51.9525 56.885 51.409 57.4285 51.409 58.099C51.409 58.7695 51.9525 59.313 52.623 59.313Z" fill="#EA227A"/>
<path d="M66.688 58.099C66.688 58.769 66.145 59.313 65.474 59.313C64.804 59.313 64.26 58.77 64.26 58.099C64.26 57.429 64.803 56.885 65.474 56.885C66.145 56.885 66.688 57.429 66.688 58.099Z" fill="#EA227A"/>
<path d="M78.326 59.313C78.9965 59.313 79.54 58.7695 79.54 58.099C79.54 57.4285 78.9965 56.885 78.326 56.885C77.6555 56.885 77.112 57.4285 77.112 58.099C77.112 58.7695 77.6555 59.313 78.326 59.313Z" fill="#EA227A"/>
<path d="M1.21497 73.534C1.88545 73.534 2.42898 72.9904 2.42898 72.3199C2.42898 71.6495 1.88545 71.106 1.21497 71.106C0.5445 71.106 0.000976562 71.6495 0.000976562 72.3199C0.000976562 72.9904 0.5445 73.534 1.21497 73.534Z" fill="#EA227A"/>
<path d="M15.28 72.3199C15.28 72.9899 14.737 73.534 14.066 73.534C13.396 73.534 12.852 72.9909 12.852 72.3199C12.852 71.6499 13.395 71.106 14.066 71.106C14.737 71.106 15.28 71.6499 15.28 72.3199Z" fill="#EA227A"/>
<path d="M28.132 72.3199C28.132 72.9899 27.589 73.534 26.918 73.534C26.248 73.534 25.704 72.9909 25.704 72.3199C25.704 71.6499 26.247 71.106 26.918 71.106C27.589 71.106 28.132 71.6499 28.132 72.3199Z" fill="#EA227A"/>
<path d="M39.771 73.534C40.4415 73.534 40.985 72.9904 40.985 72.3199C40.985 71.6495 40.4415 71.106 39.771 71.106C39.1005 71.106 38.557 71.6495 38.557 72.3199C38.557 72.9904 39.1005 73.534 39.771 73.534Z" fill="white"/>
<path d="M52.623 73.534C53.2935 73.534 53.837 72.9904 53.837 72.3199C53.837 71.6495 53.2935 71.106 52.623 71.106C51.9525 71.106 51.409 71.6495 51.409 72.3199C51.409 72.9904 51.9525 73.534 52.623 73.534Z" fill="#EA227A"/>
<path d="M66.688 72.3199C66.688 72.9899 66.145 73.534 65.474 73.534C64.804 73.534 64.26 72.9909 64.26 72.3199C64.26 71.6499 64.803 71.106 65.474 71.106C66.145 71.106 66.688 71.6499 66.688 72.3199Z" fill="#EA227A"/>
<path d="M78.326 73.534C78.9965 73.534 79.54 72.9904 79.54 72.3199C79.54 71.6495 78.9965 71.106 78.326 71.106C77.6555 71.106 77.112 71.6495 77.112 72.3199C77.112 72.9904 77.6555 73.534 78.326 73.534Z" fill="#EA227A"/>
<path d="M2.428 86.5409C2.428 87.2109 1.885 87.7549 1.214 87.7549C0.543997 87.7549 0 87.2119 0 86.5409C0 85.8709 0.542997 85.3269 1.214 85.3269C1.885 85.3279 2.428 85.8709 2.428 86.5409Z" fill="#EA227A"/>
<path d="M15.28 86.5409C15.28 87.2109 14.737 87.7549 14.066 87.7549C13.396 87.7549 12.852 87.2119 12.852 86.5409C12.852 85.8709 13.395 85.3269 14.066 85.3269C14.737 85.3279 15.28 85.8709 15.28 86.5409Z" fill="#EA227A"/>
<path d="M28.132 86.5409C28.132 87.2109 27.589 87.7549 26.918 87.7549C26.248 87.7549 25.704 87.2119 25.704 86.5409C25.704 85.8709 26.247 85.3269 26.918 85.3269C27.589 85.3279 28.132 85.8709 28.132 86.5409Z" fill="#EA227A"/>
<path d="M40.984 86.5409C40.984 87.2109 40.441 87.7549 39.77 87.7549C39.1 87.7549 38.556 87.2119 38.556 86.5409C38.556 85.8709 39.099 85.3269 39.77 85.3269C40.441 85.3279 40.984 85.8709 40.984 86.5409Z" fill="#EA227A"/>
<path d="M53.836 86.5409C53.836 87.2109 53.293 87.7549 52.622 87.7549C51.951 87.7549 51.408 87.2119 51.408 86.5409C51.408 85.8709 51.951 85.3269 52.622 85.3269C53.293 85.3269 53.836 85.8709 53.836 86.5409Z" fill="#EA227A"/>
<path d="M66.688 86.5409C66.688 87.2109 66.145 87.7549 65.474 87.7549C64.804 87.7549 64.26 87.2119 64.26 86.5409C64.26 85.8709 64.803 85.3269 65.474 85.3269C66.145 85.3279 66.688 85.8709 66.688 86.5409Z" fill="white"/>
<path d="M79.54 86.5409C79.54 87.2109 78.997 87.7549 78.326 87.7549C77.656 87.7549 77.112 87.2119 77.112 86.5409C77.112 85.8709 77.655 85.3269 78.326 85.3269C78.997 85.3279 79.54 85.8709 79.54 86.5409Z" fill="#EA227A"/>
<path d="M1.21497 101.976C1.88545 101.976 2.42898 101.433 2.42898 100.762C2.42898 100.092 1.88545 99.5481 1.21497 99.5481C0.5445 99.5481 0.000976562 100.092 0.000976562 100.762C0.000976562 101.433 0.5445 101.976 1.21497 101.976Z" fill="#EA227A"/>
<path d="M15.28 100.762C15.28 101.432 14.737 101.976 14.066 101.976C13.396 101.976 12.852 101.433 12.852 100.762C12.852 100.091 13.395 99.5481 14.066 99.5481C14.737 99.5491 15.28 100.092 15.28 100.762Z" fill="white"/>
<path d="M28.132 100.762C28.132 101.432 27.589 101.976 26.918 101.976C26.248 101.976 25.704 101.433 25.704 100.762C25.704 100.091 26.247 99.5481 26.918 99.5481C27.589 99.5491 28.132 100.092 28.132 100.762Z" fill="#EA227A"/>
<path d="M39.771 101.976C40.4415 101.976 40.985 101.433 40.985 100.762C40.985 100.092 40.4415 99.5481 39.771 99.5481C39.1005 99.5481 38.557 100.092 38.557 100.762C38.557 101.433 39.1005 101.976 39.771 101.976Z" fill="#EA227A"/>
<path d="M52.623 101.976C53.2935 101.976 53.837 101.433 53.837 100.762C53.837 100.092 53.2935 99.5481 52.623 99.5481C51.9525 99.5481 51.409 100.092 51.409 100.762C51.409 101.433 51.9525 101.976 52.623 101.976Z" fill="#EA227A"/>
<path d="M66.688 100.762C66.688 101.432 66.145 101.976 65.474 101.976C64.804 101.976 64.26 101.433 64.26 100.762C64.26 100.091 64.803 99.5481 65.474 99.5481C66.145 99.5491 66.688 100.092 66.688 100.762Z" fill="#EA227A"/>
<path d="M78.326 101.976C78.9965 101.976 79.54 101.433 79.54 100.762C79.54 100.092 78.9965 99.5481 78.326 99.5481C77.6555 99.5481 77.112 100.092 77.112 100.762C77.112 101.433 77.6555 101.976 78.326 101.976Z" fill="#EA227A"/>
<path d="M91.571 2.428C92.2415 2.428 92.785 1.88447 92.785 1.214C92.785 0.543523 92.2415 0 91.571 0C90.9005 0 90.357 0.543523 90.357 1.214C90.357 1.88447 90.9005 2.428 91.571 2.428Z" fill="#EA227A"/>
<path d="M105.637 1.214C105.637 1.884 105.094 2.428 104.423 2.428C103.753 2.428 103.209 1.885 103.209 1.214C103.209 0.543997 103.752 0 104.423 0C105.093 0.001 105.637 0.543997 105.637 1.214Z" fill="#EA227A"/>
<path d="M118.489 1.214C118.489 1.884 117.946 2.428 117.275 2.428C116.605 2.428 116.061 1.885 116.061 1.214C116.061 0.543997 116.604 0 117.275 0C117.945 0.001 118.489 0.543997 118.489 1.214Z" fill="#EA227A"/>
<path d="M130.127 2.428C130.797 2.428 131.341 1.88447 131.341 1.214C131.341 0.543523 130.797 0 130.127 0C129.456 0 128.913 0.543523 128.913 1.214C128.913 1.88447 129.456 2.428 130.127 2.428Z" fill="#EA227A"/>
<path d="M142.979 2.428C143.649 2.428 144.193 1.88447 144.193 1.214C144.193 0.543523 143.649 0 142.979 0C142.309 0 141.765 0.543523 141.765 1.214C141.765 1.88447 142.309 2.428 142.979 2.428Z" fill="white"/>
<path d="M92.785 15.4349C92.785 16.1049 92.242 16.6489 91.571 16.6489C90.901 16.6489 90.357 16.1059 90.357 15.4349C90.357 14.7649 90.9 14.2209 91.571 14.2209C92.242 14.2219 92.785 14.7649 92.785 15.4349Z" fill="white"/>
<path d="M105.637 15.4349C105.637 16.1049 105.094 16.6489 104.423 16.6489C103.753 16.6489 103.209 16.1059 103.209 15.4349C103.209 14.7649 103.752 14.2209 104.423 14.2209C105.093 14.2219 105.637 14.7649 105.637 15.4349Z" fill="#EA227A"/>
<path d="M118.489 15.4349C118.489 16.1049 117.946 16.6489 117.275 16.6489C116.605 16.6489 116.061 16.1059 116.061 15.4349C116.061 14.7649 116.604 14.2209 117.275 14.2209C117.945 14.2219 118.489 14.7649 118.489 15.4349Z" fill="#EA227A"/>
<path d="M131.341 15.4349C131.341 16.1049 130.798 16.6489 130.127 16.6489C129.457 16.6489 128.913 16.1059 128.913 15.4349C128.913 14.7649 129.456 14.2209 130.127 14.2209C130.797 14.2219 131.341 14.7649 131.341 15.4349Z" fill="#EA227A"/>
<path d="M144.193 15.4349C144.193 16.1049 143.65 16.6489 142.979 16.6489C142.309 16.6489 141.765 16.1059 141.765 15.4349C141.765 14.7649 142.308 14.2209 142.979 14.2209C143.649 14.2219 144.193 14.7649 144.193 15.4349Z" fill="#EA227A"/>
<path d="M91.571 30.8711C92.2415 30.8711 92.785 30.3276 92.785 29.6571C92.785 28.9866 92.2415 28.4431 91.571 28.4431C90.9005 28.4431 90.357 28.9866 90.357 29.6571C90.357 30.3276 90.9005 30.8711 91.571 30.8711Z" fill="#EA227A"/>
<path d="M105.637 29.6571C105.637 30.3271 105.094 30.8711 104.423 30.8711C103.753 30.8711 103.209 30.3281 103.209 29.6571C103.209 28.9871 103.752 28.4431 104.423 28.4431C105.093 28.4431 105.637 28.9861 105.637 29.6571Z" fill="#EA227A"/>
<path d="M118.489 29.6571C118.489 30.3271 117.946 30.8711 117.275 30.8711C116.605 30.8711 116.061 30.3281 116.061 29.6571C116.061 28.9871 116.604 28.4431 117.275 28.4431C117.945 28.4431 118.489 28.9861 118.489 29.6571Z" fill="white"/>
<path d="M130.127 30.8711C130.797 30.8711 131.341 30.3276 131.341 29.6571C131.341 28.9866 130.797 28.4431 130.127 28.4431C129.456 28.4431 128.913 28.9866 128.913 29.6571C128.913 30.3276 129.456 30.8711 130.127 30.8711Z" fill="#EA227A"/>
<path d="M142.979 30.8711C143.649 30.8711 144.193 30.3276 144.193 29.6571C144.193 28.9866 143.649 28.4431 142.979 28.4431C142.309 28.4431 141.765 28.9866 141.765 29.6571C141.765 30.3276 142.309 30.8711 142.979 30.8711Z" fill="#EA227A"/>
<path d="M92.785 43.8781C92.785 44.5481 92.242 45.0921 91.571 45.0921C90.901 45.0921 90.357 44.5491 90.357 43.8781C90.357 43.2081 90.9 42.6641 91.571 42.6641C92.242 42.6641 92.785 43.2071 92.785 43.8781Z" fill="#EA227A"/>
<path d="M105.637 43.8781C105.637 44.5481 105.094 45.0921 104.423 45.0921C103.753 45.0921 103.209 44.5491 103.209 43.8781C103.209 43.2081 103.752 42.6641 104.423 42.6641C105.093 42.6641 105.637 43.2071 105.637 43.8781Z" fill="#EA227A"/>
<path d="M118.489 43.8781C118.489 44.5481 117.946 45.0921 117.275 45.0921C116.605 45.0921 116.061 44.5491 116.061 43.8781C116.061 43.2081 116.604 42.6641 117.275 42.6641C117.945 42.6641 118.489 43.2071 118.489 43.8781Z" fill="#EA227A"/>
<path d="M131.341 43.8781C131.341 44.5481 130.798 45.0921 130.127 45.0921C129.457 45.0921 128.913 44.5491 128.913 43.8781C128.913 43.2081 129.456 42.6641 130.127 42.6641C130.797 42.6641 131.341 43.2071 131.341 43.8781Z" fill="#EA227A"/>
<path d="M144.193 43.8781C144.193 44.5481 143.65 45.0921 142.979 45.0921C142.309 45.0921 141.765 44.5491 141.765 43.8781C141.765 43.2081 142.308 42.6641 142.979 42.6641C143.649 42.6641 144.193 43.2071 144.193 43.8781Z" fill="white"/>
<path d="M91.571 59.313C92.2415 59.313 92.785 58.7695 92.785 58.099C92.785 57.4285 92.2415 56.885 91.571 56.885C90.9005 56.885 90.357 57.4285 90.357 58.099C90.357 58.7695 90.9005 59.313 91.571 59.313Z" fill="#EA227A"/>
<path d="M105.637 58.099C105.637 58.769 105.094 59.313 104.423 59.313C103.753 59.313 103.209 58.77 103.209 58.099C103.209 57.429 103.752 56.885 104.423 56.885C105.093 56.885 105.637 57.429 105.637 58.099Z" fill="#EA227A"/>
<path d="M118.489 58.099C118.489 58.769 117.946 59.313 117.275 59.313C116.605 59.313 116.061 58.77 116.061 58.099C116.061 57.429 116.604 56.885 117.275 56.885C117.945 56.885 118.489 57.429 118.489 58.099Z" fill="#EA227A"/>
<path d="M130.127 59.313C130.797 59.313 131.341 58.7695 131.341 58.099C131.341 57.4285 130.797 56.885 130.127 56.885C129.456 56.885 128.913 57.4285 128.913 58.099C128.913 58.7695 129.456 59.313 130.127 59.313Z" fill="#EA227A"/>
<path d="M142.979 59.313C143.649 59.313 144.193 58.7695 144.193 58.099C144.193 57.4285 143.649 56.885 142.979 56.885C142.309 56.885 141.765 57.4285 141.765 58.099C141.765 58.7695 142.309 59.313 142.979 59.313Z" fill="#EA227A"/>
<path d="M91.571 73.534C92.2415 73.534 92.785 72.9904 92.785 72.3199C92.785 71.6495 92.2415 71.106 91.571 71.106C90.9005 71.106 90.357 71.6495 90.357 72.3199C90.357 72.9904 90.9005 73.534 91.571 73.534Z" fill="#EA227A"/>
<path d="M105.637 72.3199C105.637 72.9899 105.094 73.534 104.423 73.534C103.753 73.534 103.209 72.9909 103.209 72.3199C103.209 71.6499 103.752 71.106 104.423 71.106C105.093 71.106 105.637 71.6499 105.637 72.3199Z" fill="#EA227A"/>
<path d="M118.489 72.3199C118.489 72.9899 117.946 73.534 117.275 73.534C116.605 73.534 116.061 72.9909 116.061 72.3199C116.061 71.6499 116.604 71.106 117.275 71.106C117.945 71.106 118.489 71.6499 118.489 72.3199Z" fill="#EA227A"/>
<path d="M130.127 73.534C130.797 73.534 131.341 72.9904 131.341 72.3199C131.341 71.6495 130.797 71.106 130.127 71.106C129.456 71.106 128.913 71.6495 128.913 72.3199C128.913 72.9904 129.456 73.534 130.127 73.534Z" fill="white"/>
<path d="M142.979 73.534C143.649 73.534 144.193 72.9904 144.193 72.3199C144.193 71.6495 143.649 71.106 142.979 71.106C142.309 71.106 141.765 71.6495 141.765 72.3199C141.765 72.9904 142.309 73.534 142.979 73.534Z" fill="#EA227A"/>
<path d="M92.785 86.5409C92.785 87.2109 92.242 87.7549 91.571 87.7549C90.901 87.7549 90.357 87.2119 90.357 86.5409C90.357 85.8709 90.9 85.3269 91.571 85.3269C92.242 85.3279 92.785 85.8709 92.785 86.5409Z" fill="#EA227A"/>
<path d="M105.637 86.5409C105.637 87.2109 105.094 87.7549 104.423 87.7549C103.753 87.7549 103.209 87.2119 103.209 86.5409C103.209 85.8709 103.752 85.3269 104.423 85.3269C105.093 85.3279 105.637 85.8709 105.637 86.5409Z" fill="#EA227A"/>
<path d="M118.489 86.5409C118.489 87.2109 117.946 87.7549 117.275 87.7549C116.605 87.7549 116.061 87.2119 116.061 86.5409C116.061 85.8709 116.604 85.3269 117.275 85.3269C117.945 85.3279 118.489 85.8709 118.489 86.5409Z" fill="#EA227A"/>
<path d="M131.341 86.5409C131.341 87.2109 130.798 87.7549 130.127 87.7549C129.457 87.7549 128.913 87.2119 128.913 86.5409C128.913 85.8709 129.456 85.3269 130.127 85.3269C130.797 85.3279 131.341 85.8709 131.341 86.5409Z" fill="#EA227A"/>
<path d="M144.193 86.5409C144.193 87.2109 143.65 87.7549 142.979 87.7549C142.309 87.7549 141.765 87.2119 141.765 86.5409C141.765 85.8709 142.308 85.3269 142.979 85.3269C143.649 85.3279 144.193 85.8709 144.193 86.5409Z" fill="#EA227A"/>
<path d="M91.571 101.976C92.2415 101.976 92.785 101.433 92.785 100.762C92.785 100.092 92.2415 99.5481 91.571 99.5481C90.9005 99.5481 90.357 100.092 90.357 100.762C90.357 101.433 90.9005 101.976 91.571 101.976Z" fill="#EA227A"/>
<path d="M105.637 100.762C105.637 101.432 105.094 101.976 104.423 101.976C103.753 101.976 103.209 101.433 103.209 100.762C103.209 100.091 103.752 99.5481 104.423 99.5481C105.093 99.5491 105.637 100.092 105.637 100.762Z" fill="white"/>
<path d="M118.489 100.762C118.489 101.432 117.946 101.976 117.275 101.976C116.605 101.976 116.061 101.433 116.061 100.762C116.061 100.091 116.604 99.5481 117.275 99.5481C117.945 99.5491 118.489 100.092 118.489 100.762Z" fill="#EA227A"/>
<path d="M130.127 101.976C130.797 101.976 131.341 101.433 131.341 100.762C131.341 100.092 130.797 99.5481 130.127 99.5481C129.456 99.5481 128.913 100.092 128.913 100.762C128.913 101.433 129.456 101.976 130.127 101.976Z" fill="#EA227A"/>
<path d="M142.979 101.976C143.649 101.976 144.193 101.433 144.193 100.762C144.193 100.092 143.649 99.5481 142.979 99.5481C142.309 99.5481 141.765 100.092 141.765 100.762C141.765 101.433 142.309 101.976 142.979 101.976Z" fill="#EA227A"/>
</svg>
