<svg width="18" height="20" viewBox="0 0 18 20" fill="none" xmlns="http://www.w3.org/2000/svg">
<path d="M15.9672 12.3105C15.6261 12.3522 15.3141 12.481 15.0138 12.7038L13.5818 11.8824C13.5972 11.8428 13.6121 11.8036 13.6267 11.7644C13.8158 11.2555 13.9249 10.7414 13.9508 10.2376C13.9548 10.1592 13.9569 10.0796 13.9569 9.99999C13.9569 9.87876 13.952 9.75513 13.9431 9.6331C13.9092 9.18779 13.8089 8.73328 13.6453 8.28317C13.625 8.22716 13.6044 8.17155 13.5822 8.11593L13.9185 7.92389C14.2758 7.72024 14.631 7.51779 14.9843 7.31174C15.0206 7.29053 15.0299 7.29814 15.0655 7.32854C15.0756 7.33695 15.0857 7.34535 15.0962 7.35295C15.5133 7.64342 15.9422 7.75145 16.4082 7.68143C17.1442 7.5718 17.6409 7.17051 17.8846 6.48874C18.1299 5.80138 17.9824 5.15962 17.4578 4.63349C16.9465 4.12057 16.3043 3.96813 15.6051 4.19099C14.8004 4.44785 14.3105 5.17002 14.357 6.03103C14.3582 6.05104 14.3623 6.07184 14.3659 6.09305C14.3788 6.16266 14.3796 6.18947 14.338 6.21308C13.8716 6.47874 13.4048 6.7436 12.9335 7.01087C12.9331 7.01047 12.9327 7.01047 12.9327 7.01007L12.9186 6.99326C12.086 5.97022 11.0133 5.34727 9.72802 5.14122L9.66174 5.13242C9.66093 5.13242 9.66012 5.13201 9.65891 5.13201C9.65972 5.00078 9.66093 4.87035 9.66214 4.74072C9.66578 4.37183 9.66901 4.02335 9.65931 3.66766C9.65567 3.53363 9.69326 3.47602 9.82583 3.4112C10.365 3.14714 10.7288 2.66462 10.8241 2.08728C10.9195 1.50674 10.7279 0.931002 10.2975 0.5081C9.62981 -0.149658 8.53612 -0.171264 7.8082 0.457688C7.11667 1.05503 7.00471 2.13489 7.55843 2.86547C7.76455 3.13753 8.03292 3.34158 8.37728 3.48842L8.36919 5.12721L8.31019 5.13442C6.99178 5.33606 5.89647 5.96782 5.05458 7.01167C4.94424 6.94845 4.83471 6.88524 4.72639 6.82242C4.4168 6.64358 4.12458 6.47474 3.82065 6.3127C3.66221 6.22828 3.61694 6.14906 3.62745 5.97462C3.65696 5.4997 3.49529 5.04439 3.17235 4.69191C2.83568 4.32502 2.36846 4.11257 1.85597 4.09416C1.39359 4.07416 0.915862 4.261 0.560595 4.59909C0.205732 4.93677 0.00122155 5.39808 9.03341e-06 5.86379C-0.00201183 6.59117 0.335068 7.1533 0.974871 7.48898C1.60295 7.81866 2.25408 7.77825 2.85831 7.37255C2.9545 7.30774 3.00826 7.30694 3.1093 7.36655C3.34332 7.50579 3.57976 7.64062 3.8166 7.77505C3.97019 7.86267 4.12377 7.94989 4.27655 8.03872C4.29272 8.04792 4.30969 8.05592 4.32667 8.06352C4.36709 8.08233 4.39457 8.09633 4.40952 8.11993C4.15651 8.74569 4.03405 9.36384 4.03486 10.0096C4.03607 10.6405 4.15934 11.2539 4.41114 11.884L4.11407 12.0533C3.74224 12.2645 3.37323 12.4746 3.00624 12.6886C2.97108 12.7094 2.96178 12.701 2.92702 12.6718C2.91611 12.6622 2.9052 12.6526 2.89388 12.645C2.27267 12.2117 1.49625 12.1805 0.867362 12.5646C0.229983 12.9547 -0.0905255 13.6629 0.0315344 14.4123C0.169357 15.2549 0.944558 15.9078 1.78483 15.9078C1.81555 15.9078 1.84667 15.9066 1.87779 15.905C2.86518 15.8478 3.6125 15.1244 3.61654 14.2222C3.61775 13.8773 3.72486 13.7105 4.04011 13.5612C4.29353 13.4408 4.53926 13.2952 4.77651 13.1539C4.86988 13.0983 4.96324 13.0431 5.05741 12.9887C5.89849 14.0306 6.98733 14.6611 8.30453 14.8648C8.31989 14.8676 8.33484 14.87 8.3498 14.8728V16.5104C7.45173 16.9325 7.02937 17.7102 7.22013 18.5977C7.39029 19.3903 8.1372 19.9936 8.95767 20C8.96333 20 8.96858 20 8.97424 20C9.84604 20 10.5832 19.4327 10.77 18.6153C10.9385 17.8759 10.6532 16.9417 9.64153 16.5068V14.8736C9.65204 14.872 9.66295 14.87 9.67386 14.8684L9.72075 14.8604C10.9971 14.6575 12.0649 14.0446 12.8951 13.0379L12.923 13.0039C12.9278 12.9983 12.9319 12.9935 12.9367 12.9879C13.0511 13.0535 13.1639 13.1191 13.2766 13.184C13.5988 13.3708 13.9031 13.5472 14.2196 13.7157C14.3392 13.7793 14.3707 13.8401 14.3618 13.9866C14.3251 14.5807 14.5676 15.1332 15.0259 15.5017C15.4875 15.8726 16.0877 15.9942 16.6721 15.8354C17.5807 15.5889 18.1437 14.6603 17.9541 13.7225C17.7735 12.8323 16.8847 12.2001 15.9672 12.3105ZM16.7044 14.1014C16.704 14.2418 16.6491 14.3726 16.5496 14.4703C16.449 14.5687 16.3136 14.6227 16.1685 14.6227C16.1669 14.6227 16.1653 14.6227 16.1636 14.6227C16.0202 14.6215 15.8868 14.5663 15.789 14.4675C15.6908 14.3682 15.6378 14.2342 15.6398 14.091C15.6419 13.9505 15.698 13.8209 15.7971 13.7261C15.8961 13.6313 16.0291 13.5797 16.1729 13.5797C16.1766 13.5797 16.1806 13.5797 16.1843 13.5797C16.4716 13.5849 16.7052 13.8189 16.7044 14.1014ZM16.704 5.8906C16.7073 6.02943 16.6547 6.16106 16.5561 6.26149C16.4555 6.36391 16.3201 6.42073 16.175 6.42113C16.1742 6.42113 16.1733 6.42113 16.1721 6.42113C16.0274 6.42113 15.8933 6.36711 15.7934 6.26949C15.6948 6.17227 15.6402 6.04103 15.6402 5.8998C15.6402 5.75817 15.6948 5.62613 15.7934 5.52891C15.8924 5.43129 16.0266 5.37767 16.1713 5.37767C16.1725 5.37767 16.1733 5.37767 16.1742 5.37767C16.4648 5.37967 16.6976 5.60493 16.704 5.8906ZM8.94271 11.8076C8.96131 11.8072 8.9803 11.8072 8.99889 11.8072C9.88161 11.8072 10.5893 12.1913 11.1034 12.9499C9.95759 13.8657 8.08547 13.8693 6.88508 12.9559C7.38342 12.2097 8.07577 11.824 8.94271 11.8076ZM9.92566 9.6171C9.92122 10.1104 9.49643 10.5297 8.99849 10.5325C8.99768 10.5325 8.99647 10.5325 8.99526 10.5325C8.75558 10.5325 8.51712 10.4317 8.3405 10.2561C8.16347 10.08 8.06324 9.84315 8.06526 9.60589C8.06728 9.36543 8.17236 9.12778 8.35343 8.95374C8.52803 8.7861 8.75962 8.69047 8.99202 8.69047C8.99809 8.69047 9.00415 8.69047 9.01021 8.69047C9.51098 8.70127 9.9297 9.12538 9.92566 9.6171ZM11.1899 9.32302C11.1147 8.76369 10.8492 8.29118 10.4006 7.91949C9.58899 7.24772 8.36798 7.25773 7.56126 7.94229C6.79171 8.59565 6.44008 9.83475 7.2363 10.9578C7.02775 11.075 6.76948 11.2319 6.53385 11.4319C6.34591 11.5916 6.16525 11.7824 5.96841 12.0277C5.09621 10.8678 4.99921 8.87052 6.35036 7.47738C7.67685 6.10985 9.86221 5.98302 11.3261 7.18931C12.7997 8.4044 13.1029 10.5213 12.031 12.0373C11.8685 11.836 11.6741 11.6124 11.4449 11.4207C11.2404 11.2503 11.0113 11.0975 10.7461 10.9546C11.1184 10.4573 11.2675 9.90877 11.1899 9.32302ZM8.76165 1.3415C8.84288 1.29549 8.9318 1.27228 9.02234 1.27228C9.06882 1.27228 9.1153 1.27869 9.16137 1.29109C9.29919 1.3291 9.41519 1.41992 9.48713 1.54715C9.55786 1.67118 9.57565 1.81281 9.53766 1.94605C9.49926 2.07968 9.40832 2.19171 9.28141 2.26132C9.15773 2.32934 9.01668 2.34654 8.88371 2.30773C8.7479 2.26892 8.63352 2.1765 8.56239 2.04807C8.42416 1.79801 8.51308 1.48113 8.76165 1.3415ZM8.99687 18.7337C8.99647 18.7337 8.99647 18.7337 8.99687 18.7337C8.71557 18.7337 8.45892 18.4804 8.45811 18.2028C8.4573 17.9247 8.71274 17.6706 8.99485 17.6694C8.99526 17.6694 8.99566 17.6694 8.99607 17.6694C9.27616 17.6694 9.5324 17.9223 9.53361 18.2C9.53361 18.478 9.27818 18.7325 8.99687 18.7337ZM1.28689 5.8946C1.29013 5.60773 1.52131 5.38087 1.81272 5.37807C1.81474 5.37807 1.81717 5.37807 1.81959 5.37807C1.96348 5.37807 2.09726 5.43089 2.19628 5.52771C2.2953 5.62413 2.35027 5.75456 2.35148 5.8954C2.35229 6.03743 2.29813 6.17027 2.19951 6.26869C2.10009 6.36751 1.9659 6.42153 1.82161 6.42153C1.6749 6.42153 1.53869 6.36551 1.43724 6.26429C1.33822 6.16506 1.28487 6.03383 1.28689 5.8946ZM1.28689 14.0914C1.29417 13.8053 1.52737 13.5809 1.81757 13.5797C1.81838 13.5797 1.81959 13.5797 1.8204 13.5797C1.96509 13.5797 2.09928 13.6337 2.1987 13.7317C2.29773 13.8289 2.35148 13.9601 2.35148 14.1018C2.35148 14.2434 2.29651 14.3746 2.19709 14.4719C2.09766 14.5695 1.96388 14.6231 1.81999 14.6231C1.81878 14.6231 1.81717 14.6231 1.81595 14.6231C1.67045 14.6223 1.53505 14.5651 1.43441 14.4627C1.33539 14.3614 1.28325 14.2298 1.28689 14.0914Z" fill="#2E2E3E" fill-opacity="0.4"/>
</svg>
