<svg width="58" height="66" viewBox="0 0 58 66" fill="none" xmlns="http://www.w3.org/2000/svg">
<path opacity="0.15" d="M29 0L30.4974 27.0581C30.5771 28.4987 32.1096 29.3835 33.3971 28.7323L57.5788 16.5L34.8945 31.3258C33.6868 32.1152 33.6868 33.8848 34.8945 34.6741L57.5788 49.5L33.3971 37.2677C32.1096 36.6165 30.5771 37.5013 30.4974 38.9419L29 66L27.5026 38.9419C27.4229 37.5013 25.8904 36.6165 24.6029 37.2677L0.421162 49.5L23.1055 34.6741C24.3132 33.8848 24.3132 32.1152 23.1055 31.3259L0.421162 16.5L24.6029 28.7323C25.8904 29.3835 27.4229 28.4987 27.5026 27.0581L29 0Z" fill="url(#paint0_linear_1625_2347)"/>
<defs>
<linearGradient id="paint0_linear_1625_2347" x1="44.9077" y1="70.8469" x2="-2.5582" y2="63.819" gradientUnits="userSpaceOnUse">
<stop stop-color="#EE3E3C"/>
<stop offset="1" stop-color="#FF842C"/>
</linearGradient>
</defs>
</svg>
