<svg width="76" height="86" viewBox="0 0 76 86" fill="none" xmlns="http://www.w3.org/2000/svg">
<path opacity="0.2" d="M38 0L40.0024 36.1834C40.0821 37.6241 41.6146 38.5088 42.9021 37.8576L75.2391 21.5L44.9045 41.3259C43.6968 42.1152 43.6968 43.8848 44.9045 44.6741L75.2391 64.5L42.9021 48.1424C41.6146 47.4911 40.0821 48.3759 40.0024 49.8166L38 86L35.9976 49.8166C35.9179 48.3759 34.3854 47.4912 33.0979 48.1424L0.760906 64.5L31.0955 44.6741C32.3032 43.8848 32.3032 42.1152 31.0955 41.3259L0.760906 21.5L33.0979 37.8576C34.3854 38.5089 35.9179 37.6241 35.9976 36.1834L38 0Z" fill="url(#paint0_linear_1625_2346)"/>
<defs>
<linearGradient id="paint0_linear_1625_2346" x1="58.7282" y1="92.3156" x2="-3.12129" y2="83.158" gradientUnits="userSpaceOnUse">
<stop stop-color="#EE3E3C"/>
<stop offset="1" stop-color="#FF842C"/>
</linearGradient>
</defs>
</svg>
