<svg width="20" height="20" viewBox="0 0 20 20" fill="none" xmlns="http://www.w3.org/2000/svg">
<path d="M18.171 4.72482H9.68902L8.27502 0.470818C8.18942 0.212418 7.94902 0.0388184 7.67662 0.0388184H1.82902C0.840621 0.0388184 0.0366211 0.843218 0.0366211 1.83162V13.488C0.0366211 14.4768 0.841021 15.2808 1.82902 15.2808H8.19422L9.59662 19.5224C9.67822 19.784 9.92582 19.9668 10.2034 19.9668H18.1714C19.1602 19.9668 19.9642 19.1624 19.9642 18.174V6.51762C19.9642 5.52922 19.1598 4.72482 18.171 4.72482ZM12.8986 14.9108C12.9634 14.768 12.9722 14.6004 12.9222 14.4512L10.109 5.98682H18.1714C18.4638 5.98682 18.7022 6.22482 18.7022 6.51762V18.174C18.7022 18.4664 18.4638 18.7048 18.1714 18.7048H11.1778L12.8986 14.9108ZM11.4494 14.0192H1.82902C1.53662 14.0192 1.29822 13.7808 1.29822 13.488V1.83162C1.29822 1.53882 1.53662 1.30082 1.82902 1.30082H7.22142L11.4494 14.0192ZM11.3446 15.2808L10.2914 17.6048L9.52302 15.2808H11.3446Z" fill="#2E2E3E" fill-opacity="0.4"/>
<path d="M5.35248 6.24603C5.73568 6.24603 6.09568 6.39523 6.36608 6.66603C6.46928 6.76883 6.60608 6.82523 6.75128 6.82523C6.89648 6.82523 7.03328 6.76843 7.13608 6.66603C7.23928 6.56323 7.29568 6.42643 7.29568 6.28083C7.29568 6.13563 7.23888 5.99883 7.13648 5.89603C6.66008 5.41963 6.02688 5.15723 5.35248 5.15723C3.96168 5.15723 2.83008 6.28883 2.83008 7.67963C2.83008 9.07083 3.96168 10.2024 5.35248 10.2024C6.74368 10.2024 7.87528 9.07083 7.87528 7.67963C7.87528 7.37963 7.63128 7.13523 7.33088 7.13523H5.84728C5.54688 7.13523 5.30288 7.37923 5.30288 7.67963C5.30288 7.98003 5.54688 8.22403 5.84728 8.22403H6.67888C6.45848 8.75843 5.93448 9.11323 5.35288 9.11323C4.56248 9.11323 3.91968 8.47003 3.91968 7.67963C3.91968 6.88923 4.56248 6.24603 5.35248 6.24603Z" fill="#2E2E3E" fill-opacity="0.4"/>
<path d="M17.0669 9.17845H15.6645V8.74445C15.6645 8.45005 15.4249 8.21045 15.1305 8.21045C14.8361 8.21045 14.5965 8.45005 14.5965 8.74445V9.17845H13.1941C12.8997 9.17845 12.6597 9.41805 12.6597 9.71245C12.6597 10.0068 12.8997 10.2464 13.1941 10.2464H15.9357C15.7945 10.63 15.5201 11.1072 15.1369 11.6344C15.0661 11.538 14.9985 11.442 14.9349 11.3484C14.8545 11.2304 14.7333 11.1508 14.5933 11.124C14.4533 11.096 14.3105 11.1264 14.1929 11.2068C13.9497 11.3724 13.8861 11.7048 14.0513 11.9484C14.1725 12.126 14.3057 12.3105 14.4485 12.4969C14.2257 12.7536 13.9981 12.9972 13.7881 13.2036C13.6865 13.3036 13.6297 13.4373 13.6285 13.5797C13.6273 13.7221 13.6817 13.8568 13.7817 13.9584C13.8813 14.06 14.0149 14.1169 14.1573 14.1185C14.1593 14.1185 14.1613 14.1185 14.1629 14.1185C14.3037 14.1185 14.4361 14.0641 14.5365 13.9657C14.5393 13.9629 14.7905 13.7173 15.1349 13.3297C15.4653 13.7049 15.7105 13.9512 15.7217 13.962C15.9297 14.17 16.2681 14.17 16.4769 13.962C16.6849 13.7536 16.6849 13.4152 16.4773 13.206C16.4741 13.2032 16.1933 12.9216 15.8265 12.496C16.4861 11.6376 16.8977 10.8808 17.0497 10.2456H17.0677C17.3621 10.2456 17.6017 10.006 17.6017 9.71165C17.6017 9.41725 17.3617 9.17845 17.0669 9.17845Z" fill="#2E2E3E" fill-opacity="0.4"/>
</svg>
