<svg width="140" height="50" viewBox="0 0 140 50" fill="none" xmlns="http://www.w3.org/2000/svg">
<rect width="140" height="50" rx="10" fill="white"/>
<path d="M64.2326 39.5021H56.848L61.4633 10.6419H68.8486L64.2326 39.5021ZM50.6356 10.6419L43.5954 30.4921L42.7624 26.2176L42.7631 26.2192L40.2783 13.2404C40.2783 13.2404 39.9779 10.6419 36.7753 10.6419H25.1366L25 11.1306C25 11.1306 28.5592 11.884 32.7245 14.4293L39.1402 39.5028H46.8344L58.5832 10.6419H50.6356V10.6419ZM108.719 39.5021H115.5L109.588 10.6411H103.652C100.911 10.6411 100.243 12.7919 100.243 12.7919L89.2293 39.5021H96.9273L98.4667 35.2152H107.854L108.719 39.5021ZM100.593 29.2932L104.474 18.4931L106.656 29.2932H100.593ZM89.8067 17.5821L90.8606 11.3846C90.8606 11.3846 87.6087 10.1262 84.2188 10.1262C80.5542 10.1262 71.8516 11.7559 71.8516 19.6804C71.8516 27.1363 82.0655 27.2289 82.0655 31.1453C82.0655 35.0616 72.904 34.3598 69.8805 31.8902L68.7826 38.3703C68.7826 38.3703 72.08 40 77.1179 40C82.1573 40 89.7597 37.3451 89.7597 30.1193C89.7597 22.6155 79.454 21.9169 79.454 18.6544C79.4548 15.3912 86.6467 15.8104 89.8067 17.5821V17.5821Z" fill="#2566AF"/>
<path d="M42.5728 25.9369L40.1146 13.4917C40.1146 13.4917 39.8174 11 36.6492 11H25.1351L25 11.4686C25 11.4686 30.5341 12.5997 35.8423 16.8377C40.9178 20.8883 42.5728 25.9369 42.5728 25.9369Z" fill="#E6A540"/>
</svg>
