<svg width="208" height="33" viewBox="0 0 208 33" fill="none" xmlns="http://www.w3.org/2000/svg">
<path d="M24.6543 10.9909L6.01198 12.9375L22.2288 19.8632C23.5706 20.4591 26.0605 20.4591 27.3248 19.8632L40.5099 14.1823C40.626 13.9704 40.8711 13.8512 41.1807 13.8512L48.4699 10.6599C48.9602 10.448 49.1408 10.1699 49.1408 10.1699C49.1408 10.064 49.0247 9.83887 48.4699 9.627L27.3377 0.436992C26.7314 0.17215 25.7638 0 24.7833 0C23.8673 0 22.9642 0.158908 22.2933 0.436992L0.670869 9.67998C0.129017 9.89185 0 10.117 0 10.1699C0 10.1699 0.116117 10.4348 0.670869 10.6599L2.85119 11.5736L24.4736 9.29595C24.9639 9.24298 25.4412 9.5608 25.5057 10.0508C25.5702 10.501 25.1961 10.938 24.6543 10.9909Z" fill="#EE3E3C"/>
<path d="M40.0689 17.3618L31.1025 21.4006C30.2123 21.8243 26.8322 23.2412 25.5808 23.2545C24.381 23.2677 21.2718 22.2481 20.3558 21.9038L9.19616 16.7129C9.24776 19.7321 9.06715 22.3275 9.11875 25.3467C10.7185 26.565 16.5499 31.2792 24.9744 31.0806C33.0764 30.8952 38.5207 26.234 40.1334 24.9362C40.0689 21.9303 40.1334 20.3677 40.0689 17.3618Z" fill="#EE3E3C"/>
<path d="M4.15517 17.4555V12.3308L2.63281 11.5098V17.4687C2.63281 17.8527 2.95537 18.1573 3.35531 18.1573H3.4069C3.81974 18.1573 4.15517 17.8395 4.15517 17.4555Z" fill="#EE3E3C"/>
<path d="M1.88299 23.2835C1.65076 26.3159 1.41854 29.3616 1.19922 32.4073H5.39212C5.1986 29.8251 5.01797 27.2561 4.81155 24.6739C4.70834 23.3894 4.74705 22.0652 3.76655 21.0059H2.81188C2.17972 21.6812 1.94749 22.4625 1.88299 23.2835Z" fill="#EE3E3C"/>
<path d="M3.34188 20.5527C3.91901 20.5527 4.38688 20.1081 4.38688 19.5596C4.38688 19.0111 3.91901 18.5664 3.34188 18.5664C2.76474 18.5664 2.29688 19.0111 2.29688 19.5596C2.29688 20.1081 2.76474 20.5527 3.34188 20.5527Z" fill="#EE3E3C"/>
<path d="M51.9453 26.4829V7.8267H55.6058L62.1946 15.8851L68.7581 7.8267H72.4437V26.4829H69.0863V12.8017L62.1946 21.2228L55.2776 12.8276V26.4829H51.9453ZM75.4159 26.4829V11.4284C75.4159 10.4437 75.7609 9.5973 76.4508 8.88906C77.1409 8.18082 77.9656 7.8267 78.9248 7.8267H90.0576C91.0337 7.8267 91.8668 8.18082 92.5567 8.88906C93.2468 9.5973 93.5918 10.4437 93.5918 11.4284V26.4829H90.2342V20.2123H78.7482V26.4829H75.4159ZM78.7482 16.792H90.2342V12.1798C90.2342 11.6961 90.2007 11.4284 90.1334 11.3765C90.066 11.3075 89.8052 11.2729 89.3508 11.2729H79.6316C79.1605 11.2729 78.8912 11.3075 78.8239 11.3765C78.7733 11.4284 78.7482 11.6961 78.7482 12.1798V16.792ZM96.5186 26.4829V11.4284C96.5186 10.4437 96.8635 9.5973 97.5536 8.88906C98.2436 8.18082 99.0682 7.8267 100.028 7.8267H111.16C112.136 7.8267 112.969 8.18082 113.66 8.88906C114.35 9.5973 114.694 10.4437 114.694 11.4284V26.4829H111.337V20.2123H99.8508V26.4829H96.5186ZM99.8508 16.792H111.337V12.1798C111.337 11.6961 111.303 11.4284 111.236 11.3765C111.169 11.3075 110.908 11.2729 110.453 11.2729H100.734C100.263 11.2729 99.9939 11.3075 99.9266 11.3765C99.8761 11.4284 99.8508 11.6961 99.8508 12.1798V16.792ZM117.571 26.4829V7.8267H121.231L132.389 21.456V7.8267H135.747V26.4829H132.086L120.903 12.8276V26.4829H117.571ZM146.317 26.4829V7.80078H149.648V23.0366H164.492V26.4829H146.317ZM165.964 26.4829V7.8267H169.624L176.213 15.8851L182.777 7.8267H186.463V26.4829H183.105V12.8017L176.213 21.2228L169.297 12.8276V26.4829H165.964ZM192.817 26.4829C191.858 26.4829 191.034 26.1288 190.344 25.4205C189.654 24.7123 189.308 23.8658 189.308 22.8812V21.456H192.64V22.1298C192.64 22.6134 192.666 22.8899 192.716 22.9589C192.783 23.0108 193.053 23.0366 193.524 23.0366H203.244C203.715 23.0366 203.975 23.0108 204.026 22.9589C204.093 22.8899 204.126 22.6134 204.126 22.1298V19.7718C204.126 19.2882 204.093 19.0204 204.026 18.9686C203.975 18.8995 203.715 18.865 203.244 18.865H192.817C191.858 18.865 191.034 18.5109 190.344 17.8025C189.654 17.0944 189.308 16.2479 189.308 15.2632V11.4284C189.308 10.4437 189.654 9.5973 190.344 8.88906C191.034 8.18082 191.858 7.8267 192.817 7.8267H203.975C204.935 7.8267 205.76 8.18082 206.45 8.88906C207.14 9.5973 207.484 10.4437 207.484 11.4284V12.8535H204.126V12.1798C204.126 11.6961 204.093 11.4284 204.026 11.3765C203.975 11.3075 203.715 11.2729 203.244 11.2729H193.524C193.053 11.2729 192.783 11.3075 192.716 11.3765C192.666 11.4284 192.64 11.6961 192.64 12.1798V14.5377C192.64 15.0214 192.666 15.2892 192.716 15.341C192.783 15.3927 193.053 15.4187 193.524 15.4187H203.975C204.935 15.4187 205.76 15.7815 206.45 16.5069C207.14 17.2153 207.484 18.0617 207.484 19.0464V22.8812C207.484 23.8658 207.14 24.7123 206.45 25.4205C205.76 26.1288 204.935 26.4829 203.975 26.4829H192.817Z" fill="white"/>
</svg>
