<svg width="1720" height="180" viewBox="0 0 1720 180" fill="none" xmlns="http://www.w3.org/2000/svg">
<g opacity="0.5">
<mask id="mask0_1492_1149" style="mask-type:alpha" maskUnits="userSpaceOnUse" x="0" y="0" width="1720" height="180">
<path d="M1720 0H0V180H1720V0Z" fill="#FFF1F2"/>
</mask>
<g mask="url(#mask0_1492_1149)">
<path d="M-119.284 53.7938C-119.284 80.7768 -68.3899 96.0028 -39.0319 109.866C-9.67394 123.729 -16.7609 153.966 19.1461 134.123C55.0531 114.28 79.7411 41.5628 53.0931 0.392834C27.6501 -38.9152 -119.284 -9.61317 -119.284 53.7938Z" fill="#FFE8D4"/>
<path opacity="0.2" d="M1189.22 -26.4691C1169.04 7.69194 1161.09 77.5469 1209.01 110.272C1256.93 142.997 1328.78 108.435 1399.35 102.194C1469.92 95.9529 1503.18 120.653 1549.27 196.274C1595.2 271.657 1705.02 296.752 1774.19 245.579C1825.74 207.438 1809.1 -0.401052 1742.57 -37.8091C1668.15 -79.6511 1219.37 -77.4761 1189.22 -26.4691Z" fill="#FFC36B"/>
<path d="M1721.85 152.82C1716.23 152.82 1710.34 151.88 1704.18 149.72C1685.34 143.113 1674.29 124.873 1663.61 107.234C1652.88 89.5219 1641.79 71.2069 1622.83 64.4719C1620.05 63.4859 1617.35 62.6569 1614.74 61.9849C1613.53 70.6689 1610.42 77.7569 1606.24 82.6029C1600.44 89.3299 1592.65 91.7899 1584.86 89.3499C1579.65 87.7199 1575.9 83.6799 1574.82 78.5409C1573.66 73.0359 1575.7 67.3629 1580.27 63.3669C1584.53 59.6359 1594.04 54.7539 1612.68 58.9809C1613.66 47.8429 1611.43 34.1959 1604.24 19.3609C1594.45 -0.868084 1577.34 -16.6271 1556.08 -25.0121C1534.58 -33.4931 1511.64 -33.2231 1491.49 -24.2551C1490.88 -23.9831 1490.17 -24.2581 1489.9 -24.8661C1489.63 -25.4751 1489.9 -26.1871 1490.51 -26.4581C1511.26 -35.6921 1534.86 -35.9761 1556.97 -27.2561C1578.79 -18.6471 1596.35 -2.46508 1606.42 18.3089C1613.87 33.6969 1616.12 47.9139 1615.02 59.5469C1617.71 60.2389 1620.58 61.1139 1623.63 62.1989C1643.41 69.2219 1654.73 87.9109 1665.67 105.984C1676.61 124.055 1686.95 141.123 1704.97 147.444C1736.49 158.497 1760.17 136.749 1777.46 120.869C1785.81 113.205 1791.84 107.667 1796.79 107.667C1811.44 107.667 1825.65 132.423 1826.25 133.477C1826.57 134.056 1826.37 134.792 1825.79 135.12C1825.21 135.448 1824.48 135.245 1824.15 134.667C1824.01 134.421 1810.04 110.079 1796.79 110.079C1792.78 110.079 1786.44 115.902 1779.09 122.645C1765.49 135.137 1746.23 152.819 1721.85 152.82ZM1599.26 59.8159C1591.92 59.8159 1585.94 61.6069 1581.86 65.1809C1577.95 68.5949 1576.2 73.4039 1577.18 78.0439C1578.09 82.3809 1581.15 85.6629 1585.58 87.0489C1592.5 89.2199 1599.19 87.0799 1604.41 81.0279C1608.36 76.4439 1611.3 69.7059 1612.41 61.4219C1607.68 60.3509 1603.27 59.8159 1599.26 59.8159Z" fill="#F7A9B0"/>
<path opacity="0.5" d="M-20.4381 82.602C-20.7461 82.602 -21.0551 82.484 -21.2901 82.249C-21.7611 81.778 -21.7611 81.015 -21.2901 80.544C-6.82306 66.077 11.1769 54.227 29.3949 47.178C49.0949 39.555 68.4289 37.618 85.3039 41.574C92.2009 43.191 97.7559 45.352 102.152 47.821C104.904 41.654 110.132 35.542 118.97 30.904C127.726 26.308 137.647 22.354 148.149 18.168C173.737 7.96896 202.74 -3.59104 228.617 -29.468C229.088 -29.939 229.851 -29.939 230.322 -29.468C230.793 -28.997 230.793 -28.234 230.322 -27.763C204.094 -1.53504 174.846 10.123 149.042 20.409C138.599 24.571 128.736 28.503 120.091 33.04C111.677 37.456 106.767 43.263 104.239 49.072C112.771 54.522 116.204 61.188 116.263 66.816C116.309 71.103 114.269 74.63 111.303 75.393C107.208 76.446 103.205 73.588 101.098 68.117C99.3219 63.503 98.8689 56.854 101.258 50.064C97.0259 47.654 91.5899 45.525 84.7529 43.923C52.7669 36.423 10.8369 51.826 -19.5861 82.25C-19.8211 82.484 -20.1291 82.602 -20.4381 82.602ZM103.367 51.349C101.369 57.36 101.783 63.178 103.349 67.249C104.652 70.635 107.27 73.946 110.703 73.055C112.297 72.646 113.89 70.379 113.853 66.84C113.801 61.976 110.793 56.212 103.367 51.349Z" fill="#C05550"/>
<path d="M181.638 55.8048C179.317 64.9248 197.04 67.2158 197.04 59.5188C197.04 51.8218 183.722 47.6148 181.638 55.8048Z" fill="#FFD18D"/>
<path d="M670 108.834C670 116.085 683.852 115.582 683.852 108.851C683.851 102.12 670 102.658 670 108.834Z" fill="#FF8966"/>
<path d="M1091.27 54.997C1089.51 62.696 1117.91 65.189 1122.56 54.29C1127.21 43.39 1096.82 30.655 1091.27 54.997Z" fill="#FFD2B4"/>
<g opacity="0.5">
<path d="M-19.001 285.845C-19.008 285.845 -19.014 285.845 -19.022 285.845C-19.473 285.835 -19.85 285.5 -19.91 285.053C-21.264 275.058 -18.703 264.158 -12.08 251.733C-3.75604 236.116 11.352 217.737 32.826 197.107C77.392 154.292 131.467 133.187 170.95 117.777C175.564 115.976 179.98 114.253 184.16 112.581C222.737 97.1499 226.576 87.9889 226.61 87.8979C226.764 87.4919 227.186 87.2389 227.615 87.3079C228.045 87.3759 228.371 87.7289 228.39 88.1629C228.451 89.5399 229.321 122.323 179.672 161.229C139.404 192.784 101.955 209.977 62.307 228.179C53.079 232.415 43.537 236.796 34.039 241.338C-13.82 264.223 -18.061 284.884 -18.098 285.09C-18.178 285.527 -18.559 285.845 -19.001 285.845ZM226.371 91.2789C222.737 95.2189 212.608 103.176 184.84 114.284C180.656 115.957 176.235 117.683 171.616 119.486C132.276 134.84 78.398 155.868 34.096 198.43C-15.011 245.608 -18.994 270.016 -18.489 280.812C-15.07 273.565 -3.69505 257.348 33.248 239.683C42.758 235.135 52.307 230.751 61.542 226.512C101.089 208.356 138.443 191.207 178.541 159.785C218.865 128.186 225.346 100.284 226.371 91.2789Z" fill="#FF8966"/>
<path d="M-19.001 285.847C-19.016 285.847 -19.03 285.847 -19.045 285.846C-19.551 285.822 -19.942 285.393 -19.918 284.887C-19.867 283.788 -18.115 257.609 29.231 226.457C41.983 218.067 59.912 208.399 80.673 197.204C137.432 166.596 208.071 128.504 226.639 87.823C226.849 87.361 227.395 87.159 227.854 87.37C228.315 87.58 228.518 88.124 228.307 88.585C209.484 129.826 138.545 168.08 81.544 198.818C60.821 209.993 42.925 219.644 30.24 227.99C5.84798 244.038 -6.00702 258.75 -11.657 268.265C-17.717 278.47 -18.083 284.909 -18.085 284.973C-18.109 285.464 -18.514 285.847 -19.001 285.847Z" fill="#FF8966"/>
</g>
<path d="M1704.47 305.128C1665.87 305.129 1634.23 292.152 1608.44 265.915C1578.8 235.764 1561.02 192.304 1545.33 153.959C1525.96 106.595 1509.22 65.6891 1476.47 60.8231C1428.84 53.7431 1388.39 80.41 1349.27 106.197C1316.02 128.12 1284.6 148.828 1250.17 148.828C1237.1 148.828 1226.4 143.846 1218.36 134.021C1204.46 117.035 1198.44 86.095 1200.45 42.059C1201.95 9.39305 1207.56 -18.699 1207.62 -18.979C1207.75 -19.631 1208.38 -20.059 1209.04 -19.922C1209.69 -19.79 1210.11 -19.154 1209.98 -18.502C1209.76 -17.391 1187.93 93.016 1220.23 132.494C1227.79 141.732 1237.86 146.416 1250.17 146.416C1283.88 146.416 1315 125.902 1347.95 104.183C1387.44 78.147 1428.29 51.229 1476.82 58.437C1510.94 63.505 1527.91 104.999 1547.56 153.046C1563.17 191.184 1580.85 234.411 1610.16 264.224C1643.71 298.346 1687.42 309.617 1743.78 298.676C1744.44 298.551 1745.07 298.976 1745.19 299.63C1745.32 300.283 1744.89 300.916 1744.24 301.043C1730.23 303.762 1716.98 305.127 1704.47 305.128Z" fill="#FF8966"/>
</g>
</g>
</svg>
