<svg width="1720" height="180" viewBox="0 0 1720 180" fill="none" xmlns="http://www.w3.org/2000/svg">
<rect opacity="0.4" width="1720" height="180" fill="#E9FFF9"/>
<mask id="mask0_2616_860" style="mask-type:alpha" maskUnits="userSpaceOnUse" x="0" y="0" width="1720" height="180">
<path d="M1720 0H0V180H1720V0Z" fill="#E9FFF9"/>
</mask>
<g mask="url(#mask0_2616_860)">
<path d="M1720 0H0V180H1720V0Z" fill="#FCF3FF"/>
<path d="M1552.01 133.821H1433.28V146.701H1552.01V133.821Z" fill="#FF868D"/>
<path d="M384.325 147.885H265.6V160.765H384.325V147.885Z" fill="#FF868D"/>
<path d="M1663.34 57.958C1683.56 57.958 1699.95 41.5694 1699.95 21.353C1699.95 1.13666 1683.56 -15.252 1663.34 -15.252C1643.13 -15.252 1626.74 1.13666 1626.74 21.353C1626.74 41.5694 1643.13 57.958 1663.34 57.958Z" fill="#FF868D"/>
<path d="M25.2887 218.235C61.364 218.235 90.6087 188.99 90.6087 152.915C90.6087 116.84 61.364 87.595 25.2887 87.595C-10.7865 87.595 -40.0312 116.84 -40.0312 152.915C-40.0312 188.99 -10.7865 218.235 25.2887 218.235Z" fill="#FF868D"/>
<path d="M1163.16 194.738C1184.85 194.738 1202.44 177.151 1202.44 155.457C1202.44 133.763 1184.85 116.176 1163.16 116.176C1141.47 116.176 1123.88 133.763 1123.88 155.457C1123.88 177.151 1141.47 194.738 1163.16 194.738Z" fill="#FF868D"/>
<path d="M1625.06 -20.96L1593.36 33.944H1656.76L1625.06 -20.96Z" fill="#FFE1E1"/>
<path d="M324.962 137.945L268.396 235.918H381.527L324.962 137.945Z" fill="#FFE1E1"/>
<path d="M1188.07 91.9929L1154.06 150.91H1222.09L1188.07 91.9929Z" fill="#FFE1E1"/>
<path d="M1302.25 -50.1299L1331.53 59.1451L1411.53 -20.8499L1302.25 -50.1299Z" fill="#FF868D"/>
<path d="M154.646 123.151C154.646 123.93 154.014 124.562 153.235 124.562C152.456 124.562 151.824 123.93 151.824 123.151C151.824 122.372 152.456 121.74 153.235 121.74C154.014 121.74 154.646 122.372 154.646 123.151Z" fill="#444444"/>
<path d="M153.235 137.292C153.644 137.292 153.976 137.625 153.976 138.033C153.976 138.442 153.643 138.774 153.235 138.774C152.826 138.774 152.494 138.442 152.494 138.033C152.494 137.624 152.827 137.292 153.235 137.292ZM153.235 136.622C152.456 136.622 151.824 137.254 151.824 138.033C151.824 138.812 152.456 139.444 153.235 139.444C154.014 139.444 154.646 138.812 154.646 138.033C154.646 137.254 154.014 136.622 153.235 136.622Z" fill="#444444"/>
<path d="M154.646 152.915C154.646 153.694 154.014 154.326 153.235 154.326C152.456 154.326 151.824 153.694 151.824 152.915C151.824 152.136 152.456 151.504 153.235 151.504C154.014 151.504 154.646 152.136 154.646 152.915Z" fill="#444444"/>
<path d="M154.646 167.797C154.646 168.576 154.014 169.208 153.235 169.208C152.456 169.208 151.824 168.576 151.824 167.797C151.824 167.018 152.456 166.386 153.235 166.386C154.014 166.386 154.646 167.018 154.646 167.797Z" fill="#444444"/>
<path d="M715.891 34.2711C715.891 33.4921 716.523 32.8601 717.302 32.8601C718.081 32.8601 718.713 33.4921 718.713 34.2711C718.713 35.0501 718.081 35.6821 717.302 35.6821C716.523 35.6821 715.891 35.0511 715.891 34.2711Z" fill="#444444"/>
<path d="M717.302 18.648C717.711 18.648 718.043 18.981 718.043 19.389C718.043 19.798 717.71 20.13 717.302 20.13C716.894 20.13 716.561 19.798 716.561 19.389C716.561 18.981 716.893 18.648 717.302 18.648ZM717.302 17.979C716.523 17.979 715.891 18.611 715.891 19.39C715.891 20.169 716.523 20.801 717.302 20.801C718.081 20.801 718.713 20.169 718.713 19.39C718.713 18.61 718.081 17.979 717.302 17.979Z" fill="#444444"/>
<path d="M715.891 4.50695C715.891 3.72795 716.523 3.09595 717.302 3.09595C718.081 3.09595 718.713 3.72795 718.713 4.50695C718.713 5.28595 718.081 5.91795 717.302 5.91795C716.523 5.91795 715.891 5.28695 715.891 4.50695Z" fill="#444444"/>
<path d="M280.457 9.66797H207.484V22.548H280.457V9.66797Z" fill="#FF868D"/>
<path d="M37.0293 51.082C58.8445 51.082 76.5293 33.3973 76.5293 11.582C76.5293 -10.2332 58.8445 -27.918 37.0293 -27.918C15.214 -27.918 -2.4707 -10.2332 -2.4707 11.582C-2.4707 33.3973 15.214 51.082 37.0293 51.082Z" stroke="#FF0B45" stroke-miterlimit="10"/>
<path d="M37.0293 36.082C50.5603 36.082 61.5293 25.113 61.5293 11.582C61.5293 -1.94895 50.5603 -12.918 37.0293 -12.918C23.4983 -12.918 12.5293 -1.94895 12.5293 11.582C12.5293 25.113 23.4983 36.082 37.0293 36.082Z" fill="#FFE1E1"/>
<path d="M42.6922 16.193L38.0802 11.582L42.6922 6.96997L41.6402 5.91797L37.0282 10.53L32.4162 5.91797L31.3652 6.96997L35.9762 11.582L31.3652 16.193L32.4162 17.245L37.0282 12.634L41.6402 17.245L42.6922 16.193Z" fill="#FF7676"/>
<path d="M569.773 212.598C591.589 212.598 609.273 194.913 609.273 173.098C609.273 151.283 591.589 133.598 569.773 133.598C547.958 133.598 530.273 151.283 530.273 173.098C530.273 194.913 547.958 212.598 569.773 212.598Z" stroke="#FF0B45" stroke-miterlimit="10"/>
<path d="M569.773 197.598C583.304 197.598 594.273 186.629 594.273 173.098C594.273 159.567 583.304 148.598 569.773 148.598C556.242 148.598 545.273 159.567 545.273 173.098C545.273 186.629 556.242 197.598 569.773 197.598Z" fill="#FFE1E1"/>
<path d="M575.438 177.71L570.826 173.098L575.438 168.486L574.386 167.435L569.774 172.046L565.163 167.435L564.111 168.486L568.723 173.098L564.111 177.71L565.163 178.762L569.774 174.15L574.386 178.762L575.438 177.71Z" fill="#FF7676"/>
<path d="M1058.37 24.0011L1053.76 19.3891L1058.37 14.7781L1057.32 13.7261L1052.71 18.3381L1048.09 13.7261L1047.04 14.7781L1051.65 19.3891L1047.04 24.0011L1048.09 25.0531L1052.71 20.4411L1057.32 25.0531L1058.37 24.0011Z" fill="#FF0B45"/>
<path d="M454.155 147.674L449.543 143.062L454.155 138.451L453.103 137.399L448.491 142.01L443.879 137.399L442.828 138.45L447.439 143.062L442.828 147.674L443.879 148.726L448.491 144.114L453.103 148.726L454.155 147.674Z" fill="#FF0B45"/>
<path d="M529.202 40.693L524.59 36.082L529.202 31.47L528.15 30.418L523.538 35.03L518.927 30.418L517.875 31.47L522.486 36.082L517.875 40.693L518.927 41.745L523.538 37.134L528.15 41.745L529.202 40.693Z" fill="#444444"/>
<path d="M203.882 118.588L199.271 113.976L203.882 109.365L202.831 108.313L198.219 112.925L193.607 108.313L192.555 109.365L197.167 113.976L192.555 118.588L193.607 119.64L198.219 115.028L202.831 119.64L203.882 118.588Z" fill="#444444"/>
<path d="M1632.4 151.314L1627.79 146.702L1632.4 142.09L1631.35 141.038L1626.74 145.65L1622.13 141.038L1621.07 142.09L1625.69 146.702L1621.07 151.314L1622.13 152.365L1626.74 147.754L1631.35 152.365L1632.4 151.314Z" fill="#444444"/>
<path d="M893.038 163.719H887.705V169.052H893.038V163.719Z" fill="#FF0B45"/>
<path d="M122.745 100.443H117.412V105.776H122.745V100.443Z" fill="#FF0B45"/>
<path d="M1482.57 27.752H1477.24V33.085H1482.57V27.752Z" fill="#FF0B45"/>
<path d="M13.3994 71.4861H8.06641V76.8191H13.3994V71.4861Z" fill="#444444"/>
<path d="M679.208 27.752H673.875V33.085H679.208V27.752Z" fill="#444444"/>
<path d="M499.743 126.975H494.41V132.308H499.743V126.975Z" fill="#444444"/>
<path d="M241.134 170.431H235.801V175.764H241.134V170.431Z" fill="#444444"/>
<path d="M631.866 105.776H626.533V111.109H631.866V105.776Z" fill="#FF0B45"/>
<path d="M232.634 84.8201H227.301V90.1531H232.634V84.8201Z" fill="#FF0B45"/>
<path d="M1685.03 113.51H1679.69V118.843H1685.03V113.51Z" fill="#FF0B45"/>
<path d="M651.9 198.554L698.569 151.885" stroke="#444444" stroke-width="0.25" stroke-miterlimit="10"/>
<path d="M350.721 155.643L397.39 108.974" stroke="#444444" stroke-width="0.25" stroke-miterlimit="10"/>
<path d="M102.057 9.398L148.726 -37.271" stroke="#444444" stroke-width="0.25" stroke-miterlimit="10"/>
<path d="M67.2734 184.1L113.942 137.431" stroke="#444444" stroke-width="0.25" stroke-miterlimit="10"/>
<path d="M877.795 37.0601L924.464 -9.60889" stroke="#444444" stroke-width="0.25" stroke-miterlimit="10"/>
</g>
</svg>
