<svg width="1720" height="180" viewBox="0 0 1720 180" fill="none" xmlns="http://www.w3.org/2000/svg">
<rect opacity="0.4" width="1720" height="180" fill="#E9FFF9"/>
<mask id="mask0_2616_859" style="mask-type:alpha" maskUnits="userSpaceOnUse" x="0" y="0" width="1720" height="180">
<path d="M1720 0H0V180H1720V0Z" fill="#E9FFF9"/>
</mask>
<g mask="url(#mask0_2616_859)">
<path d="M329.166 38.654C348.841 37.5959 363.933 20.7888 362.875 1.1142C361.817 -18.5604 345.01 -33.6522 325.335 -32.5942C305.66 -31.5362 290.569 -14.729 291.627 4.94559C292.685 24.6202 309.492 39.712 329.166 38.654Z" stroke="#BBDDFF" stroke-width="2" stroke-miterlimit="10" stroke-linecap="round" stroke-linejoin="round"/>
<path d="M343.455 22.8324C354.384 13.8799 355.986 -2.23731 347.033 -13.1663C338.081 -24.0953 321.964 -25.6975 311.035 -16.7449C300.106 -7.79239 298.504 8.32478 307.456 19.2538C316.409 30.1828 332.526 31.785 343.455 22.8324Z" stroke="#BBDDFF" stroke-width="2" stroke-miterlimit="10" stroke-linecap="round" stroke-linejoin="round"/>
<path d="M337.061 15.0068C343.674 9.58301 344.638 -0.1743 339.214 -6.78681C333.79 -13.3993 324.033 -14.363 317.42 -8.93923C310.808 -3.51547 309.844 6.24184 315.268 12.8543C320.692 19.4669 330.449 20.4305 337.061 15.0068Z" stroke="#BBDDFF" stroke-width="2" stroke-miterlimit="10" stroke-linecap="round" stroke-linejoin="round"/>
<path d="M302.012 33.0222C304.637 33.0222 306.766 30.8937 306.766 28.2682C306.766 25.6426 304.637 23.5142 302.012 23.5142C299.386 23.5142 297.258 25.6426 297.258 28.2682C297.258 30.8937 299.386 33.0222 302.012 33.0222Z" fill="#BBDDFF"/>
<path d="M343.348 22.071C342.157 20.88 340.226 20.88 339.034 22.071C337.843 23.262 337.843 25.193 339.034 26.385C340.225 27.576 342.156 27.576 343.348 26.385C344.539 25.194 344.539 23.262 343.348 22.071Z" fill="#BBDDFF"/>
<path d="M1235.67 136.941V220.012H1169.74V136.941C1169.74 118.735 1184.5 103.976 1202.7 103.976C1220.91 103.976 1235.67 118.735 1235.67 136.941Z" fill="white"/>
<path d="M1061.54 69.2842C1083.43 63.5628 1096.54 41.181 1090.82 19.293C1085.09 -2.59501 1062.71 -15.7006 1040.83 -9.97917C1018.94 -4.25776 1005.83 18.1241 1011.55 40.0121C1017.27 61.9001 1039.66 75.0056 1061.54 69.2842Z" fill="#C2E6F4"/>
<path d="M1004.41 29.6262H1097.93" stroke="white" stroke-width="3" stroke-miterlimit="10" stroke-linecap="round" stroke-linejoin="round"/>
<path d="M1004.41 35.8792H1097.93" stroke="white" stroke-width="3" stroke-miterlimit="10" stroke-linecap="round" stroke-linejoin="round"/>
<path d="M1004.41 42.1331H1097.93" stroke="white" stroke-width="3" stroke-miterlimit="10" stroke-linecap="round" stroke-linejoin="round"/>
<path d="M1004.41 48.3862H1097.93" stroke="white" stroke-width="3" stroke-miterlimit="10" stroke-linecap="round" stroke-linejoin="round"/>
<path d="M1004.41 54.6392H1097.93" stroke="white" stroke-width="3" stroke-miterlimit="10" stroke-linecap="round" stroke-linejoin="round"/>
<path d="M1004.41 60.8921H1097.93" stroke="white" stroke-width="3" stroke-miterlimit="10" stroke-linecap="round" stroke-linejoin="round"/>
<path d="M1004.41 67.145H1097.93" stroke="white" stroke-width="3" stroke-miterlimit="10" stroke-linecap="round" stroke-linejoin="round"/>
<path d="M1004.41 4.61401H1097.93" stroke="white" stroke-width="3" stroke-miterlimit="10" stroke-linecap="round" stroke-linejoin="round"/>
<path d="M1004.41 10.8672H1097.93" stroke="white" stroke-width="3" stroke-miterlimit="10" stroke-linecap="round" stroke-linejoin="round"/>
<path d="M1004.41 17.1201H1097.93" stroke="white" stroke-width="3" stroke-miterlimit="10" stroke-linecap="round" stroke-linejoin="round"/>
<path d="M1004.41 23.373H1097.93" stroke="white" stroke-width="3" stroke-miterlimit="10" stroke-linecap="round" stroke-linejoin="round"/>
<path d="M1202.7 119.959C1194.4 119.959 1187.66 126.693 1187.66 135C1187.66 143.307 1194.4 150.041 1202.7 150.041C1211.01 150.041 1217.74 143.307 1217.74 135C1217.74 126.693 1211.01 119.959 1202.7 119.959ZM1202.7 142.055C1198.81 142.055 1195.65 138.896 1195.65 135C1195.65 131.104 1198.81 127.945 1202.7 127.945C1206.6 127.945 1209.76 131.104 1209.76 135C1209.76 138.896 1206.6 142.055 1202.7 142.055Z" fill="#FFF64D"/>
<path d="M1247.32 140.641C1250.41 115.982 1232.92 93.4877 1208.26 90.3985C1183.6 87.3093 1161.11 104.795 1158.02 129.454C1154.93 154.113 1172.42 176.607 1197.07 179.697C1221.73 182.786 1244.23 165.3 1247.32 140.641Z" stroke="#BBDDFF" stroke-width="2" stroke-miterlimit="10" stroke-linecap="round" stroke-linejoin="round"/>
<path d="M1232.48 138.749C1234.53 122.296 1222.86 107.298 1206.4 105.248C1189.95 103.199 1174.95 114.875 1172.9 131.328C1170.85 147.78 1182.53 162.779 1198.98 164.828C1215.44 166.877 1230.43 155.201 1232.48 138.749Z" stroke="#BBDDFF" stroke-width="2" stroke-miterlimit="10" stroke-linecap="round" stroke-linejoin="round"/>
<path d="M1760.96 201.254H1542.14C1495.53 201.254 1457.75 163.471 1457.75 116.864C1457.75 70.2571 1495.53 32.4741 1542.14 32.4741H1760.96" stroke="#BBDDFF" stroke-width="2" stroke-miterlimit="10" stroke-linecap="round" stroke-linejoin="round"/>
<path d="M1760.96 60.5642H1542.14C1511.05 60.5642 1485.84 85.7702 1485.84 116.863C1485.84 147.956 1511.05 173.162 1542.14 173.162H1760.96" stroke="#BBDDFF" stroke-width="2" stroke-miterlimit="10" stroke-linecap="round" stroke-linejoin="round"/>
<path d="M1542.14 103.633H1760.96V88.656H1542.14C1526.56 88.656 1513.94 101.285 1513.94 116.864C1513.94 132.443 1526.56 145.072 1542.14 145.072H1760.96V130.095H1542.14C1534.84 130.095 1528.91 124.172 1528.91 116.865C1528.91 109.556 1534.84 103.633 1542.14 103.633Z" fill="#BBDDFF"/>
<path d="M29.7227 325.454V115.514C29.7227 70.7971 65.9727 34.5471 110.69 34.5471C155.407 34.5471 191.657 70.7971 191.657 115.514V325.454" stroke="#BBDDFF" stroke-width="2" stroke-miterlimit="10" stroke-linecap="round" stroke-linejoin="round"/>
<path d="M164.704 325.454V115.514C164.704 85.682 140.521 61.499 110.689 61.499C80.8568 61.499 56.6738 85.682 56.6738 115.514V325.454" stroke="#BBDDFF" stroke-width="2" stroke-miterlimit="10" stroke-linecap="round" stroke-linejoin="round"/>
<path d="M123.383 115.513V325.453H137.753V115.513C137.753 100.566 125.636 88.4502 110.69 88.4502C95.743 88.4502 83.627 100.567 83.627 115.513V325.453H97.997V115.513C97.997 108.502 103.68 102.819 110.691 102.819C117.7 102.819 123.383 108.503 123.383 115.513Z" fill="#BBDDFF"/>
<path d="M642.227 20.419C644.137 20.419 645.686 18.8703 645.686 16.96C645.686 15.0496 644.137 13.501 642.227 13.501C640.316 13.501 638.768 15.0496 638.768 16.96C638.768 18.8703 640.316 20.419 642.227 20.419Z" stroke="#BBDDFF" stroke-width="2" stroke-miterlimit="10" stroke-linecap="round" stroke-linejoin="round"/>
<path d="M657.664 20.419C659.574 20.419 661.123 18.8703 661.123 16.96C661.123 15.0496 659.574 13.501 657.664 13.501C655.754 13.501 654.205 15.0496 654.205 16.96C654.205 18.8703 655.754 20.419 657.664 20.419Z" stroke="#BBDDFF" stroke-width="2" stroke-miterlimit="10" stroke-linecap="round" stroke-linejoin="round"/>
<path d="M657.664 35.857C659.574 35.857 661.123 34.3083 661.123 32.398C661.123 30.4876 659.574 28.939 657.664 28.939C655.754 28.939 654.205 30.4876 654.205 32.398C654.205 34.3083 655.754 35.857 657.664 35.857Z" stroke="#BBDDFF" stroke-width="2" stroke-miterlimit="10" stroke-linecap="round" stroke-linejoin="round"/>
<path d="M642.227 35.857C644.137 35.857 645.686 34.3083 645.686 32.398C645.686 30.4876 644.137 28.939 642.227 28.939C640.316 28.939 638.768 30.4876 638.768 32.398C638.768 34.3083 640.316 35.857 642.227 35.857Z" stroke="#BBDDFF" stroke-width="2" stroke-miterlimit="10" stroke-linecap="round" stroke-linejoin="round"/>
<path d="M511.169 170.057C514.647 170.057 517.467 167.237 517.467 163.759C517.467 160.281 514.647 157.461 511.169 157.461C507.691 157.461 504.871 160.281 504.871 163.759C504.871 167.237 507.691 170.057 511.169 170.057Z" fill="#BBDDFF"/>
<path d="M539.28 170.057C542.759 170.057 545.578 167.237 545.578 163.759C545.578 160.281 542.759 157.461 539.28 157.461C535.802 157.461 532.982 160.281 532.982 163.759C532.982 167.237 535.802 170.057 539.28 170.057Z" fill="white"/>
<path d="M567.392 170.057C570.87 170.057 573.69 167.237 573.69 163.759C573.69 160.281 570.87 157.461 567.392 157.461C563.913 157.461 561.094 160.281 561.094 163.759C561.094 167.237 563.913 170.057 567.392 170.057Z" fill="white"/>
<path d="M595.503 170.057C598.981 170.057 601.801 167.237 601.801 163.759C601.801 160.281 598.981 157.461 595.503 157.461C592.025 157.461 589.205 160.281 589.205 163.759C589.205 167.237 592.025 170.057 595.503 170.057Z" fill="white"/>
<path d="M655.151 172.665L646.245 163.759L638.767 171.237L631.289 163.759L622.383 172.665L629.861 180.143L622.383 187.621L631.289 196.527L638.767 189.049L646.245 196.527L655.151 187.621L647.673 180.143L655.151 172.665Z" fill="#FAC510"/>
<path d="M1292.33 16.0281C1295.2 16.0281 1297.53 13.7031 1297.53 10.8351C1297.53 7.96707 1295.2 5.64209 1292.33 5.64209C1289.47 5.64209 1287.14 7.96707 1287.14 10.8351C1287.14 13.7031 1289.47 16.0281 1292.33 16.0281Z" fill="#FFD6D6"/>
<path d="M1315.52 16.0281C1318.39 16.0281 1320.71 13.7031 1320.71 10.8351C1320.71 7.96707 1318.39 5.64209 1315.52 5.64209C1312.65 5.64209 1310.32 7.96707 1310.32 10.8351C1310.32 13.7031 1312.65 16.0281 1315.52 16.0281Z" fill="#FFD6D6"/>
<path d="M1315.52 39.21C1318.39 39.21 1320.71 36.885 1320.71 34.017C1320.71 31.149 1318.39 28.824 1315.52 28.824C1312.65 28.824 1310.32 31.149 1310.32 34.017C1310.32 36.885 1312.65 39.21 1315.52 39.21Z" fill="#FFD6D6"/>
<path d="M1292.33 39.21C1295.2 39.21 1297.53 36.885 1297.53 34.017C1297.53 31.149 1295.2 28.824 1292.33 28.824C1289.47 28.824 1287.14 31.149 1287.14 34.017C1287.14 36.885 1289.47 39.21 1292.33 39.21Z" fill="#FFD6D6"/>
<path d="M1363.36 15.9571L1356.02 8.61206L1349.85 14.7791L1343.68 8.61206L1336.34 15.9571L1342.5 22.1231L1336.34 28.2901L1343.68 35.6351L1349.85 29.4681L1356.02 35.6351L1363.36 28.2901L1357.19 22.1231L1363.36 15.9571Z" fill="#C2E6F4"/>
<path d="M267.461 111.017L294.155 84.323" stroke="#BBDDFF" stroke-width="2" stroke-miterlimit="10" stroke-linecap="round" stroke-linejoin="round"/>
<path d="M280.072 123.628L306.766 96.9351" stroke="#BBDDFF" stroke-width="2" stroke-miterlimit="10" stroke-linecap="round" stroke-linejoin="round"/>
<path d="M962.5 113.777L989.194 140.471" stroke="#BBDDFF" stroke-width="2" stroke-miterlimit="10" stroke-linecap="round" stroke-linejoin="round"/>
<path d="M949.889 126.389L976.582 153.082" stroke="#BBDDFF" stroke-width="2" stroke-miterlimit="10" stroke-linecap="round" stroke-linejoin="round"/>
</g>
</svg>
