<svg width="1720" height="601" viewBox="0 0 1720 601" fill="none" xmlns="http://www.w3.org/2000/svg">
<rect opacity="0.4" width="1720" height="600" fill="#FFF1F2"/>
<g opacity="0.5">
<mask id="mask0_2618_862" style="mask-type:alpha" maskUnits="userSpaceOnUse" x="0" y="1" width="1720" height="600">
<path d="M1720 1H0V601H1720V1Z" fill="#FFF1F2"/>
</mask>
<g mask="url(#mask0_2618_862)">
<path opacity="0.5" d="M131.569 631.428C130.989 631.428 130.44 631.083 130.208 630.513C121.267 608.561 124.386 581.145 138.156 560.668C152.111 539.916 175.251 528.488 203.314 528.488C219.639 528.488 232.343 531.373 241.935 535.869C244.399 532.152 247.736 528.804 252.047 526.08C265.797 517.395 278.627 521.043 292.211 524.908C307.286 529.195 322.875 533.628 342.892 523.405C368.324 510.417 368.974 484.039 369.603 458.528C370.092 438.697 370.554 419.965 382.717 408.892C406.348 387.38 470.638 413.83 473.363 414.966C474.112 415.279 474.466 416.139 474.154 416.887C473.842 417.636 472.981 417.989 472.233 417.678C471.582 417.406 406.949 390.803 384.695 411.065C373.46 421.293 373.013 439.415 372.54 458.601C371.92 483.742 371.217 512.238 344.228 526.021C323.182 536.77 306.301 531.969 291.408 527.733C277.912 523.894 266.257 520.579 253.617 528.564C249.699 531.038 246.738 533.981 244.559 537.177C258.014 544.324 264.637 554.792 266.126 564.336C267.526 573.313 264.098 580.992 257.79 583.009C251.289 585.088 244.288 580.434 239.958 571.151C235.358 561.288 234.858 548.729 240.424 538.393C231.247 534.153 219.046 531.425 203.315 531.425C176.26 531.425 153.986 542.392 140.595 562.306C127.355 581.994 124.347 608.332 132.929 629.404C133.235 630.155 132.874 631.012 132.123 631.318C131.941 631.394 131.753 631.428 131.569 631.428ZM243.033 539.682C237.446 550.024 239.066 562.292 242.619 569.909C246.285 577.768 251.893 581.812 256.893 580.211C261.791 578.645 264.393 572.304 263.221 564.789C261.848 555.981 255.65 546.329 243.033 539.682Z" fill="#FFC36B"/>
<path d="M-119.284 54.7938C-119.284 81.7768 -68.39 97.0028 -39.032 110.866C-9.674 124.729 -16.761 154.966 19.146 135.123C55.053 115.28 79.741 42.5628 53.093 1.39283C27.65 -37.9152 -119.284 -8.61317 -119.284 54.7938Z" fill="#FFE8D4"/>
<path opacity="0.5" d="M1196.51 607.611H1729V137.359C1729 137.359 1536.51 97.87 1395.2 246.859C1264.53 384.628 1305.5 457.562 1196.51 607.611Z" fill="white"/>
<path opacity="0.5" d="M1729 607.611H1458.43C1458.43 607.611 1488.99 543.79 1503.09 480.629C1517.19 417.469 1590.59 318.357 1729 329.634V607.611Z" fill="#FFD2B4"/>
<path opacity="0.2" d="M1425.74 -15.6001C1414.6 3.21344 1410.22 41.6848 1436.65 59.7075C1463.07 77.7301 1502.69 58.6958 1541.6 55.2586C1580.51 51.8215 1598.85 65.4246 1624.27 107.071C1649.6 148.587 1710.15 162.408 1748.29 134.225C1776.72 113.22 1767.54 -1.24363 1730.86 -21.8454C1689.82 -44.8891 1442.36 -43.6912 1425.74 -15.6001Z" fill="#F5A2C6"/>
<path d="M130.247 236.059C127.358 238.947 133.478 248.221 138.279 243.421C143.08 238.62 134.683 231.624 130.247 236.059Z" fill="#FFD18D"/>
<path d="M162.786 204.075C162.786 211.536 175.908 211.116 175.908 204.075C175.908 197.034 162.786 196.614 162.786 204.075Z" fill="#9DBEAA"/>
<path d="M1340.09 196.788C1341.77 203.684 1353.2 196.794 1349.74 193.336C1346.28 189.877 1338.4 189.892 1340.09 196.788Z" fill="#FFD18D"/>
<path d="M181.638 56.8048C179.317 65.9248 197.04 68.2158 197.04 60.5188C197.04 52.8218 183.722 48.6148 181.638 56.8048Z" fill="#FFD18D"/>
<path d="M727.254 248.405C724.438 259.471 745.94 262.251 745.94 252.912C745.94 243.572 729.783 238.469 727.254 248.405Z" fill="#FFD18D"/>
<path d="M183.525 246.377C183.525 252.353 194.942 251.939 194.942 246.391C194.942 240.844 183.525 241.287 183.525 246.377Z" fill="#FF8966"/>
<path d="M670 109.834C670 117.085 683.852 116.582 683.852 109.851C683.851 103.12 670 103.658 670 109.834Z" fill="#FF8966"/>
<path d="M562.745 523.325C555.146 526.023 564.36 539.134 570.314 533.179C576.269 527.225 568.057 521.439 562.745 523.325Z" fill="#9DBEAA"/>
<path d="M714.059 287.149C707.861 289.362 710.96 298.172 716.936 295.516C722.913 292.859 720.257 284.935 714.059 287.149Z" fill="#FFE8D4"/>
<path d="M1091.27 55.997C1089.51 63.696 1117.91 66.189 1122.56 55.29C1127.21 44.39 1096.82 31.655 1091.27 55.997Z" fill="#FFD2B4"/>
<path d="M123.137 391.409C121.38 399.109 149.779 401.601 154.428 390.702C159.077 379.803 128.69 367.068 123.137 391.409Z" fill="#FFE8D4"/>
<path d="M1215.3 299.395C1206.89 301.945 1212.62 312.48 1218.93 310.24C1225.24 308 1222.37 297.249 1215.3 299.395Z" fill="#FF8966"/>
<path d="M1155.5 529.097C1159.72 526.322 1160.59 502.488 1155.89 502.384C1151.18 502.28 1150.59 513.904 1150.59 513.904C1150.59 513.904 1146.27 504.032 1143.13 505.339C1139.99 506.646 1144.59 516.94 1144.59 516.94C1144.59 516.94 1133.3 507.695 1130.4 512.174C1127.49 516.652 1150.56 532.341 1155.5 529.097Z" fill="#9DBEAA"/>
<path d="M323.581 558.254C320.95 562.581 328.514 584.356 332.429 581.885C336.343 579.414 331.954 569.889 331.954 569.889C331.954 569.889 339.647 575.363 341.686 572.623C343.724 569.883 335.618 564.229 335.618 564.229C335.618 564.229 348.787 565.421 349.302 560.296C349.816 555.171 325.773 554.649 323.581 558.254Z" fill="#FF8966"/>
<path d="M79.338 565.594C82.984 567.462 95.469 527.154 95.469 509.475C95.469 491.796 95.031 479.055 87.404 480.36C79.777 481.665 77.429 517.618 77.429 517.618C77.429 517.618 78.868 492.207 69.092 492.207C59.316 492.207 62.296 520.664 62.296 520.664C62.296 520.664 52.96 489.809 45.014 492.193C37.067 494.576 49.301 550.201 79.338 565.594Z" fill="#9DBEAA"/>
<g opacity="0.5">
<path d="M-19.2026 279.112C-19.2085 279.112 -19.2135 279.112 -19.2202 279.112C-19.599 279.104 -19.9157 278.822 -19.9661 278.447C-21.1033 270.052 -18.9523 260.897 -13.3895 250.461C-6.39792 237.343 6.29168 221.906 24.3282 204.579C61.7604 168.617 107.179 150.891 140.342 137.947C144.218 136.435 147.927 134.987 151.438 133.583C183.839 120.622 187.064 112.928 187.092 112.851C187.222 112.51 187.576 112.298 187.937 112.356C188.298 112.413 188.572 112.709 188.588 113.074C188.639 114.23 189.369 141.766 147.668 174.444C113.846 200.948 82.3915 215.389 49.0901 230.677C41.3393 234.235 33.3247 237.915 25.3471 241.729C-14.8509 260.951 -18.4131 278.305 -18.4441 278.478C-18.5113 278.845 -18.8313 279.112 -19.2026 279.112ZM186.892 115.691C183.839 119 175.332 125.684 152.009 135.014C148.494 136.419 144.781 137.868 140.902 139.383C107.859 152.279 62.6053 169.941 25.395 205.69C-15.8513 245.316 -19.1967 265.817 -18.7725 274.885C-15.9008 268.798 -6.34668 255.177 24.6827 240.339C32.6704 236.519 40.6908 232.837 48.4476 229.277C81.6641 214.027 113.039 199.623 146.718 173.231C180.587 146.69 186.031 123.255 186.892 115.691Z" fill="#FF8966"/>
<path d="M-19.2025 279.114C-19.2151 279.114 -19.2269 279.114 -19.2395 279.113C-19.6645 279.093 -19.9929 278.732 -19.9728 278.307C-19.9299 277.384 -18.4584 255.396 21.3088 229.231C32.0195 222.184 47.0785 214.063 64.5162 204.66C112.19 178.952 171.521 146.957 187.117 112.788C187.293 112.4 187.752 112.231 188.137 112.408C188.525 112.584 188.695 113.041 188.518 113.428C172.708 148.068 113.124 180.198 65.2478 206.016C47.842 215.402 32.8107 223.508 22.1562 230.518C1.66878 243.997 -8.28854 256.354 -13.0341 264.346C-18.1241 272.918 -18.4315 278.326 -18.4332 278.38C-18.4533 278.792 -18.7935 279.114 -19.2025 279.114Z" fill="#FF8966"/>
<path d="M54.018 364.736C53.7618 364.736 53.5207 364.608 53.3779 364.394C39.2605 343.255 12.0326 324.21 -5.98466 311.608L-6.87666 310.984C-25.2332 298.141 -18.0804 275.855 -18.0065 275.631C-17.9225 275.378 -17.7125 275.186 -17.453 275.125C-17.1935 275.063 -16.9205 275.141 -16.7315 275.33C-11.1242 280.937 -4.414 284.059 3.35447 287.673C14.6406 292.924 27.431 298.874 40.769 314.378C47.952 322.729 56.636 335.731 57.213 350.253C57.5608 359.018 54.8083 364.125 54.6916 364.338C54.5622 364.573 54.3187 364.724 54.0499 364.736C54.039 364.736 54.028 364.736 54.018 364.736ZM-16.8777 277.33C-18.0284 282.022 -20.9925 299.23 -5.9939 309.722L-5.1019 310.346C12.6827 322.786 39.394 341.469 53.8718 362.382C55.6844 357.659 60.4308 339.594 39.6023 315.383C26.481 300.13 13.8493 294.254 2.70521 289.069C-4.46272 285.735 -11.2535 282.576 -16.8777 277.33Z" fill="#FF8966"/>
<path d="M183.807 324.232C149.959 324.233 69.9287 304.903 36.9801 287.615C17.6005 277.447 3.96679 274.984 -4.05871 274.709C-12.7183 274.412 -16.876 276.534 -16.9171 276.555C-17.2422 276.727 -17.6453 276.644 -17.8763 276.356C-18.1065 276.067 -18.1023 275.658 -17.8637 275.377C-9.46951 265.467 5.78439 262.264 30.138 265.293C52.1785 268.035 79.3065 275.519 109.913 284.292C170.247 301.584 193.515 321.927 193.743 322.131C193.96 322.324 194.049 322.623 193.974 322.903C193.899 323.185 193.672 323.399 193.388 323.459C190.876 323.984 187.636 324.231 183.807 324.232ZM-5.70496 273.097C3.24613 273.097 17.4535 275.63 37.6957 286.25C76.0232 306.361 166.267 325.775 191.432 322.234C185.849 317.877 161.612 300.711 109.489 285.771C48.8659 268.397 4.02894 257.312 -14.4721 274.08C-12.505 273.578 -9.60306 273.097 -5.70496 273.097Z" fill="#FF8966"/>
<path d="M54.018 364.736C54.0003 364.736 53.981 364.735 53.9625 364.734C53.5384 364.704 53.2192 364.335 53.2486 363.911C53.252 363.857 53.5905 358.43 50.5692 350.668C47.7782 343.497 41.467 332.806 27.2487 322.601C21.3902 318.396 15.9551 314.771 11.1591 311.574C-7.05388 299.429 -18.0477 292.098 -18.0477 275.874C-18.0477 275.668 -17.9654 275.472 -17.8192 275.327C-17.3598 274.872 -5.94686 264.319 48.0133 275.119C99.4563 285.415 155.065 307.04 188.29 319.959L193.507 321.986C193.903 322.141 194.1 322.586 193.946 322.982C193.793 323.38 193.346 323.575 192.95 323.422L187.732 321.395C154.554 308.492 99.0229 286.898 47.711 276.629C-1.40454 266.8 -14.6846 274.866 -16.5064 276.234C-16.3493 291.38 -6.23411 298.125 12.0124 310.292C16.8185 313.497 22.2654 317.13 28.1449 321.349C42.7159 331.806 49.1817 342.812 52.0399 350.204C55.1578 358.266 54.7999 363.791 54.784 364.021C54.7563 364.427 54.4186 364.736 54.018 364.736Z" fill="#FF8966"/>
</g>
<path d="M1723.73 610.917C1723.68 610.917 1723.63 610.91 1723.57 610.893C1723.43 610.85 1709.35 606.335 1685.99 589.965C1664.45 574.877 1630.36 546.327 1590.23 495.989C1590.23 495.987 1590.23 495.985 1590.23 495.983C1573.34 474.408 1569.39 447.661 1569.05 429.022C1568.68 408.846 1572.35 393.552 1572.39 393.399C1572.44 393.183 1572.62 393.025 1572.84 393.002C1573.06 392.982 1573.27 393.101 1573.37 393.303C1593.17 436.004 1591.33 491.712 1591.18 495.489C1613.28 523.209 1647.74 561.895 1686.59 589.107C1709.82 605.385 1723.75 609.851 1723.89 609.893C1724.16 609.98 1724.32 610.273 1724.23 610.549C1724.16 610.774 1723.95 610.917 1723.73 610.917ZM1573.07 395.167C1572.17 399.495 1569.79 412.638 1570.09 429.031C1570.43 447.172 1574.21 473.054 1590.17 494.189C1590.42 485.07 1590.9 434.834 1573.07 395.167Z" fill="#437B78"/>
<path d="M1667.47 575.773C1667.38 575.773 1667.28 575.747 1667.2 575.697C1667.06 575.614 1666.97 575.473 1666.95 575.316C1666.93 575.161 1665.05 559.591 1669.11 538.733C1672.85 519.481 1682.57 491.642 1707.58 468.337C1707.74 468.188 1707.98 468.154 1708.18 468.256C1708.37 468.357 1708.48 468.571 1708.45 468.79C1708.42 469.036 1705.09 493.621 1699.92 519.709C1694.38 547.728 1681.11 570.769 1667.65 575.74C1667.59 575.762 1667.53 575.773 1667.47 575.773ZM1707.21 470.119C1683.21 493.02 1673.8 520.113 1670.13 538.932C1666.58 557.192 1667.62 571.332 1667.92 574.513C1680.83 569.179 1693.51 546.743 1698.9 519.506C1703.34 497.096 1706.42 475.798 1707.21 470.119Z" fill="#437B78"/>
<path d="M1573.8 589.345C1561.08 589.345 1553.03 587.107 1552.89 587.066C1552.7 587.011 1552.55 586.851 1552.52 586.654C1552.48 586.458 1552.56 586.258 1552.73 586.14C1561.31 579.89 1580.61 570.175 1606.78 563.366C1633.43 556.432 1650.12 559.716 1650.28 559.75C1650.45 559.785 1650.59 559.902 1650.66 560.063C1650.73 560.224 1650.71 560.408 1650.61 560.552C1650.3 561.017 1642.67 572.073 1610.58 583.13C1596.51 587.979 1583.73 589.345 1573.8 589.345ZM1554.26 586.331C1559.41 587.518 1582.21 591.796 1610.23 582.142C1637.55 572.728 1647.05 563.187 1649.22 560.633C1645.53 560.081 1630.05 558.391 1607.04 564.378C1581.92 570.916 1563.18 580.126 1554.26 586.331Z" fill="#437B78"/>
<path d="M1552.52 529.875C1526.42 529.875 1517.57 521.45 1517.16 521.042C1517.03 520.92 1516.98 520.745 1517.01 520.575C1517.04 520.405 1517.15 520.262 1517.31 520.192C1517.6 520.065 1546.28 507.506 1575.75 509.69C1588.67 510.647 1597.84 513.502 1603.25 515.728C1609.14 518.151 1611.93 520.327 1612.04 520.418C1612.19 520.533 1612.26 520.715 1612.24 520.898C1612.21 521.08 1612.09 521.237 1611.93 521.31C1611.46 521.51 1600.09 526.239 1564.67 529.322C1560.26 529.707 1556.22 529.875 1552.52 529.875ZM1518.51 520.819C1519.7 521.735 1522.64 523.7 1527.93 525.44C1534.55 527.615 1546.27 529.875 1564.58 528.28C1594.36 525.687 1607.27 521.836 1610.6 520.685C1607.66 518.74 1596.44 512.272 1575.67 510.734C1549.17 508.774 1523.28 518.847 1518.51 520.819Z" fill="#437B78"/>
<path d="M1628.61 539.696C1628.51 539.696 1628.41 539.668 1628.33 539.614C1628.21 539.538 1628.12 539.419 1628.1 539.282C1628.03 538.958 1621.23 506.481 1630.71 477.598C1640.18 448.762 1658.37 425.28 1658.55 425.047C1658.68 424.88 1658.9 424.807 1659.1 424.865C1659.31 424.922 1659.46 425.097 1659.48 425.307C1659.5 425.442 1661.03 439.129 1655.03 464.947C1653.12 473.204 1651.57 481.592 1650.07 489.704C1645.4 515.006 1641.37 536.858 1628.72 539.684C1628.68 539.692 1628.64 539.696 1628.61 539.696ZM1658.54 426.794C1654.87 431.751 1639.96 452.796 1631.71 477.925C1622.98 504.526 1628.18 534.223 1629.01 538.533C1640.58 535.357 1644.5 514.087 1649.04 489.513C1650.54 481.389 1652.09 472.989 1654.01 464.709C1658.89 443.701 1658.76 430.82 1658.54 426.794Z" fill="#437B78"/>
<path d="M1667.47 575.773C1667.39 575.773 1667.31 575.756 1667.24 575.718C1666.98 575.591 1666.87 575.278 1667 575.018C1667.09 574.832 1676.26 556.029 1687.18 521.887C1698.11 487.663 1707.37 468.677 1707.47 468.489C1707.59 468.231 1707.91 468.122 1708.17 468.25C1708.43 468.378 1708.53 468.691 1708.4 468.951C1708.31 469.137 1699.09 488.064 1688.17 522.206C1677.23 556.43 1668.03 575.294 1667.94 575.48C1667.85 575.665 1667.66 575.773 1667.47 575.773Z" fill="#437B78"/>
<path d="M1548.56 523.244C1529.8 523.244 1517.59 521.213 1517.43 521.186C1517.15 521.137 1516.96 520.867 1517.01 520.583C1517.06 520.298 1517.33 520.104 1517.61 520.155C1517.82 520.19 1538.79 523.675 1568.07 521.464C1597.47 519.242 1611.62 520.298 1611.76 520.308C1612.05 520.33 1612.26 520.582 1612.24 520.87C1612.22 521.158 1611.97 521.362 1611.68 521.351C1611.54 521.341 1597.45 520.294 1568.15 522.507C1561.08 523.041 1554.49 523.244 1548.56 523.244Z" fill="#437B78"/>
<path d="M1628.61 539.696C1628.46 539.696 1628.32 539.635 1628.21 539.517C1628.02 539.3 1628.05 538.971 1628.26 538.78C1628.36 538.688 1635.91 531.492 1640.11 494.721C1644.37 457.414 1658.34 425.475 1658.48 425.157C1658.6 424.892 1658.91 424.774 1659.17 424.89C1659.44 425.006 1659.56 425.316 1659.44 425.58C1659.3 425.897 1645.39 457.698 1641.15 494.839C1636.87 532.268 1629.27 539.287 1628.95 539.567C1628.85 539.653 1628.73 539.696 1628.61 539.696Z" fill="#437B78"/>
<path d="M1590.64 495.088C1590.43 495.088 1590.23 494.959 1590.15 494.748C1590.05 494.466 1579.59 466.215 1579.59 444.211C1579.59 422.365 1572.46 393.936 1572.39 393.652C1572.32 393.371 1572.49 393.087 1572.77 393.016C1573.04 392.946 1573.33 393.115 1573.4 393.394C1573.47 393.68 1580.63 422.235 1580.63 444.21C1580.63 466.028 1591.03 494.1 1591.13 494.381C1591.24 494.652 1591.1 494.953 1590.83 495.054C1590.77 495.078 1590.7 495.088 1590.64 495.088Z" fill="#437B78"/>
<path d="M1553.03 587.087C1552.75 587.087 1552.52 586.859 1552.51 586.573C1552.51 586.285 1552.74 586.046 1553.02 586.041C1553.24 586.037 1575.17 585.567 1599.31 579.685C1614.78 575.915 1628.01 569.588 1637.67 564.968C1643.12 562.36 1647.43 560.299 1650.07 559.751C1650.36 559.694 1650.63 559.873 1650.69 560.157C1650.75 560.439 1650.57 560.716 1650.28 560.775C1647.77 561.297 1643.51 563.334 1638.12 565.912C1628.42 570.551 1615.13 576.905 1599.56 580.7C1575.3 586.612 1553.26 587.083 1553.04 587.087C1553.04 587.087 1553.04 587.087 1553.03 587.087Z" fill="#437B78"/>
<path opacity="0.2" d="M1704.47 306.128C1665.87 306.129 1634.23 293.152 1608.44 266.915C1578.8 236.764 1561.02 193.304 1545.33 154.959C1525.96 107.595 1509.22 66.689 1476.47 61.8231C1428.84 54.743 1388.39 81.41 1349.27 107.197C1316.02 129.12 1284.6 149.828 1250.17 149.828C1237.1 149.828 1226.4 144.846 1218.36 135.021C1204.46 118.035 1198.44 87.095 1200.45 43.059C1201.95 10.393 1207.56 -17.699 1207.62 -17.979C1207.75 -18.631 1208.38 -19.059 1209.04 -18.922C1209.69 -18.79 1210.11 -18.154 1209.98 -17.502C1209.76 -16.391 1187.93 94.0161 1220.23 133.494C1227.79 142.732 1237.86 147.416 1250.17 147.416C1283.88 147.416 1315 126.902 1347.95 105.183C1387.44 79.147 1428.29 52.229 1476.82 59.437C1510.94 64.5051 1527.91 105.999 1547.56 154.046C1563.17 192.184 1580.85 235.411 1610.16 265.224C1643.71 299.346 1687.42 310.617 1743.78 299.676C1744.44 299.551 1745.07 299.976 1745.19 300.63C1745.32 301.283 1744.89 301.916 1744.24 302.043C1730.23 304.762 1716.98 306.127 1704.47 306.128Z" fill="#FF8966"/>
</g>
</g>
</svg>
