<svg width="51" height="50" viewBox="0 0 51 50" fill="none" xmlns="http://www.w3.org/2000/svg">
<path d="M48.8458 38.155C47.8456 38.1512 46.8455 38.1531 45.8458 38.1531L44.1967 38.1536L44.1972 35.0762C44.1981 32.005 44.1995 28.9333 44.1873 25.8626C44.1858 25.5251 44.2835 25.2976 44.5351 25.0498C46.1536 23.4554 47.6101 22.0154 49.0445 20.54C50.3231 19.2259 50.3184 17.187 49.0341 15.8989C47.7692 14.6302 45.7901 14.6113 44.4294 15.8536C44.3581 15.9192 44.2845 15.9824 44.1967 16.0589L44.1953 14.111C44.1939 12.6162 44.192 11.07 44.2042 9.54972C44.208 9.06782 44.057 8.70251 43.7162 8.36362C40.8701 5.53405 38.3044 2.96833 35.8741 0.52013C35.5168 0.160476 35.1241 0 34.6012 0C34.5998 0 34.5984 0 34.5974 0C28.2199 0.00802379 21.8419 0.00755178 15.4659 0.00802377H9.50702C7.22543 0.00802377 5.80758 1.43059 5.80711 3.71973L5.80664 27.5763H7.70167L7.70214 3.69802C7.70214 2.48973 8.28882 1.90258 9.49522 1.90211H34.0079L34.0065 3.35017C34.0051 4.47161 34.0036 5.5704 34.0093 6.66918C34.0202 8.69873 35.5017 10.1808 37.5318 10.193C38.0896 10.1963 38.6466 10.1973 39.204 10.1973C39.9295 10.1973 40.6563 10.1959 41.3827 10.1959C41.6602 10.1959 41.9227 10.1926 42.2261 10.21L42.3017 10.2143L42.3007 12.3618C42.2993 14.0435 42.2979 15.7828 42.3097 17.4937C42.3125 17.8425 42.2191 18.0724 41.9769 18.3131C37.1631 23.1052 33.2272 27.043 29.592 30.7051C29.3135 30.985 29.0888 31.3999 28.9907 31.8153C28.7632 32.7739 28.5739 33.757 28.3908 34.7085L28.2435 35.4699C28.1647 35.872 28.2496 36.2217 28.4823 36.4549C28.7117 36.6838 29.053 36.7688 29.4476 36.6923L30.0385 36.5781C31.0622 36.3803 32.1204 36.176 33.1536 35.9329C33.5482 35.8399 33.9465 35.6242 34.2193 35.3547C36.1984 33.4011 38.1977 31.4013 40.13 29.4671L42.0383 27.5589C42.1081 27.489 42.1822 27.4225 42.2611 27.3517V38.1541H38.598C34.4365 38.1536 30.2759 38.1536 26.1148 38.155C25.2086 38.155 24.8867 38.4778 24.8844 39.3874C24.8834 39.8749 24.8834 40.3615 24.8839 40.8666V41.4858H20.779V43.3705H24.8839L24.8834 43.9803C24.883 44.5084 24.882 45.0186 24.8848 45.5284C24.8896 46.3369 25.2346 46.6815 26.0384 46.6815C29.8402 46.6824 33.6416 46.6829 37.443 46.6829C41.2449 46.6829 45.0463 46.6824 48.8481 46.6815C49.6548 46.6815 49.9998 46.336 50.0012 45.526C50.005 43.4531 50.005 41.3801 50.0012 39.3066C50.0003 38.5014 49.6543 38.1574 48.8458 38.155ZM30.3689 34.5651L30.5553 33.5951L31.2647 34.3928L30.3689 34.5651ZM40.8347 8.26875C40.5369 8.27016 40.2395 8.27347 39.9417 8.27677C39.0162 8.28716 38.0585 8.29707 37.1225 8.24798C36.5047 8.21541 35.9449 7.61174 35.9242 6.95662C35.8949 6.05135 35.901 5.12673 35.9072 4.23231C35.9091 3.94629 35.9109 3.66026 35.9119 3.37329L40.8347 8.26875ZM46.9531 16.8556C47.5384 16.9632 47.9226 17.3262 48.0627 17.9053C48.2043 18.4863 48.0174 18.9659 47.4581 19.4473L45.4928 17.4805C45.9194 16.9576 46.3985 16.7537 46.9531 16.8556ZM45.8812 20.8491L33.273 33.4559L31.454 31.6321L44.0631 19.0282L45.8812 20.8491ZM30.0904 41.6685V40.0732H31.5026V41.6765H33.3872V40.0831H34.8183V41.6661H36.7209V40.0755H38.1335V41.6746H40.0361V40.0859H41.4488V41.6642H43.3514V40.0783H44.782V41.6727H46.6666V40.0887H48.0736V44.7614H26.8181V40.0812H28.1869V41.6685H30.0904Z" fill="#2E2E3E"/>
<path d="M24.5975 48.1334L1.9114 25.4544L1.83588 25.3779C1.72497 25.2651 1.61027 25.148 1.47434 25.0565C1.19964 24.8729 0.8735 24.8398 0.57898 24.964C0.285876 25.0886 0.076313 25.3566 0.0182586 25.6818C-0.00250888 25.798 -0.000621011 25.9141 0.000794952 26.0264L0.00173897 26.1156C0.00126698 33.6636 0.000794996 41.2117 0.00173897 48.7601C0.00173897 49.6749 0.322218 49.9986 1.22702 49.9991C3.91735 49.9996 6.6072 49.9996 9.29753 49.9996L22.9786 49.9991C23.3462 49.9991 23.7149 49.9982 24.0825 50.0001C24.0858 50.0001 24.0887 50.0001 24.092 50.0001C24.564 50.0001 24.8863 49.7933 25.0501 49.3846C25.2012 49.0084 25.1129 48.6596 24.7806 48.3184C24.7202 48.2561 24.6588 48.1947 24.5975 48.1334ZM21.699 48.0847H1.92698V28.3174L21.699 48.0847Z" fill="#2E2E3E"/>
<path d="M17.3029 14.9456C16.8116 15.1617 16.5841 15.5157 16.586 16.059C16.5963 19.0363 16.5963 21.9815 16.586 24.8134C16.5836 25.3736 16.8163 25.7257 17.3407 25.9551C18.2455 26.3525 19.1484 26.7542 20.0513 27.1559C21.4875 27.7949 22.9729 28.4557 24.4417 29.0868C24.6116 29.1599 24.8184 29.1967 25.0218 29.1967C25.2148 29.1967 25.405 29.1637 25.5584 29.0972C27.0178 28.4704 28.4928 27.8129 29.9187 27.1776C30.8305 26.7712 31.7424 26.3643 32.6567 25.9627C33.1938 25.7267 33.4298 25.3595 33.4222 24.7719C33.4085 23.7491 33.4114 22.7088 33.4133 21.7025C33.4147 21.2928 33.4156 20.8832 33.4156 20.4735C33.4156 20.061 33.4147 19.648 33.4133 19.2354C33.4109 18.215 33.4081 17.1601 33.4227 16.1232C33.4312 15.5289 33.1976 15.1598 32.6666 14.9271C31.7401 14.5208 30.8159 14.1097 29.8918 13.6981C28.4767 13.0685 27.0136 12.4171 25.5665 11.795C25.2417 11.6558 24.7726 11.6558 24.4512 11.7936C22.8799 12.4681 21.2926 13.1742 19.7568 13.8576C18.9393 14.2211 18.1218 14.585 17.3029 14.9456ZM25.9507 25.7862C25.9502 23.8458 25.9497 21.9182 25.9606 19.9906C25.961 19.9179 26.046 19.7839 26.1092 19.7556C27.8174 18.9872 29.5604 18.2207 31.2464 17.4792L31.5206 17.3678L31.522 21.8767C31.5244 22.5998 31.5267 23.3474 31.5097 24.0813C31.5064 24.2305 31.4064 24.4259 31.3375 24.4575C29.8068 25.1556 28.2407 25.8452 26.7266 26.5121L25.9714 26.8491C25.971 26.8491 25.971 26.8491 25.971 26.8491C25.9648 26.8491 25.9587 26.8481 25.9507 26.8472V25.7862V25.7862ZM18.4876 19.4578C18.4871 18.8706 18.4862 18.2839 18.4866 17.6968C18.4866 17.5986 18.4928 17.5004 18.4999 17.3904L18.5013 17.3659C18.5792 17.3895 18.6471 17.4103 18.7113 17.4386L19.4297 17.7572C20.8532 18.3873 22.3253 19.0391 23.7658 19.6952C23.897 19.7551 24.0391 19.9264 24.0401 20.002C24.0575 21.8852 24.0566 23.7321 24.0556 25.687L24.0552 26.8392L24.0405 26.834C23.9372 26.7986 23.8465 26.7674 23.7592 26.7292C23.2476 26.5026 22.736 26.2747 22.2248 26.0472C21.0972 25.545 19.9696 25.0428 18.8378 24.5505C18.5532 24.4268 18.472 24.3079 18.4748 24.019C18.4909 22.4988 18.489 20.953 18.4876 19.4578ZM29.9356 15.9669C29.7048 16.0736 29.4764 16.1789 29.247 16.2813L28.5027 16.614C27.4639 17.0785 26.3891 17.5585 25.3267 18.0149C25.1506 18.0904 24.9241 18.1074 24.8 18.0541C23.4864 17.4891 22.1582 16.8958 20.8744 16.3223L19.9342 15.9027C19.9182 15.8957 19.9036 15.8872 19.8856 15.8763L20.731 15.5011C22.1304 14.8795 23.4803 14.28 24.8339 13.6891C24.9302 13.6466 25.0817 13.6438 25.1705 13.683C26.7186 14.3608 28.2875 15.0621 29.804 15.7399L30.1207 15.8815L29.9356 15.9669Z" fill="#EE3E3C"/>
<path d="M25.9236 5.83618H24.0918V10.153H25.9236V5.83618Z" fill="#2E2E3E"/>
<path d="M25.9222 31.5542H24.0938V35.8771H25.9222V31.5542Z" fill="#2E2E3E"/>
<path d="M10.3965 14.2087L14.0709 15.9564L14.8804 14.2545L11.197 12.4883L10.3965 14.2087Z" fill="#2E2E3E"/>
<path d="M10.3848 27.5094L11.2065 29.217L14.8814 27.4546L14.0653 25.7517L10.3848 27.5094Z" fill="#2E2E3E"/>
<path d="M38.7875 12.4893L35.1055 14.2455L35.9197 15.9525L39.6017 14.1964L38.7875 12.4893Z" fill="#2E2E3E"/>
<path d="M10.981 3.35071H9.15625V5.18438H10.981V3.35071Z" fill="#2E2E3E"/>
<path d="M14.3024 3.34644H12.4688V5.1886H14.3024V3.34644Z" fill="#2E2E3E"/>
<path d="M17.6268 3.35681H15.7969V5.19568H17.6268V3.35681Z" fill="#2E2E3E"/>
<path d="M4.98082 43.8845C4.98224 44.6798 5.33104 45.0196 6.14663 45.0229C6.86641 45.0257 7.58666 45.0253 8.30739 45.0243L10.1321 45.0224C10.8566 45.021 11.5806 45.0187 12.3042 45.0276C12.3179 45.0276 12.3311 45.0281 12.3448 45.0276C12.7667 45.0276 13.2179 44.9474 13.4341 44.4225C13.6446 43.91 13.3695 43.5376 13.0721 43.2411C10.9595 41.1337 8.84923 39.0239 6.74086 36.9123C6.46381 36.6352 6.07866 36.3478 5.55098 36.5838C5.03368 36.8155 4.97563 37.2884 4.97657 37.6245C4.97988 38.7761 4.97988 39.9287 4.97941 41.0804C4.97893 42.0149 4.97893 42.9495 4.98082 43.8845ZM6.91078 43.1019V39.9146L10.0806 43.1019H6.91078Z" fill="#EE3E3C"/>
</svg>
