<svg width="50" height="50" viewBox="0 0 50 50" fill="none" xmlns="http://www.w3.org/2000/svg">
<path d="M49.922 46.6723C49.9134 46.3671 49.9116 46.0601 49.9103 45.7531C49.9058 44.9319 49.9017 44.0832 49.7586 43.2625C49.1315 39.6513 47.1027 36.9818 43.7262 35.329C43.6599 35.2965 43.561 35.1389 43.5587 35.0617C43.538 34.4518 43.5407 33.8284 43.5429 33.2257C43.5443 32.9598 43.5452 32.6939 43.5443 32.4279C43.5371 29.823 41.7177 28.0001 39.1205 27.9955C37.967 27.9933 36.814 27.9942 35.66 27.9942H33.1892C33.1513 27.9942 33.1129 27.9933 33.0759 27.9919L33.3219 27.3576C33.7332 26.2958 34.14 25.2471 34.558 24.2019C34.6005 24.0954 34.7282 23.9821 34.8352 23.8954C35.1698 23.6223 35.5088 23.3537 35.8478 23.085C36.4505 22.6074 37.074 22.1135 37.6654 21.5993C38.6446 20.7479 38.981 19.6364 38.6365 18.3854C38.3065 17.1863 37.4744 16.4008 36.2298 16.1145C36.1548 16.0974 36.0799 16.0789 36.0027 16.0595L36.1138 15.7475C36.288 15.2622 36.4672 14.7787 36.646 14.2952C37.032 13.2546 37.4302 12.1787 37.7747 11.1025C38.5868 8.56438 38.167 5.84526 36.6207 3.6417C35.1192 1.50179 32.7897 0.219204 30.2295 0.123495C26.9537 0.000698677 23.2387 -0.13835 19.59 0.290534C15.6492 0.752374 11.9382 2.06566 8.55953 4.19338C8.27285 4.37396 7.98437 4.84889 8.02771 5.21457C8.06925 5.56355 8.43267 5.92878 8.76043 6.08002C9.13017 6.25112 9.52113 6.37211 9.89945 6.48949C10.1062 6.5536 10.3134 6.6177 10.517 6.68994C11.6294 7.08496 12.0841 8.02038 11.7048 9.13141C11.3062 10.2966 11.387 11.3955 11.9513 12.4907C12.4046 13.3701 12.8448 14.2568 13.289 15.1525L13.7621 16.1033C12.3947 16.4089 11.5261 17.2712 11.2493 18.6007C10.983 19.8788 11.4303 20.9804 12.5784 21.8751C13.5915 22.6643 14.3558 23.2787 15.0569 23.8679C15.2122 23.9983 15.3585 24.2092 15.4569 24.4462C15.6691 24.955 15.8686 25.4687 16.0686 25.982C16.2289 26.3942 16.3891 26.8069 16.5557 27.2163C16.6587 27.47 16.781 27.7102 16.9101 27.9648C16.9151 27.9748 16.9205 27.9856 16.9255 27.9955L15.2181 27.9933C13.6488 27.9901 12.1017 27.987 10.555 28.0005C8.48233 28.019 6.77131 29.4736 6.48644 31.4587C6.35191 32.3977 6.37041 33.3652 6.38847 34.3001L6.3975 34.8247C6.40202 35.1701 6.32121 35.2956 5.98668 35.4653C2.53529 37.2174 0.560616 39.9939 0.119994 43.7198C-0.0140886 44.8538 -0.00460798 46.0168 0.00487261 47.1423C0.00848427 47.6019 0.0120959 48.0623 0.00667844 48.521C0.000358044 49.0605 0.0459552 49.4456 0.293354 49.6962C0.542106 49.9481 0.935777 49.9991 1.48971 49.9991H48.4399L48.5433 49.9995C48.5785 50 48.6141 50 48.6494 50C48.6981 50 48.7473 49.9995 48.797 49.9982C49.5225 49.9743 49.9121 49.5865 49.9229 48.8754C49.9338 48.1305 49.9423 47.401 49.922 46.6723ZM47.8661 47.0303C47.8625 47.3201 47.8584 47.6118 47.8566 47.9043H43.5524V37.5682C43.5822 37.584 43.6106 37.6012 43.6391 37.6183C46.267 39.249 47.6828 41.6277 47.8467 44.6895C47.8882 45.462 47.8778 46.224 47.8661 47.0303ZM13.3468 18.738C13.5612 18.3226 13.8818 18.1163 14.3468 18.0996L14.6118 20.8621C14.5833 20.8395 14.5558 20.8174 14.5278 20.7953C14.1657 20.5059 13.8235 20.2327 13.5134 19.9375C13.2028 19.6418 13.1346 19.1488 13.3468 18.738ZM36.1878 20.1596C35.9016 20.3948 35.6113 20.6246 35.3201 20.8539L35.5788 18.1159C36.1106 18.1457 36.4523 18.3831 36.6198 18.8382C36.8013 19.3303 36.6555 19.775 36.1878 20.1596ZM13.6005 10.0298C14.2876 7.56757 13.6849 6.04571 11.5193 4.87237C11.6078 4.82271 11.694 4.77576 11.7825 4.73287C15.2939 3.02456 19.027 2.15279 22.8779 2.14151C25.105 2.13519 27.3302 2.13519 29.5563 2.14151C31.7626 2.14738 33.7246 3.13652 34.9395 4.85567C36.1553 6.57617 36.4329 8.75896 35.7007 10.8433C35.5851 11.1729 35.4686 11.4844 35.3499 11.7819C34.9449 10.1219 33.996 8.75129 33.0745 7.42039C32.7892 7.00776 32.5035 6.59513 32.2339 6.17437C32.0506 5.8886 31.8087 5.71208 31.5342 5.66423C31.2507 5.61456 30.9437 5.70531 30.6529 5.92878C30.1374 6.32425 29.5884 6.76488 28.9749 7.27457C27.7081 8.32737 26.2887 8.84609 24.6355 8.86009C23.0188 8.87408 21.4667 9.37249 20.0234 10.3422C18.7823 11.1752 17.5381 12.0036 16.2731 12.8451L14.8853 13.7692C14.7869 13.5652 14.6876 13.3629 14.5887 13.1607C14.2276 12.4234 13.8858 11.7268 13.587 10.9973C13.4926 10.7684 13.4985 10.3982 13.6005 10.0298ZM24.5411 10.9282C26.7528 10.921 28.7257 10.195 30.4033 8.7707C30.583 8.61811 30.769 8.47274 30.9545 8.32737L31.0935 8.22173C33.4009 11.4086 33.6366 12.1806 33.4754 16.0306H27.0431C25.8201 16.0306 25.5515 16.2951 25.5284 17.5208C25.528 17.5475 25.5271 17.5741 25.5257 17.6012H24.4016C24.4021 17.4879 24.4021 17.3741 24.4007 17.2603C24.3912 16.4121 24.012 16.0328 23.1723 16.0315C21.6319 16.0292 20.0924 16.0297 18.5516 16.0301L16.4221 16.0306C16.4217 16.0085 16.4212 15.9863 16.4207 15.9647C16.4158 15.7425 16.4113 15.5326 16.4352 15.3344C16.4415 15.283 16.5106 15.1796 16.5869 15.1281C18.4401 13.8762 19.9651 12.8568 21.3872 11.9205C22.3813 11.2659 23.4423 10.9323 24.5411 10.9282ZM30.2859 20.3831C30.2705 20.6783 30.0128 20.7948 29.797 20.8047C29.2335 20.8305 28.6737 20.8309 28.1293 20.8065C27.6792 20.7858 27.6024 20.4255 27.597 20.2129C27.5862 19.7998 27.588 19.3858 27.5902 18.9727L27.5921 18.115H30.3003C30.3012 18.2815 30.3026 18.4481 30.3044 18.6143C30.3103 19.1957 30.3166 19.7975 30.2859 20.3831ZM22.3235 20.3117C22.3132 20.5989 22.133 20.7813 21.8418 20.8002C21.2942 20.8363 20.7186 20.8368 20.1326 20.8025C19.8166 20.7844 19.6374 20.6007 19.627 20.2865C19.6089 19.7357 19.6125 19.1912 19.6166 18.6147C19.6175 18.4495 19.6189 18.2829 19.6193 18.115H22.3326C22.333 18.2797 22.3344 18.4436 22.3357 18.607C22.3403 19.1939 22.3443 19.7483 22.3235 20.3117ZM17.5526 18.1213V19.9596C17.5544 21.8128 18.6157 22.8769 20.4635 22.8792L20.8216 22.8805C21.1358 22.8819 21.4491 22.8832 21.7637 22.8774C23.2612 22.8503 24.37 21.7424 24.4002 20.2431C24.4034 20.077 24.4025 19.9109 24.4016 19.737V19.7136H25.5293V19.733C25.528 19.9239 25.5266 20.1163 25.5321 20.3077C25.574 21.7266 26.6679 22.83 28.0774 22.8738C28.6683 22.8918 29.2606 22.8918 29.8367 22.8733C31.2507 22.8273 32.3414 21.7212 32.373 20.3C32.3852 19.7528 32.382 19.2052 32.3788 18.649L32.377 18.1208H33.5003C33.4849 18.3077 33.4705 18.4942 33.4569 18.6806C33.4136 19.2517 33.3689 19.8427 33.2872 20.4129C32.9201 22.9853 32.0804 25.4466 30.7924 27.7287C30.6696 27.9459 30.5775 28.0032 30.3473 28.0032C30.345 28.0032 30.3432 28.0032 30.3414 28.0032C28.634 27.9969 26.9271 27.9955 25.2201 27.9946C23.3389 27.9933 21.4581 27.9919 19.5773 27.9838C19.4419 27.9834 19.2541 27.8885 19.222 27.8335C17.5079 24.8909 16.5724 21.6309 16.4415 18.1438C16.4411 18.1362 16.4411 18.129 16.4411 18.1213H17.5526ZM41.482 47.9179H8.44847L8.44892 32.4686C8.44937 30.9142 9.31391 30.0582 10.8827 30.0582H39.0365C40.6355 30.0582 41.4811 30.9052 41.4816 32.5069L41.482 47.9179ZM6.36364 37.5827V47.9093H2.0897C2.10189 47.4637 2.1037 47.0159 2.10505 46.5676C2.10911 45.452 2.11272 44.2985 2.29918 43.2051C2.70413 40.8219 4.07115 38.9307 6.36184 37.584C6.36229 37.5836 6.36274 37.5831 6.36364 37.5827Z" fill="#2E2E3E"/>
<path d="M24.9647 39.1624C24.9593 39.1624 24.9534 39.1624 24.9475 39.1624C24.0333 39.1669 23.1756 39.5289 22.5313 40.1817C21.8867 40.8355 21.5354 41.7 21.5431 42.6165C21.5508 43.5307 21.916 44.3871 22.572 45.0286C23.2198 45.6624 24.0735 46.0101 24.9787 46.0101C24.9891 46.0101 24.9999 46.0101 25.0107 46.0101C26.8766 45.9929 28.3917 44.4543 28.389 42.5803C28.3876 41.6657 28.0287 40.8061 27.3782 40.1587C26.7303 39.5158 25.8744 39.1624 24.9647 39.1624ZM23.6067 42.5487C23.6221 41.8264 24.2405 41.2264 24.9624 41.2264C24.971 41.2264 24.98 41.2269 24.9891 41.2269C25.7331 41.2418 26.3321 41.858 26.3245 42.5997C26.3168 43.3428 25.7015 43.9338 24.962 43.9442C24.5963 43.9433 24.2532 43.7975 23.9959 43.5338C23.7372 43.2684 23.5986 42.9185 23.6067 42.5487Z" fill="#EE3E3C"/>
<path d="M20.4695 31.4457L20.1923 31.1491C19.8849 30.8205 19.3671 30.8101 19.047 31.1265L18.5504 31.6177C17.9612 32.1988 17.377 32.7753 16.7996 33.3558C16.1089 34.0502 16.1085 35.1707 16.7983 35.8664C17.3852 36.4583 17.9766 37.0443 18.5648 37.6262L19.0294 38.0867C19.3373 38.3918 19.8325 38.3959 20.1449 38.0957L20.4975 37.7571C20.823 37.4447 20.8253 36.9251 20.5029 36.6099L18.9775 35.1179C18.6556 34.8028 18.6574 34.284 18.982 33.9716L20.4402 32.5671C20.7544 32.2642 20.7675 31.7649 20.4695 31.4457Z" fill="#EE3E3C"/>
<path d="M32.6629 32.8681C32.3839 32.5905 32.1049 32.3129 31.8295 32.032C31.5279 31.7242 31.2326 31.4095 30.9374 31.0953C30.6295 30.7689 30.1135 30.7598 29.7947 31.0754L29.4521 31.414C29.1338 31.7287 29.1361 32.2433 29.4571 32.5548L30.9789 34.0338C31.3013 34.3471 31.3017 34.8645 30.9798 35.1787L29.5063 36.6161C29.1984 36.9164 29.1835 37.4062 29.4724 37.7249L29.7753 38.059C30.0819 38.3967 30.6087 38.4098 30.9315 38.0874L31.4399 37.5795C32.1861 36.8355 32.9252 36.0983 33.6534 35.3498C34.1193 34.8717 34.0949 34.3196 33.5847 33.7959C33.2809 33.4835 32.9717 33.1756 32.6629 32.8681Z" fill="#EE3E3C"/>
<path d="M27.6835 31.3703L27.3129 31.0926C26.9599 30.8285 26.4601 30.9003 26.1955 31.2529L22.0877 36.7263C21.8218 37.0807 21.895 37.5837 22.2507 37.8473L22.6232 38.1236C22.9762 38.3855 23.4742 38.3132 23.7383 37.9615L27.8443 32.489C28.1088 32.1359 28.037 31.6348 27.6835 31.3703Z" fill="#EE3E3C"/>
</svg>
