<svg width="48" height="50" viewBox="0 0 48 50" fill="none" xmlns="http://www.w3.org/2000/svg">
<path d="M47.8232 7.77484L47.8147 5.47335C47.8147 5.32799 47.8084 5.18623 47.7962 5.05346C47.794 5.01926 47.7899 4.98461 47.7863 4.95626C47.6958 4.07373 47.375 3.21416 46.8588 2.47205C46.8313 2.43245 46.8034 2.39195 46.7737 2.35099C46.5478 2.04227 46.2877 1.75559 46.0006 1.49952C45.4538 1.00673 44.8215 0.627802 44.1208 0.374431C43.8296 0.269122 43.5303 0.190816 43.2414 0.115209L43.1253 0.0859571C42.7972 0.0297025 42.4646 0.00135012 42.1361 0.00135012H39.9192C39.6861 0.00765064 39.4678 0.0999082 39.3049 0.261021C39.2955 0.270472 39.2856 0.279923 39.2766 0.289374L39.1847 0.291624V0.410434C39.0223 0.671905 38.9962 0.950928 39.1078 1.2403C39.1136 1.2556 39.1186 1.26955 39.1249 1.28306L39.1262 1.41627H39.1955C39.3085 1.59313 39.4773 1.70699 39.7113 1.76459C39.781 1.7799 39.8508 1.7898 39.8976 1.7907L39.9422 1.79565C40.0344 1.80105 40.1325 1.8006 40.2275 1.7997H40.2671C40.362 1.7979 40.4575 1.79745 40.5533 1.797L40.6744 1.7961C40.9219 1.79475 41.1676 1.7952 41.4133 1.79565L41.9921 1.797C44.3201 1.8123 45.9664 3.40993 45.9956 5.68307C46.0037 6.23931 46.0024 6.80591 46.001 7.35315L46.0001 7.77394C45.9988 7.9481 45.9988 8.12317 45.9988 8.29733L45.9997 12.5934C46.001 15.8152 46.0019 19.037 45.9974 22.2588C45.9929 24.6467 44.3534 26.2579 41.9165 26.2678L41.4907 26.2714C41.0002 26.2763 40.4939 26.2808 39.9984 26.2642C39.5484 26.2453 39.1627 26.3713 38.7986 26.653C37.8639 27.3735 36.8783 28.1093 36.0093 28.7596L35.0417 29.4842C34.9774 29.5314 34.9134 29.5773 34.8401 29.6273V29.2835C34.8405 28.6507 34.8405 28.0621 34.8387 27.4743C34.8374 26.563 34.5399 26.2696 33.6142 26.2682C32.8149 26.2687 32.013 26.2691 31.2128 26.2709C29.2038 26.2745 27.1256 26.2786 25.0702 26.252C24.6526 26.2462 24.2192 26.1408 23.7939 26.0373C23.6198 25.9941 23.4492 25.9527 23.2791 25.9172C23.0833 25.8753 22.9848 25.7903 22.9875 25.4406C22.9969 23.8272 22.9965 22.1855 22.996 20.5982C22.996 19.6909 22.9956 18.7841 22.9969 17.8773C22.9992 16.3435 22.4002 15.0708 21.2157 14.0952C21.1077 14.0065 21.0118 13.8274 21.0109 13.7122L21.0091 13.3296C20.9997 11.6101 20.9893 9.66139 20.997 7.77484C20.9997 6.91932 21.006 6.16686 21.0154 5.47425C21.0388 3.7119 22.3642 2.19933 24.167 1.8771C24.4573 1.8249 24.784 1.7997 25.1674 1.7997C26.4307 1.797 27.6949 1.79565 28.9586 1.79565H35.2604C35.5043 1.79565 35.7361 1.70069 35.9175 1.52202C36.0988 1.35821 36.1875 1.13184 36.1735 0.868121C36.1655 0.595399 36.0331 0.345178 35.8108 0.182265C35.652 0.0630052 35.4616 0 35.26 0H24.9636C24.6427 0 24.3236 0.0261022 24.0122 0.0774064C23.2863 0.228619 22.6279 0.461288 22.0554 0.768213C20.7256 1.47477 19.8435 2.55891 19.4349 3.98598C19.4254 4.01118 19.4178 4.03548 19.4137 4.05348C19.2522 4.63538 19.1698 5.27443 19.1698 5.95174L19.1689 12.8378C19.1689 12.9417 19.1622 13.0452 19.1545 13.1672C19.1077 13.1613 19.06 13.1555 19.0064 13.1487C18.8071 13.124 18.6185 13.101 18.4263 13.101L15.0605 13.0965C11.6285 13.092 8.08 13.0871 4.58951 13.106C2.39558 13.1195 0.513976 14.6631 0.116143 16.7769C0.00408402 17.3764 0.0063342 17.9992 0.00813434 18.6041C0.00858438 18.7931 0.00903441 18.9821 0.00678422 19.1698C-0.00761696 20.0001 0.550429 20.1347 0.884356 20.141H0.911808C1.48336 20.141 1.80828 19.7949 1.82673 19.1666L1.82943 19.0636C1.83933 18.7112 1.84969 18.3471 1.82493 17.9866C1.76823 17.1644 2.04005 16.3971 2.5909 15.8255C3.17504 15.2198 4.03731 14.8724 4.95629 14.8724H5.00354C8.02689 14.9097 11.0984 14.9021 14.0686 14.8953C14.7158 14.894 15.3629 14.8931 16.0101 14.8926C16.6577 14.8922 17.3049 14.8913 17.9516 14.8899C19.9938 14.8908 21.1648 16.0326 21.1648 18.0217C21.1662 22.2246 21.1662 26.428 21.1662 30.6295V31.111C21.0231 31.1102 20.8822 31.1075 20.7427 31.1047L20.7139 31.1043C20.299 31.0966 19.9074 31.0913 19.51 31.1192C18.0974 31.2186 17.0659 31.9063 16.6064 33.0561C16.3058 33.8104 15.7936 34.2379 15.1033 34.7595L14.9876 34.8468C14.4017 35.2919 13.8153 35.7374 13.2262 36.1803C13.1825 36.2136 13.1366 36.2442 13.0817 36.2793V35.1146C13.0804 34.066 12.8202 33.8095 11.7568 33.8081C11.0547 33.8081 10.3527 33.809 9.65063 33.8099L9.3104 33.8104C7.86173 33.8113 6.36311 33.8135 4.88968 33.8054C3.00853 33.7933 1.83573 32.6317 1.82988 30.7753C1.82718 29.9464 1.82808 29.1169 1.82898 28.2875L1.83033 26.1831C1.83123 25.4464 1.83258 24.6121 1.82538 23.7926C1.82313 23.442 1.71782 23.1643 1.52116 22.9892C1.34339 22.8308 1.09497 22.7611 0.80335 22.7872C0.257455 22.8376 0.00273397 23.1652 0.00273397 23.8182C-0.00131636 26.3533 -0.000866316 28.6849 0.00408409 30.9481C0.00498416 31.1826 0.0139849 31.4913 0.0729397 31.7992C0.518026 34.093 2.41493 35.5858 4.90499 35.602C6.15879 35.611 7.43329 35.6083 8.66504 35.6069L8.95442 35.6065C9.56512 35.6051 10.1763 35.6042 10.787 35.6042H11.2537L11.2541 36.1915C11.255 36.7995 11.2564 37.3738 11.2505 37.9539C11.2469 38.2576 11.2978 38.6874 11.7752 38.9129C12.2442 39.1348 12.6227 38.912 12.8666 38.7252C13.5943 38.1663 14.3477 37.5974 15.0124 37.0956L15.2095 36.9467C15.4561 36.7604 15.7041 36.5758 15.9772 36.3729L16.1838 36.2181V36.5119C16.1838 37.1397 16.1829 37.7671 16.182 38.3954L16.1816 38.8103C16.1789 40.4894 16.1757 42.2261 16.1897 43.9335C16.2059 46.0707 17.7369 47.5707 19.9133 47.5806C20.4781 47.5838 21.0424 47.5847 21.6072 47.5829L24.1616 47.582L24.1625 47.9433C24.1634 48.2813 24.1643 48.5999 24.1585 48.9199C24.1544 49.2309 24.208 49.6724 24.721 49.9118C24.8461 49.9703 24.9726 50 25.0963 50C25.379 50 25.6134 49.8492 25.8061 49.7021C26.0243 49.5356 26.2466 49.3722 26.4735 49.2043C26.9293 48.8682 27.4001 48.5207 27.8375 48.1468C28.338 47.7192 28.8325 47.5441 29.4995 47.5612C29.5274 47.5617 29.5544 47.5621 29.5819 47.5621C31.1421 47.5621 32.5192 46.483 32.8761 44.9672C33.0134 44.388 33.0161 43.7769 33.0183 43.1855L33.0188 43.0928C33.0197 42.9997 33.0201 42.9065 33.0215 42.8138C33.0296 42.2472 32.6984 41.9038 32.1358 41.8948C32.1286 41.8948 32.1223 41.8948 32.1156 41.8948C31.7155 41.8948 31.2429 42.0591 31.2096 42.8237C31.2011 43.019 31.2011 43.217 31.2011 43.4083C31.2011 43.677 31.2011 43.9808 31.1723 44.2665C31.0868 45.1013 30.3892 45.7386 29.5139 45.7805L29.4414 45.7841C29.2277 45.794 29.0076 45.8034 28.801 45.7818C28.2669 45.7211 27.7966 45.8772 27.3195 46.2741C26.9955 46.5446 26.6512 46.7971 26.2862 47.0649L26.252 47.0901C26.1647 47.154 26.0765 47.2183 25.987 47.2845V47.2363C25.987 47.1427 25.987 47.0613 25.9865 46.9807C25.982 46.0671 25.6949 45.7881 24.7566 45.7868C24.2305 45.7859 23.7035 45.7859 23.1756 45.7868H21.5933C21.0658 45.7877 20.5393 45.7877 20.0127 45.7868C18.7063 45.7841 18.0146 45.1068 18.0123 43.8282C18.0069 40.8517 18.0069 37.8337 18.0123 34.8572C18.0146 33.5741 18.7036 32.895 20.0051 32.8927C22.8165 32.8855 25.8227 32.8855 29.1966 32.8927C30.5008 32.895 31.1948 33.5714 31.2033 34.8486C31.2074 35.386 31.2065 35.9242 31.2056 36.462V36.7811C31.2051 37.1703 31.2047 37.5605 31.206 37.9516C31.2105 38.6987 31.4954 39.0506 32.1025 39.0601C32.1066 39.0601 32.1102 39.0601 32.1133 39.0601C32.3887 39.0601 32.5967 38.9894 32.7479 38.8436C32.94 38.6586 33.03 38.3679 33.0318 37.9296C33.0359 36.9314 33.0359 35.9197 33.0318 34.9215C33.0224 32.5332 31.5647 31.103 29.1332 31.0958C27.8069 31.0921 26.4789 31.0922 25.1521 31.0935L23.0149 31.0944V27.8145C25.0117 28.139 27.0414 28.1039 29.009 28.0684L29.0301 28.0679C30.3343 28.0459 31.6822 28.0224 33.0102 28.1048L33.0111 28.86C33.0125 29.6417 33.0138 30.4499 33.0062 31.242C33.0017 31.5885 33.0579 32.0156 33.5345 32.2456C33.9841 32.4625 34.3424 32.269 34.6619 32.0269C35.039 31.7416 35.4296 31.4589 35.8072 31.1858L35.8626 31.1457C36.6956 30.5431 37.5574 29.9198 38.3427 29.2326C39.4881 28.2304 40.6208 27.8595 41.9043 28.0607C42.011 28.0778 42.1113 28.0697 42.2166 28.0625L42.2851 28.0576C45.4191 27.9041 47.7949 25.5544 47.8111 22.5919C47.8376 18.2566 47.8412 13.5484 47.8232 7.77484Z" fill="#2E2E3E"/>
<path d="M9.34333 24.9429C9.32578 25.1589 9.26593 25.2111 9.02966 25.2039C8.53012 25.19 7.93922 25.1805 7.34517 25.2111C7.05265 25.2264 6.80468 25.3911 6.69847 25.64C6.60351 25.8619 6.64536 26.1035 6.81008 26.2871C6.97119 26.4663 7.27902 26.5639 7.51348 26.581C7.89872 26.6067 8.279 26.6026 8.68133 26.5968C8.80689 26.5954 8.93425 26.5936 9.06296 26.5932L9.02156 26.8335C8.932 27.351 8.84874 27.8344 8.76819 28.3191C8.68088 28.8384 8.88025 29.1971 9.30238 29.2776C9.35549 29.288 9.40769 29.2929 9.45809 29.2929C9.59401 29.2929 9.71867 29.2565 9.82397 29.1845C10.0013 29.0639 10.121 28.847 10.1705 28.5567L10.5053 26.6143H11.774C11.7753 26.6193 11.7762 26.6233 11.7767 26.6247L11.6471 27.41C11.5917 27.7417 11.5368 28.0738 11.4828 28.4055C11.4104 28.8465 11.6372 29.2056 12.0337 29.2794C12.4504 29.355 12.7884 29.1111 12.8721 28.6723C12.9306 28.3668 12.9814 28.0598 13.0318 27.7529C13.0687 27.531 13.1052 27.3101 13.1443 27.0891C13.2321 26.5927 13.2321 26.5927 13.7546 26.5927H15.2276C15.6902 26.5927 15.9823 26.5162 16.1474 26.352C16.2618 26.2381 16.3158 26.0851 16.3135 25.8844C16.3063 25.3164 15.8666 25.1994 15.2087 25.1981H13.4643L13.6911 23.9096L14.1664 23.911C14.6268 23.9128 15.0611 23.9146 15.5003 23.9042C15.6992 23.8993 15.958 23.8632 16.0583 23.7215C16.1794 23.5545 16.3072 23.2692 16.269 23.0149C16.2244 22.7098 15.9508 22.5194 15.5552 22.5181C15.1556 22.5154 14.7555 22.5158 14.3558 22.5163L13.936 22.5167C13.9333 22.4888 13.9315 22.4681 13.9328 22.4578L14.0512 21.7373C14.1074 21.3966 14.1637 21.0564 14.219 20.7161C14.2937 20.2621 14.0831 19.9178 13.6826 19.8386C13.4805 19.7985 13.2974 19.8296 13.1506 19.9268C12.9873 20.0352 12.8761 20.2229 12.8293 20.4686C12.7771 20.7427 12.7308 21.0177 12.6844 21.2926C12.6286 21.6243 12.5728 21.9555 12.5071 22.2845C12.4895 22.37 12.3986 22.4893 12.3649 22.5005C12.0602 22.5226 11.7555 22.5199 11.4329 22.5167C11.355 22.5158 11.2767 22.5154 11.1975 22.5149L11.2227 22.3471C11.2398 22.2332 11.2555 22.1284 11.2726 22.0239C11.2956 21.8795 11.3208 21.735 11.3451 21.5906C11.3987 21.2778 11.454 20.9542 11.4927 20.6338C11.5458 20.1999 11.3158 19.8845 10.9068 19.8296C10.5049 19.7801 10.2133 19.9938 10.1048 20.4245C10.0886 20.4884 10.0787 20.5528 10.0688 20.6176L9.74387 22.5158L8.80644 22.5145C8.34245 22.5122 7.86361 22.5109 7.39197 22.5212C6.96399 22.5307 6.66382 22.8156 6.66246 23.2134C6.65976 23.6099 6.94239 23.8817 7.38252 23.906C7.53329 23.9141 7.6836 23.9128 7.83391 23.9114L9.5076 23.9105C9.4905 24.0064 9.4734 24.0986 9.45674 24.1882C9.40949 24.4496 9.36359 24.6963 9.34333 24.9429ZM10.7866 24.9226C10.8352 24.6135 10.8811 24.3209 10.9414 24.0302V24.0298C10.9482 23.9969 11.0233 23.9263 11.0557 23.9213C11.3618 23.9078 11.6691 23.9101 11.9932 23.9119L12.2362 23.9128L12.0287 25.1688H10.747L10.7866 24.9226Z" fill="#EE3E3C"/>
<path d="M27.5273 36.947C26.6452 36.2432 25.7055 36.1689 24.7334 36.7279L24.7325 36.7283C24.6632 36.7666 24.5165 36.7603 24.4517 36.7166C24.0881 36.4619 23.6435 36.3323 23.1871 36.3323C22.8095 36.3323 22.4239 36.4205 22.0688 36.5996C21.3105 36.9808 20.8564 37.6959 20.8537 38.5114C20.8447 39.7341 21.2034 40.5919 21.9815 41.2116C22.6934 41.7773 23.4949 42.2552 24.2704 42.7178C24.4526 42.825 24.8023 42.8043 24.9819 42.7043C25.769 42.2638 26.3945 41.8704 26.9503 41.4672C27.57 41.0172 27.9962 40.4452 28.2163 39.7688C28.5736 38.6725 28.3027 37.5649 27.5273 36.947ZM26.4485 40.1531C26.0125 40.5118 25.539 40.8281 25.0809 41.1342L24.7672 41.3448C24.7298 41.37 24.6677 41.3826 24.6083 41.3826C24.5552 41.3826 24.5044 41.3727 24.4747 41.352C24.3581 41.2714 24.2407 41.1922 24.1241 41.113L24.0395 41.0563C23.5742 40.7426 23.0926 40.4182 22.6723 40.0406C22.2123 39.6288 22.0607 39.046 22.2456 38.4002C22.3645 37.9835 22.634 37.7386 23.0467 37.672C23.1025 37.6626 23.1619 37.6572 23.2218 37.6572C23.5291 37.6572 23.7812 37.8034 23.9918 38.105C24.1696 38.3592 24.3905 38.5015 24.6142 38.5055C24.8239 38.5046 25.0188 38.3943 25.1767 38.186C25.544 37.7008 25.8333 37.578 26.2883 37.7179C26.7514 37.862 27.0295 38.28 27.0327 38.8358C27.0403 39.3763 26.8383 39.8327 26.4485 40.1531Z" fill="#EE3E3C"/>
<path d="M34.5445 7.23031C34.0193 7.28161 33.6314 7.57683 33.4527 8.06197C33.383 8.25234 33.3695 8.45981 33.3564 8.66007L33.3524 8.72308C33.3443 8.84324 33.3299 8.96295 33.3101 9.07951C33.2223 9.59435 33.018 10.048 32.7025 10.4274C32.316 10.895 31.9069 11.3495 31.5108 11.7887C31.3542 11.9629 31.199 12.1353 31.0469 12.3063C30.9753 12.2869 30.9087 12.2662 30.8457 12.2469C30.6805 12.196 30.5388 12.1528 30.3884 12.1492C29.3529 12.1335 28.3349 12.138 27.4745 12.1452C26.9394 12.1497 26.7107 12.3805 26.7094 12.917C26.7062 15.1397 26.7062 17.3611 26.7094 19.5838C26.7103 20.1491 26.9421 20.3696 27.5357 20.3709L28.1194 20.3741C28.8066 20.3781 29.5181 20.3826 30.217 20.3628C30.4339 20.3565 30.6418 20.298 30.8434 20.2409C30.9217 20.2188 30.9987 20.1968 31.0739 20.1792C31.2458 20.2224 31.4226 20.2764 31.5941 20.3286C32.0005 20.4524 32.4204 20.5807 32.8456 20.5933C33.892 20.6248 34.9865 20.6401 36.1899 20.6401C36.9887 20.6401 37.8357 20.6333 38.7479 20.6194C39.648 20.6059 40.2785 19.9398 40.2821 19.0006C40.2866 17.6478 40.2861 16.2945 40.2857 14.9412L40.2852 13.781C40.2843 12.6483 39.6489 12.0241 38.4968 12.0227C37.9167 12.0218 37.3361 12.0223 36.7443 12.0227H35.964L35.9892 11.9557C36.0328 11.84 36.0711 11.7383 36.1071 11.6357C36.4131 10.7626 36.4653 9.90038 36.2619 9.07276C36.1597 8.65872 35.9937 8.24919 35.7682 7.85496C35.5094 7.39997 35.0724 7.179 34.5445 7.23031ZM29.8065 19.0208H28.0744V13.4975H29.8065V19.0208ZM37.1948 13.3441C37.6214 13.3445 38.0481 13.3445 38.4752 13.3459C38.9103 13.3477 38.936 13.3715 38.9373 13.7752C38.9382 15.4777 38.9382 17.1797 38.9364 18.8822C38.9364 19.2643 38.8887 19.3129 38.5098 19.3129C36.7497 19.3169 34.9892 19.3169 33.2295 19.3129C32.5072 19.3106 31.888 19.0973 31.3893 18.6788C31.2836 18.5901 31.1963 18.4272 31.1945 18.3152C31.1774 17.0573 31.1769 15.7248 31.1936 14.3539C31.1954 14.2288 31.2656 14.0655 31.3686 13.948C32.0774 13.1379 32.7237 12.4188 33.3452 11.75C34.1089 10.9265 34.5418 10.0615 34.6678 9.10651C34.684 8.9895 34.6948 8.86574 34.7016 8.72713C34.7016 8.72668 34.7016 8.72623 34.7016 8.72578C34.7678 8.86124 34.8222 8.9931 34.8672 9.12361C35.0814 9.73566 35.0936 10.3342 34.9037 10.953C34.806 11.2707 34.671 11.5858 34.5405 11.8904C34.4833 12.0236 34.4262 12.1569 34.3717 12.291C34.2471 12.5983 34.2489 12.8598 34.378 13.0475C34.5072 13.236 34.7561 13.3373 35.0972 13.3391C35.7956 13.3432 36.495 13.3436 37.1948 13.3441Z" fill="#EE3E3C"/>
</svg>
