<svg width="51" height="50" viewBox="0 0 51 50" fill="none" xmlns="http://www.w3.org/2000/svg">
<path d="M7.18484 9.44684C8.20273 9.44684 9.02789 8.62168 9.02789 7.60379C9.02789 6.5859 8.20273 5.76074 7.18484 5.76074C6.16696 5.76074 5.3418 6.5859 5.3418 7.60379C5.3418 8.62168 6.16696 9.44684 7.18484 9.44684Z" fill="#EE3E3C"/>
<path d="M12.7161 9.44684C13.734 9.44684 14.5591 8.62168 14.5591 7.60379C14.5591 6.5859 13.734 5.76074 12.7161 5.76074C11.6982 5.76074 10.873 6.5859 10.873 7.60379C10.873 8.62168 11.6982 9.44684 12.7161 9.44684Z" fill="#EE3E3C"/>
<path d="M48.0491 34.2281C47.8471 34.2065 47.7317 34.1848 47.6523 33.9612C47.472 33.4418 47.2412 32.9369 47.0392 32.4247C48.2655 30.9099 48.2511 30.1236 46.9238 28.6737C46.7218 28.4573 46.7507 28.2337 46.7507 27.9956V5.9007C46.7507 5.48953 46.7362 5.08558 46.7002 4.67441C46.4693 2.38773 44.6804 -0.0143623 41.6435 6.4666e-05C29.4527 0.0577726 17.2619 0.0505591 5.07109 0.00727815C3.14508 6.46589e-05 1.78895 0.945033 0.981035 2.11362C0.973822 2.12083 0.966608 2.12805 0.966608 2.13526C0.757417 2.43823 0.584293 2.75562 0.45445 3.0658C0.440023 3.08744 0.43281 3.10187 0.43281 3.12351C0.367888 3.26056 0.317394 3.40483 0.274113 3.5491C0.252472 3.62124 0.238045 3.70059 0.223618 3.77994C0.209191 3.88814 0.187551 3.99634 0.151483 4.10454V4.11176C0.0649215 4.53014 0.0216405 4.93409 0 5.28756V34.733C0 34.733 0 34.7908 0 34.8917C0 35.1442 0.014427 35.6708 0.122629 36.2839C0.129843 36.2912 0.129843 36.2984 0.129843 36.3056C0.14427 36.3417 0.151483 36.3705 0.151483 36.4066C0.151483 36.4282 0.158697 36.4499 0.16591 36.4787C0.173124 36.522 0.180337 36.5653 0.187551 36.6013C0.209191 36.6807 0.230832 36.7672 0.259686 36.8466C0.266899 36.8827 0.274113 36.9259 0.28854 36.962C0.440023 37.4237 0.649215 37.8781 0.930541 38.2965C0.937754 38.3181 0.952181 38.3326 0.966608 38.3542C1.78895 39.5877 3.16672 40.5399 5.0783 40.4678C6.79511 40.4028 8.51914 40.4533 10.2432 40.4533C10.9862 40.4533 11.4478 40.0782 11.455 39.4723C11.4622 38.8592 11.0078 38.4841 10.2576 38.4768C8.46864 38.4768 6.6797 38.4696 4.89796 38.4841C3.90971 38.4913 3.17394 38.0585 2.62571 37.2578C2.14962 36.5581 1.9765 35.7718 1.9765 34.935V15.1412H44.7237V27.1012C43.822 27.0074 43.1439 27.3753 42.6029 27.974C42.0907 27.7648 41.6291 27.5412 41.153 27.3897C40.85 27.2959 40.7635 27.1589 40.7418 26.8415C40.6625 25.5575 39.8113 24.7279 38.5345 24.6774C37.8348 24.6558 37.1206 24.6414 36.4209 24.7135C35.4832 24.8217 34.8989 25.3988 34.6031 26.286C34.4949 26.5962 34.5238 26.928 34.4949 27.2526C34.0333 27.4402 33.5644 27.5989 33.1388 27.8297C32.843 27.9812 32.6699 27.974 32.4174 27.736C31.5085 26.8775 30.2318 26.8992 29.3301 27.772C28.89 28.1904 28.4644 28.6232 28.0461 29.056C27.5988 29.5105 27.3969 30.0587 27.4185 30.7007C27.4401 31.4293 27.8152 31.9631 28.2985 32.4247C28.1038 32.9297 27.8946 33.4058 27.7142 33.8963C27.6349 34.1343 27.5267 34.2137 27.267 34.2281C25.8315 34.3002 25.0092 35.1875 25.002 36.6446C24.9948 37.2433 24.9948 37.8421 24.9948 38.4768H24.5619C22.8091 38.4768 21.0562 38.4768 19.3033 38.4841C18.6902 38.4841 18.2862 38.8664 18.2718 39.4218C18.2574 40.0061 18.6613 40.4245 19.2817 40.4533C19.4476 40.4606 19.6135 40.4533 19.7794 40.4533H27.5988C27.8008 41.0737 28.0533 41.658 28.3274 42.2279C28.2769 42.2928 28.2336 42.3433 28.1903 42.3938C27.1588 43.483 27.166 44.7165 28.212 45.7769C28.5943 46.1592 28.9766 46.5415 29.3661 46.9166C29.835 47.3783 30.3977 47.5803 31.0613 47.5514C31.7827 47.5226 32.3092 47.1258 32.7493 46.6714C33.247 46.8806 33.6942 47.0898 34.1631 47.2485C34.4517 47.3422 34.5454 47.4865 34.5599 47.7967C34.632 49.1384 35.5409 49.9896 36.8898 49.9968C37.4453 49.9968 38.0007 50.004 38.5633 49.9968C39.7536 49.9752 40.6841 49.1023 40.7851 47.9265C40.7995 47.7534 40.7851 47.5731 40.7851 47.3927C41.4343 47.1907 42.0114 46.9383 42.5885 46.6642C42.6462 46.7147 42.6967 46.7579 42.74 46.8012C43.8364 47.8327 45.0699 47.8327 46.1303 46.7796C46.5126 46.3973 46.8949 46.0149 47.27 45.6326C47.7173 45.171 47.912 44.6227 47.9048 43.9807C47.8832 43.2522 47.5081 42.7184 47.0031 42.2351C47.2989 41.658 47.5297 41.0665 47.7389 40.4678C47.8471 40.4606 47.9265 40.4533 48.0058 40.4533C49.4269 40.4173 50.3286 39.5012 50.3358 38.0945V36.6663C50.3358 35.1731 49.5423 34.3291 48.0491 34.2281ZM44.7092 13.0998H1.9765C1.9765 10.4236 1.96928 7.80507 1.99092 5.18657C1.99814 4.42194 2.25061 3.7078 2.71949 3.08744C3.25329 2.3733 3.94578 1.9982 4.8619 1.9982C17.197 2.00542 29.5393 1.9982 41.8743 2.00542C43.4469 2.00542 44.6948 3.28942 44.7309 5.07836C44.7814 7.7185 44.7525 10.3586 44.7525 12.9916C44.7525 13.0204 44.7309 13.0493 44.7092 13.0998ZM47.3349 38.4768C46.39 38.4841 46.1664 38.6428 45.9283 39.5517C45.7263 40.3091 45.4162 41.0304 45.0194 41.7085C44.6299 42.3721 44.6732 42.704 45.1925 43.2378C46.0221 44.0817 46.0221 44.0817 45.1781 44.9185C44.4207 45.6759 44.4207 45.6759 43.6705 44.9329C43.0357 44.2981 42.7544 44.2549 41.9898 44.7021C41.2828 45.1205 40.5254 45.4162 39.7319 45.6326C39.025 45.8202 38.823 46.0943 38.8086 46.8084C38.7942 48.0203 38.7942 48.0275 37.5823 48.0203C36.3993 48.0131 36.5508 48.1646 36.5436 46.9743C36.5364 46.0727 36.3416 45.813 35.4832 45.5894C34.6825 45.3802 33.9395 45.0556 33.2326 44.6372C32.6339 44.2909 32.2804 44.3342 31.7827 44.8175C31.7682 44.8247 31.761 44.8391 31.7466 44.8464C30.9098 45.6687 30.9098 45.6687 30.0658 44.8247C29.3229 44.0745 29.3229 44.0745 30.0731 43.3243C30.6862 42.7112 30.7223 42.3938 30.2895 41.6364C29.8855 40.9439 29.5753 40.2081 29.3806 39.4218C29.2002 38.7005 28.9117 38.4841 28.1687 38.4768C26.9929 38.4696 26.9929 38.4696 26.9929 37.3155C26.9929 36.219 26.9929 36.219 28.0677 36.2118C28.8973 36.2046 29.1858 35.9882 29.3878 35.2019C29.5825 34.4229 29.8999 33.6871 30.3039 32.9874C30.7006 32.2949 30.6574 31.9775 30.1163 31.422C29.3084 30.5853 29.3012 30.5853 30.1524 29.7485C30.3832 29.5177 30.5636 29.2364 30.8593 29.1137C31.0613 29.1209 31.1479 29.2508 31.2489 29.3518C32.1289 30.2174 32.2083 30.6718 33.788 29.7197C34.329 29.3878 34.9494 29.2003 35.5697 29.0416C36.255 28.8613 36.4859 28.5655 36.4931 27.8586C36.5075 26.6684 36.5075 26.6684 37.6833 26.6684C38.7509 26.6684 38.7509 26.6684 38.7653 27.7576C38.7725 28.5367 38.9962 28.854 39.7175 29.0272C40.5543 29.2291 41.3261 29.5538 42.0691 29.9938C42.7039 30.3689 43.0646 30.3184 43.5984 29.799C44.4351 28.9911 44.4351 28.9911 45.2791 29.8279C46.0221 30.5781 46.0221 30.5781 45.2719 31.3355C44.6515 31.9558 44.6082 32.2444 45.0555 33.0162C45.4739 33.7304 45.7696 34.4878 45.986 35.2741C46.1664 35.9665 46.4693 36.1974 47.1618 36.2118C48.3593 36.2407 48.3593 36.2407 48.3593 37.4453C48.3521 38.5778 48.4891 38.4768 47.3349 38.4768Z" fill="#2E2E3E"/>
<path d="M22.1713 24.9976C21.3677 24.0945 20.5857 23.2166 19.8052 22.3366C19.4915 21.9831 19.4078 21.5842 19.6336 21.1601C19.8485 20.7547 20.2078 20.5989 20.6608 20.6537C20.9399 20.6876 21.1376 20.8535 21.315 21.0519C22.198 22.0416 23.0859 23.0269 23.9595 24.0245C24.5106 24.6536 24.5106 25.3367 23.958 25.9693C23.0859 26.9684 22.2023 27.9573 21.315 28.9427C20.875 29.4318 20.2662 29.4873 19.8384 29.1021C19.4042 28.7119 19.3984 28.1211 19.8413 27.6176C20.6052 26.7491 21.3799 25.8864 22.1713 24.9976Z" fill="#EE3E3C"/>
<path d="M7.79811 25C8.6154 25.9168 9.39157 26.781 10.1613 27.6517C10.4866 28.0195 10.5652 28.4394 10.312 28.8722C10.0682 29.2898 9.68011 29.4154 9.21484 29.318C8.97824 29.2689 8.80728 29.1189 8.65363 28.9458C7.77214 27.9553 6.88488 26.97 6.01277 25.9716C5.45589 25.334 5.45444 24.6595 6.00628 24.0298C6.87983 23.0329 7.76348 22.0439 8.65074 21.0585C9.09654 20.563 9.68877 20.5016 10.1223 20.8854C10.5565 21.2699 10.5688 21.8722 10.1331 22.3685C9.36849 23.2413 8.59448 24.1041 7.79811 25Z" fill="#EE3E3C"/>
<path d="M16.9554 20.9913C16.7094 22.0365 16.4541 23.1344 16.1937 24.2309C15.8077 25.8517 15.4182 27.4712 15.0301 29.0913C14.9573 29.3957 14.8758 29.6958 14.6031 29.8949C14.2489 30.1531 13.8695 30.1856 13.5001 29.9598C13.1178 29.7261 12.9368 29.3669 13.0406 28.9139C13.3443 27.5924 13.656 26.273 13.9683 24.9544C14.2958 23.5716 14.6247 22.1894 14.9602 20.8081C15.1376 20.0795 15.6801 19.7376 16.2882 19.9547C16.7505 20.1192 16.9424 20.4654 16.9554 20.9913Z" fill="#EE3E3C"/>
<path d="M14.8707 38.4796C15.4312 38.4775 15.8698 38.9045 15.8719 39.4556C15.8741 40.0046 15.4319 40.4503 14.8822 40.4532C14.3434 40.4561 13.8767 39.9995 13.8731 39.4664C13.8695 38.924 14.3167 38.4818 14.8707 38.4796Z" fill="#EE3E3C"/>
<path d="M35.2815 10.3687C34.0444 10.3687 32.8066 10.3918 31.5702 10.363C30.1895 10.3305 29.0888 9.2896 28.9077 7.90317C28.7389 6.61123 29.6052 5.32434 30.9058 4.9579C31.1518 4.88865 31.4129 4.84392 31.6676 4.84248C34.1014 4.83382 36.5353 4.82084 38.9691 4.84392C40.3829 4.85763 41.5277 5.88844 41.7008 7.22654C41.8761 8.58628 41.0639 9.84865 39.7561 10.2476C39.4416 10.3435 39.1191 10.3752 38.7902 10.3745C37.6209 10.3709 36.4516 10.3731 35.2823 10.3731C35.2815 10.3716 35.2815 10.3702 35.2815 10.3687ZM35.296 8.72695C36.4393 8.72695 37.5819 8.72911 38.7253 8.72478C38.9006 8.72406 39.0802 8.71108 39.2497 8.66924C39.7186 8.5531 40.0432 8.1477 40.072 7.67233C40.1009 7.19841 39.8188 6.75189 39.3766 6.57733C39.1703 6.49581 38.9525 6.49221 38.7339 6.49221C36.448 6.49293 34.162 6.49221 31.8761 6.49365C31.7404 6.49365 31.6027 6.49798 31.4699 6.52106C31.0277 6.59752 30.7342 6.85793 30.6014 7.28353C30.3692 8.03085 30.9015 8.71396 31.7455 8.72406C32.9285 8.73777 34.1122 8.72695 35.296 8.72695Z" fill="#2E2E3E"/>
<path d="M0.613147 33.925L0 34.733C0 34.733 0 34.7907 0 34.8917C0 35.1441 0.014427 35.6707 0.122629 36.2839C0.129843 36.2911 0.129843 36.2983 0.129843 36.3055C0.14427 36.3416 0.151483 36.3704 0.151483 36.4065C0.151483 36.4281 0.158697 36.4498 0.16591 36.4786C0.194764 36.6013 0.223618 36.7239 0.259686 36.8465C0.266899 36.8826 0.274113 36.9259 0.28854 36.9619C0.425596 37.4236 0.627574 37.8925 0.930541 38.2964C0.937754 38.3181 0.952181 38.3325 0.966608 38.3541L1.81059 38.2604L0.613147 33.925Z" fill="#2E2E3E"/>
<path d="M37.677 41.1459C39.7757 41.1459 41.4771 39.4446 41.4771 37.3458C41.4771 35.2471 39.7757 33.5458 37.677 33.5458C35.5783 33.5458 33.877 35.2471 33.877 37.3458C33.877 39.4446 35.5783 41.1459 37.677 41.1459Z" fill="#EE3E3C"/>
</svg>
