<svg width="49" height="50" viewBox="0 0 49 50" fill="none" xmlns="http://www.w3.org/2000/svg">
<path d="M4.54041 5.54199C4.77525 5.57934 4.83917 5.76678 4.90524 5.95278C5.12284 6.56394 5.36199 7.16864 5.55231 7.78913C5.65357 8.12092 5.84532 8.30334 6.15269 8.4283C6.61806 8.61717 7.07338 8.83262 7.53013 9.04305C7.77359 9.15508 8.09318 9.2111 8.08456 9.5709C8.07738 9.90054 7.78293 9.95655 7.55024 10.0621C7.07769 10.2769 6.61376 10.5138 6.12971 10.6984C5.8051 10.8219 5.64495 11.0316 5.54513 11.3491C5.36918 11.9057 5.16809 12.455 4.9591 13.0001C4.87221 13.2264 4.87364 13.5625 4.51312 13.5531C4.18779 13.5445 4.18492 13.24 4.10449 13.0217C3.88473 12.4285 3.65851 11.8367 3.46317 11.2356C3.37914 10.9763 3.22689 10.8277 2.98918 10.725C2.45271 10.4937 1.92126 10.2517 1.38839 10.0126C1.18084 9.91921 0.959642 9.84165 0.971132 9.54433C0.981905 9.27861 1.17294 9.20104 1.37115 9.11343C1.86094 8.89726 2.34067 8.65667 2.83836 8.46061C3.20032 8.3177 3.4172 8.09291 3.53139 7.71731C3.71596 7.11262 3.94003 6.52013 4.15404 5.92406C4.22011 5.74021 4.29624 5.55205 4.54041 5.54199Z" fill="white"/>
<path d="M12.7091 0C12.8844 0.0280084 12.9318 0.168051 12.9813 0.306656C13.1443 0.763409 13.3224 1.21442 13.4639 1.67763C13.5393 1.9254 13.6822 2.06185 13.912 2.1545C14.2596 2.29526 14.5993 2.45684 14.9405 2.6134C15.1222 2.69743 15.3606 2.73836 15.3548 3.00768C15.3491 3.25401 15.1293 3.29566 14.9563 3.37466C14.6036 3.53553 14.2568 3.7122 13.8955 3.85008C13.6535 3.94273 13.5336 4.09857 13.4589 4.33556C13.3275 4.75138 13.1774 5.16145 13.0215 5.56793C12.9569 5.7367 12.9576 5.98806 12.6883 5.98088C12.4456 5.97441 12.4434 5.74676 12.3831 5.58445C12.2186 5.14134 12.0498 4.69967 11.9041 4.25082C11.8416 4.05691 11.7281 3.94632 11.55 3.86947C11.15 3.69711 10.7528 3.51685 10.355 3.33803C10.1999 3.26837 10.0347 3.2102 10.0433 2.98829C10.0512 2.79007 10.1941 2.7319 10.342 2.66655C10.7076 2.50568 11.066 2.32542 11.438 2.17891C11.708 2.07262 11.8696 1.90457 11.9558 1.62377C12.0937 1.17205 12.261 0.729656 12.4204 0.285112C12.47 0.147224 12.5267 0.00718165 12.7091 0Z" fill="white"/>
<path d="M45.7683 9.63566C46.0067 9.6256 46.0477 9.80514 46.1015 9.95165C46.2595 10.3782 46.4175 10.8048 46.5504 11.24C46.6337 11.5137 46.7931 11.6781 47.056 11.783C47.4481 11.9395 47.8366 12.1076 48.2122 12.2993C48.5512 12.4724 48.5411 12.7151 48.2101 12.9076C48.1684 12.932 48.1239 12.9565 48.0772 12.9672C46.9303 13.2301 46.3615 14.01 46.1403 15.1124C46.1037 15.2962 46.0706 15.5426 45.8358 15.5627C45.5485 15.5878 45.5672 15.2891 45.4695 15.1181C45.4616 15.1045 45.4573 15.088 45.4545 15.0714C45.2649 13.964 44.658 13.2394 43.547 12.96C43.384 12.9191 43.193 12.8545 43.1786 12.6232C43.1628 12.3604 43.3682 12.2886 43.5499 12.2433C44.6616 11.9639 45.2527 11.2321 45.4645 10.1326C45.4983 9.94806 45.522 9.6967 45.7683 9.63566Z" fill="white"/>
<path d="M44.8672 2.49569C44.865 3.47958 44.0887 4.25951 43.1098 4.2631C42.113 4.26669 41.3173 3.46234 41.3302 2.46409C41.3432 1.48811 42.1339 0.718235 43.117 0.726134C44.1023 0.732598 44.8701 1.50893 44.8672 2.49569Z" fill="white"/>
<path d="M1.53688 3.8279C1.53688 4.25018 1.17421 4.59418 0.741875 4.58125C0.329648 4.56976 -0.00214406 4.23294 1.04335e-05 3.82646C0.00216493 3.39843 0.35622 3.06233 0.792865 3.07454C1.20437 3.08675 1.5376 3.42429 1.53688 3.8279Z" fill="white"/>
<path d="M3.53461 30.5752C3.53461 29.9885 3.53101 29.4017 3.53532 28.815C3.54035 28.1241 3.94252 27.6602 4.52855 27.6602C5.0959 27.6594 5.51243 28.0939 5.52249 28.7647C5.54044 29.9705 5.54044 31.1777 5.52249 32.3835C5.51243 33.0557 5.09662 33.4902 4.5307 33.4909C3.9454 33.4909 3.54107 33.0263 3.53604 32.3361C3.53101 31.7487 3.53461 31.1619 3.53461 30.5752Z" fill="white"/>
<path d="M3.53128 25.1128C3.52697 24.4025 3.93992 23.9185 4.54246 23.9271C5.13423 23.9357 5.5206 24.3925 5.52419 25.0898C5.52778 25.8145 5.13064 26.2798 4.51661 26.2719C3.92556 26.2647 3.53559 25.8051 3.53128 25.1128Z" fill="white"/>
<path d="M27.1905 41.7503C23.5314 41.741 20.5963 38.7814 20.6114 35.1167C20.6265 31.4863 23.5824 28.5361 27.2063 28.5347C30.8416 28.5332 33.8263 31.5208 33.8242 35.1576C33.8228 38.8001 30.8438 41.7597 27.1905 41.7503ZM27.1819 40.5618C30.1824 40.5761 32.6464 38.1272 32.6356 35.1411C32.6249 32.17 30.1773 29.7268 27.212 29.7268C24.2367 29.7268 21.8057 32.1549 21.7971 35.136C21.7885 38.1186 24.1993 40.5481 27.1819 40.5618Z" fill="white"/>
<path d="M27.2315 11.3363C25.4555 11.3363 23.6802 11.3385 21.9042 11.3356C20.712 11.3335 20.2272 10.8408 20.2258 9.6386C20.2251 8.95419 20.2179 8.26978 20.228 7.58609C20.2416 6.69556 20.8011 6.14329 21.7138 6.13324C22.8378 6.12103 23.9617 6.13037 25.0864 6.13037C27.5626 6.13037 30.0388 6.12965 32.5151 6.13108C33.6857 6.1318 34.2056 6.65678 34.2085 7.83601C34.2099 8.47158 34.2128 9.10644 34.2078 9.74202C34.1991 10.7999 33.6727 11.3299 32.6077 11.3342C30.8159 11.3414 29.0241 11.3363 27.2315 11.3363ZM27.1877 10.1463C28.9795 10.1463 30.7721 10.1399 32.5639 10.1521C32.8957 10.1542 33.0343 10.0602 33.0235 9.71186C33.0034 9.06048 33.0091 8.40839 33.0214 7.75701C33.0271 7.45466 32.9366 7.31175 32.6063 7.31247C29.0054 7.31965 25.4052 7.31821 21.8043 7.3139C21.5164 7.31318 21.3957 7.41085 21.4036 7.7132C21.4201 8.36458 21.4338 9.01739 21.3993 9.66733C21.3777 10.0767 21.5415 10.1564 21.9085 10.1535C23.6687 10.1384 25.4282 10.1471 27.1877 10.1463Z" fill="white"/>
<path d="M30.3406 36.4505C30.3377 37.4868 29.501 38.3141 28.4726 38.2976C27.4636 38.2811 26.66 37.4573 26.6621 36.4418C26.6643 35.4271 27.4736 34.6055 28.4819 34.5947C29.5111 34.5832 30.3434 35.4149 30.3406 36.4505Z" fill="white"/>
<path d="M45.814 29.6322L45.8111 25.4941C45.8111 24.6833 45.6115 23.94 45.2172 23.2851C44.3526 21.8473 43.0835 21.0932 41.4447 21.0437C40.5829 21.0178 39.7039 21.0243 38.8536 21.0307C38.4643 21.0336 38.0751 21.0365 37.6851 21.0365H37.5652L37.4962 20.6465C37.265 19.3308 37.0467 18.0884 35.9838 17.1857C34.9202 16.2829 33.667 16.2995 32.3455 16.3138L31.9441 16.3174V15.7702C31.9441 15.3228 31.9441 14.9077 31.9448 14.4926C31.9448 14.4459 31.952 14.3985 31.9628 14.3367L31.9951 14.117L32.6809 14.1177C33.0838 14.1191 33.481 14.1191 33.8795 14.1162C35.7626 14.1019 36.9863 12.8839 36.9971 11.0131C37.0057 9.58103 37.0057 8.09371 36.9971 6.46563C36.9878 4.60055 35.7374 3.34592 33.886 3.34377C29.4355 3.33802 24.9844 3.33874 20.5339 3.34377C18.6911 3.3452 17.4472 4.58045 17.4386 6.41679C17.4321 7.93212 17.435 9.44817 17.4379 10.9642C17.4415 12.899 18.6501 14.1069 20.5913 14.1162C20.9777 14.1184 21.3634 14.1184 21.7476 14.117L22.4284 14.1162V16.39L22.2654 16.3677C20.5224 16.1321 19.1708 16.3957 18.2472 17.1526C17.3287 17.9046 16.808 19.1649 16.6974 20.8972L16.6888 21.0322L15.6267 21.03C14.9243 21.0286 14.2542 21.025 13.5842 21.0372C13.1088 21.0444 12.5766 21.0544 12.1586 20.5481C12.0129 20.3715 11.7507 20.2544 11.5159 20.1589C11.2092 20.0332 11.0821 19.8501 11.0627 19.5061C10.9665 17.8119 9.81671 16.5508 8.20155 16.3677C7.89131 16.3325 7.57388 16.3232 7.25717 16.3232C7.05967 16.3232 6.86146 16.3268 6.66683 16.3303C6.4837 16.3339 6.30057 16.3375 6.11744 16.3382C4.20784 16.3447 2.87923 17.5649 2.73201 19.4472C2.70256 19.8249 2.57473 20.0153 2.24366 20.174C1.16354 20.6889 0.51216 21.5435 0.308919 22.7141C0.265111 22.9633 0.243566 23.2168 0.243566 23.466C0.236385 31.0965 0.23423 38.7263 0.238539 46.3568C0.239257 48.4632 1.70862 49.9922 3.73026 49.9929C18.3025 50.0022 30.2535 50.003 41.342 49.9915C43.8369 49.9893 45.7975 48.0366 45.8054 45.546C45.8234 40.2424 45.8183 34.8482 45.814 29.6322ZM5.71096 18.0705C6.43343 17.9714 7.21479 17.9692 8.03494 18.064C8.84359 18.1574 9.32189 18.752 9.34487 19.695L9.34846 19.8422H4.46207L4.45489 19.7057C4.41036 18.8231 4.90302 18.1811 5.71096 18.0705ZM11.8513 46.2003C11.8513 47.6208 11.1582 48.3102 9.7334 48.3102H7.81015H3.96438C2.65445 48.3088 1.93269 47.6 1.93125 46.3145C1.92838 38.7199 1.9291 31.126 1.93125 23.5307C1.93125 22.2207 2.62931 21.5277 3.94786 21.5263C5.91994 21.5248 7.89202 21.5241 9.86411 21.5263C11.1439 21.5277 11.8491 22.2337 11.8506 23.5142C11.852 26.2683 11.852 29.0225 11.8513 31.7766V46.2003ZM20.6955 28.6153C22.442 26.8795 24.7574 25.9243 27.2178 25.9243C27.2265 25.9243 27.2344 25.9243 27.243 25.9243C32.3125 25.938 36.4362 30.0803 36.4348 35.1585C36.4341 37.6275 35.4653 39.9515 33.7079 41.7002C31.9649 43.4353 29.661 44.3891 27.2171 44.3891C27.2028 44.3891 27.1891 44.3891 27.1748 44.3891C22.0916 44.3668 17.9629 40.2172 17.9715 35.1405C17.9758 32.6751 18.9431 30.3575 20.6955 28.6153ZM20.5849 12.4278C19.6154 12.4271 19.1227 11.9388 19.1198 10.9771C19.1162 9.47761 19.1155 7.97809 19.1198 6.47927C19.1227 5.52771 19.606 5.04438 20.5569 5.04294C24.9894 5.03648 29.4219 5.03648 33.8551 5.04294C34.8153 5.04438 35.285 5.51334 35.2915 6.47568C35.3001 7.856 35.3001 9.32752 35.2915 10.975C35.2864 11.9653 34.8232 12.4271 33.8321 12.4278C32.2206 12.4286 30.609 12.4286 28.9967 12.4286H25.2982C24.6719 12.4286 24.0464 12.4286 23.4202 12.4286C22.4758 12.4286 21.53 12.4286 20.5849 12.4278ZM30.2349 14.1507V16.298H24.2016V14.1507H30.2349ZM13.5619 22.7213H17.0192C17.8594 22.7206 18.0742 22.5425 18.2286 21.7187C18.355 21.0458 18.4821 20.3736 18.6207 19.7043C18.8333 18.6766 19.6312 18.0123 20.6524 18.0101C24.9556 18.0051 29.2574 18.0044 33.5607 18.0101C34.5632 18.0116 35.3281 18.6278 35.5572 19.6174C35.6735 20.118 35.7726 20.6307 35.8689 21.1263C35.9199 21.3898 35.9716 21.6527 36.0247 21.9162C36.1439 22.4994 36.4089 22.7163 37.0014 22.7191C37.7627 22.7227 38.5225 22.7213 39.2837 22.7213C39.9078 22.7206 40.5326 22.7213 41.1567 22.7213C42.9428 22.7263 44.1069 23.8847 44.122 25.673C44.1263 26.2202 44.1256 26.7674 44.1242 27.3377L44.1235 28.2756L40.7387 28.2749C39.2119 28.2749 37.6851 28.2742 36.1576 28.2799C36.1561 28.2799 36.1547 28.2799 36.1525 28.2799C35.8279 28.2799 35.6153 28.1887 35.4207 27.9661C33.3553 25.6069 30.3857 24.2438 27.2739 24.2266C27.2538 24.2266 27.2336 24.2266 27.2135 24.2266C24.1197 24.2266 21.1573 25.5566 19.0753 27.8813C18.8196 28.1664 18.5654 28.2849 18.2006 28.2849C18.1934 28.2849 18.1862 28.2849 18.1797 28.2849C17.0953 28.2698 16.0353 28.2713 14.9114 28.2734L13.5627 28.2756V22.7213H13.5619ZM44.1263 29.6918C44.1235 29.727 44.1199 29.7622 44.1199 29.7959C44.1235 34.9624 44.1249 40.1296 44.1213 45.2961C44.1199 47.1547 42.9694 48.3095 41.1179 48.3095L20.6179 48.3102H13.0621L13.1641 48.1027C13.5684 47.2811 13.5548 46.4301 13.5411 45.6063C13.5382 45.4498 13.5361 45.2939 13.5361 45.1388C13.539 41.4403 13.5382 37.7417 13.5375 34.0439V29.2509H17.9866L17.8953 29.4089C16.1172 32.5041 15.8019 35.7007 16.9581 38.9109C17.761 41.1394 19.1852 42.9376 21.1917 44.2569C25.2048 46.8933 30.4209 46.6204 34.1675 43.5768C37.7332 40.6805 39.6988 34.8863 36.5547 29.416L36.4592 29.2501H44.0193C44.1543 29.3909 44.1393 29.5647 44.1263 29.6918Z" fill="white"/>
</svg>
