<svg width="45" height="50" viewBox="0 0 45 50" fill="none" xmlns="http://www.w3.org/2000/svg">
<path d="M12.8283 49.0627C12.8283 49.5778 12.4133 49.9928 11.8981 50H11.891L8.38502 49.9928L4.51416 49.9857C4.38537 49.9427 4.24943 49.8998 4.12064 49.8569C3.82728 49.7639 3.52677 49.6708 3.24773 49.5349C1.10839 48.5046 0.020827 46.7874 0.020827 44.4191C0.013672 37.9367 0.0136719 31.4542 0.0136719 24.9718V15.7633C0.0208269 15.3984 0.120997 15.0979 0.321337 14.9047C0.485902 14.7402 0.700552 14.6543 0.950977 14.6543L0.958131 14.6615C1.52338 14.6615 1.88828 15.1051 1.88828 15.7776L1.89544 29.3292V44.3332C1.89544 46.63 3.37652 48.1182 5.66612 48.1182L6.55334 48.1254H9.55057C10.4621 48.1254 11.3186 48.1247 11.7693 48.1182C11.8051 48.1182 11.848 48.1182 11.891 48.1254C12.4061 48.1254 12.8283 48.5404 12.8283 49.0627Z" fill="#2E2E3E"/>
<path d="M12.7618 32.0031C12.7668 32.8159 13.1925 33.5765 13.9309 34.0895C14.5419 34.5145 15.2238 34.7277 15.9643 34.7277C16.1997 34.7277 16.4401 34.7063 16.687 34.6633C18.0121 34.4322 19.3165 33.4112 19.2442 31.6525C19.1991 30.5564 19.2113 29.4373 19.222 28.3555C19.227 27.8969 19.2313 27.4382 19.232 26.9796C19.232 26.9438 19.2306 26.9087 19.2284 26.873C19.2249 26.8014 19.2213 26.7413 19.2342 26.6855L22.6535 25.5765V28.2811C22.011 28.3977 21.5052 28.6059 21.0716 28.93C20.3868 29.4423 19.9876 30.1779 19.9769 30.9492C19.9654 31.7176 20.3418 32.4625 21.0086 32.9919C22.2665 33.9893 24.2756 33.9629 25.4891 32.9325C26.0836 32.4288 26.402 31.8242 26.4371 31.1366C26.4636 30.6129 26.211 30.2838 25.761 30.2537C25.303 30.2265 25.0032 30.5134 24.9582 31.0272C24.9331 31.3105 24.8165 31.5409 24.5904 31.7512C23.8785 32.4152 22.4976 32.3981 21.8007 31.7176C21.5796 31.5008 21.4622 31.2475 21.4622 30.9849C21.4622 30.7252 21.5774 30.4748 21.7957 30.2609C22.152 29.9117 22.6042 29.7457 23.2188 29.7385C23.8906 29.7307 24.1404 29.481 24.1411 28.8156C24.1432 27.4726 24.1425 26.1289 24.1411 24.7859C24.1411 24.3523 24.0459 24.0818 23.8434 23.9344C23.6388 23.7856 23.3483 23.7806 22.9297 23.9165L18.5666 25.3411C17.8411 25.5779 17.7409 25.7167 17.7409 26.4809L17.7402 27.9183C17.7388 29.2298 17.7381 30.5421 17.7452 31.8536C17.7474 32.2313 17.6286 32.5168 17.3732 32.7529C16.6555 33.4134 15.2739 33.3926 14.582 32.7122C14.3623 32.4954 14.2464 32.2421 14.2471 31.9802C14.2486 31.7198 14.3645 31.4693 14.5841 31.2561C14.9419 30.9077 15.3948 30.7431 16.0094 30.7374C16.6777 30.7317 16.926 30.4791 16.9267 29.8087L16.9281 26.048C16.9295 25.1422 17.2587 24.6843 18.1015 24.4152C19.7286 23.8965 21.3571 23.3799 22.987 22.8698C23.5236 22.7023 24.0201 22.7567 24.3836 23.0222C24.7507 23.2912 24.9539 23.7534 24.956 24.3244C24.9582 24.9626 24.9575 25.6001 24.9575 26.2376C24.9567 26.8916 24.9567 27.5455 24.9589 28.1995C24.9596 28.4757 25.049 28.714 25.2093 28.8692C25.346 29.0016 25.5234 29.0595 25.7266 29.0638C26.1616 29.0517 26.4435 28.7154 26.445 28.2081C26.4486 26.8651 26.4478 25.5214 26.4428 24.1777C26.4421 23.948 26.4221 23.7498 26.3827 23.5717C26.2017 22.7524 25.7195 22.0777 25.024 21.672C24.3156 21.2592 23.4685 21.1712 22.6399 21.4259C21.7205 21.7078 20.8047 21.9983 19.8881 22.2895C19.1519 22.5234 18.4156 22.7574 17.678 22.9864C16.2155 23.4407 15.4413 24.4882 15.4392 26.0158C15.4377 26.7864 15.4384 27.5577 15.4384 28.3397V29.2806C14.8245 29.3922 14.3387 29.5861 13.918 29.8852C13.1782 30.4125 12.7568 31.1839 12.7618 32.0031Z" fill="#EE3E3C"/>
<path d="M28.0179 43.7853L28.123 43.7867C28.2433 43.7888 28.3635 43.7896 28.4815 43.7738C28.9387 43.7094 29.2299 43.4075 29.2793 42.9431C29.3237 42.526 29.1162 42.1818 28.7112 41.9987C28.4973 41.9028 28.2833 41.9035 28.0951 41.9078L28.0043 41.9085C23.131 41.9071 16.836 41.9078 11.9649 41.9092L11.8748 41.9078C11.703 41.9085 11.5099 41.9028 11.3124 41.9815C10.8709 42.1589 10.6563 42.5052 10.7064 42.9567C10.7579 43.4168 11.0519 43.7144 11.5142 43.7745C11.5943 43.7846 11.6759 43.7874 11.7574 43.7874C11.7946 43.7874 11.8318 43.7867 11.869 43.786L11.9764 43.7846L20.659 43.7853H28.0179Z" fill="#2E2E3E"/>
<path d="M19.9297 18.3584C20.1851 18.4257 20.4406 18.4579 20.6924 18.4579C22.1148 18.4579 23.4113 17.4297 23.8234 15.8613C24.071 14.919 23.993 14.1384 23.5909 13.541C23.1916 12.9478 22.5069 12.5843 21.5553 12.4598C21.3628 12.4348 21.1682 12.4269 20.9743 12.419L20.7067 12.4069C20.3039 12.3997 19.8775 12.4362 19.4517 12.5156C18.4357 12.7052 17.7953 13.2361 17.5485 14.0933C17.3038 14.9419 17.4347 15.9057 17.907 16.7378C18.3699 17.5513 19.1069 18.1416 19.9297 18.3584ZM21.4158 16.3078C21.1167 16.5332 20.7604 16.609 20.4076 16.5203C20.0857 16.4394 19.7658 16.174 19.5526 15.8105C19.3322 15.4342 19.2543 15.0092 19.3451 14.6722C19.3881 14.514 19.4746 14.4375 19.6549 14.3988C19.9812 14.3287 20.3311 14.2922 20.6988 14.2851L20.985 14.3158C21.1961 14.3387 21.4065 14.3616 21.6175 14.3788C21.9016 14.4024 22.074 14.5062 22.0604 14.9519C22.0433 15.5093 21.8021 16.0166 21.4158 16.3078Z" fill="#2E2E3E"/>
<path d="M25.8752 38.5183L14.1431 38.5212C13.4562 38.5219 13.0369 38.866 13.0219 39.442C13.0148 39.7017 13.0956 39.9264 13.2545 40.0895C13.4519 40.2927 13.7553 40.3965 14.1553 40.3965L25.8909 40.3972C25.9081 40.3979 25.9252 40.3979 25.9431 40.3979C26.1377 40.3979 26.3681 40.3858 26.5721 40.2241C26.9112 39.9565 27.0386 39.6052 26.9312 39.2345C26.8382 38.9075 26.5785 38.5183 25.8752 38.5183Z" fill="#EE3E3C"/>
<path d="M27.7596 14.026C27.8004 14.5247 28.1066 14.8374 28.6003 14.8832C28.6397 14.8868 28.6776 14.8882 28.7155 14.8882C29.1706 14.8882 29.4997 14.6235 29.5856 14.1777C29.6914 13.6268 29.69 13.0794 29.582 12.5507C29.4897 12.0985 29.1226 11.828 28.6461 11.8488C28.1467 11.8752 27.8168 12.1836 27.7646 12.673C27.7474 12.8369 27.751 13.0029 27.7553 13.1689C27.7553 13.1724 27.7553 13.176 27.7553 13.1796L27.7524 13.5674C27.7496 13.7212 27.7467 13.8743 27.7596 14.026Z" fill="#EE3E3C"/>
<path d="M13.6316 12.7577C13.6066 12.2346 13.2839 11.8962 12.7694 11.8518C12.2407 11.8082 11.8386 12.1302 11.7778 12.6375C11.7205 13.114 11.7198 13.6041 11.7763 14.0942C11.8328 14.5843 12.1806 14.8884 12.6714 14.8884C12.6986 14.8884 12.7272 14.8877 12.7558 14.8856C13.2724 14.8498 13.5915 14.5271 13.6302 13.9998C13.6409 13.8502 13.6388 13.7 13.6359 13.5504L13.6338 13.3515L13.6352 13.1705C13.6366 13.0331 13.6381 12.895 13.6316 12.7577Z" fill="#EE3E3C"/>
<path d="M41.5488 9.79608C41.5131 9.78893 41.4773 9.78177 41.4415 9.78177C41.4272 9.78177 41.4129 9.77462 41.3986 9.76746V9.59574C41.37 6.17566 39.066 3.8789 35.6603 3.8789H32.2259C32.2187 3.69287 32.2259 3.50684 32.2259 3.32797C32.233 2.97737 32.2402 2.61962 32.1615 2.26187C31.8467 0.845184 30.523 -0.127895 29.0705 0.0152044C27.6395 0.151149 26.5448 1.33172 26.4733 2.81281C26.4661 3.09901 26.4661 3.38521 26.4733 3.67856V3.85744H23.5826V3.64994C23.5826 3.34228 23.5898 3.04892 23.5755 2.74841C23.5039 1.20293 22.2447 0.00804942 20.692 0.00804942H20.6491C19.1322 0.0295144 17.8729 1.28164 17.8372 2.80565C17.83 3.09185 17.83 3.37805 17.83 3.66425V3.85028H14.9394C14.9322 3.70718 14.9322 3.57124 14.9394 3.42814C14.9394 2.99168 14.9466 2.54807 14.8178 2.10446C14.4386 0.752169 13.1507 -0.127895 11.7626 0.0152044C10.353 0.158304 9.27264 1.29595 9.19394 2.72695C9.17963 3.03461 9.18678 3.34228 9.18678 3.6571C9.18678 3.7358 9.19394 3.80735 9.19394 3.88606C9.02937 3.88606 6.73262 3.8789 6.57521 3.8789C6.08867 3.8789 5.6236 3.87175 5.16568 3.88606C2.66858 3.97192 0.493465 5.88946 0.107096 8.35077C-0.0216943 9.19506 -0.00738434 10.0394 0.0140806 10.8622C0.0212356 11.2772 0.0283908 11.6922 0.0212358 12.1C0.0140808 12.4649 0.107096 12.7583 0.300281 12.9514C0.464845 13.1232 0.68665 13.209 0.951385 13.209C1.24474 13.2376 1.48085 13.1088 1.65257 12.9085C1.80998 12.7153 1.88869 12.4434 1.89584 12.1143V10.9623C1.88869 10.3756 1.88869 9.79608 1.89584 9.21653C1.91731 7.77837 2.81168 6.51194 4.17113 5.98963C4.86517 5.72489 5.57351 5.7392 6.32479 5.75351C6.56806 5.76067 8.93636 5.76782 9.17963 5.76067C9.18678 5.93954 9.17963 6.10411 9.17963 6.27583C9.17247 6.66935 9.17247 7.07718 9.27264 7.47786C9.63755 8.85878 10.9254 9.76031 12.3421 9.61721C13.7803 9.47411 14.8392 8.32215 14.9251 6.81245C14.9394 6.52625 14.9394 6.24005 14.9322 5.9467V5.77498H17.83V6.73375C17.8515 8.35793 19.1179 9.62436 20.7063 9.62436C21.5005 9.62436 22.216 9.30239 22.7312 8.78723C23.2464 8.26491 23.5683 7.54226 23.5826 6.72659V5.75351H26.4733L26.4661 5.93239C26.4661 6.18997 26.4661 6.43324 26.4733 6.66935C26.5019 8.35793 27.7397 9.62436 29.3639 9.62436H29.3925C31.0024 9.61005 32.1972 8.35793 32.2259 6.64788C32.2259 6.53341 32.2187 6.42608 32.2187 6.3116C32.2116 6.11842 32.2044 5.93954 32.2259 5.76782H32.3117C33.8787 5.70343 37.4991 5.64619 38.6224 6.94124C39.295 7.72113 39.5884 8.64413 39.5097 9.75315C37.2988 10.3184 35.8892 12.193 35.9107 14.5685C35.9536 21.7235 35.9393 29.0001 35.925 36.0335L35.9178 38.2873C35.9178 39.704 36.34 40.9132 37.2057 41.9864C37.5993 42.4729 37.9856 42.9666 38.3649 43.4532C38.6868 43.8682 39.0088 44.276 39.3379 44.6838C39.4667 44.8484 39.5025 44.97 39.4667 45.1704C39.1519 46.9305 37.7137 48.1182 35.8749 48.1182C29.8576 48.1254 21.708 48.1182 15.6907 48.1182C15.6048 48.1182 15.5046 48.1182 15.3973 48.1254H15.2614C14.7391 48.1254 14.3241 48.5404 14.3241 49.0627C14.3241 49.4848 14.6103 49.8354 15.0038 49.9428L15.0181 49.9642H15.0253L15.1755 49.9857C15.1827 49.9857 15.1898 49.9928 15.197 49.9928C15.2184 50 15.2399 50 15.2614 50H35.9822L36.9195 49.8927C37.077 49.8641 37.2201 49.8283 37.356 49.7925C37.4919 49.7567 37.6207 49.721 37.7424 49.678C37.8354 49.6494 37.9141 49.6208 37.9856 49.585C38.05 49.5635 38.1144 49.5349 38.186 49.5063C38.2432 49.4848 38.2933 49.4634 38.3291 49.4419C38.3863 49.4204 38.4364 49.3918 38.465 49.3775C38.5008 49.3561 38.5151 49.3489 38.5151 49.3489C40.0391 48.5547 41.0694 47.1094 41.3342 45.3063C41.3771 45.0201 41.4487 44.8341 41.5846 44.6695C42.3931 43.6678 43.1945 42.6304 43.8814 41.736C44.6112 40.7915 44.9832 39.7111 44.9832 38.5091C44.9904 37.2355 44.9904 35.9619 44.9832 34.6812C44.9832 33.9943 44.6326 33.5864 44.0602 33.5793C44.0531 33.5793 44.0459 33.5793 44.0459 33.5793C43.7883 33.5793 43.5665 33.6651 43.4091 33.8226C43.2159 34.0086 43.1086 34.3019 43.1086 34.6668V36.1551H37.8282V17.1085H43.1086V30.9105C43.1086 31.2968 43.2159 31.6045 43.4234 31.8048C43.588 31.9694 43.817 32.041 44.0674 32.0481C44.6326 32.0338 44.9832 31.5974 44.9832 30.9176V27.3902C44.9904 22.997 44.9904 18.611 44.9832 14.2179C44.9761 12.1 43.6023 10.3256 41.5488 9.79608ZM13.0505 6.69797C13.0433 7.01994 12.9288 7.29899 12.7285 7.49217C12.5496 7.66389 12.2921 7.74975 12.0273 7.74975C11.4549 7.72829 11.0829 7.30614 11.0685 6.67651C11.0542 6.24005 11.0614 5.8036 11.0614 5.3743V4.2295C11.0614 3.80735 11.0542 3.38521 11.0685 2.96306C11.0829 2.32627 11.4549 1.90412 12.0202 1.88266H12.0559C12.3135 1.88266 12.5568 1.97567 12.7285 2.14024C12.9288 2.33342 13.0433 2.61247 13.0505 2.93444C13.0719 4.19372 13.0719 5.46016 13.0505 6.69797ZM21.7009 6.71944C21.6937 7.30614 21.2644 7.74975 20.7063 7.74975C20.6992 7.74975 20.6992 7.74975 20.6992 7.74975C20.1339 7.7426 19.7189 7.30614 19.7118 6.70512C19.7046 6.26867 19.7046 5.83222 19.7046 5.39576L19.7118 4.81621L19.7046 4.25096C19.7046 3.80735 19.7046 3.3709 19.7118 2.93444C19.7189 2.33342 20.1339 1.88981 20.692 1.88266C20.692 1.88266 20.6992 1.88266 20.7063 1.88266C21.2644 1.88266 21.6937 2.31911 21.7009 2.90582C21.7152 4.15079 21.7152 5.43869 21.7009 6.71944ZM30.3441 5.40292C30.3441 5.83937 30.3513 6.27583 30.3369 6.71228C30.3298 7.30614 29.9363 7.72829 29.3853 7.74975C29.1134 7.74975 28.8559 7.66389 28.6627 7.48502C28.4767 7.30614 28.3693 7.06287 28.3622 6.79814C28.3336 5.53171 28.3264 4.20088 28.3622 2.84858C28.3693 2.56954 28.4767 2.31911 28.6698 2.14739C28.8559 1.97567 29.092 1.88266 29.3496 1.88266H29.3782C29.9291 1.89697 30.3226 2.31911 30.3369 2.90582C30.3513 3.34943 30.3441 3.79304 30.3441 4.24381V5.40292ZM40.4541 43.074L39.6742 42.0866C40.1608 41.9005 40.6974 41.9005 41.234 42.0794L40.4541 43.074ZM43.1015 38.0798C43.1587 39.0815 42.9441 39.8614 42.4504 40.5125C41.7062 40.212 41.0909 40.0617 40.4684 40.0617C39.8459 40.0617 39.2163 40.212 38.4579 40.5125C37.957 39.8685 37.7495 39.0886 37.8139 38.0798H43.1015ZM43.1086 14.9191C43.1015 15.0121 43.1015 15.0979 43.1015 15.1909H37.8425C37.5707 13.3163 38.2647 12.0571 39.8102 11.6349C40.5543 11.4346 41.3485 11.5777 41.9924 12.0356C42.6364 12.5007 43.0442 13.2019 43.0943 13.9818C43.1158 14.2823 43.1086 14.5971 43.1086 14.9191Z" fill="#2E2E3E"/>
</svg>
