<svg width="50" height="50" viewBox="0 0 50 50" fill="none" xmlns="http://www.w3.org/2000/svg">
<path d="M8.57591 9.62346C8.68767 9.67177 8.75906 9.74171 8.79872 9.86357C8.89029 10.1462 8.99701 10.4238 9.10013 10.7022C9.13834 10.8046 9.13907 10.9473 9.29193 10.9517C9.46139 10.956 9.46066 10.7981 9.50104 10.6921C9.59911 10.4361 9.69357 10.178 9.77577 9.91693C9.82264 9.76767 9.89763 9.6696 10.0505 9.6112C10.2776 9.52467 10.4954 9.41362 10.7175 9.31267C10.8264 9.26292 10.9648 9.23696 10.9684 9.08193C10.972 8.91248 10.8228 8.88652 10.7081 8.83388C10.494 8.73509 10.2798 8.63414 10.0613 8.54545C9.9171 8.48704 9.82697 8.40123 9.77938 8.24548C9.68997 7.95417 9.5782 7.67079 9.47581 7.3838C9.4448 7.29655 9.41452 7.20858 9.30419 7.19055C9.18954 7.19488 9.15421 7.28357 9.1232 7.3701C9.02297 7.64988 8.9177 7.92821 8.83117 8.21159C8.77709 8.38826 8.67541 8.49353 8.50596 8.56059C8.27233 8.65289 8.04736 8.76538 7.81734 8.86705C7.72432 8.90815 7.63418 8.94492 7.62914 9.06967C7.62337 9.20956 7.7272 9.24561 7.82527 9.2896C8.07476 9.40136 8.32425 9.51529 8.57591 9.62346Z" fill="#EE3E3C"/>
<path d="M10.0613 40.2856C9.9171 40.2272 9.82697 40.1413 9.77938 39.9856C9.68997 39.6943 9.5782 39.4109 9.47581 39.1239C9.4448 39.0367 9.41452 38.9487 9.30419 38.9307C9.18954 38.935 9.15421 39.0237 9.1232 39.1102C9.02297 39.39 8.9177 39.6683 8.83117 39.9517C8.77709 40.1284 8.67541 40.2336 8.50596 40.3007C8.27233 40.393 8.04736 40.5062 7.81734 40.6072C7.72432 40.6483 7.63418 40.685 7.62914 40.8098C7.62337 40.9497 7.7272 40.9857 7.82527 41.0297C8.07548 41.1422 8.32497 41.2554 8.57663 41.3643C8.68839 41.4126 8.75978 41.4825 8.79944 41.6044C8.89102 41.8871 8.99773 42.1647 9.10085 42.443C9.13906 42.5454 9.13979 42.6882 9.29265 42.6925C9.46211 42.6968 9.46139 42.5389 9.50177 42.4329C9.59983 42.1769 9.69429 41.9188 9.77649 41.6578C9.82336 41.5085 9.89836 41.4104 10.0512 41.3528C10.2784 41.2662 10.4961 41.1552 10.7182 41.0542C10.8271 41.0045 10.9655 40.9785 10.9692 40.8235C10.9728 40.654 10.8235 40.6281 10.7088 40.5754C10.494 40.4752 10.2798 40.3743 10.0613 40.2856Z" fill="#EE3E3C"/>
<path d="M12.1384 30.9788C12.0648 30.9492 12.0194 30.9052 11.9949 30.8267C11.9495 30.6788 11.8925 30.5346 11.8406 30.389C11.8247 30.3443 11.8096 30.2995 11.7533 30.2909C11.6949 30.2931 11.6769 30.3378 11.661 30.3817C11.6098 30.5238 11.5565 30.6651 11.5125 30.8093C11.4851 30.8988 11.4332 30.9528 11.3474 30.9867C11.2284 31.0336 11.1145 31.0913 10.9976 31.1425C10.95 31.1634 10.9046 31.1821 10.9025 31.2456C10.8996 31.3163 10.9522 31.335 11.002 31.3574C11.1289 31.4143 11.2558 31.472 11.3834 31.5275C11.4404 31.5521 11.4764 31.5874 11.4966 31.6494C11.5435 31.7929 11.5969 31.9342 11.6495 32.0756C11.669 32.1275 11.6697 32.2003 11.7468 32.2025C11.8326 32.2046 11.8326 32.1246 11.8528 32.0705C11.9026 31.9407 11.9509 31.8095 11.9927 31.6768C12.0165 31.6011 12.0547 31.5513 12.1319 31.5218C12.2473 31.4778 12.3583 31.4215 12.4708 31.3703C12.5263 31.3451 12.5963 31.3314 12.5984 31.2528C12.6006 31.167 12.5242 31.1533 12.4665 31.1266C12.3576 31.0754 12.2494 31.0235 12.1384 30.9788Z" fill="#2E2E3E"/>
<path d="M28.3025 9.62346C28.4142 9.67177 28.4856 9.74171 28.5253 9.86357C28.6169 10.1462 28.7236 10.4238 28.8267 10.7022C28.8649 10.8046 28.8656 10.9473 29.0185 10.9517C29.1879 10.956 29.1872 10.7981 29.2276 10.6921C29.3257 10.4361 29.4201 10.178 29.5023 9.91693C29.5492 9.76767 29.6242 9.6696 29.7771 9.6112C30.0042 9.52467 30.222 9.41362 30.4441 9.31267C30.5529 9.26292 30.6914 9.23696 30.695 9.08193C30.6986 8.91248 30.5493 8.88652 30.4347 8.83388C30.2205 8.73509 30.0064 8.63414 29.7879 8.54545C29.6437 8.48704 29.5535 8.40123 29.5059 8.24548C29.4165 7.95417 29.3048 7.67079 29.2024 7.3838C29.1714 7.29655 29.1411 7.20858 29.0308 7.19055C28.9161 7.19488 28.8808 7.28357 28.8498 7.3701C28.7495 7.64988 28.6443 7.92821 28.5577 8.21159C28.5036 8.38826 28.402 8.49353 28.2325 8.56059C27.9989 8.65289 27.7739 8.76538 27.5439 8.86705C27.4509 8.90815 27.3607 8.94492 27.3557 9.06967C27.3499 9.20956 27.4538 9.24561 27.5518 9.2896C27.8006 9.40136 28.0501 9.51529 28.3025 9.62346Z" fill="#EE3E3C"/>
<path d="M30.4967 23.3866C30.8645 22.7059 30.6842 22.0894 30.2696 21.4815C28.4626 18.8366 26.6707 16.1809 24.8695 13.5317C24.028 12.2936 22.7567 12.2943 21.9167 13.5266C21.4076 14.2729 20.8992 15.02 20.3534 15.8196C19.2566 14.2008 18.2132 12.6411 17.1482 11.0959C16.4084 10.0222 15.1054 10.028 14.3569 11.0915C14.0123 11.5812 13.6842 12.0823 13.3482 12.5777C11.3313 15.5499 9.31663 18.5237 7.29618 21.4938C6.99549 21.9358 6.77845 22.3901 6.9068 22.9431C7.10509 23.7969 7.7382 24.2526 8.75059 24.2526C15.427 24.254 22.1034 24.2511 28.7791 24.2569C29.5103 24.2576 30.129 24.0666 30.4967 23.3866ZM8.22348 22.7333C10.7545 19.0017 13.2184 15.3704 15.7501 11.6381C18.2954 15.3884 20.7788 19.0472 23.2802 22.7333C18.2601 22.7333 13.3034 22.7333 8.22348 22.7333ZM25.4427 22.7946C25.2502 22.7946 25.0829 22.8068 24.9437 22.5992C23.7194 20.7712 22.4798 18.9534 21.2389 17.1233C21.9354 16.0972 22.6248 15.0827 23.3898 13.9564C25.3836 16.8933 27.3269 19.7553 29.2543 22.5948C29.1137 22.8638 28.9147 22.791 28.7503 22.7917C27.6471 22.796 26.5445 22.7931 25.4427 22.7946Z" fill="#EE3E3C"/>
<path d="M37.2745 43.1094C37.1238 42.9616 36.9262 42.9046 36.6738 42.8917C36.3529 42.8974 35.8136 43.0467 35.81 43.9898C35.8093 44.6352 35.8093 45.2806 35.8093 45.9267L35.8085 47.5404C35.8085 48.2384 35.7948 48.2514 35.086 48.2514H2.50141C1.77096 48.2514 1.75005 48.2312 1.75005 47.5152C1.74933 32.5435 1.74933 17.5747 1.75005 2.60308V2.38243C1.75005 1.67866 1.77673 1.65198 2.45814 1.65198H35.0911C35.7956 1.65198 35.8085 1.66568 35.8085 2.36801V3.4525C35.81 10.4022 35.81 17.3512 35.81 24.3016C35.81 24.8122 35.9124 25.1604 36.1215 25.3667C36.2679 25.5102 36.469 25.5758 36.7056 25.5772C37.5593 25.5621 37.5593 24.6312 37.5593 24.3254L37.5571 18.9794C37.5543 13.9376 37.5514 8.72644 37.5723 3.59672L37.5766 1.91229C37.5766 1.28135 37.2651 0.692231 36.7459 0.335299L36.707 0.307899H36.7048C36.3955 0.106719 36.0371 0 35.6658 0H1.91013C1.55103 0 1.20275 0.0995082 0.903506 0.286987C0.337463 0.638151 0 1.24602 0 1.91301L0.000721022 21.2212C0.000721022 30.0868 0.00144211 38.9517 0.00288426 47.818C0.00288426 49.1015 0.907832 49.9978 2.2036 49.9978C7.73208 49.9993 13.2598 50 18.7883 50C24.3168 50 29.8445 49.9993 35.373 49.9978C36.6702 49.9978 37.5478 49.1167 37.5557 47.8058C37.5615 46.802 37.56 45.8005 37.5586 44.7975L37.5571 43.9624C37.5571 43.5796 37.4612 43.2933 37.2745 43.1094Z" fill="#2E2E3E"/>
<path d="M49.0483 32.4059C49.049 31.1116 49.0498 29.818 49.0447 28.5236C49.0404 27.4428 48.3135 26.7159 47.237 26.7152C37.5219 26.7109 27.8055 26.7109 18.089 26.7152C17.0333 26.7152 16.2892 27.4392 16.2798 28.4761C16.2625 30.3004 16.2661 32.1564 16.2704 33.9504L16.2733 35.614C16.2733 36.2752 16.4659 36.7143 16.8444 36.9198C17.3838 37.2126 17.3679 37.6186 17.3485 38.1327L17.3463 38.1904C17.3405 38.3555 17.342 38.5199 17.3434 38.685L17.3448 38.8891C17.3463 40.1791 17.996 40.8353 19.2759 40.8396C19.8326 40.8418 20.3892 40.841 20.9495 40.841L21.5884 40.8403C21.6122 41.2715 21.6064 41.6991 21.6006 42.1144C21.592 42.7396 21.5848 43.3316 21.6677 43.9337H5.77377V5.96989H31.8074L31.8082 24.3313C31.8082 24.3717 31.8067 24.4121 31.806 24.4532C31.8024 24.5873 31.7988 24.7257 31.8312 24.8599C31.9365 25.2976 32.2437 25.5247 32.6612 25.4908C33.0664 25.4562 33.326 25.1973 33.3714 24.7827C33.3823 24.6875 33.3808 24.5924 33.3794 24.5008L33.3779 24.4027C33.3787 18.301 33.3787 12.2 33.3779 6.09824C33.3779 4.90991 32.8451 4.3792 31.6495 4.3792C23.0615 4.37848 14.4714 4.37848 5.8841 4.3792C4.73831 4.3792 4.18164 4.93659 4.18164 6.08382V43.7592C4.18164 44.998 4.71379 45.5259 5.96197 45.5259H31.6344L31.7238 45.5266C31.7541 45.5266 31.7844 45.5273 31.8146 45.5273C31.8644 45.5273 31.9142 45.5266 31.9632 45.5237C32.7686 45.4826 33.3498 44.8985 33.3758 44.1025C33.388 43.7441 33.3844 43.3994 33.3779 42.9862C33.37 42.4281 33.0801 42.0935 32.6006 42.0921C32.5999 42.0921 32.5985 42.0921 32.5977 42.0921C32.1233 42.0921 31.8211 42.4324 31.8096 42.9805C31.8038 43.222 31.8053 43.4629 31.8067 43.7044L31.8082 43.9395H25.9602C26.0684 43.3684 26.0561 42.798 26.0432 42.2442C26.0381 42.0048 26.0324 41.7662 26.0367 41.5268C26.0439 41.1576 26.1686 40.9413 26.4405 40.8223C26.6359 40.7379 26.8248 40.7451 26.9849 40.8432C27.1911 40.9694 27.3216 41.229 27.3418 41.5549C27.4161 42.7245 28.2749 43.6172 29.3853 43.677C29.4329 43.6792 29.4812 43.6806 29.5281 43.6806C30.671 43.6806 31.55 42.9365 31.736 41.7921C31.7721 41.5722 31.7793 41.3508 31.7865 41.1158C31.7894 41.0328 31.7923 40.9478 31.7966 40.8605L35.8894 40.8663C39.2821 40.8713 42.674 40.8764 46.0674 40.8785C46.0681 40.8785 46.0688 40.8785 46.0696 40.8785C47.2687 40.8785 47.9645 40.1899 47.9775 38.9879C47.9826 38.5011 47.9876 37.9978 47.9761 37.5025C47.9725 37.3402 48.0172 37.2631 48.1578 37.1823C48.7505 36.8463 49.0505 36.3026 49.049 35.5685C49.0476 34.5143 49.0476 33.4601 49.0483 32.4059ZM24.4719 42.1801C24.4741 42.5442 24.4763 42.9199 24.4647 43.2891C24.4539 43.6503 24.216 43.9114 23.8807 43.9395H23.7739C23.4257 43.9164 23.1812 43.6561 23.1798 43.3085C23.1718 41.8585 23.1726 40.4091 23.174 38.9461L23.1747 37.4433H30.1778C30.2247 37.6416 30.2175 37.8421 30.2095 38.0519C30.2059 38.1399 30.2023 38.2271 30.203 38.3144C30.211 39.3362 30.2088 40.342 30.2045 41.278C30.2023 41.6558 30.0884 42.1065 29.5534 42.1087C29.5519 42.1087 29.5505 42.1087 29.549 42.1087C29.2786 42.1087 28.9621 42.0178 28.9058 41.3213C28.8063 40.081 27.8725 39.2085 26.6676 39.2085C26.6308 39.2085 26.5941 39.2092 26.558 39.2107C25.3791 39.2612 24.4828 40.2382 24.4719 41.4835C24.4698 41.7164 24.4712 41.9479 24.4719 42.1801ZM18.9161 37.4455H21.5797V39.2604L20.9531 39.2612C20.3236 39.2626 19.6919 39.264 19.0617 39.2568C18.9867 39.2561 18.9132 39.2374 18.9146 39.0167C18.9161 38.6237 18.9161 38.2307 18.9161 37.8212V37.4455ZM31.8074 37.4469H46.4034L46.4041 37.8551C46.4056 38.2776 46.4063 38.6944 46.4005 39.1105C46.3998 39.1754 46.3839 39.2215 46.3522 39.2525C46.3025 39.3001 46.2159 39.308 46.1503 39.308C45.841 39.3037 45.5324 39.303 45.2223 39.3023L31.8074 39.2878V37.4469ZM17.8366 28.7421C17.8359 28.5539 17.8655 28.4357 17.9296 28.3708C17.9945 28.3052 18.1142 28.2749 18.3053 28.2749C18.3075 28.2749 18.3096 28.2749 18.3111 28.2749C22.0405 28.285 25.8312 28.2842 29.4971 28.2835L32.6295 28.2828L46.9464 28.2835C47.4757 28.2835 47.4757 28.2835 47.4757 28.8106C47.4757 29.4264 47.4749 30.0422 47.4742 30.658C47.4728 32.2091 47.4706 33.8134 47.4843 35.3912C47.4865 35.5837 47.4569 35.7034 47.3906 35.769C47.3249 35.8353 47.2103 35.8649 47.0185 35.8649C47.017 35.8649 47.0163 35.8649 47.0149 35.8649C36.6653 35.8577 27.2834 35.8584 18.3334 35.8663C18.1279 35.8663 18.0046 35.8346 17.934 35.7632C17.8647 35.6933 17.833 35.5678 17.8345 35.3681C17.851 33.3253 17.8518 31.1577 17.8366 28.7421Z" fill="#2E2E3E"/>
<path d="M45.1737 32.6956H20.3904C20.0659 32.6956 19.8027 32.4324 19.8027 32.1079C19.8027 31.7835 20.0659 31.5203 20.3904 31.5203H45.1737C45.4982 31.5203 45.7614 31.7835 45.7614 32.1079C45.7614 32.4324 45.4989 32.6956 45.1737 32.6956Z" fill="#EE3E3C"/>
</svg>
