<svg width="50" height="50" viewBox="0 0 50 50" fill="none" xmlns="http://www.w3.org/2000/svg">
<path d="M47.9091 46.6757C48.892 46.6757 49.1405 46.4221 49.1405 45.4292V41.0813C49.1405 40.4935 49.0491 39.9213 48.857 39.3584C48.2591 37.6456 46.2069 36.3891 44.5398 36.7384C43.744 36.9006 42.954 37.0877 42.1633 37.2606C41.1704 37.4784 40.1819 37.6863 39.1433 37.9141V9.63449C39.1433 8.55019 38.9154 8.32733 37.8204 8.32733H16.2901C16.0115 8.32733 15.738 8.31733 15.4594 8.29661C13.4937 8.14947 12.0493 6.0873 12.5865 4.18728C13.0372 2.58583 14.2837 1.66867 16.0373 1.66367H34.5375C34.7196 1.66367 34.8975 1.67367 35.0746 1.64867C35.4954 1.58796 35.7789 1.25867 35.7889 0.847947C35.7939 0.442228 35.5254 0.102938 35.1096 0.0222225C34.9475 -0.00277781 34.7854 0.00222225 34.6232 0.00222225C28.421 0.00222225 22.2188 -0.00277781 16.0215 0.00222225C12.9965 0.00222225 10.8072 2.15582 10.8022 5.18086C10.7872 14.4896 10.7972 23.7975 10.7972 33.1062C10.7972 34.2105 11.0251 35.2648 11.5879 36.2327C12.0794 37.0891 12.7636 37.7627 13.6351 38.3406C13.3615 38.442 13.1636 38.3763 12.9665 38.3406C10.1236 37.7984 7.28643 37.2513 4.44354 36.7191C3.80496 36.5977 3.41496 36.8355 3.31353 37.337C3.2121 37.8541 3.52639 38.2391 4.16496 38.3606C9.68789 39.4149 15.2065 40.4635 20.7295 41.512C21.5959 41.6742 22.4573 41.8463 23.3238 42.0185C23.2124 42.0942 23.1159 42.0999 23.0195 42.0942C17.6837 41.9778 12.3479 41.8613 7.01214 41.7449C5.80641 41.7199 4.60497 41.6892 3.39924 41.6842C2.74066 41.6792 2.34494 42.1456 2.5128 42.7078C2.65995 43.2192 3.06495 43.3363 3.53639 43.3463C5.33998 43.3821 7.14929 43.4171 8.95288 43.4578C14.1115 43.5742 19.2694 43.6856 24.4281 43.8071C24.6002 43.8071 24.7831 43.7664 24.9345 43.8728V45.0078H2.69495C1.4485 45.0078 0.809922 45.6564 0.804922 46.9028C0.799922 47.46 0.829922 48.0278 0.794922 48.59C0.849923 49.3814 1.50422 50 2.30923 50H48.2991C48.7605 50 49.1355 49.63 49.1355 49.1693C49.1355 48.7078 48.7605 48.3328 48.2991 48.3328H36.1332C27.1238 48.3378 18.1094 48.3378 9.09503 48.3378H2.49209V46.6757H47.9091ZM44.5041 38.462C45.9126 38.1577 47.1491 38.9734 47.4227 40.3877C47.4984 40.7935 47.4834 41.1985 47.4634 41.6042C47.3012 41.7306 47.1141 41.6699 46.9412 41.6699C44.9398 41.6749 42.9383 41.6699 40.9369 41.6799C40.344 41.6799 39.984 41.9992 39.974 42.4906C39.964 42.9621 40.344 43.3063 40.9111 43.3421C41.0276 43.3471 41.139 43.3421 41.2554 43.3421H47.4427V44.9735H26.6624C26.6624 44.2742 26.6424 43.5799 26.6724 42.8856C26.6924 42.4499 27.0167 42.2621 27.4174 42.1763C29.9053 41.6342 32.3932 41.082 34.8861 40.5449C38.089 39.8449 41.2962 39.1563 44.5041 38.462ZM12.9001 35.1327C12.5758 34.5091 12.4744 33.8355 12.4744 33.1512C12.4694 25.1297 12.4694 17.1089 12.4694 9.08234C12.4694 8.99591 12.4336 8.88948 12.5608 8.79376C13.1029 9.20948 13.6908 9.56877 14.3644 9.77163C14.9672 9.95878 15.5751 9.99449 16.1937 9.99449H37.4404V37.4991H36.959C30.2703 37.4991 23.5816 37.5041 16.893 37.4991C15.0994 37.4991 13.7358 36.7591 12.9001 35.1327ZM22.9531 40.2456C21.1945 39.8856 19.4316 39.5663 17.673 39.1763H32.971C32.966 39.202 32.966 39.227 32.961 39.252C31.3346 39.612 29.7081 39.9663 28.076 40.3263C27.336 40.4885 26.566 40.5542 25.9374 41.0563C25.846 41.122 25.7652 41.127 25.6738 41.0563C24.8738 40.4327 23.8802 40.4377 22.9531 40.2456Z" fill="#2E2E3E"/>
<path d="M31.245 4.17376C32.9201 4.17376 34.5958 4.17305 36.2708 4.17448C36.433 4.17448 36.598 4.17162 36.7572 4.19733C37.183 4.26591 37.423 4.52877 37.4444 4.9552C37.4658 5.37806 37.2651 5.6745 36.8451 5.78021C36.6587 5.82664 36.4601 5.8395 36.2672 5.8395C32.9001 5.84307 29.5336 5.84307 26.1664 5.8395C25.9735 5.8395 25.775 5.82593 25.5885 5.77878C25.1685 5.67235 24.9685 5.37306 24.9921 4.95163C25.0157 4.52734 25.2571 4.26234 25.6835 4.19733C25.8593 4.17019 26.04 4.17448 26.2185 4.17448C27.8943 4.17305 29.57 4.17376 31.245 4.17376Z" fill="#2E2E3E"/>
<path d="M4.13116 28.8619C4.50331 28.4776 4.81403 28.1461 5.13617 27.8261C5.62475 27.3404 6.12833 27.2833 6.49476 27.6618C6.8662 28.0454 6.80405 28.5197 6.29405 29.0204C5.97119 29.3376 5.6269 29.6319 5.25189 29.9726C5.67832 30.3854 6.03476 30.7154 6.3719 31.0633C6.79834 31.5026 6.82548 32.0033 6.46262 32.3519C6.10904 32.6905 5.63118 32.6633 5.20832 32.254C4.85831 31.9155 4.53045 31.5547 4.09759 31.1047C3.73187 31.5119 3.41044 31.8969 3.06043 32.2526C2.62257 32.6976 2.13614 32.729 1.77542 32.3683C1.41398 32.0076 1.45041 31.524 1.88613 31.0797C2.22757 30.7319 2.58186 30.3969 3.03686 29.9519C2.65543 29.6161 2.279 29.3119 1.93471 28.9747C1.47541 28.524 1.4397 28.0068 1.8097 27.6511C2.16399 27.3104 2.65543 27.3611 3.10043 27.7883C3.27615 27.9568 3.44901 28.1297 3.61758 28.3054C3.77473 28.4683 3.92545 28.6376 4.13116 28.8619Z" fill="#EE3E3C"/>
<path d="M47.4631 10.8367C48.0146 10.8367 48.5153 10.8295 49.0153 10.8388C49.5867 10.8488 49.9682 11.1874 49.9682 11.6674C49.9682 12.1453 49.5846 12.4881 49.0153 12.4988C48.5146 12.5088 48.0139 12.501 47.4624 12.501C47.4624 13.0346 47.471 13.5339 47.4603 14.0324C47.4481 14.626 47.1389 14.9803 46.6481 14.9882C46.1617 14.996 45.8281 14.6396 45.7967 14.0596C45.7824 13.8003 45.7938 13.5396 45.7938 13.2796C45.7938 13.0374 45.7938 12.796 45.7938 12.5003C45.2753 12.5003 44.7767 12.5067 44.2781 12.4988C43.6652 12.4888 43.3038 12.1603 43.3188 11.6417C43.3324 11.1438 43.6824 10.8467 44.281 10.8374C44.766 10.8302 45.251 10.836 45.7967 10.836C45.7967 10.281 45.7774 9.75095 45.8031 9.22237C45.8231 8.80522 45.9988 8.46879 46.4596 8.37593C46.8574 8.29521 47.1539 8.43879 47.361 8.78308C47.4674 8.96022 47.4589 9.15737 47.461 9.35023C47.4667 9.82166 47.4631 10.2917 47.4631 10.8367Z" fill="#EE3E3C"/>
<path d="M3.36403 11.6639C4.07976 11.6639 4.79548 11.6596 5.5112 11.6667C5.70478 11.6689 5.90835 11.6717 6.08907 11.7303C6.44979 11.8474 6.64265 12.1189 6.64122 12.5032C6.63979 12.8875 6.44693 13.1603 6.08407 13.2718C5.88692 13.3325 5.66692 13.3346 5.45692 13.3353C4.0419 13.3403 2.62688 13.3389 1.21186 13.3368C1.04972 13.3368 0.886858 13.326 0.726856 13.3053C0.269707 13.2468 0.0389895 12.9582 0.00256048 12.5225C-0.0317257 12.1103 0.28185 11.7739 0.731141 11.6932C0.778999 11.6846 0.826857 11.6689 0.875429 11.6689C1.70473 11.6674 2.53474 11.6674 3.36403 11.6674C3.36403 11.6667 3.36403 11.6653 3.36403 11.6639Z" fill="#EE3E3C"/>
<path d="M45.8235 29.9932C45.0264 29.9932 44.2292 29.9997 43.4328 29.9911C42.8364 29.9847 42.4907 29.6768 42.4864 29.1739C42.4821 28.6789 42.8357 28.3361 43.4178 28.3318C45.0114 28.3196 46.6057 28.3196 48.1993 28.3325C48.7693 28.3368 49.1457 28.7054 49.1336 29.1846C49.1215 29.6689 48.7514 29.9861 48.1657 29.9918C47.385 29.9997 46.6043 29.9932 45.8235 29.9932Z" fill="#EE3E3C"/>
<path d="M18.3003 5.84149C17.7968 5.84149 17.2932 5.85221 16.7896 5.83864C16.171 5.82221 15.8132 5.49577 15.8224 4.98434C15.8317 4.48362 16.171 4.18219 16.7753 4.17647C17.7989 4.16647 18.8225 4.16576 19.8454 4.17647C20.4318 4.1829 20.7975 4.51005 20.8025 4.99362C20.8075 5.46577 20.4311 5.81721 19.8589 5.83721C19.3403 5.85578 18.8196 5.84149 18.3003 5.84149Z" fill="#EE3E3C"/>
<path d="M4.15122 9.16817C4.15051 9.60531 3.78764 9.97318 3.34835 9.98389C2.87406 9.9946 2.50834 9.63746 2.50977 9.16459C2.51048 8.70245 2.89763 8.32387 3.35264 8.33958C3.78193 8.3553 4.15265 8.73959 4.15122 9.16817Z" fill="#EE3E3C"/>
<path d="M4.15133 15.8196C4.16061 16.251 3.80132 16.6353 3.36632 16.6589C2.91203 16.6839 2.51702 16.311 2.50988 15.8503C2.50274 15.3946 2.8356 15.0388 3.28703 15.0203C3.75418 15.001 4.14133 15.3589 4.15133 15.8196Z" fill="#EE3E3C"/>
<path d="M24.847 19.1616C22.2112 19.1616 19.5755 19.1638 16.9405 19.1609C15.1297 19.1588 14.1454 18.1723 14.1404 16.3559C14.139 15.8359 14.1304 15.3137 14.1704 14.7959C14.269 13.5359 15.2233 12.6058 16.4833 12.5116C16.6454 12.4994 16.8083 12.5008 16.9712 12.5008C22.2912 12.5001 27.6113 12.5001 32.9314 12.5008C33.0935 12.5008 33.2592 12.493 33.4178 12.5194C33.8578 12.593 34.1385 12.9451 34.1192 13.3751C34.1007 13.7844 33.8121 14.098 33.3849 14.1523C33.2242 14.173 33.0599 14.1644 32.8978 14.1644C27.6263 14.1652 22.3555 14.1644 17.084 14.1652C16.0319 14.1652 15.8112 14.3902 15.8112 15.4587C15.8112 15.8002 15.8054 16.1423 15.8126 16.4838C15.8276 17.2016 16.1097 17.4866 16.8226 17.4909C17.864 17.4966 18.9048 17.4923 19.9462 17.4923C24.2741 17.4923 28.6013 17.4923 32.9292 17.4923C33.1407 17.4923 33.3514 17.4838 33.5557 17.5588C33.9592 17.7073 34.1521 17.9945 34.1114 18.4202C34.0728 18.8266 33.8335 19.0702 33.4349 19.1381C33.2599 19.1681 33.0785 19.1602 32.8999 19.1609C30.2156 19.1616 27.5313 19.1616 24.847 19.1616Z" fill="#2E2E3E"/>
<path d="M24.9745 20.8333C23.6016 20.8283 22.4716 21.9733 22.4766 23.3569C22.4866 24.7197 23.6016 25.8248 24.9645 25.8298C26.3481 25.8348 27.4731 24.6947 27.4624 23.3162C27.4524 21.9583 26.3273 20.8383 24.9745 20.8333ZM24.9995 24.1469C24.538 24.1619 24.148 23.7976 24.148 23.3412C24.143 22.9054 24.503 22.5304 24.9388 22.5154C25.3945 22.5004 25.7902 22.8804 25.7952 23.3312C25.8002 23.7619 25.4402 24.1369 24.9995 24.1469Z" fill="#EE3E3C"/>
<path d="M32.5138 27.5119C31.141 27.4869 30.021 28.5605 29.9852 29.9291C29.9495 31.3177 31.0288 32.4577 32.4224 32.5034C33.7703 32.5491 34.956 31.3934 34.971 30.0255C34.9917 28.6769 33.8774 27.5419 32.5138 27.5119ZM32.5088 30.8255C32.0581 30.8505 31.6574 30.4705 31.6524 30.0148C31.6474 29.5641 31.9817 29.2091 32.4324 29.1891C32.8938 29.1691 33.2889 29.5334 33.2989 29.9898C33.3096 30.4098 32.9346 30.8055 32.5088 30.8255Z" fill="#2E2E3E"/>
<path d="M32.4803 20.8333C31.1125 20.8233 29.9774 21.9683 29.9824 23.3519C29.9924 24.7198 31.0925 25.8198 32.4603 25.8298C33.8389 25.8348 34.9889 24.6898 34.9739 23.3212C34.9632 21.9683 33.8332 20.8433 32.4803 20.8333ZM32.5003 24.1519C32.0289 24.1619 31.6539 23.8076 31.6539 23.3362C31.6539 22.8905 31.9982 22.5305 32.4446 22.5155C32.9003 22.5005 33.3011 22.8805 33.3011 23.3312C33.3061 23.7569 32.931 24.1369 32.5003 24.1519Z" fill="#2E2E3E"/>
<path d="M17.4657 27.512C16.1028 27.512 14.9828 28.622 14.9728 29.9799C14.9578 31.3477 16.1128 32.5135 17.4757 32.5085C18.8286 32.5035 19.9486 31.3834 19.9586 30.0256C19.9693 28.6313 18.8593 27.512 17.4657 27.512ZM17.4714 30.8306C17.0357 30.8306 16.63 30.4199 16.6407 29.9791C16.6557 29.5484 17.0307 29.1834 17.4664 29.1834C17.9328 29.1834 18.3028 29.5584 18.2871 30.0199C18.2821 30.4606 17.9071 30.8256 17.4714 30.8306Z" fill="#2E2E3E"/>
<path d="M27.4611 30.1378C27.4154 31.4257 26.2561 32.5214 24.9546 32.5064C23.6575 32.4914 22.5282 31.4157 22.4853 30.1542C22.4667 29.6185 22.7253 29.2606 23.1767 29.1971C23.6675 29.1271 24.0168 29.4006 24.1332 29.9449C24.261 30.5435 24.5489 30.8406 24.9875 30.8299C25.4182 30.8192 25.6946 30.5256 25.8082 29.9599C25.9196 29.4042 26.2525 29.1335 26.7497 29.1949C27.2061 29.2506 27.4797 29.6135 27.4611 30.1378Z" fill="#EE3E3C"/>
<path d="M17.475 25.8275C16.1893 25.8325 15.1121 24.8511 14.9835 23.5568C14.9278 22.9932 15.21 22.5896 15.7035 22.5275C16.185 22.4675 16.52 22.7425 16.6264 23.3061C16.7035 23.7175 16.8593 24.0518 17.3207 24.1304C17.6743 24.1904 17.9571 24.0747 18.1614 23.7732C18.2571 23.6325 18.2686 23.4718 18.3014 23.3125C18.4186 22.7468 18.7471 22.4725 19.2272 22.5253C19.7243 22.5803 19.9807 22.9446 19.9472 23.5468C19.8772 24.7989 18.7671 25.8225 17.475 25.8275Z" fill="#2E2E3E"/>
</svg>
