<svg width="38" height="39" viewBox="0 0 38 39" fill="none" xmlns="http://www.w3.org/2000/svg">
<path d="M35.6521 2.81641C35.4649 2.81644 35.2852 2.8927 35.1518 3.02877C35.0183 3.16484 34.9417 3.34982 34.9385 3.54387L34.6816 19.2552H36.6226L36.3656 3.54387C36.3625 3.3498 36.2859 3.16478 36.1524 3.0287C36.0189 2.89262 35.8392 2.81638 35.6521 2.81641Z" fill="#DDE5F4"/>
<path d="M32.1719 21.882C32.6857 20.9054 33.2651 19.9675 33.9058 19.0752C34.0663 18.8556 34.2702 18.6741 34.5037 18.5426C34.7372 18.4112 34.9951 18.3328 35.2601 18.3128C35.5251 18.2929 35.7912 18.3317 36.0406 18.4267C36.29 18.5218 36.517 18.6709 36.7064 18.864C36.8538 19.0139 36.9958 19.1693 37.1323 19.3298C37.4084 19.6511 37.5741 20.0582 37.6038 20.4874C37.6335 20.9166 37.5254 21.344 37.2964 21.7029L35.2712 24.8569C35.2712 24.8569 33.0989 23.7525 32.1719 21.882Z" fill="#FFD4CA"/>
<path d="M14.5905 37.8849H17.0477C18.215 37.5756 19.4386 37.5756 20.6059 37.8849H23.0631L23.7013 34.688H13.9883L14.5905 37.8849Z" fill="#DAE1F4"/>
<path d="M17.0488 35.2089H20.6069V37.8851H17.0488V35.2089Z" fill="#81A3FF"/>
<path d="M15.1954 16.4652H22.4598C22.4598 16.4652 23.5805 24.1373 23.5443 35.2909C23.5443 35.2909 19.4943 36.2014 14.037 35.2909C14.037 35.2914 13.2129 27.0416 15.1954 16.4652Z" fill="white"/>
<path d="M23.5443 35.2914C23.5452 35.0326 23.5452 34.7764 23.5443 34.5215C21.4804 34.6028 20.0283 34.4105 19.0827 34.1922C18.6846 34.1003 18.3323 33.8614 18.0915 33.5201C17.8507 33.1787 17.7379 32.7582 17.7741 32.337L18.9284 18.8625L17.5379 16.4652H15.1954C13.2129 27.0416 14.037 35.2909 14.037 35.2909C19.4943 36.2019 23.5443 35.2914 23.5443 35.2914Z" fill="#DAE1F4"/>
<path d="M22.4597 16.4652H15.1954C15.0875 17.0411 14.9879 17.6095 14.8965 18.1706C15.0099 18.3864 15.8282 19.896 16.9439 20.7271L18.8065 19.2917L20.566 20.7269C20.566 20.7269 21.708 20.1442 22.7123 18.5321C22.5664 17.1957 22.4597 16.4652 22.4597 16.4652Z" fill="#DDE5F4"/>
<path d="M17.3845 26.7147L17.0469 30.9524L18.826 32.7646L20.6051 30.9524L19.9252 22.4199C18.9056 23.5095 18.0675 24.9585 17.3845 26.7147Z" fill="#99C5FF"/>
<path d="M19.9273 22.4196L19.5093 17.1726H18.1471L17.3867 26.7144L19.9273 22.4196Z" fill="#81A3FF"/>
<path d="M20.8148 15.2615H16.8403L15.1953 16.4652C15.6571 17.4919 16.2686 18.4388 17.0084 19.2725L18.8275 17.5056L20.6467 19.2725C21.3865 18.4388 21.998 17.4919 22.4598 16.4652L20.8148 15.2615Z" fill="white"/>
<path d="M16.8418 14.0857V15.2616L18.829 17.5057L20.8162 15.2616V14.1652L16.8418 14.0857Z" fill="#FFD4CA"/>
<path d="M16.8418 14.0857C18.2097 14.7386 19.9679 14.7501 20.8162 14.1651V12.6428H16.8418V14.0857Z" fill="#FFD4CA"/>
<path d="M15.1957 16.4652C15.1957 16.4652 15.0899 19.4982 14.9633 23.5957C14.5024 25.5279 14.5038 27.666 14.7785 29.9257C14.7037 32.6659 14.6357 35.4518 14.5917 37.885L10.2294 37.8829C10.2294 37.8829 9.45616 31.1884 10.2131 24.9686C10.3364 23.9521 10.4497 22.9485 10.5451 21.9887C10.6191 21.2428 10.8468 20.5221 11.2128 19.8754C11.5788 19.2286 12.0745 18.671 12.6664 18.2403C13.491 17.6405 14.4408 16.9639 15.1957 16.4652Z" fill="#81A3FF"/>
<path d="M14.7787 29.9258C14.8123 28.6824 14.8479 27.4482 14.883 26.2605L10.5757 25.7573L10.1015 25.8674C9.34819 31.8161 8.30078 37.8821 8.30078 37.8821L10.3131 37.8832C10.5016 37.8833 10.6882 37.8449 10.8623 37.7702C11.0364 37.6955 11.1947 37.5859 11.328 37.4478C11.4612 37.3096 11.567 37.1456 11.6391 36.9651C11.7113 36.7846 11.7484 36.5911 11.7484 36.3957V31.5731C12.5601 30.8293 12.5287 29.6974 12.5287 29.6974C13.2904 29.5784 14.2426 29.7818 14.7787 29.9258Z" fill="#DAE1F4"/>
<path d="M32.1719 21.882L29.9296 25.3579L26.0752 19.6545C25.4925 18.7914 24.762 18.0465 23.9201 17.4567C23.438 17.1194 22.9515 16.7888 22.4609 16.4648C22.4609 16.4648 22.9103 29.347 23.0651 37.8846H26.3136C26.3136 37.8846 26.1806 33.2407 25.9148 28.054L29.3532 30.9256C29.5196 31.0646 29.7121 31.1661 29.9183 31.2236C30.1246 31.2812 30.3402 31.2935 30.5513 31.2599C30.7625 31.2263 30.9645 31.1475 31.1447 31.0284C31.3248 30.9094 31.479 30.7527 31.5975 30.5684L35.2714 24.8565L32.1719 21.882Z" fill="#81A3FF"/>
<path d="M0.392578 23.6112C0.392578 23.6112 6.02006 21.2507 8.30113 26.5562L2.0836 25.8367C2.0836 25.8367 1.60697 24.2632 0.392578 23.6112ZM16.2097 23.6112C16.2097 23.6112 10.5822 21.2507 8.30113 26.5562L14.9379 26.0807C14.9379 26.0807 14.9955 24.2632 16.2097 23.6112Z" fill="white"/>
<path d="M8.30169 26.5561C8.30169 26.5561 5.42082 23.8783 0.856655 25.9144C0.751244 25.9617 0.661491 26.04 0.598462 26.1396C0.535434 26.2392 0.501886 26.3557 0.501954 26.4748V28.3758C0.501844 28.432 0.515625 28.4872 0.541979 28.5362C0.568333 28.5853 0.606378 28.6265 0.652478 28.6559C0.698577 28.6854 0.751189 28.702 0.805282 28.7044C0.859376 28.7067 0.913142 28.6946 0.961441 28.6692C2.04594 28.0952 4.92939 26.9222 8.30202 28.422C11.6753 26.9222 14.5583 28.0952 15.6426 28.6692C15.6909 28.6946 15.7447 28.7067 15.7988 28.7044C15.8529 28.702 15.9055 28.6854 15.9516 28.6559C15.9977 28.6265 16.0357 28.5853 16.0621 28.5362C16.0884 28.4872 16.1022 28.432 16.1021 28.3758V26.4748C16.1022 26.3557 16.0686 26.2392 16.0056 26.1396C15.9426 26.04 15.8528 25.9617 15.7474 25.9144C11.1824 23.8783 8.30169 26.5561 8.30169 26.5561Z" fill="#F5A733"/>
<path d="M6.38086 30.2399V35.7831C6.38084 36.0591 6.43327 36.3324 6.53514 36.5875C6.63701 36.8425 6.78632 37.0742 6.97456 37.2694C7.1628 37.4646 7.38628 37.6194 7.63222 37.725C7.87817 37.8306 8.14177 37.8849 8.40798 37.8849C8.94554 37.8849 9.46109 37.6635 9.84121 37.2693C10.2213 36.8752 10.4349 36.3406 10.4349 35.7832V29.5276L6.38086 30.2399Z" fill="#DAE1F4"/>
<path d="M6.94477 27.6433H9.65529C10.1006 27.6433 10.5277 27.8267 10.8425 28.1532C11.1574 28.4798 11.3343 28.9226 11.3343 29.3843C11.3343 29.9648 11.1119 30.5216 10.7161 30.932C10.3202 31.3425 9.78332 31.5731 9.22349 31.5731H7.37646C6.81663 31.5731 6.27973 31.3425 5.88387 30.932C5.48802 30.5216 5.26563 29.9648 5.26562 29.3843C5.26562 28.9226 5.44252 28.4798 5.7574 28.1532C6.07228 27.8267 6.49935 27.6433 6.94466 27.6433H6.94477Z" fill="#FFD4CA"/>
<path d="M14.1069 7.86023H15.2539V11.0358H14.1069C13.7667 11.0358 13.4404 10.8957 13.1999 10.6463C12.9594 10.3969 12.8242 10.0586 12.8242 9.70584V9.19023C12.8242 8.83749 12.9594 8.4992 13.1999 8.24978C13.4404 8.00035 13.7667 7.86023 14.1069 7.86023Z" fill="#FFD4CA"/>
<path d="M23.1549 11.0359H22.0078V7.86028H23.1549C23.495 7.86028 23.8213 8.0004 24.0618 8.24983C24.3024 8.49925 24.4375 8.83754 24.4375 9.19028V9.70589C24.4375 10.0586 24.3024 10.3969 24.0618 10.6463C23.8213 10.8958 23.495 11.0359 23.1549 11.0359Z" fill="#FFD4CA"/>
<path d="M15.6812 2.49448C15.2204 2.42619 14.7503 2.4865 14.3194 2.66921C13.8886 2.85191 13.5124 3.15041 13.2298 3.53396C12.2713 4.78052 11.8047 7.0471 15.1449 8.51562L22.5182 7.94591C22.9348 8.01099 23.3562 8.03821 23.7775 8.02726C24.4507 8.01006 25.0906 7.23704 25.0879 6.53863C25.0746 6.10895 24.9689 5.68779 24.7785 5.3059C24.5532 4.81881 24.397 4.3005 24.3147 3.76707C24.1398 2.63683 23.3558 0.698486 20.0358 0.698486C16.6256 0.698486 15.6812 2.49448 15.6812 2.49448Z" fill="#5E5E78"/>
<path d="M15.5317 11.7123C15.9542 12.3376 16.6748 12.9979 17.903 13.375C18.3942 13.5308 18.9124 13.5719 19.4207 13.4956C19.929 13.4192 20.4147 13.2273 20.8431 12.9334C21.5586 12.4259 22.1107 11.7073 22.428 10.8707C22.5943 10.4442 22.6786 9.98805 22.6763 9.52796V8.10197C22.6761 7.95735 22.6374 7.81558 22.5645 7.69232C22.4915 7.56906 22.3872 7.46909 22.2629 7.40345C21.7061 7.10758 20.6929 6.39999 19.8919 4.89614C19.7349 4.59221 19.4902 4.34679 19.1921 4.19425C19.1599 4.17829 19.1263 4.16241 19.0912 4.1466C17.1269 3.26342 14.9377 4.80585 14.9377 7.02589V9.6903C14.9311 10.4115 15.1385 11.1174 15.5317 11.7123Z" fill="#FFD4CA"/>
<path opacity="0.2" d="M17.6579 8.74303C17.5538 8.74303 17.4541 8.70018 17.3805 8.6239C17.307 8.54763 17.2656 8.44417 17.2656 8.3363V7.95897C17.2656 7.8511 17.307 7.74765 17.3805 7.67137C17.4541 7.5951 17.5538 7.55225 17.6579 7.55225C17.7619 7.55225 17.8617 7.5951 17.9352 7.67137C18.0088 7.74765 18.0501 7.8511 18.0501 7.95897V8.3363C18.0501 8.44417 18.0088 8.54763 17.9352 8.6239C17.8617 8.70018 17.7619 8.74303 17.6579 8.74303ZM20.2119 8.74303C20.1079 8.74303 20.0081 8.70018 19.9346 8.6239C19.861 8.54763 19.8197 8.44417 19.8197 8.3363V7.95897C19.8197 7.8511 19.861 7.74765 19.9346 7.67137C20.0081 7.5951 20.1079 7.55225 20.2119 7.55225C20.316 7.55225 20.4157 7.5951 20.4893 7.67137C20.5629 7.74765 20.6042 7.8511 20.6042 7.95897V8.3363C20.6042 8.44417 20.5629 8.54763 20.4893 8.6239C20.4157 8.70018 20.316 8.74303 20.2119 8.74303ZM18.9296 11.344C17.9865 11.344 17.5336 10.9051 17.3831 10.7165C17.3167 10.6334 17.2848 10.5265 17.2944 10.419C17.3041 10.3116 17.3545 10.2126 17.4346 10.1437C17.5146 10.0749 17.6178 10.0418 17.7214 10.0518C17.825 10.0618 17.9205 10.1141 17.9869 10.1971C18.0317 10.2528 18.2862 10.5305 18.9301 10.5305C19.5739 10.5305 19.8288 10.2528 19.8733 10.1971C19.9062 10.156 19.9465 10.122 19.9921 10.0971C20.0377 10.0722 20.0875 10.0568 20.1388 10.0518C20.1901 10.0469 20.2418 10.0525 20.2911 10.0682C20.3403 10.084 20.386 10.1097 20.4257 10.1438C20.4653 10.1779 20.4981 10.2198 20.5221 10.267C20.5462 10.3143 20.561 10.366 20.5658 10.4191C20.5706 10.4723 20.5652 10.526 20.55 10.577C20.5348 10.628 20.51 10.6755 20.4771 10.7166C20.3257 10.9052 19.8728 11.344 18.9296 11.344Z" fill="#1A1715"/>
<path d="M37.0042 18.5987L36.7577 3.53697C36.7526 3.23635 36.6339 2.9498 36.4271 2.73906C36.2203 2.52831 35.9419 2.41022 35.6519 2.41022C35.362 2.41022 35.0836 2.52831 34.8768 2.73906C34.67 2.9498 34.5512 3.23635 34.5462 3.53697L34.3066 18.1897C34.0298 18.347 33.788 18.5629 33.597 18.8234L33.5958 18.8245L33.5952 18.8256L33.5918 18.8301C32.9422 19.7336 32.3548 20.6835 31.8342 21.6727L29.9217 24.6385L26.396 19.4214C25.7863 18.5172 25.0212 17.737 24.1391 17.1199C23.6685 16.7906 21.208 15.0507 21.208 15.0507V13.1606C21.7974 12.71 22.2759 12.1214 22.6042 11.4426H23.1544C23.5984 11.4421 24.0242 11.2589 24.3382 10.9333C24.6521 10.6078 24.8288 10.1663 24.8293 9.70587V9.19026C24.8294 8.79224 24.6971 8.40638 24.4545 8.0979C24.758 7.97652 25.0186 7.76226 25.2018 7.4836C25.3851 7.20494 25.4822 6.87507 25.4803 6.53781C25.4662 6.04781 25.3473 5.56718 25.1322 5.13065C24.9233 4.67887 24.7784 4.19814 24.7022 3.70338C24.5434 2.67738 23.7711 0.291748 20.036 0.291748C17.1472 0.291748 15.8972 1.53076 15.4933 2.06345C15.0016 2.03303 14.5103 2.12803 14.0622 2.34014C13.6142 2.55225 13.2231 2.87501 12.9232 3.28015C12.4317 3.94516 12.1711 4.76281 12.1838 5.60058C12.1965 6.43834 12.4816 7.24711 12.993 7.89581C12.8164 8.0581 12.6749 8.25738 12.578 8.48051C12.4811 8.70364 12.4309 8.94554 12.4308 9.19026V9.70587C12.4313 10.1663 12.6079 10.6078 12.9219 10.9333C13.2359 11.2589 13.6616 11.4421 14.1056 11.4426H14.9255C15.0077 11.6178 15.1031 11.786 15.2109 11.9455C15.5404 12.4303 15.9616 12.8404 16.4489 13.1509V15.0507C16.4489 15.0507 13.4791 17.1525 12.4416 17.9072C11.8036 18.3713 11.2692 18.9723 10.8748 19.6693C10.4803 20.3663 10.235 21.1431 10.1554 21.947C10.0956 22.5442 10.0316 23.141 9.96342 23.7373C9.28018 24.245 8.71269 24.9019 8.30097 25.6618C7.00578 23.3409 5.01519 22.7528 3.50763 22.6877C2.39634 22.6491 1.2884 22.8346 0.245274 23.2339C0.175734 23.263 0.115709 23.3122 0.0723146 23.3757C0.0289201 23.4391 0.00397529 23.5141 0.000436844 23.5918C-0.0031016 23.6695 0.0149147 23.7466 0.0523502 23.814C0.0897858 23.8814 0.145071 23.9362 0.211653 23.972C0.776597 24.2754 1.16492 24.8242 1.40094 25.2584C1.03732 25.3901 0.680728 25.5417 0.332688 25.7127C0.265594 25.7457 0.208912 25.7978 0.169234 25.8629C0.129556 25.9279 0.108512 26.0034 0.108548 26.0804V28.9391C0.110648 29.0122 0.130839 29.0836 0.167184 29.1463C0.203529 29.209 0.254809 29.261 0.316102 29.2973C0.380284 29.326 0.44997 29.3391 0.519798 29.3355C0.589626 29.332 0.657734 29.3118 0.718881 29.2767C2.09981 28.436 3.68639 28.0289 5.28607 28.105C5.01906 28.4741 4.87467 28.923 4.87455 29.3844C4.87468 29.8115 4.97646 30.2319 5.17084 30.6084C5.36522 30.9849 5.6462 31.3058 5.98886 31.5427V35.7833C5.9896 36.4484 6.24474 37.086 6.69831 37.5563C7.15187 38.0265 7.76682 38.291 8.40822 38.2917L26.3196 38.2177C26.3714 38.2166 26.4224 38.2048 26.4698 38.183C26.5171 38.1613 26.5599 38.13 26.5955 38.0911C26.6312 38.0521 26.6591 38.0062 26.6775 37.956C26.696 37.9058 26.7047 37.8524 26.7031 37.7987C26.6896 37.3413 26.5714 33.4293 26.3516 28.9418L29.1069 31.2427C29.3157 31.417 29.5572 31.5444 29.8161 31.6166C30.075 31.6889 30.3455 31.7044 30.6105 31.6622C30.8755 31.62 31.1291 31.5211 31.3551 31.3717C31.5812 31.2222 31.7748 31.0256 31.9235 30.7944L35.5977 25.0825L37.623 21.9285C37.8993 21.4947 38.0298 20.9785 37.9943 20.4599C37.9587 19.9414 37.7591 19.4495 37.4264 19.0606C37.2906 18.9019 37.1498 18.7478 37.0042 18.5987ZM21.9634 16.5993C21.5948 17.3473 21.1447 18.0492 20.6222 18.6911L19.38 17.4846L20.8717 15.8L21.9634 16.5993ZM18.8284 18.0635L19.2169 18.4409L20.2015 30.7962L18.8284 32.1943L17.4553 30.7956L18.4398 18.4403L18.8284 18.0635ZM17.2334 15.1037V13.5627C17.4119 13.6379 18.2095 13.9394 18.9382 13.9394C19.4484 13.9396 19.9534 13.8336 20.4235 13.6279V15.1037L18.8284 16.905L17.2334 15.1037ZM24.0448 9.70645C24.0445 9.95123 23.9506 10.1859 23.7837 10.359C23.6168 10.5321 23.3905 10.6294 23.1544 10.6297H22.9226C23.0204 10.2714 23.0694 9.90077 23.0683 9.52842V8.26698H23.1536C23.3897 8.26726 23.616 8.36462 23.7829 8.53771C23.9498 8.7108 24.0437 8.94547 24.044 9.19026L24.0448 9.70645ZM14.1056 10.6297C13.8696 10.6294 13.6432 10.5321 13.4763 10.359C13.3094 10.1859 13.2155 9.95123 13.2152 9.70645V9.19026C13.2155 8.94547 13.3094 8.7108 13.4763 8.53771C13.6432 8.36462 13.8696 8.26726 14.1056 8.26698H14.5456V9.69018C14.5454 10.0062 14.58 10.3213 14.649 10.6291L14.1056 10.6297ZM14.5456 7.02635V7.45411H14.1056C13.9699 7.45468 13.8348 7.47244 13.7033 7.50698C13.2546 7.00841 12.9915 6.36064 12.9609 5.67941C12.9304 4.99819 13.1345 4.3279 13.5367 3.78833C13.7736 3.46271 14.0897 3.20825 14.4527 3.05102C14.8157 2.89378 15.2124 2.83943 15.6023 2.89353C15.6846 2.91108 15.7702 2.90076 15.8464 2.86408C15.9227 2.82741 15.9855 2.76632 16.0257 2.68982C16.034 2.67401 16.8949 1.1059 20.036 1.1059C22.9038 1.1059 23.735 2.58871 23.9276 3.8326C24.0158 4.40464 24.1834 4.96045 24.425 5.48276C24.5892 5.8106 24.6817 6.17194 24.6958 6.54106C24.6946 6.77038 24.6062 6.98994 24.4496 7.15192C24.2931 7.3139 24.0811 7.40518 23.86 7.40588C23.5123 7.41735 23.166 7.35404 22.8431 7.21995C22.8372 7.21716 22.8311 7.216 22.8252 7.21356C22.814 7.2082 22.8026 7.20343 22.7909 7.19927C22.7762 7.1945 21.3021 6.70201 20.2358 4.69998C20.0107 4.28939 19.6643 3.96473 19.2476 3.77392C18.7408 3.54135 18.1854 3.44592 17.6334 3.49656C17.0813 3.54721 16.5507 3.74228 16.0912 4.06351C15.6163 4.38499 15.2262 4.82426 14.9563 5.34151C14.6864 5.85877 14.5453 6.43766 14.5456 7.02577V7.02635ZM15.8535 11.4794C15.5054 10.9534 15.3227 10.3287 15.3302 9.69076V7.02577C15.3299 6.57246 15.4387 6.12623 15.6467 5.72753C15.8547 5.32883 16.1554 4.99026 16.5215 4.74251C16.937 4.45518 17.4249 4.30085 17.9243 4.29871C18.2739 4.28373 18.6215 4.35963 18.9355 4.51951C19.1865 4.64916 19.3986 4.84726 19.5492 5.09253C20.4991 6.87609 21.7367 7.61192 22.2848 7.8649V9.52784C22.2875 9.93504 22.213 10.3388 22.0657 10.7163C21.7774 11.4786 21.2752 12.1337 20.624 12.5968C20.244 12.8579 19.8129 13.0282 19.3617 13.0954C18.9105 13.1625 18.4505 13.1248 18.0151 12.985C17.0571 12.6911 16.3299 12.184 15.8535 11.4789V11.4794ZM16.7855 15.8006L18.2769 17.4847L17.0344 18.691C16.5115 18.0493 16.0615 17.3474 15.6932 16.5992L16.7855 15.8006ZM10.9354 22.031C11.0035 21.343 11.2134 20.6783 11.5509 20.0818C11.8885 19.4853 12.3457 18.971 12.8917 18.5738C13.6143 18.0483 14.2454 17.6 14.7769 17.2342C14.7413 18.2827 14.6738 20.3009 14.5965 22.7732C14.0993 22.6967 13.5963 22.6683 13.094 22.6883C12.3055 22.7155 11.5295 22.901 10.8091 23.2345C10.855 22.8184 10.8975 22.4147 10.9358 22.0304L10.9354 22.031ZM15.3467 23.7517C14.9761 24.1168 14.6681 24.5446 14.436 25.017C12.2554 24.4333 10.5432 24.8617 9.44028 25.3686C11.2449 23.0049 14.0372 23.3964 15.3467 23.7517ZM1.26085 23.7561C1.98354 23.5617 2.72935 23.4756 3.47558 23.5005C5.04086 23.5681 6.27834 24.1963 7.17041 25.3721C6.06731 24.8637 4.35264 24.4321 2.16727 25.017C1.93574 24.5466 1.62908 24.1203 1.26029 23.7561H1.26085ZM5.6596 29.3844C5.65995 29.0307 5.79562 28.6915 6.03684 28.4414C6.27806 28.1912 6.60512 28.0505 6.94627 28.0501H9.65624C9.99737 28.0506 10.3244 28.1914 10.5656 28.4415C10.8068 28.6916 10.9426 29.0307 10.9431 29.3844C10.9426 29.8569 10.7614 30.3098 10.4392 30.6439C10.117 30.978 9.68019 31.1659 9.22454 31.1665H7.37752C6.92189 31.1659 6.48508 30.978 6.16292 30.6439C5.84075 30.3098 5.65954 29.8569 5.65904 29.3844H5.6596ZM10.0434 35.7833C10.0434 36.2328 9.87122 36.664 9.56466 36.9818C9.2581 37.2997 8.84232 37.4783 8.40878 37.4783C7.97525 37.4783 7.55947 37.2997 7.25291 36.9818C6.94635 36.664 6.77413 36.2328 6.77413 35.7833V31.9031C6.97169 31.9541 7.1745 31.9799 7.37808 31.9799H9.22454C9.50304 31.9799 9.77958 31.9315 10.0427 31.8367L10.0434 35.7833ZM14.2073 37.4783H10.1863C10.5982 37.0171 10.8271 36.4118 10.8274 35.7833V31.3761C11.1091 31.1329 11.3358 30.8284 11.4914 30.4842C11.647 30.14 11.7276 29.7645 11.7276 29.3844C11.7274 28.9235 11.5831 28.475 11.3166 28.1061C12.3719 28.0606 13.4261 28.2216 14.4239 28.5808C14.3261 32.0514 14.2533 35.042 14.2073 37.4783ZM8.74376 26.715C9.43109 26.2065 12.0062 24.6339 15.7089 26.3414V28.2472C14.0693 27.4149 12.2266 27.112 10.4192 27.3776C10.4128 27.3785 10.407 27.3811 10.4007 27.3824C10.1634 27.2864 9.91089 27.2369 9.65612 27.2365H6.94571C6.69211 27.2369 6.44076 27.286 6.20437 27.3812C4.39026 27.1097 2.53936 27.4115 0.89315 28.2472V26.3414C4.58025 24.6393 7.17052 26.2119 7.85919 26.717C7.98825 26.8111 8.1423 26.8614 8.30008 26.8608C8.45901 26.8613 8.61413 26.8103 8.74376 26.715ZM16.657 37.4783H14.992C15.0017 36.9592 15.0127 36.4156 15.0249 35.8474C15.5875 35.9207 16.1316 35.9765 16.657 36.0149V37.4783ZM20.2152 37.4783H17.4415V36.0646C17.9594 36.09 18.4535 36.1008 18.9198 36.1008C19.3802 36.1008 19.8128 36.0901 20.2152 36.0724V37.4783ZM15.043 35.0308C15.0841 33.2095 15.1365 31.1601 15.1999 28.9017C15.4356 29.0108 15.664 29.1363 15.8835 29.2771C15.9426 29.3181 16.0112 29.3416 16.0822 29.3452C16.1531 29.3489 16.2237 29.3325 16.2863 29.2977C16.349 29.263 16.4014 29.2113 16.4379 29.1482C16.4744 29.085 16.4937 29.0128 16.4937 28.9391V26.0804C16.4938 26.0034 16.4727 25.9279 16.433 25.8629C16.3934 25.7978 16.3367 25.7457 16.2696 25.7127C15.9215 25.5417 15.5649 25.39 15.2012 25.2583C15.4385 24.8217 15.8264 24.275 16.3905 23.972C16.4571 23.9362 16.5124 23.8814 16.5498 23.814C16.5873 23.7466 16.6053 23.6695 16.6017 23.5918C16.5982 23.5141 16.5733 23.4391 16.5299 23.3757C16.4865 23.3122 16.4264 23.263 16.3569 23.2339C16.0377 23.1077 15.7104 23.005 15.3773 22.9264C15.4416 20.8653 15.4994 19.1109 15.5382 17.955C15.8864 18.5257 16.2849 19.0618 16.7285 19.5562C16.8002 19.6325 16.8978 19.6766 17.0005 19.6791C17.1032 19.6815 17.2027 19.6421 17.2777 19.5693L17.587 19.2689L16.6579 30.9187C16.6532 30.9782 16.6611 31.038 16.6812 31.0939C16.7013 31.1499 16.733 31.2005 16.774 31.2423L18.5531 33.0546C18.6265 33.1293 18.7252 33.1712 18.828 33.1712C18.9308 33.1712 19.0295 33.1293 19.1028 33.0546L20.8818 31.2423C20.9229 31.2005 20.9546 31.1499 20.9747 31.0939C20.9947 31.038 21.0027 30.9782 20.9979 30.9187L20.0701 19.2685C20.0701 19.2685 20.4235 19.6656 20.6475 19.6788C20.7001 19.6803 20.7523 19.67 20.8008 19.6489C20.8493 19.6277 20.8928 19.596 20.9286 19.556C21.3721 19.0615 21.7705 18.5255 22.1187 17.9549C22.2241 21.0976 22.4703 28.6831 22.6139 35.0396C20.1004 35.3753 17.5557 35.3723 15.043 35.0308ZM20.9997 37.4783V36.0272C21.6681 35.9793 22.2204 35.9156 22.6319 35.8584C22.6439 36.4113 22.6543 36.9526 22.6649 37.4783H20.9997ZM35.3309 3.5508C35.3325 3.4635 35.367 3.38033 35.4271 3.31917C35.4872 3.258 35.5681 3.22374 35.6523 3.22374C35.7365 3.22374 35.8173 3.258 35.8774 3.31917C35.9375 3.38033 35.972 3.4635 35.9736 3.5508L36.2109 18.0599C35.8537 17.9289 35.4728 17.8817 35.0959 17.9219L35.3309 3.5508ZM31.2708 30.3431C31.1825 30.4804 31.0677 30.5971 30.9335 30.6858C30.7993 30.7745 30.6488 30.8332 30.4915 30.8583C30.3342 30.8833 30.1736 30.8741 30.0199 30.8312C29.8663 30.7883 29.7229 30.7127 29.599 30.6092L26.2974 27.852L26.0721 23.1572C26.067 23.0494 26.0207 22.9482 25.9436 22.8758C25.8665 22.8034 25.7648 22.7657 25.6609 22.7711C25.557 22.7764 25.4594 22.8244 25.3895 22.9043C25.3197 22.9843 25.2834 23.0897 25.2885 23.1975L25.5226 28.0746V28.0759C25.7372 32.2625 25.8659 36.1237 25.9063 37.4134L23.4492 37.4695C23.3126 30.2471 22.9763 20.0936 22.8791 17.2291C23.1542 17.4152 23.4278 17.6036 23.7001 17.7942C24.5027 18.3557 25.1987 19.0656 25.7535 19.8884L29.6079 25.5917C29.645 25.6454 29.6939 25.689 29.7505 25.7192C29.8071 25.7493 29.8699 25.7651 29.9335 25.7651C29.9973 25.7644 30.0599 25.7475 30.1159 25.716C30.172 25.6846 30.2198 25.6394 30.2553 25.5844L32.1543 22.64C32.9369 23.8212 34.1036 24.6324 34.7075 25L31.2708 30.3431ZM36.9698 21.4775L35.1441 24.3206C34.5684 23.972 33.3053 23.1091 32.6187 21.8823C33.0337 21.1143 33.4888 20.3703 33.9818 19.6536L34.9372 20.4284C35.0033 20.4792 35.0478 20.5548 35.061 20.6391C35.0743 20.7234 35.0554 20.8097 35.0083 20.8797C34.9904 20.9152 34.9658 20.9467 34.936 20.9722C34.9061 20.9977 34.8717 21.0167 34.8347 21.0281C34.7976 21.0396 34.7588 21.0432 34.7204 21.0388C34.682 21.0344 34.6448 21.022 34.6111 21.0024C34.5874 20.9904 34.5634 20.9775 34.539 20.9637C34.4478 20.912 34.3404 20.8999 34.2405 20.9302C34.1407 20.9605 34.0566 21.0307 34.0066 21.1253C33.9567 21.22 33.9451 21.3313 33.9743 21.4348C34.0035 21.5384 34.0712 21.6256 34.1625 21.6774C34.1982 21.6977 34.2335 21.7165 34.2678 21.7339C34.4211 21.8127 34.5898 21.8542 34.7609 21.8551C34.9454 21.8535 35.1263 21.8025 35.2862 21.7072C35.4461 21.6119 35.5796 21.4754 35.6737 21.3109C35.8236 21.0704 35.8809 20.7803 35.834 20.4981C35.7872 20.2159 35.6397 19.9624 35.4209 19.7877L34.4931 19.0353C34.7752 18.8083 35.1271 18.6952 35.4836 18.717C35.84 18.7388 36.1767 18.8941 36.4311 19.1539C36.5718 19.2975 36.7077 19.446 36.8387 19.5991C37.0569 19.8536 37.1881 20.1756 37.2118 20.5152C37.2355 20.8549 37.1505 21.1931 36.9698 21.4775Z" fill="#1A1715"/>
</svg>
