<svg width="44" height="43" viewBox="0 0 44 43" fill="none" xmlns="http://www.w3.org/2000/svg">
<path d="M43.4718 37.7664C43.3863 37.658 43.3036 37.5466 43.2213 37.4355C43.0364 37.1856 42.8453 36.9272 42.6177 36.7012C40.912 34.9916 39.1957 33.292 37.4798 31.5928L36.2401 30.3641C36.1776 30.3024 36.1166 30.2373 36.0514 30.1671C37.227 29.4679 38.3584 28.7949 39.4913 28.1254C39.6047 28.056 39.7185 27.9904 39.8493 27.9152C40.4401 27.5743 40.7116 27.0768 40.635 26.4771C40.5624 25.8717 40.1938 25.4625 39.5406 25.2612C38.3956 24.9002 37.2519 24.5369 36.1081 24.1736C34.4039 23.6322 32.7004 23.0903 30.9916 22.5574C30.7146 22.4721 30.6478 22.3819 30.651 22.0946C30.6603 18.9974 30.6595 15.8998 30.6591 12.8026L30.6587 10.5365L30.6599 10.2164C30.6618 9.85817 30.6642 9.48795 30.6428 9.1208C30.5838 8.03365 30.0699 7.21452 29.1576 6.75135C28.6659 6.50337 28.1067 6.41467 27.4791 6.33214C27.1148 6.28548 26.7442 6.29743 26.3854 6.309C26.303 6.3117 26.2203 6.3144 26.1376 6.31633L26.5229 5.53076C26.9924 4.57472 27.4363 3.67229 27.8682 2.74518C27.9571 2.55467 28.1024 2.17865 28.0717 1.80071C28.0294 1.29821 27.7696 0.869361 27.3587 0.624471C26.9062 0.354128 26.3329 0.332531 25.7869 0.565466C22.5905 1.93261 19.8963 3.5134 17.5513 5.39848C16.7023 6.07915 15.851 6.35798 14.7017 6.34217C11.9194 6.29319 9.09003 6.30322 6.3535 6.3117C5.42916 6.31479 4.50443 6.31826 3.5793 6.31903C2.21764 6.32289 1.21951 6.93106 0.693252 8.07723C0.628781 8.2176 0.571689 8.36724 0.523918 8.52073L0.51382 8.56045C0.44197 8.84005 0.404297 9.19215 0.404297 9.57935V24.6881C0.419055 25.0201 0.466438 25.5041 0.610138 25.9237L0.623732 25.9604C0.678493 26.0996 0.747237 26.2392 0.81598 26.3479C0.823747 26.3711 0.835399 26.3919 0.850934 26.4124L0.852876 26.4158C1.3869 27.2816 2.31008 27.8038 3.32103 27.8115C4.82057 27.8289 6.3438 27.8269 7.81731 27.8246L9.66328 27.8231V29.6661H8.62009C6.64207 29.6704 5.41052 30.8933 5.40663 32.8574L5.40586 33.012C5.4043 33.1709 5.40314 33.3287 5.41479 33.4891C5.46722 34.1694 5.97406 34.7305 6.6479 34.8539C6.89063 34.899 7.14153 34.9029 7.37727 34.9029C12.796 34.9071 18.2139 34.9071 23.631 34.9029C23.8795 34.9029 24.1266 34.8794 24.3883 34.8551C24.4765 34.847 24.5666 34.8385 24.659 34.8308L24.7456 35.0884C24.8221 35.3152 24.9025 35.5535 24.9798 35.7941L25.1581 36.3433C25.414 37.1316 25.67 37.9199 25.9154 38.7081C26.1244 39.3765 26.5182 39.7417 27.1186 39.8227C27.7633 39.911 28.2597 39.6468 28.6349 39.0167C29.1413 38.1644 29.6559 37.3163 30.1698 36.4694L30.7547 35.5041C30.7927 35.4417 30.8327 35.3807 30.8851 35.3001L30.9236 35.2411C30.9819 35.3352 31.0393 35.4239 31.1131 35.4976C33.3075 37.6808 35.5022 39.8559 37.7001 42.0306C38.1432 42.4702 38.5716 42.69 39.0011 42.69C39.4338 42.69 39.8676 42.4663 40.3177 42.0198L40.8149 41.5319C41.4518 40.9079 42.1105 40.2623 42.7362 39.6106C42.944 39.3954 43.1106 39.1451 43.2718 38.9025C43.3393 38.8015 43.4061 38.7008 43.4757 38.6029L43.5025 38.5651V37.8061L43.4718 37.7664ZM13.5312 16.8215C13.0325 15.9368 12.3854 15.2967 11.512 14.8254L11.5201 14.8123C12.0188 13.9824 12.4996 13.1821 12.989 12.3707C14.4372 12.9635 15.4 13.9156 16.0044 15.3545C15.1825 15.8427 14.3689 16.3264 13.5312 16.8215ZM11.7656 20.3028C11.4992 20.6326 11.1496 20.9519 10.7263 21.2515C9.57745 22.068 7.22852 22.6646 5.70724 22.5385C5.77559 20.8593 5.9993 19.1042 7.0557 17.5666C7.26037 17.2681 7.53263 16.9669 7.86314 16.6719C8.91409 15.7448 10.3127 15.8142 11.4265 16.8505C12.4825 17.8289 12.6223 19.2485 11.7656 20.3028ZM28.9386 21.8547C28.9386 21.8678 28.9378 21.8809 28.9359 21.8956C27.8111 21.5365 26.7291 21.1948 25.6447 20.8528C25.2731 20.7351 24.9018 20.6187 24.5305 20.5026C23.8811 20.2994 23.2325 20.0961 22.5855 19.8852C21.8945 19.6596 21.3127 19.7753 20.8572 20.228C20.3865 20.6873 20.2672 21.2647 20.503 21.9442C20.5562 22.0977 20.6047 22.2531 20.6575 22.4208L20.6983 22.5504H11.8755C11.9132 22.5176 11.9508 22.4852 11.9889 22.4525C12.2891 22.1929 12.6002 21.9249 12.881 21.6353C13.6749 20.8235 14.0652 19.8154 14.0407 18.6418C14.0407 18.5527 14.1141 18.4131 14.1631 18.3892C18.3187 16.2905 21.813 13.0066 24.8454 8.34988C25.0194 8.08031 25.1725 8.00087 25.4824 8.01128C25.8719 8.0267 26.2681 8.02323 26.651 8.02092C26.959 8.01861 27.2666 8.01629 27.5742 8.02323H27.5746C28.4263 8.04097 28.9351 8.5377 28.9351 9.35181C28.9413 12.4544 28.9405 15.557 28.9394 18.658L28.9386 21.8547ZM17.4095 14.2701C16.6689 12.7772 15.5896 11.7012 14.1176 10.9889C15.5826 8.53924 22.7 3.41197 26.2355 2.23843C23.9044 7.30977 21.0137 11.25 17.4095 14.2701ZM14.3778 8.12042C12.488 10.0171 11.0374 11.9924 9.94369 14.1563C9.9033 14.2338 9.75144 14.3256 9.7262 14.3213C8.13656 14.2477 6.87393 14.9276 5.73753 16.4548C4.84076 17.6661 4.31995 19.1355 4.09857 21.0791C4.01623 21.8103 4.00031 22.5585 3.98516 23.2816C3.97662 23.6268 4.05041 23.8751 4.21198 24.0417C4.3751 24.2099 4.62715 24.2932 4.98369 24.2978C5.74763 24.3059 6.51196 24.3048 7.2763 24.3028L8.20103 24.3017L10.8389 24.3021C14.1957 24.3021 17.5513 24.3032 20.9084 24.294C21.223 24.294 21.3155 24.3572 21.3811 24.6171C21.4794 24.9993 21.604 25.3749 21.7357 25.7722C21.7737 25.8863 21.8122 26.0032 21.851 26.122H3.73504C2.55864 26.122 2.12133 25.6835 2.12133 24.5041V9.59477C2.12133 8.47599 2.58117 8.01938 3.70786 8.01938H14.4714C14.4396 8.05601 14.4093 8.0888 14.3778 8.12042ZM36.8592 27.7004L35.2684 28.6461C34.9721 28.8208 34.6761 28.9958 34.3798 29.1744C34.0314 29.3861 33.838 29.6306 33.8058 29.9014C33.7739 30.1721 33.9044 30.454 34.1934 30.739C36.625 33.1532 39.0563 35.5674 41.4926 37.9789C41.5621 38.0456 41.6398 38.0973 41.7124 38.1428L38.953 40.8828L31.7275 33.7112C31.3027 33.2897 30.9881 33.0406 30.6758 33.0406C30.6521 33.0406 30.6288 33.0417 30.6051 33.0448C30.2711 33.0853 30.0148 33.4081 29.6854 33.9523C28.9596 35.1594 28.2294 36.3665 27.4992 37.5736C27.4697 37.6221 27.439 37.6696 27.4037 37.7216L27.3726 37.6248C25.6405 32.2511 23.9293 26.9419 22.1905 21.5427C27.6538 23.2778 33.0442 24.9889 38.5083 26.7201C37.9412 27.056 37.3956 27.3807 36.8592 27.7004ZM21.4122 29.6549V27.8227L21.5438 27.8219C21.8048 27.8204 22.0565 27.8192 22.3035 27.83C22.3381 27.835 22.4025 27.8759 22.4142 27.8952C22.5742 28.3526 22.7222 28.8138 22.8713 29.2774L22.9929 29.6549H21.4122ZM23.9324 33.1678H7.14463C7.14308 33.1069 7.14075 33.0467 7.13803 32.9866C7.1291 32.7672 7.12055 32.5597 7.15279 32.3638C7.2495 31.7699 7.77536 31.3707 8.46163 31.3707C11.3341 31.3657 14.2097 31.3591 17.0829 31.3757C18.7918 31.3861 20.5589 31.3965 22.2953 31.3479C22.8721 31.3298 23.2981 31.4841 23.5805 31.7953C23.8663 32.11 23.9867 32.5832 23.9324 33.1678ZM19.6334 27.8497V29.643H11.4149V27.8497H19.6334Z" fill="#FFB342"/>
</svg>
