<svg width="38" height="39" viewBox="0 0 38 39" fill="none" xmlns="http://www.w3.org/2000/svg">
<path d="M7.85651 0.545595L3.73672 0.54358C1.81349 0.542572 0.253906 2.09594 0.253906 4.01255V30.708C0.253906 32.6238 1.81248 34.177 3.73487 34.177H23.8192C25.7416 34.177 27.3002 32.6238 27.3002 30.708V9.29704L27.2489 3.98971C27.2306 2.08755 25.6787 0.554999 23.77 0.553991L10.0083 0.546938L7.85651 0.545595Z" fill="#B2EEFF"/>
<path d="M23.8181 34.429H3.73374C1.67503 34.429 1.38419e-05 32.7597 1.38419e-05 30.7081V4.0128C-0.00132652 3.5238 0.0946899 3.0394 0.282503 2.58764C0.470317 2.13588 0.746196 1.72574 1.09417 1.38097C1.44006 1.03456 1.85144 0.759928 2.30451 0.572969C2.75759 0.38601 3.24337 0.290431 3.73374 0.291762H3.73577L7.85556 0.293945C7.9226 0.293967 7.98688 0.320528 8.03427 0.367784C8.08166 0.415039 8.10827 0.47912 8.10824 0.545927C8.10822 0.612735 8.08157 0.676797 8.03415 0.724021C7.98673 0.771245 7.92243 0.797763 7.85539 0.797741H7.85522L3.73543 0.795558H3.73374C3.30978 0.794397 2.88978 0.877017 2.49806 1.03864C2.10633 1.20026 1.75065 1.43767 1.45158 1.73715C1.15071 2.03527 0.91217 2.3899 0.749782 2.78052C0.587394 3.17114 0.504381 3.58999 0.505551 4.0128V30.7083C0.505551 32.482 1.95375 33.9252 3.73374 33.9252H23.8181C25.5981 33.9252 27.0463 32.482 27.0463 30.7083V9.29695L26.995 3.99214C26.9782 2.23608 25.5308 0.806809 23.7687 0.805802L10.007 0.798916C9.93992 0.798894 9.87564 0.772334 9.82825 0.725078C9.78086 0.677822 9.75425 0.613742 9.75427 0.546934C9.7543 0.480127 9.78095 0.416065 9.82837 0.36884C9.87579 0.321616 9.94009 0.295098 10.0071 0.29512H10.0073L23.769 0.302174C25.8072 0.303181 27.481 1.95647 27.5007 3.98727L27.5518 9.2946V30.7083C27.5518 32.7597 25.877 34.429 23.8181 34.429Z" fill="#1A1715"/>
<path d="M4.12891 19.1726V34.5375C4.12891 36.4731 5.70096 38.0396 7.64307 38.0396H27.661C29.6031 38.0396 31.1752 36.4731 31.1752 34.5375V13.1596L22.3898 4.4043H7.64323C5.70113 4.4043 4.12907 5.97093 4.12907 7.90652V19.1726H4.12891Z" fill="#B2EEFF"/>
<path d="M27.6597 38.2913H7.64193C5.56484 38.2913 3.875 36.6073 3.875 34.5373V19.1724C3.875 19.1056 3.90163 19.0415 3.94903 18.9943C3.99644 18.947 4.06073 18.9205 4.12777 18.9205C4.19481 18.9205 4.2591 18.947 4.3065 18.9943C4.35391 19.0415 4.38054 19.1056 4.38054 19.1724V34.5373C4.38054 36.3295 5.84373 37.7875 7.64193 37.7875H27.6597C29.4581 37.7875 30.9212 36.3295 30.9212 34.5373V13.2635L22.2838 4.65585H7.64193C5.84373 4.65602 4.38054 6.114 4.38054 7.90617V16.9528C4.38054 17.0196 4.35391 17.0837 4.3065 17.131C4.2591 17.1782 4.19481 17.2047 4.12777 17.2047C4.06073 17.2047 3.99644 17.1782 3.94903 17.131C3.90163 17.0837 3.875 17.0196 3.875 16.9528V7.90617C3.875 5.83624 5.56484 4.15222 7.64193 4.15222H22.3885C22.4554 4.15222 22.5197 4.17876 22.5672 4.22611L31.3528 12.9814C31.3763 13.0048 31.3949 13.0326 31.4076 13.0632C31.4203 13.0937 31.4268 13.1265 31.4268 13.1596V34.5377C31.4268 36.6073 29.7369 38.2913 27.6597 38.2913Z" fill="#1A1715"/>
<path d="M26.2027 24.0282H9.09652C9.02948 24.0282 8.96519 24.0017 8.91779 23.9544C8.87038 23.9072 8.84375 23.8431 8.84375 23.7763C8.84375 23.7095 8.87038 23.6454 8.91779 23.5982C8.96519 23.551 9.02948 23.5244 9.09652 23.5244H26.2027C26.2698 23.5244 26.3341 23.551 26.3815 23.5982C26.4289 23.6454 26.4555 23.7095 26.4555 23.7763C26.4555 23.8431 26.4289 23.9072 26.3815 23.9544C26.3341 24.0017 26.2698 24.0282 26.2027 24.0282ZM26.2027 28.2075H9.09652C9.02948 28.2075 8.96519 28.181 8.91779 28.1338C8.87038 28.0865 8.84375 28.0224 8.84375 27.9556C8.84375 27.8888 8.87038 27.8248 8.91779 27.7775C8.96519 27.7303 9.02948 27.7037 9.09652 27.7037H26.2027C26.2698 27.7037 26.3341 27.7303 26.3815 27.7775C26.4289 27.8248 26.4555 27.8888 26.4555 27.9556C26.4555 28.0224 26.4289 28.0865 26.3815 28.1338C26.3341 28.181 26.2698 28.2075 26.2027 28.2075ZM26.2027 32.3867H9.09652C9.02948 32.3867 8.96519 32.3602 8.91779 32.3129C8.87038 32.2657 8.84375 32.2016 8.84375 32.1348C8.84375 32.068 8.87038 32.0039 8.91779 31.9567C8.96519 31.9094 9.02948 31.8829 9.09652 31.8829H26.2027C26.2698 31.8829 26.3341 31.9094 26.3815 31.9567C26.4289 32.0039 26.4555 32.068 26.4555 32.1348C26.4555 32.2016 26.4289 32.2657 26.3815 32.3129C26.3341 32.3602 26.2698 32.3867 26.2027 32.3867Z" fill="#1A1715"/>
<path d="M31.1736 13.1595V13.1812H25.5001C23.7914 13.1812 22.4062 11.8008 22.4062 10.098V4.42236L31.1736 13.1595Z" fill="#8FCAED"/>
<path d="M31.1744 13.4333H25.501C23.6556 13.4333 22.1543 11.9372 22.1543 10.0982V4.42255C22.1544 4.37275 22.1692 4.32408 22.197 4.28269C22.2248 4.24129 22.2643 4.20903 22.3104 4.18997C22.3566 4.17091 22.4074 4.1659 22.4564 4.17559C22.5054 4.18527 22.5505 4.20921 22.5859 4.24438L31.3532 12.9815C31.3767 13.0049 31.3953 13.0327 31.408 13.0633C31.4207 13.0939 31.4272 13.1266 31.4272 13.1597V13.1814C31.4272 13.2482 31.4006 13.3123 31.3532 13.3595C31.3058 13.4067 31.2415 13.4333 31.1744 13.4333ZM22.6598 5.03063V10.0982C22.6598 11.6594 23.9345 12.9295 25.501 12.9295H30.586L22.6598 5.03063Z" fill="#1A1715"/>
<path d="M27.1489 38.0396L26.0656 35.8692L23.5918 36.0862L27.913 28.2715L31.4701 30.2249L27.1489 38.0396Z" fill="#B2EEFF"/>
<path d="M27.1498 38.2916H27.1446C27.0984 38.2907 27.0535 38.2772 27.0145 38.2525C26.9756 38.2279 26.9441 38.1931 26.9236 38.1519L25.9168 36.1352L23.6149 36.3373C23.5692 36.3413 23.5233 36.3329 23.4821 36.3129C23.4409 36.2929 23.4059 36.2622 23.3809 36.2239C23.3558 36.1856 23.3417 36.1413 23.34 36.0957C23.3383 36.05 23.3491 36.0048 23.3712 35.9648L27.6924 28.1499C27.7084 28.1209 27.73 28.0954 27.7559 28.0747C27.7818 28.054 27.8115 28.0387 27.8434 28.0295C27.8753 28.0203 27.9087 28.0174 27.9417 28.0211C27.9746 28.0247 28.0066 28.0348 28.0356 28.0508L31.5928 30.0042C31.7151 30.0712 31.7596 30.2244 31.6922 30.3463L27.371 38.1612C27.3267 38.2418 27.2418 38.2916 27.1498 38.2916ZM26.0666 35.6173C26.1136 35.6174 26.1596 35.6305 26.1996 35.6551C26.2395 35.6798 26.2718 35.7151 26.2927 35.7571L27.1614 37.497L31.1275 30.3238L28.0132 28.6136L24.0429 35.7938L26.0442 35.6182C26.0516 35.6176 26.0591 35.6174 26.0666 35.6173Z" fill="#1A1715"/>
<path d="M34.1903 38.0396L35.2737 35.8692L37.7474 36.0862L33.4263 28.2715L29.8691 30.2249L34.1903 38.0396Z" fill="#B2EEFF"/>
<path d="M34.1891 38.2915C34.0971 38.2915 34.0122 38.2417 33.9678 38.1612L29.6467 30.3463C29.6306 30.3174 29.6205 30.2856 29.6168 30.2527C29.6131 30.2198 29.616 30.1865 29.6252 30.1547C29.6344 30.123 29.6499 30.0933 29.6706 30.0675C29.6914 30.0417 29.717 30.0202 29.7461 30.0043L33.3032 28.0509C33.3323 28.0349 33.3642 28.0248 33.3972 28.0211C33.4302 28.0174 33.4636 28.0203 33.4955 28.0295C33.5274 28.0387 33.5571 28.054 33.583 28.0747C33.6089 28.0954 33.6305 28.121 33.6465 28.15L37.9677 35.9648C37.9899 36.0048 38.0008 36.0501 37.9991 36.0958C37.9975 36.1415 37.9834 36.1859 37.9583 36.2242C37.9333 36.2625 37.8982 36.2932 37.8569 36.3132C37.8156 36.3331 37.7697 36.3415 37.724 36.3373L35.4221 36.1353L34.4152 38.152C34.3947 38.1931 34.3633 38.2279 34.3243 38.2526C34.2854 38.2772 34.2404 38.2907 34.1943 38.2917L34.1891 38.2915ZM30.2114 30.3237L34.1775 37.4969L35.0462 35.7569C35.0686 35.7114 35.1044 35.6738 35.1488 35.6491C35.1932 35.6243 35.2441 35.6135 35.2947 35.6182L37.296 35.7939L33.3256 28.6136L30.2114 30.3237Z" fill="#1A1715"/>
<path d="M36.6271 27.5476L36.6241 27.5501C36.4078 27.7232 36.247 27.9555 36.1613 28.2184C36.0756 28.4813 36.0688 28.7634 36.1416 29.0301L36.1424 29.0333C36.3816 29.9094 35.7458 30.7811 34.8356 30.8246L34.8331 30.8248C34.5557 30.838 34.2882 30.9318 34.0636 31.0945C33.8389 31.2572 33.6669 31.4818 33.5686 31.7407C33.2459 32.5907 32.2161 32.9241 31.4538 32.4253L31.4536 32.4252C31.2213 32.2732 30.9495 32.1923 30.6716 32.1923C30.3937 32.1923 30.1219 32.2732 29.8896 32.4252L29.8894 32.4253C29.1271 32.9239 28.0973 32.5906 27.7746 31.7407C27.6763 31.4818 27.5043 31.2572 27.2796 31.0945C27.055 30.9318 26.7875 30.838 26.5101 30.8248L26.5076 30.8246C25.5974 30.7811 24.9616 29.9094 25.2008 29.0333L25.2016 29.0301C25.2744 28.7634 25.2676 28.4813 25.1819 28.2184C25.0962 27.9555 24.9354 27.7232 24.7191 27.5501L24.7161 27.5477C24.0062 26.9793 24.006 25.902 24.7161 25.3336L24.7191 25.331C24.9354 25.1579 25.0962 24.9257 25.1819 24.6628C25.2676 24.3999 25.2744 24.1178 25.2016 23.8511L25.2008 23.8479C24.9616 22.9718 25.5974 22.1 26.5076 22.0565L26.5101 22.0564C26.7875 22.0431 27.055 21.9494 27.2796 21.7867C27.5043 21.6239 27.6763 21.3993 27.7746 21.1405C28.0973 20.2904 29.1271 19.9571 29.8894 20.4558L29.8896 20.456C30.1219 20.6079 30.3937 20.6888 30.6716 20.6888C30.9495 20.6888 31.2213 20.6079 31.4536 20.456L31.4538 20.4558C32.2161 19.9572 33.2459 20.2906 33.5686 21.1405C33.6669 21.3993 33.8389 21.6239 34.0636 21.7867C34.2882 21.9494 34.5557 22.0431 34.8331 22.0564L34.8356 22.0565C35.7458 22.1 36.3816 22.9718 36.1424 23.8479L36.1416 23.8511C36.0688 24.1178 36.0756 24.3999 36.1613 24.6628C36.247 24.9257 36.4078 25.1579 36.6241 25.331L36.6271 25.3336C37.337 25.9018 37.337 26.9791 36.6271 27.5476Z" fill="#8FCAED"/>
<path d="M32.2307 32.9108C31.9041 32.9106 31.5848 32.8149 31.3121 32.6358C31.121 32.5107 30.8974 32.4441 30.6688 32.4441C30.4401 32.444 30.2165 32.5106 30.0254 32.6356C29.8155 32.7736 29.577 32.8626 29.3278 32.8959C29.0786 32.9293 28.8251 32.9061 28.5861 32.828C28.3468 32.7512 28.1281 32.6215 27.9461 32.4486C27.7642 32.2758 27.6237 32.0642 27.5353 31.8297C27.4545 31.6167 27.313 31.4319 27.1281 31.298C26.9433 31.1641 26.7233 31.0869 26.495 31.076C26.2437 31.0649 25.998 30.9974 25.7765 30.8784C25.555 30.7594 25.3634 30.5921 25.2158 30.389C25.0676 30.1869 24.9671 29.954 24.9217 29.7077C24.8764 29.4615 24.8873 29.2082 24.9538 28.9668C25.0144 28.747 25.0092 28.5144 24.9388 28.2975C24.8685 28.0806 24.736 27.8889 24.5578 27.7461C24.3609 27.5898 24.2019 27.3911 24.0928 27.165C23.9837 26.9389 23.9273 26.6911 23.9277 26.4403C23.9272 26.19 23.9834 25.9428 24.0919 25.7172C24.2005 25.4915 24.3587 25.2931 24.5548 25.1368C24.7336 24.9944 24.8667 24.8031 24.9378 24.5863C25.0088 24.3696 25.0148 24.1368 24.9548 23.9167C24.8197 23.422 24.9152 22.9036 25.2158 22.4915C25.5165 22.0794 25.9817 21.829 26.4923 21.8047C26.721 21.7942 26.9416 21.7173 27.1269 21.5834C27.3122 21.4495 27.4542 21.2645 27.5353 21.0511C27.6237 20.8166 27.7641 20.605 27.9461 20.4321C28.128 20.2592 28.3468 20.1295 28.5861 20.0526C29.0726 19.8949 29.5972 19.965 30.0252 20.2449C30.2163 20.3699 30.4399 20.4365 30.6685 20.4365C30.8972 20.4366 31.1208 20.37 31.312 20.2451C31.5219 20.1071 31.7603 20.0182 32.0095 19.9849C32.2587 19.9516 32.5122 19.9747 32.7512 20.0526C32.9905 20.1295 33.2093 20.2592 33.3912 20.432C33.5732 20.6049 33.7136 20.8165 33.8021 21.051C33.8828 21.264 34.0243 21.4488 34.2091 21.5827C34.3939 21.7166 34.6139 21.7937 34.8421 21.8045C35.3554 21.829 35.8208 22.0794 36.1215 22.4915C36.4221 22.9036 36.5178 23.422 36.3835 23.9137C36.3229 24.1335 36.3281 24.3662 36.3985 24.5831C36.4689 24.8 36.6013 24.9917 36.7795 25.1346C36.9764 25.2909 37.1353 25.4895 37.2444 25.7156C37.3535 25.9417 37.41 26.1894 37.4096 26.4403C37.4101 26.6909 37.3538 26.9384 37.245 27.1644C37.1361 27.3904 36.9775 27.5889 36.7809 27.7452L36.7777 27.7478C36.6003 27.8902 36.4684 28.0811 36.3982 28.2971C36.3279 28.513 36.3224 28.7447 36.3823 28.9638C36.5175 29.4587 36.4219 29.9771 36.1213 30.3892C35.8207 30.8013 35.3554 31.0517 34.8448 31.076C34.6162 31.0865 34.3956 31.1634 34.2103 31.2973C34.0249 31.4312 33.883 31.6162 33.8019 31.8295C33.7135 32.0641 33.5731 32.2757 33.3911 32.4486C33.2091 32.6215 32.9903 32.7512 32.7511 32.828C32.583 32.8827 32.4074 32.9106 32.2307 32.9108ZM29.106 20.4741C28.9841 20.4741 28.8616 20.4931 28.7423 20.5317C28.5751 20.5854 28.4222 20.6761 28.2951 20.7969C28.168 20.9177 28.0699 21.0656 28.0081 21.2295C27.8925 21.5344 27.6899 21.7989 27.4254 21.9905C27.1608 22.1821 26.8458 22.2924 26.5191 22.3078C26.3434 22.3155 26.1717 22.3627 26.0168 22.4459C25.8619 22.529 25.7279 22.6459 25.6247 22.7879C25.5211 22.9291 25.4508 23.0918 25.4192 23.2639C25.3875 23.4359 25.3952 23.6129 25.4417 23.7816C25.5281 24.0959 25.5204 24.4286 25.4196 24.7387C25.3189 25.0488 25.1294 25.3228 24.8744 25.527C24.7366 25.6363 24.6254 25.7752 24.549 25.9333C24.4726 26.0915 24.433 26.2647 24.4333 26.4403C24.4333 26.7963 24.5929 27.1283 24.8714 27.3509C25.1269 27.5547 25.3171 27.8284 25.4186 28.1384C25.52 28.4484 25.5284 28.7812 25.4427 29.0959C25.3957 29.265 25.3877 29.4425 25.4192 29.6152C25.4507 29.7878 25.5209 29.9511 25.6247 30.0929C25.7276 30.2347 25.8612 30.3514 26.0157 30.4345C26.1701 30.5176 26.3414 30.5649 26.5168 30.5729C26.8438 30.5881 27.1593 30.6983 27.4243 30.8899C27.6893 31.0815 27.8923 31.3462 28.0083 31.6513C28.0701 31.8152 28.1682 31.9631 28.2953 32.0839C28.4224 32.2047 28.5753 32.2954 28.7425 32.3491C28.9094 32.4034 29.0866 32.4195 29.2606 32.3963C29.4347 32.373 29.6013 32.3109 29.748 32.2146C30.0215 32.0356 30.3416 31.9402 30.6688 31.9401C30.996 31.9401 31.3161 32.0354 31.5897 32.2144C31.7363 32.3109 31.9029 32.3731 32.077 32.3964C32.2512 32.4197 32.4284 32.4035 32.5953 32.3489C32.7625 32.2952 32.9154 32.2046 33.0425 32.0838C33.1696 31.963 33.2678 31.8152 33.3296 31.6513C33.4452 31.3465 33.6477 31.082 33.9123 30.8904C34.1769 30.6988 34.4919 30.5885 34.8185 30.5731C34.9943 30.5653 35.166 30.5181 35.3209 30.435C35.4758 30.3519 35.6098 30.2349 35.713 30.0929C35.8166 29.9517 35.8868 29.789 35.9185 29.617C35.9502 29.4449 35.9425 29.268 35.896 29.0993C35.8096 28.7849 35.8173 28.4522 35.918 28.142C36.0188 27.8319 36.2083 27.5579 36.4632 27.3536L36.4662 27.3509C36.6033 27.2418 36.7139 27.1032 36.7898 26.9455C36.8656 26.7878 36.9048 26.6151 36.9044 26.4403C36.9048 26.2654 36.8656 26.0927 36.7898 25.9351C36.7139 25.7774 36.6033 25.6389 36.4662 25.5297C36.2108 25.3259 36.0206 25.0522 35.9191 24.7422C35.8176 24.4321 35.8092 24.0993 35.895 23.7846C35.942 23.6155 35.95 23.4379 35.9184 23.2653C35.8869 23.0926 35.8166 22.9293 35.7128 22.7876C35.6099 22.6459 35.4763 22.5292 35.3219 22.4461C35.1675 22.363 34.9962 22.3157 34.8209 22.3078C34.4938 22.2926 34.1784 22.1824 33.9133 21.9908C33.6483 21.7992 33.4453 21.5345 33.3294 21.2293C33.2676 21.0654 33.1695 20.9175 33.0424 20.7967C32.9153 20.6759 32.7624 20.5853 32.5952 20.5316C32.4282 20.4771 32.2511 20.4609 32.077 20.4842C31.9029 20.5074 31.7363 20.5696 31.5897 20.6659C31.3162 20.845 30.9961 20.9405 30.6689 20.9405C30.3416 20.9406 30.0215 20.8452 29.748 20.6661C29.5574 20.541 29.3342 20.4743 29.106 20.4741Z" fill="#1A1715"/>
<path d="M32.2307 32.9108C31.9041 32.9106 31.5848 32.8149 31.3121 32.6358C31.121 32.5107 30.8974 32.4441 30.6688 32.4441C30.4401 32.444 30.2165 32.5106 30.0254 32.6356C29.8155 32.7736 29.577 32.8626 29.3278 32.8959C29.0786 32.9293 28.8251 32.9061 28.5861 32.828C28.3468 32.7512 28.1281 32.6215 27.9461 32.4486C27.7642 32.2758 27.6237 32.0642 27.5353 31.8297C27.4545 31.6167 27.313 31.4319 27.1281 31.298C26.9433 31.1641 26.7233 31.0869 26.495 31.076C26.2437 31.0649 25.998 30.9974 25.7765 30.8784C25.555 30.7594 25.3634 30.5921 25.2158 30.389C25.0676 30.1869 24.9671 29.954 24.9217 29.7077C24.8764 29.4615 24.8873 29.2082 24.9538 28.9668C25.0144 28.747 25.0092 28.5144 24.9388 28.2975C24.8685 28.0806 24.736 27.8889 24.5578 27.7461C24.3609 27.5898 24.2019 27.3911 24.0928 27.165C23.9837 26.9389 23.9273 26.6911 23.9277 26.4403C23.9272 26.19 23.9834 25.9428 24.0919 25.7172C24.2005 25.4915 24.3587 25.2931 24.5548 25.1368C24.7336 24.9944 24.8667 24.8031 24.9378 24.5863C25.0088 24.3696 25.0148 24.1368 24.9548 23.9167C24.8197 23.422 24.9152 22.9036 25.2158 22.4915C25.5165 22.0794 25.9817 21.829 26.4923 21.8047C26.721 21.7942 26.9416 21.7173 27.1269 21.5834C27.3122 21.4495 27.4542 21.2645 27.5353 21.0511C27.6237 20.8166 27.7641 20.605 27.9461 20.4321C28.128 20.2592 28.3468 20.1295 28.5861 20.0526C29.0726 19.8949 29.5972 19.965 30.0252 20.2449C30.2163 20.3699 30.4399 20.4365 30.6685 20.4365C30.8972 20.4366 31.1208 20.37 31.312 20.2451C31.5219 20.1071 31.7603 20.0182 32.0095 19.9849C32.2587 19.9516 32.5122 19.9747 32.7512 20.0526C32.9905 20.1295 33.2093 20.2592 33.3912 20.432C33.5732 20.6049 33.7136 20.8165 33.8021 21.051C33.8828 21.264 34.0243 21.4488 34.2091 21.5827C34.3939 21.7166 34.6139 21.7937 34.8421 21.8045C35.3554 21.829 35.8208 22.0794 36.1215 22.4915C36.4221 22.9036 36.5178 23.422 36.3835 23.9137C36.3229 24.1335 36.3281 24.3662 36.3985 24.5831C36.4689 24.8 36.6013 24.9917 36.7795 25.1346C36.9764 25.2909 37.1353 25.4895 37.2444 25.7156C37.3535 25.9417 37.41 26.1894 37.4096 26.4403C37.4101 26.6909 37.3538 26.9384 37.245 27.1644C37.1361 27.3904 36.9775 27.5889 36.7809 27.7452L36.7777 27.7478C36.6003 27.8902 36.4684 28.0811 36.3982 28.2971C36.3279 28.513 36.3224 28.7447 36.3823 28.9638C36.5175 29.4587 36.4219 29.9771 36.1213 30.3892C35.8207 30.8013 35.3554 31.0517 34.8448 31.076C34.6162 31.0865 34.3956 31.1634 34.2103 31.2973C34.0249 31.4312 33.883 31.6162 33.8019 31.8295C33.7135 32.0641 33.5731 32.2757 33.3911 32.4486C33.2091 32.6215 32.9903 32.7512 32.7511 32.828C32.583 32.8827 32.4074 32.9106 32.2307 32.9108ZM29.106 20.4741C28.9841 20.4741 28.8616 20.4931 28.7423 20.5317C28.5751 20.5854 28.4222 20.6761 28.2951 20.7969C28.168 20.9177 28.0699 21.0656 28.0081 21.2295C27.8925 21.5344 27.6899 21.7989 27.4254 21.9905C27.1608 22.1821 26.8458 22.2924 26.5191 22.3078C26.3434 22.3155 26.1717 22.3627 26.0168 22.4459C25.8619 22.529 25.7279 22.6459 25.6247 22.7879C25.5211 22.9291 25.4508 23.0918 25.4192 23.2639C25.3875 23.4359 25.3952 23.6129 25.4417 23.7816C25.5281 24.0959 25.5204 24.4286 25.4196 24.7387C25.3189 25.0488 25.1294 25.3228 24.8744 25.527C24.7366 25.6363 24.6254 25.7752 24.549 25.9333C24.4726 26.0915 24.433 26.2647 24.4333 26.4403C24.4333 26.7963 24.5929 27.1283 24.8714 27.3509C25.1269 27.5547 25.3171 27.8284 25.4186 28.1384C25.52 28.4484 25.5284 28.7812 25.4427 29.0959C25.3957 29.265 25.3877 29.4425 25.4192 29.6152C25.4507 29.7878 25.5209 29.9511 25.6247 30.0929C25.7276 30.2347 25.8612 30.3514 26.0157 30.4345C26.1701 30.5176 26.3414 30.5649 26.5168 30.5729C26.8438 30.5881 27.1593 30.6983 27.4243 30.8899C27.6893 31.0815 27.8923 31.3462 28.0083 31.6513C28.0701 31.8152 28.1682 31.9631 28.2953 32.0839C28.4224 32.2047 28.5753 32.2954 28.7425 32.3491C28.9094 32.4034 29.0866 32.4195 29.2606 32.3963C29.4347 32.373 29.6013 32.3109 29.748 32.2146C30.0215 32.0356 30.3416 31.9402 30.6688 31.9401C30.996 31.9401 31.3161 32.0354 31.5897 32.2144C31.7363 32.3109 31.9029 32.3731 32.077 32.3964C32.2512 32.4197 32.4284 32.4035 32.5953 32.3489C32.7625 32.2952 32.9154 32.2046 33.0425 32.0838C33.1696 31.963 33.2678 31.8152 33.3296 31.6513C33.4452 31.3465 33.6477 31.082 33.9123 30.8904C34.1769 30.6988 34.4919 30.5885 34.8185 30.5731C34.9943 30.5653 35.166 30.5181 35.3209 30.435C35.4758 30.3519 35.6098 30.2349 35.713 30.0929C35.8166 29.9517 35.8868 29.789 35.9185 29.617C35.9502 29.4449 35.9425 29.268 35.896 29.0993C35.8096 28.7849 35.8173 28.4522 35.918 28.142C36.0188 27.8319 36.2083 27.5579 36.4632 27.3536L36.4662 27.3509C36.6033 27.2418 36.7139 27.1032 36.7898 26.9455C36.8656 26.7878 36.9048 26.6151 36.9044 26.4403C36.9048 26.2654 36.8656 26.0927 36.7898 25.9351C36.7139 25.7774 36.6033 25.6389 36.4662 25.5297C36.2108 25.3259 36.0206 25.0522 35.9191 24.7422C35.8176 24.4321 35.8092 24.0993 35.895 23.7846C35.942 23.6155 35.95 23.4379 35.9184 23.2653C35.8869 23.0926 35.8166 22.9293 35.7128 22.7876C35.6099 22.6459 35.4763 22.5292 35.3219 22.4461C35.1675 22.363 34.9962 22.3157 34.8209 22.3078C34.4938 22.2926 34.1784 22.1824 33.9133 21.9908C33.6483 21.7992 33.4453 21.5345 33.3294 21.2293C33.2676 21.0654 33.1695 20.9175 33.0424 20.7967C32.9153 20.6759 32.7624 20.5853 32.5952 20.5316C32.4282 20.4771 32.2511 20.4609 32.077 20.4842C31.9029 20.5074 31.7363 20.5696 31.5897 20.6659C31.3162 20.845 30.9961 20.9405 30.6689 20.9405C30.3416 20.9406 30.0215 20.8452 29.748 20.6661C29.5574 20.541 29.3342 20.4743 29.106 20.4741Z" fill="#1A1715"/>
<path d="M34.9072 27.1258C35.287 24.794 33.698 22.5969 31.3581 22.2184C29.0182 21.8399 26.8135 23.4234 26.4337 25.7553C26.054 28.0871 27.6429 30.2842 29.9828 30.6627C32.3227 31.0412 34.5274 29.4576 34.9072 27.1258Z" fill="#B2EEFF"/>
<path d="M30.6699 30.9698C28.1638 30.9698 26.125 28.9378 26.125 26.4403C26.125 23.9428 28.1638 21.911 30.6699 21.911C33.1761 21.911 35.2149 23.9428 35.2149 26.4403C35.2149 28.9378 33.1761 30.9698 30.6699 30.9698ZM30.6699 22.415C28.4426 22.415 26.6305 24.2207 26.6305 26.4405C26.6305 28.6602 28.4426 30.4661 30.6699 30.4661C32.8973 30.4661 34.7094 28.6602 34.7094 26.4405C34.7094 24.2207 32.8973 22.415 30.6699 22.415Z" fill="#1A1715"/>
<path d="M30.8905 24.0467L31.5214 25.3208C31.5571 25.3928 31.6262 25.4429 31.7059 25.4544L33.1169 25.6588C33.3179 25.6879 33.3983 25.9342 33.2527 26.0756L32.2317 27.0674C32.2032 27.0951 32.1819 27.1292 32.1696 27.1669C32.1574 27.2046 32.1545 27.2447 32.1612 27.2837L32.4022 28.6841C32.4366 28.8836 32.2263 29.0359 32.0465 28.9417L30.7845 28.2806C30.7493 28.2621 30.7101 28.2525 30.6704 28.2525C30.6306 28.2525 30.5915 28.2621 30.5563 28.2806L29.2943 28.9417C29.1145 29.0359 28.9042 28.8838 28.9386 28.6841L29.1796 27.2837C29.1863 27.2447 29.1833 27.2046 29.171 27.1669C29.1587 27.1292 29.1374 27.0951 29.109 27.0674L28.0879 26.0756C27.9425 25.9342 28.0227 25.688 28.2238 25.6588L29.6347 25.4544C29.674 25.4487 29.7114 25.4336 29.7435 25.4103C29.7757 25.387 29.8017 25.3563 29.8192 25.3208L30.4503 24.0467C30.5406 23.8651 30.8005 23.8651 30.8905 24.0467Z" fill="white"/>
<path d="M32.1596 29.2221C32.0804 29.2221 32.0011 29.2031 31.9276 29.1646L30.6654 28.5033L29.4107 29.1646C29.3285 29.2079 29.2357 29.2273 29.143 29.2205C29.0503 29.2138 28.9613 29.1812 28.8863 29.1265C28.8109 29.0723 28.7523 28.998 28.7173 28.9122C28.6823 28.8264 28.6722 28.7325 28.6883 28.6412L28.9292 27.2408L27.9106 26.2559C27.8438 26.1915 27.7965 26.1096 27.7742 26.0196C27.7519 25.9296 27.7555 25.8352 27.7845 25.7472C27.8129 25.659 27.8657 25.5805 27.9368 25.5208C28.0079 25.4611 28.0944 25.4225 28.1864 25.4095L29.5974 25.2051L30.2227 23.9352C30.2635 23.852 30.327 23.782 30.406 23.7331C30.4849 23.6842 30.576 23.6584 30.669 23.6588H30.6691C30.8601 23.6588 31.0311 23.7648 31.1155 23.9352L31.7464 25.2093L33.1518 25.4095C33.2439 25.4225 33.3304 25.4611 33.4015 25.5208C33.4726 25.5805 33.5253 25.659 33.5537 25.7472C33.5828 25.8352 33.5864 25.9296 33.5641 26.0196C33.5418 26.1096 33.4945 26.1915 33.4277 26.2559L32.4067 27.2475L32.6498 28.6412C32.6659 28.7325 32.6558 28.8264 32.6208 28.9122C32.5858 28.998 32.5272 29.0723 32.4518 29.1265C32.3671 29.1884 32.2647 29.2219 32.1596 29.2221ZM30.6619 24.1577L30.0448 25.4323C30.0091 25.5046 29.9562 25.567 29.8908 25.6143C29.8255 25.6616 29.7495 25.6923 29.6695 25.7037L28.2589 25.9081L29.2841 26.8868C29.3419 26.943 29.3852 27.0123 29.4101 27.0889C29.4351 27.1654 29.441 27.2468 29.4274 27.3261L29.1864 28.7265L30.4373 28.0573C30.5087 28.02 30.5882 28.0005 30.6689 28.0005C30.7496 28.0005 30.829 28.02 30.9005 28.0573L32.1627 28.7186L31.9106 27.3263C31.8969 27.247 31.9028 27.1657 31.9277 27.0892C31.9526 27.0127 31.9957 26.9433 32.0535 26.8871L33.0748 25.8953L31.6681 25.7039C31.5881 25.6924 31.5122 25.6616 31.4469 25.6143C31.3815 25.567 31.3287 25.5045 31.293 25.4323L30.6619 24.1577Z" fill="#1A1715"/>
<path d="M22.4451 15.726V19.2992C22.4451 19.4185 22.4215 19.5367 22.3757 19.6469C22.3299 19.7571 22.2628 19.8573 22.1781 19.9417C22.0935 20.026 21.9929 20.093 21.8823 20.1386C21.7717 20.1843 21.6532 20.2077 21.5334 20.2077H13.5173C13.3976 20.2077 13.279 20.1843 13.1684 20.1386C13.0577 20.093 12.9572 20.0261 12.8725 19.9417C12.7879 19.8573 12.7207 19.7572 12.6749 19.6469C12.6291 19.5367 12.6055 19.4185 12.6055 19.2992V15.726L17.5252 18.2196L22.4451 15.726Z" fill="#8FCAED"/>
<path d="M21.5339 20.4598H13.5179C12.8757 20.4598 12.3535 19.9392 12.3535 19.2994V15.7263C12.3535 15.6832 12.3646 15.6408 12.3857 15.6032C12.4068 15.5656 12.4373 15.5341 12.4741 15.5115C12.511 15.489 12.553 15.4763 12.5962 15.4746C12.6394 15.4728 12.6823 15.4822 12.7209 15.5017L17.5262 17.9373L22.3313 15.5017C22.3699 15.4823 22.4127 15.473 22.4559 15.4748C22.4991 15.4765 22.5411 15.4893 22.5779 15.5118C22.6147 15.5343 22.6451 15.5658 22.6663 15.6034C22.6874 15.6409 22.6986 15.6832 22.6987 15.7263V19.2994C22.6983 19.9392 22.1761 20.4598 21.5339 20.4598ZM12.8591 16.1369V19.2994C12.8592 19.4734 12.9287 19.6404 13.0522 19.7635C13.1758 19.8866 13.3432 19.9558 13.5179 19.956H21.5339C21.7086 19.9558 21.8761 19.8866 21.9996 19.7635C22.1231 19.6404 22.1926 19.4734 22.1928 19.2994V16.1369L17.6404 18.4442C17.6049 18.4622 17.5657 18.4716 17.5259 18.4716C17.4861 18.4716 17.4469 18.4622 17.4114 18.4442L12.8591 16.1369Z" fill="#1A1715"/>
<path d="M17.5233 10.7158L10.1211 14.4678L17.5233 18.2197L24.9254 14.4678L17.5233 10.7158Z" fill="#8FCAED"/>
<path d="M17.5246 18.4717C17.4853 18.4717 17.4459 18.4624 17.41 18.4443L10.0077 14.6922C9.96605 14.6712 9.93103 14.6391 9.90656 14.5995C9.88209 14.5598 9.86914 14.5142 9.86914 14.4677C9.86914 14.4211 9.88209 14.3755 9.90656 14.3359C9.93103 14.2962 9.96605 14.2641 10.0077 14.2431L17.41 10.4912C17.4455 10.4732 17.4847 10.4639 17.5245 10.4639C17.5643 10.4639 17.6035 10.4732 17.639 10.4912L25.0411 14.2431C25.0827 14.2641 25.1178 14.2962 25.1422 14.3359C25.1667 14.3755 25.1796 14.4211 25.1796 14.4677C25.1796 14.5142 25.1667 14.5598 25.1422 14.5995C25.1178 14.6391 25.0827 14.6712 25.0411 14.6922L17.639 18.4443C17.6035 18.4623 17.5643 18.4716 17.5246 18.4717ZM10.6799 14.4677L17.5246 17.9371L24.369 14.4677L17.5246 10.9983L10.6799 14.4677Z" fill="#1A1715"/>
<path d="M24.9277 14.4678V19.0377C24.7381 18.7949 24.4818 18.6454 24.1983 18.6454C23.9168 18.6454 23.6603 18.7947 23.4707 19.0377V15.2055L24.9277 14.4678Z" fill="#8FCAED"/>
<path d="M24.9285 19.2894C24.89 19.2894 24.852 19.2806 24.8174 19.2638C24.7829 19.2469 24.7526 19.2224 24.729 19.1921C24.5807 19.0019 24.3926 18.8972 24.1992 18.8972C24.0071 18.8972 23.8195 19.002 23.671 19.1921C23.6387 19.2336 23.5942 19.2639 23.5437 19.2789C23.4932 19.2939 23.4393 19.2928 23.3895 19.2757C23.3397 19.2587 23.2964 19.2266 23.2658 19.1839C23.2352 19.1411 23.2187 19.09 23.2188 19.0375V15.2053C23.2188 15.1588 23.2317 15.1132 23.256 15.0736C23.2804 15.0339 23.3154 15.0018 23.3569 14.9807L24.8137 14.243C24.8522 14.2233 24.8952 14.2139 24.9384 14.2157C24.9816 14.2174 25.0236 14.2302 25.0604 14.2529C25.1354 14.2986 25.1811 14.38 25.1811 14.4675V19.0375C25.1811 19.1042 25.1545 19.1683 25.1071 19.2155C25.0597 19.2628 24.9955 19.2893 24.9285 19.2894ZM24.1992 18.3935C24.3651 18.3935 24.5261 18.4319 24.6757 18.5056V14.8781L23.7245 15.3598V18.5055C23.8718 18.432 24.0344 18.3936 24.1992 18.3935Z" fill="#1A1715"/>
<path d="M24.1975 21.5493C24.7867 21.5493 25.2642 20.8993 25.2642 20.0975C25.2642 19.2957 24.7867 18.6458 24.1975 18.6458C23.6084 18.6458 23.1309 19.2957 23.1309 20.0975C23.1309 20.8993 23.6084 21.5493 24.1975 21.5493Z" fill="#8FCAED"/>
<path d="M24.1982 21.8012C23.4707 21.8012 22.8789 21.037 22.8789 20.0974C22.8789 19.1578 23.4707 18.3936 24.1982 18.3936C24.9257 18.3936 25.5176 19.1578 25.5176 20.0974C25.5176 21.0371 24.9257 21.8012 24.1982 21.8012ZM24.1982 18.8975C23.7572 18.8975 23.3844 19.447 23.3844 20.0976C23.3844 20.748 23.7572 21.2976 24.1982 21.2976C24.6394 21.2976 25.0121 20.7481 25.0121 20.0976C25.0121 19.4472 24.6394 18.8975 24.1982 18.8975Z" fill="#1A1715"/>
<path d="M27.0407 8.6836L24.4894 6.13943L24.4692 3.99158C24.4523 2.23669 23.0048 0.807588 21.2422 0.805908H23.7699C25.5325 0.807588 26.98 2.23669 26.9969 3.99158L27.0407 8.6836Z" fill="#8FCAED"/>
<path d="M28.3945 13.4329V20.1283C28.4569 20.0998 28.5209 20.0746 28.5866 20.0527C29.0736 19.8949 29.5977 19.9654 30.0257 20.2442C30.1567 20.3295 30.3036 20.3877 30.4576 20.4154C30.6116 20.4431 30.7696 20.4397 30.9222 20.4054V13.4329H28.3945Z" fill="#8FCAED"/>
</svg>
