<svg width="36" height="32" viewBox="0 0 36 32" fill="none" xmlns="http://www.w3.org/2000/svg">
<path d="M32.8481 17.4622C32.8461 17.6814 32.7806 17.8944 32.6608 18.0705C32.5409 18.2467 32.373 18.3771 32.181 18.443L25.5102 20.9566L18.0323 23.7825C17.2724 24.0733 16.4441 24.0733 15.6842 23.7825L8.72656 21.16C10.1482 21.7268 11.6694 21.935 13.1755 21.7688C14.6817 21.6026 16.1337 21.0664 17.422 20.2005C18.7103 19.3346 19.8014 18.1617 20.6131 16.77C21.4248 15.3784 21.936 13.8043 22.1081 12.1663L23.7158 12.8491C23.7692 12.9726 23.8292 13.0889 23.8892 13.2051C24.0711 13.5597 24.2762 13.8996 24.503 14.2222C24.9192 14.828 25.4057 15.3726 25.9505 15.8422C26.8078 16.5852 27.7918 17.1358 28.8456 17.4622C29.7652 17.1813 30.6323 16.7264 31.4072 16.1183L32.2411 16.4742C32.4224 16.5524 32.5775 16.6887 32.686 16.8652C32.7944 17.0417 32.8509 17.2499 32.8481 17.4622Z" fill="#FF8B7A"/>
<path d="M22.1071 12.1662C21.935 13.8042 21.4238 15.3783 20.6121 16.77C19.8003 18.1617 18.7092 19.3346 17.4209 20.2005C16.1326 21.0663 14.6807 21.6026 13.1745 21.7688C11.6683 21.935 10.1471 21.7268 8.72553 21.1599L8.16518 20.9493L1.4944 18.4284C1.3083 18.3605 1.14597 18.2316 1.02957 18.0595C0.913173 17.8874 0.848364 17.6803 0.843987 17.4666C0.83961 17.2529 0.895878 17.0429 1.00512 16.8653C1.11435 16.6877 1.27124 16.5511 1.45438 16.4742L3.20879 15.7477L15.503 10.4736C16.3597 10.1016 17.3147 10.1016 18.1713 10.4736L22.1071 12.1662Z" fill="#FCB3A8"/>
<path d="M25.51 20.9566V28.3593L16.838 31.2652L8.16602 28.3593V20.9493L15.684 23.7826C16.4439 24.0733 17.2722 24.0733 18.0321 23.7826L25.51 20.9566Z" fill="#FF8B7A"/>
<path d="M34.8492 2.61306V8.84618C34.8496 9.25698 34.8228 9.66729 34.7692 10.0739C34.5452 11.798 33.8661 13.4141 32.8145 14.7257C31.7629 16.0374 30.384 16.988 28.8455 17.4621C27.7917 17.1357 26.8077 16.5851 25.9504 15.8421C25.4056 15.3725 24.919 14.8279 24.5028 14.2221C24.2761 13.8995 24.071 13.5596 23.8891 13.205C23.8291 13.0888 23.769 12.9725 23.7157 12.849C23.5344 12.4638 23.3826 12.0629 23.2621 11.6504C23.1769 11.3844 23.1078 11.1126 23.0553 10.8367C22.913 10.1846 22.8413 9.51649 22.8418 8.84618V2.61306L25.1766 1.88659L26.8443 1.3708L28.8455 0.753296L29.5993 0.985766L33.8819 2.31521L34.3889 2.47503L34.5223 2.51136L34.8492 2.61306Z" fill="#FF8B7A"/>
<path d="M32.848 1.99556V6.66677C32.8451 8.61893 32.2573 10.5167 31.1737 12.0718C30.09 13.6269 28.5699 14.7543 26.8443 15.2827C25.944 15.005 25.0937 14.5628 24.3294 13.9751C23.362 12.4722 22.8426 10.6815 22.8418 8.84618V2.61306L28.8455 0.753296L32.848 1.99556Z" fill="#FCB3A8"/>
<path d="M34.8503 8.84644V9.4712C34.8514 9.67541 34.8242 9.87865 34.7695 10.0742C34.8237 9.66754 34.8507 9.25724 34.8503 8.84644V8.84644Z" stroke="black" stroke-width="2" stroke-linecap="round" stroke-linejoin="round"/>
<path d="M16.8383 24.727C16.3632 24.7275 15.8916 24.6391 15.4441 24.4655L1.25532 19.1187C0.942218 18.9996 0.669969 18.7793 0.475016 18.4871C0.280063 18.195 0.171707 17.8449 0.164452 17.4839C0.157197 17.1228 0.25139 16.7679 0.434421 16.4668C0.617453 16.1656 0.88059 15.9325 1.18861 15.7987L7.99947 12.8928C8.16208 12.832 8.33996 12.8419 8.49601 12.9205C8.65205 12.9991 8.77422 13.1402 8.83703 13.3145C8.89984 13.4888 8.89844 13.6827 8.83312 13.8559C8.7678 14.0291 8.64361 14.1682 8.48644 14.244L1.68225 17.1499C1.62502 17.1742 1.57622 17.2174 1.54272 17.2734C1.50921 17.3294 1.49268 17.3955 1.49547 17.4623C1.49685 17.5274 1.51688 17.5904 1.55276 17.6425C1.58864 17.6946 1.63858 17.7332 1.69559 17.7529L15.9043 23.107C16.5201 23.3395 17.1898 23.3395 17.8055 23.107L31.9876 17.7456C32.0428 17.7261 32.0911 17.6883 32.1258 17.6375C32.1604 17.5868 32.1797 17.5255 32.181 17.4623C32.1811 17.3979 32.1632 17.3351 32.1299 17.2819C32.0966 17.2288 32.0493 17.1879 31.9943 17.1645L31.514 16.9392C30.7494 17.4944 29.9099 17.916 29.0258 18.1888C28.908 18.2247 28.7833 18.2247 28.6655 18.1888C27.5134 17.8357 26.4397 17.2301 25.5103 16.4089C24.6049 15.6213 23.8463 14.6522 23.2756 13.5539C23.2559 13.5088 23.2336 13.4651 23.2088 13.4231L17.8722 11.1493C17.1748 10.8552 16.4017 10.8552 15.7042 11.1493L10.9279 13.1907C10.8456 13.2304 10.7568 13.2516 10.6668 13.2529C10.5767 13.2543 10.4874 13.2358 10.4041 13.1985C10.3208 13.1613 10.2453 13.106 10.1822 13.0362C10.119 12.9663 10.0695 12.8832 10.0366 12.7919C10.0037 12.7007 9.98813 12.6031 9.99079 12.5051C9.99344 12.4071 10.0143 12.3107 10.0521 12.2217C10.0899 12.1327 10.1438 12.0529 10.2106 11.9872C10.2775 11.9215 10.3558 11.8713 10.441 11.8394L15.2173 9.79804C16.2276 9.36957 17.3488 9.36957 18.3592 9.79804L23.9226 12.1736C24.0807 12.2404 24.2095 12.3703 24.2828 12.5368C24.3295 12.6458 24.3829 12.7402 24.4296 12.8419C24.602 13.1698 24.7936 13.4853 25.0033 13.7864C25.9636 15.1893 27.3095 16.2225 28.8456 16.7358C29.6232 16.4771 30.3558 16.0793 31.0137 15.5589C31.1078 15.4814 31.2192 15.4325 31.3364 15.4172C31.4536 15.4019 31.5724 15.4207 31.6807 15.4718L32.5146 15.8277C32.8237 15.9585 33.0886 16.1893 33.2735 16.4891C33.4585 16.7889 33.5545 17.1433 33.5487 17.5044C33.5428 17.8655 33.4355 18.2159 33.241 18.5085C33.0466 18.8011 32.7744 19.0216 32.4612 19.1405L18.2525 24.4655C17.7991 24.6435 17.3202 24.732 16.8383 24.727Z" fill="#1A1715"/>
<path d="M16.8377 31.9917C16.7737 32.0028 16.7084 32.0028 16.6443 31.9917L7.97228 29.0858C7.83048 29.0391 7.70696 28.9424 7.6212 28.8109C7.53545 28.6794 7.49233 28.5205 7.49866 28.3593V20.9493C7.49914 20.834 7.52481 20.7206 7.57353 20.6183C7.62224 20.5159 7.69261 20.4277 7.77883 20.3609C7.86513 20.2922 7.96532 20.2471 8.07096 20.2294C8.1766 20.2117 8.2846 20.2219 8.38587 20.2592L15.9038 23.0924C16.5196 23.3249 17.1893 23.3249 17.805 23.0924L25.2896 20.2664C25.3904 20.2281 25.4981 20.2167 25.6037 20.2332C25.7093 20.2496 25.8098 20.2934 25.8967 20.3609C25.9829 20.4277 26.0532 20.5159 26.102 20.6183C26.1507 20.7206 26.1763 20.834 26.1768 20.9493V28.3593C26.1832 28.5205 26.14 28.6794 26.0543 28.8109C25.9685 28.9424 25.845 29.0391 25.7032 29.0858L22.9415 30.0084C22.7717 30.0643 22.5884 30.0444 22.432 29.9531C22.2756 29.8618 22.159 29.7066 22.1077 29.5217C22.0564 29.3367 22.0746 29.1371 22.1584 28.9668C22.2423 28.7965 22.3848 28.6694 22.5546 28.6136L24.8427 27.8217V22.0099L18.2519 24.5017C17.3495 24.8467 16.366 24.8467 15.4636 24.5017L8.83281 21.9664V27.8217L16.8377 30.5387L20.013 29.4781C20.0971 29.4504 20.1854 29.441 20.2728 29.4505C20.3602 29.46 20.4451 29.4882 20.5225 29.5334C20.6 29.5786 20.6684 29.6399 20.7241 29.714C20.7798 29.788 20.8215 29.8732 20.8469 29.9648C20.8723 30.0564 20.8809 30.1525 20.8722 30.2477C20.8635 30.3429 20.8376 30.4353 20.7961 30.5197C20.7546 30.604 20.6983 30.6786 20.6303 30.7392C20.5623 30.7998 20.484 30.8452 20.3999 30.8729L17.0312 31.9917C16.9671 32.0028 16.9018 32.0028 16.8377 31.9917Z" fill="#1A1715"/>
<path d="M28.1776 27.6328C28.0007 27.6328 27.831 27.5563 27.7059 27.42C27.5808 27.2838 27.5105 27.099 27.5105 26.9064V20.1865L16.6505 16.7358C16.4736 16.6818 16.3236 16.5535 16.2335 16.3792C16.1434 16.2048 16.1207 15.9986 16.1702 15.8059C16.2197 15.6132 16.3375 15.4499 16.4976 15.3518C16.6578 15.2537 16.8471 15.2289 17.024 15.2828L28.3644 18.9152C28.5074 18.9605 28.6324 19.0566 28.7195 19.1883C28.8065 19.3199 28.8506 19.4795 28.8447 19.6416V26.9064C28.8447 27.099 28.7744 27.2838 28.6493 27.42C28.5242 27.5563 28.3545 27.6328 28.1776 27.6328Z" fill="#5C5856"/>
<path d="M28.1793 11.6505C28.0915 11.6511 28.0045 11.6328 27.9232 11.5966C27.8419 11.5604 27.768 11.5072 27.7057 11.4398L26.038 9.62367C25.9124 9.48687 25.8418 9.30134 25.8418 9.10788C25.8418 8.91442 25.9124 8.72888 26.038 8.59208C26.1636 8.45528 26.334 8.37843 26.5116 8.37843C26.6892 8.37843 26.8596 8.45529 26.9852 8.59208L28.1793 9.89973L31.0411 6.77591C31.1667 6.63911 31.337 6.56226 31.5147 6.56226C31.6923 6.56226 31.8627 6.63911 31.9883 6.77591C32.1139 6.9127 32.1845 7.09824 32.1845 7.2917C32.1845 7.48516 32.1139 7.6707 31.9883 7.80749L28.6529 11.4398C28.5906 11.5072 28.5167 11.5604 28.4354 11.5966C28.3541 11.6328 28.2671 11.6511 28.1793 11.6505Z" fill="#1A1715"/>
<path d="M28.8453 18.1887C28.7857 18.1993 28.7249 18.1993 28.6652 18.1887C27.5131 17.8357 26.4394 17.23 25.5099 16.4089C24.6046 15.6213 23.846 14.6521 23.2752 13.5539C23.2085 13.4231 23.1418 13.2923 23.0885 13.1616C22.8915 12.747 22.7286 12.3143 22.6015 11.8685C22.5097 11.5807 22.434 11.2871 22.3747 10.9894C22.2331 10.2857 22.166 9.56667 22.1746 8.84634V2.61322C22.169 2.45016 22.214 2.28983 22.3024 2.15804C22.3907 2.02625 22.5172 1.93069 22.6615 1.88675L28.6652 0.0269809C28.783 -0.00899363 28.9076 -0.00899363 29.0254 0.0269809L35.0292 1.88675C35.1734 1.93069 35.2999 2.02625 35.3883 2.15804C35.4766 2.28983 35.5217 2.45016 35.5161 2.61322V3.65933C35.5161 3.85201 35.4458 4.03679 35.3207 4.17303C35.1956 4.30927 35.026 4.38581 34.849 4.38581C34.6721 4.38581 34.5024 4.30927 34.3773 4.17303C34.2522 4.03679 34.182 3.85201 34.182 3.65933V3.16533L28.8453 1.47992L23.5087 3.12901V8.81728C23.5093 9.43112 23.5742 10.0429 23.7022 10.6407C23.7496 10.8871 23.812 11.1298 23.8889 11.3672C24.0037 11.7485 24.1441 12.12 24.3092 12.4787C24.3626 12.6022 24.4159 12.6966 24.4626 12.7983C24.635 13.1262 24.8267 13.4417 25.0363 13.7427C25.9819 15.1557 27.316 16.204 28.8453 16.7358C29.6229 16.477 30.3555 16.0793 31.0133 15.5589C31.8478 14.909 32.5525 14.0813 33.0845 13.126C33.6166 12.1707 33.965 11.1077 34.1086 10.0014C34.1582 9.61878 34.1827 9.23277 34.182 8.84634V6.56522C34.182 6.37255 34.2522 6.18776 34.3773 6.05152C34.5024 5.91528 34.6721 5.83875 34.849 5.83875C35.026 5.83875 35.1956 5.91528 35.3207 6.05152C35.4458 6.18776 35.5161 6.37255 35.5161 6.56522V8.84634C35.5189 9.29849 35.4899 9.75022 35.4294 10.1976C35.2617 11.4988 34.853 12.7493 34.228 13.8732C33.6031 14.9971 32.7749 15.971 31.7938 16.7358C30.9578 17.3957 30.0203 17.8878 29.0254 18.1887C28.9658 18.1993 28.905 18.1993 28.8453 18.1887Z" fill="#1A1715"/>
</svg>
