<svg width="38" height="39" viewBox="0 0 38 39" fill="none" xmlns="http://www.w3.org/2000/svg">
<path d="M19 0.719238C8.5063 0.719238 0 9.22554 0 19.7192C0 30.2126 8.5063 38.7192 19 38.7192C29.4929 38.7192 38 30.2126 38 19.7192C38 9.22554 29.4929 0.719238 19 0.719238ZM29.7479 30.4672C26.877 33.3381 23.0599 34.9192 19 34.9192C14.9397 34.9192 11.123 33.3381 8.25209 30.4672C5.38119 27.5963 3.8 23.7792 3.8 19.7192C3.8 15.6589 5.38119 11.8418 8.25209 8.97094C11.1226 6.10042 14.9397 4.51924 19 4.51924C23.0599 4.51924 26.877 6.10042 29.7479 8.97132C32.6188 11.8422 34.2 15.6593 34.2 19.7192C34.2 23.7792 32.6188 27.5963 29.7479 30.4672ZM23.7101 16.9373V25.287C23.7101 25.6256 23.4319 25.9037 23.0858 25.9037H10.9147C9.03412 25.9113 7.49208 24.3917 7.48448 22.5035V14.1541C7.48448 13.8156 7.76264 13.5374 8.10882 13.5374H20.2798C22.1605 13.5298 23.7025 15.0494 23.7101 16.9373ZM30.2845 14.1241V25.3174C30.2845 26.0622 29.8707 25.9718 29.5097 25.7012L24.4849 22.038V17.4111L29.5097 13.7403C29.9459 13.3793 30.2845 13.4698 30.2845 14.1241Z" fill="#4888F7"/>
</svg>
