<svg width="41" height="43" viewBox="0 0 41 43" fill="none" xmlns="http://www.w3.org/2000/svg">
<path d="M40.7897 7.14917L40.7825 5.21841C40.7825 5.09646 40.7773 4.97753 40.7671 4.86616C40.7652 4.83746 40.7618 4.80839 40.7588 4.78461C40.6829 4.04424 40.4137 3.32313 39.9806 2.70056C39.9576 2.66734 39.9342 2.63336 39.9093 2.599C39.7198 2.34001 39.5015 2.09951 39.2607 1.88469C38.802 1.47128 38.2715 1.15338 37.6837 0.940826C37.4394 0.852481 37.1883 0.786788 36.9459 0.72336L36.8485 0.69882C36.5733 0.651627 36.2943 0.627842 36.0187 0.627842H34.1589C33.9633 0.633127 33.7802 0.710524 33.6436 0.845685C33.6356 0.853613 33.6273 0.861542 33.6198 0.86947L33.5428 0.871358V0.97103C33.4065 1.19038 33.3846 1.42446 33.4782 1.66722C33.4831 1.68006 33.4873 1.69176 33.4925 1.70309L33.4937 1.81484H33.5518C33.6466 1.96322 33.7882 2.05874 33.9845 2.10706C34.043 2.1199 34.1015 2.1282 34.1408 2.12896L34.1782 2.13311C34.2556 2.13764 34.3379 2.13726 34.4175 2.13651H34.4507C34.5304 2.135 34.6105 2.13462 34.6909 2.13424L34.7924 2.13349C35.0001 2.13236 35.2062 2.13273 35.4124 2.13311L35.8979 2.13424C37.8509 2.14708 39.232 3.48736 39.2565 5.39434C39.2633 5.86099 39.2622 6.33631 39.261 6.79541L39.2603 7.14841C39.2592 7.29452 39.2592 7.44139 39.2592 7.5875L39.2599 11.1915C39.261 13.8944 39.2618 16.5972 39.258 19.3001C39.2542 21.3033 37.8789 22.6549 35.8344 22.6632L35.4773 22.6662C35.0658 22.6704 34.641 22.6742 34.2254 22.6602C33.8478 22.6444 33.5243 22.7501 33.2188 22.9864C32.4347 23.5909 31.6078 24.2081 30.8788 24.7537L30.0671 25.3615C30.0131 25.4012 29.9595 25.4397 29.8979 25.4816V25.1932C29.8983 24.6623 29.8983 24.1685 29.8968 23.6754C29.8957 22.9109 29.6461 22.6647 28.8695 22.6636C28.199 22.664 27.5262 22.6644 26.8549 22.6659C25.1696 22.6689 23.4261 22.6723 21.7018 22.65C21.3515 22.6451 20.9879 22.5568 20.6311 22.4699C20.485 22.4337 20.3419 22.3989 20.1992 22.3691C20.035 22.334 19.9523 22.2627 19.9545 21.9693C19.9625 20.6158 19.9621 19.2385 19.9617 17.9069C19.9617 17.1458 19.9613 16.385 19.9625 15.6243C19.9644 14.3376 19.4619 13.2699 18.4682 12.4514C18.3775 12.377 18.2971 12.2268 18.2964 12.1301L18.2949 11.8092C18.2869 10.3666 18.2783 8.73183 18.2847 7.14917C18.2869 6.43146 18.2922 5.8002 18.3001 5.21916C18.3198 3.7407 19.4317 2.47177 20.9441 2.20145C21.1876 2.15765 21.4617 2.13651 21.7834 2.13651C22.8431 2.13424 23.9037 2.13311 24.9638 2.13311H30.2506C30.4552 2.13311 30.6496 2.05345 30.8018 1.90356C30.9539 1.76614 31.0283 1.57623 31.0166 1.35499C31.0098 1.1262 30.8988 0.916286 30.7123 0.779615C30.579 0.679565 30.4193 0.626709 30.2502 0.626709H21.6123C21.3432 0.626709 21.0755 0.648607 20.8142 0.691647C20.2052 0.818502 19.6529 1.01369 19.1727 1.27118C18.057 1.86392 17.317 2.77343 16.9742 3.97062C16.9663 3.99176 16.9599 4.01215 16.9565 4.02725C16.8209 4.51542 16.7518 5.05153 16.7518 5.61974L16.7511 11.3965C16.7511 11.4838 16.7454 11.5706 16.739 11.6729C16.6997 11.668 16.6597 11.6631 16.6148 11.6574C16.4475 11.6367 16.2893 11.6174 16.1281 11.6174L13.3045 11.6136C10.4253 11.6099 7.44839 11.6057 4.52015 11.6216C2.67962 11.6329 1.10111 12.9279 0.767357 14.7012C0.673348 15.2041 0.675236 15.7266 0.676746 16.234C0.677123 16.3926 0.677501 16.5512 0.675613 16.7086C0.663532 17.4052 1.13169 17.5181 1.41183 17.5233H1.43486C1.91434 17.5233 2.18692 17.233 2.2024 16.706L2.20467 16.6195C2.21297 16.3239 2.22166 16.0184 2.20089 15.716C2.15332 15.0263 2.38136 14.3825 2.84347 13.9031C3.33353 13.3949 4.0569 13.1034 4.82785 13.1034H4.86749C7.40383 13.1348 9.98058 13.1283 12.4724 13.1227C13.0153 13.1215 13.5582 13.1208 14.1011 13.1204C14.6444 13.12 15.1873 13.1193 15.7298 13.1181C17.4431 13.1189 18.4255 14.0767 18.4255 15.7455C18.4266 19.2714 18.4266 22.7976 18.4266 26.3224V26.7264C18.3066 26.7256 18.1884 26.7233 18.0714 26.7211L18.0472 26.7207C17.6991 26.7143 17.3706 26.7097 17.0373 26.7332C15.8522 26.8166 14.9868 27.3935 14.6013 28.3581C14.3491 28.9909 13.9195 29.3495 13.3403 29.7871L13.2433 29.8604C12.7518 30.2338 12.2598 30.6075 11.7656 30.979C11.729 31.007 11.6905 31.0326 11.6444 31.0621V30.085C11.6433 29.2053 11.4251 28.9901 10.5329 28.989C9.94395 28.989 9.35499 28.9897 8.76602 28.9905L8.48059 28.9909C7.26528 28.9916 6.00805 28.9935 4.77197 28.9867C3.19384 28.9765 2.20995 28.0021 2.20505 26.4447C2.20278 25.7493 2.20354 25.0535 2.20429 24.3576L2.20542 22.5922C2.20618 21.9742 2.20731 21.2742 2.20127 20.5867C2.19938 20.2926 2.11104 20.0597 1.94605 19.9128C1.79692 19.7799 1.58852 19.7214 1.34387 19.7433C0.885906 19.7856 0.672215 20.0604 0.672215 20.6083C0.668818 22.735 0.669195 24.691 0.673348 26.5897C0.674103 26.7864 0.681654 27.0454 0.731112 27.3036C1.1045 29.228 2.69585 30.4803 4.78481 30.4939C5.83665 30.5014 6.90585 30.4992 7.93919 30.498L8.18195 30.4977C8.69428 30.4965 9.20699 30.4958 9.71932 30.4958H10.1108L10.1112 30.9885C10.112 31.4985 10.1131 31.9803 10.1082 32.4669C10.1052 32.7218 10.1478 33.0823 10.5484 33.2715C10.9418 33.4576 11.2593 33.2707 11.4639 33.114C12.0744 32.6451 12.7064 32.1679 13.2641 31.7469L13.4294 31.622C13.6363 31.4657 13.8444 31.3109 14.0735 31.1406L14.2468 31.0107V31.2573C14.2468 31.7839 14.2461 32.3102 14.2453 32.8373L14.2449 33.1854C14.2427 34.594 14.24 36.051 14.2517 37.4834C14.2653 39.2763 15.5497 40.5347 17.3755 40.543C17.8494 40.5456 18.3228 40.5464 18.7966 40.5449L20.9396 40.5441L20.9403 40.8473C20.9411 41.1308 20.9418 41.3981 20.9369 41.6666C20.9335 41.9274 20.9784 42.2978 21.4088 42.4987C21.5138 42.5477 21.6199 42.5727 21.7237 42.5727C21.9608 42.5727 22.1575 42.4462 22.3191 42.3227C22.5022 42.183 22.6887 42.046 22.879 41.9052C23.2615 41.6231 23.6564 41.3317 24.0233 41.0179C24.4432 40.6593 24.8581 40.5124 25.4176 40.5267C25.441 40.5271 25.4637 40.5275 25.4867 40.5275C26.7957 40.5275 27.9509 39.6221 28.2503 38.3506C28.3655 37.8647 28.3678 37.352 28.3696 36.8559L28.37 36.7781C28.3708 36.7 28.3711 36.6218 28.3723 36.544C28.3791 36.0687 28.1012 35.7806 27.6293 35.7731C27.6232 35.7731 27.6179 35.7731 27.6123 35.7731C27.2766 35.7731 26.8802 35.9109 26.8523 36.5523C26.8451 36.7162 26.8451 36.8823 26.8451 37.0428C26.8451 37.2682 26.8451 37.523 26.821 37.7627C26.7492 38.4631 26.164 38.9977 25.4297 39.0328L25.3689 39.0358C25.1896 39.0441 25.005 39.0521 24.8317 39.0339C24.3835 38.983 23.989 39.114 23.5888 39.447C23.317 39.6739 23.0281 39.8857 22.722 40.1103L22.6933 40.1315C22.62 40.1851 22.546 40.2391 22.4709 40.2946V40.2542C22.4709 40.1756 22.4709 40.1073 22.4705 40.0397C22.4667 39.2733 22.2259 39.0392 21.4387 39.0381C20.9973 39.0373 20.5552 39.0373 20.1124 39.0381H18.7849C18.3424 39.0388 17.9007 39.0388 17.459 39.0381C16.363 39.0358 15.7827 38.4676 15.7808 37.395C15.7763 34.8979 15.7763 32.3661 15.7808 29.869C15.7827 28.7927 16.3607 28.2229 17.4526 28.2211C19.8111 28.215 22.3331 28.215 25.1635 28.2211C26.2577 28.2229 26.8398 28.7904 26.847 29.8619C26.8504 30.3127 26.8496 30.7642 26.8489 31.2154V31.483C26.8485 31.8096 26.8481 32.137 26.8493 32.465C26.853 33.0918 27.092 33.387 27.6013 33.3949C27.6047 33.3949 27.6078 33.3949 27.6104 33.3949C27.8415 33.3949 28.0159 33.3357 28.1427 33.2133C28.3039 33.0582 28.3795 32.8143 28.381 32.4465C28.3844 31.6091 28.3844 30.7604 28.381 29.923C28.373 27.9194 27.1502 26.7196 25.1103 26.7135C23.9977 26.7105 22.8835 26.7105 21.7705 26.7116L19.9776 26.7124V23.9608C21.6527 24.2331 23.3555 24.2036 25.0061 24.1738L25.0238 24.1734C26.118 24.1549 27.2487 24.1353 28.3628 24.2044L28.3636 24.8379C28.3647 25.4937 28.3659 26.1717 28.3594 26.8362C28.3557 27.1269 28.4029 27.4852 28.8027 27.6782C29.1798 27.8601 29.4804 27.6978 29.7484 27.4947C30.0648 27.2553 30.3925 27.0182 30.7093 26.789L30.7557 26.7554C31.4546 26.2499 32.1776 25.727 32.8364 25.1505C33.7972 24.3097 34.7475 23.9986 35.8243 24.1674C35.9137 24.1817 35.9979 24.1749 36.0863 24.1689L36.1437 24.1647C38.7729 24.036 40.7659 22.0648 40.7795 19.5794C40.8018 15.9426 40.8048 11.9927 40.7897 7.14917Z" fill="#EE3CA7"/>
<path d="M8.50777 21.5517C8.49305 21.733 8.44284 21.7768 8.24462 21.7707C7.82555 21.759 7.32983 21.7511 6.83148 21.7768C6.58607 21.7896 6.37805 21.9278 6.28895 22.1366C6.20928 22.3227 6.24439 22.5254 6.38258 22.6795C6.51774 22.8297 6.77598 22.9117 6.97268 22.926C7.29586 22.9475 7.61488 22.9441 7.95241 22.9392C8.05774 22.9381 8.16459 22.9366 8.27256 22.9362L8.23783 23.1378C8.1627 23.572 8.09285 23.9775 8.02527 24.3841C7.95203 24.8198 8.11928 25.1207 8.47342 25.1882C8.51797 25.1969 8.56176 25.2011 8.60405 25.2011C8.71807 25.2011 8.82265 25.1705 8.91099 25.1101C9.05974 25.0089 9.16017 24.8269 9.2017 24.5834L9.48259 22.9539H10.5469C10.548 22.9581 10.5488 22.9615 10.5492 22.9626L10.4404 23.6214C10.394 23.8997 10.3479 24.1783 10.3026 24.4566C10.2418 24.8266 10.4321 25.1278 10.7647 25.1898C11.1143 25.2532 11.3979 25.0486 11.4681 24.6805C11.5172 24.4241 11.5598 24.1666 11.6021 23.9091C11.6331 23.723 11.6637 23.5376 11.6965 23.3522C11.7701 22.9358 11.7701 22.9358 12.2085 22.9358H13.4442C13.8323 22.9358 14.0773 22.8716 14.2159 22.7338C14.3118 22.6383 14.3571 22.5099 14.3552 22.3416C14.3491 21.8651 13.9803 21.7669 13.4283 21.7658H11.9649L12.1552 20.6849L12.5539 20.686C12.9401 20.6875 13.3045 20.6891 13.673 20.6804C13.8398 20.6762 14.0569 20.646 14.1411 20.5271C14.2427 20.387 14.3499 20.1477 14.3178 19.9343C14.2804 19.6784 14.0509 19.5187 13.719 19.5175C13.3838 19.5153 13.0481 19.5156 12.7129 19.516L12.3606 19.5164C12.3584 19.493 12.3568 19.4756 12.358 19.4669L12.4573 18.8625C12.5045 18.5767 12.5517 18.2913 12.5981 18.0058C12.6608 17.6249 12.4841 17.3361 12.1481 17.2696C11.9785 17.236 11.8249 17.2621 11.7018 17.3436C11.5648 17.4346 11.4715 17.5921 11.4322 17.7982C11.3884 18.0281 11.3496 18.2588 11.3107 18.4895C11.2638 18.7677 11.217 19.0456 11.1619 19.3216C11.1472 19.3933 11.0709 19.4934 11.0426 19.5028C10.787 19.5213 10.5314 19.519 10.2607 19.5164C10.1954 19.5156 10.1297 19.5153 10.0633 19.5149L10.0844 19.3741C10.0987 19.2785 10.112 19.1906 10.1263 19.103C10.1456 18.9818 10.1667 18.8606 10.1871 18.7394C10.232 18.477 10.2785 18.2056 10.3109 17.9367C10.3555 17.5728 10.1626 17.3081 9.81936 17.2621C9.48222 17.2205 9.23757 17.3999 9.14658 17.7612C9.13299 17.8148 9.12468 17.8688 9.11637 17.9232L8.84379 19.5156L8.05736 19.5145C7.66812 19.5126 7.26641 19.5115 6.87074 19.5202C6.5117 19.5281 6.25987 19.7671 6.25874 20.1008C6.25648 20.4335 6.49357 20.6615 6.86281 20.6819C6.98929 20.6887 7.11539 20.6875 7.24149 20.6864L8.64558 20.6857C8.63123 20.7661 8.61688 20.8435 8.60292 20.9186C8.56327 21.138 8.52476 21.3448 8.50777 21.5517ZM9.71856 21.5347C9.75933 21.2754 9.79784 21.03 9.84844 20.7861C9.8541 20.7585 9.91715 20.6989 9.94433 20.6947C10.2011 20.6834 10.4589 20.6853 10.7308 20.6868L10.9346 20.6875L10.7606 21.7413H9.68534L9.71856 21.5347Z" fill="#EE3CA7"/>
<path d="M23.7625 31.6224C23.0225 31.0319 22.2342 30.9696 21.4187 31.4385L21.4179 31.4389C21.3598 31.471 21.2367 31.4657 21.1823 31.4291C20.8773 31.2154 20.5043 31.1066 20.1214 31.1066C19.8047 31.1066 19.4811 31.1806 19.1832 31.3309C18.5471 31.6507 18.1661 32.2506 18.1639 32.9347C18.1563 33.9605 18.4572 34.6801 19.11 35.2C19.7073 35.6745 20.3797 36.0755 21.0302 36.4636C21.1831 36.5535 21.4764 36.5361 21.6271 36.4523C22.2874 36.0827 22.8122 35.7527 23.2784 35.4144C23.7983 35.0369 24.1559 34.557 24.3405 33.9896C24.6403 33.0699 24.413 32.1407 23.7625 31.6224ZM22.8575 34.312C22.4916 34.6129 22.0945 34.8783 21.7101 35.135L21.447 35.3117C21.4156 35.3329 21.3635 35.3434 21.3137 35.3434C21.2692 35.3434 21.2265 35.3351 21.2016 35.3178C21.1038 35.2502 21.0053 35.1837 20.9075 35.1173L20.8365 35.0697C20.4461 34.8066 20.0421 34.5344 19.6895 34.2176C19.3037 33.8721 19.1764 33.3832 19.3316 32.8414C19.4313 32.4918 19.6574 32.2865 20.0036 32.2306C20.0504 32.2227 20.1003 32.2181 20.1505 32.2181C20.4084 32.2181 20.6198 32.3408 20.7965 32.5938C20.9456 32.8071 21.131 32.9264 21.3186 32.9298C21.4946 32.929 21.658 32.8365 21.7905 32.6617C22.0986 32.2547 22.3414 32.1517 22.7231 32.2691C23.1116 32.3899 23.3449 32.7406 23.3475 33.2069C23.354 33.6603 23.1844 34.0432 22.8575 34.312Z" fill="#EE3CA7"/>
<path d="M29.6503 6.69234C29.2097 6.73538 28.8842 6.98305 28.7343 7.39004C28.6758 7.54974 28.6645 7.72379 28.6535 7.8918L28.6502 7.94465C28.6434 8.04546 28.6313 8.14589 28.6147 8.24367C28.541 8.67558 28.3696 9.05615 28.105 9.37442C27.7807 9.76668 27.4375 10.148 27.1052 10.5165C26.9739 10.6626 26.8436 10.8072 26.716 10.9507C26.656 10.9344 26.6001 10.9171 26.5472 10.9008C26.4087 10.8582 26.2897 10.8219 26.1636 10.8189C25.2949 10.8057 24.4409 10.8095 23.719 10.8155C23.2701 10.8193 23.0784 11.013 23.0772 11.463C23.0746 13.3277 23.0746 15.1912 23.0772 17.0559C23.078 17.5301 23.2724 17.7151 23.7704 17.7163L24.2601 17.7189C24.8366 17.7223 25.4335 17.7261 26.0198 17.7095C26.2018 17.7042 26.3762 17.6551 26.5453 17.6072C26.611 17.5887 26.6756 17.5702 26.7386 17.5554C26.8829 17.5917 27.0312 17.637 27.1751 17.6808C27.516 17.7846 27.8683 17.8922 28.225 17.9028C29.1028 17.9292 30.021 17.942 31.0306 17.942C31.7007 17.942 32.4112 17.9364 33.1765 17.9247C33.9316 17.9133 34.4606 17.3546 34.4636 16.5666C34.4674 15.4317 34.467 14.2965 34.4666 13.1612L34.4662 12.1879C34.4655 11.2376 33.9324 10.7139 32.9659 10.7128C32.4792 10.7121 31.9922 10.7124 31.4957 10.7128H30.841L30.8622 10.6566C30.8988 10.5595 30.9309 10.4742 30.9611 10.3881C31.2178 9.65569 31.2616 8.93231 31.091 8.23801C31.0053 7.89067 30.866 7.5471 30.6768 7.21637C30.4597 6.83467 30.0931 6.6493 29.6503 6.69234ZM25.6755 16.5836H24.2223V11.95H25.6755V16.5836ZM31.8736 11.8213C32.2315 11.8217 32.5895 11.8217 32.9477 11.8228C33.3128 11.8243 33.3343 11.8443 33.3355 12.183C33.3362 13.6112 33.3362 15.0391 33.3347 16.4673C33.3347 16.7879 33.2947 16.8287 32.9768 16.8287C31.5002 16.8321 30.0233 16.8321 28.5471 16.8287C27.9411 16.8268 27.4216 16.6478 27.0033 16.2967C26.9146 16.2223 26.8413 16.0856 26.8398 15.9916C26.8255 14.9364 26.8251 13.8185 26.8391 12.6685C26.8406 12.5635 26.8995 12.4265 26.9859 12.3279C27.5806 11.6484 28.1227 11.0451 28.6441 10.484C29.2848 9.79311 29.648 9.06747 29.7537 8.26632C29.7673 8.16816 29.7764 8.06434 29.782 7.94805C29.782 7.94767 29.782 7.9473 29.782 7.94692C29.8375 8.06056 29.8832 8.17118 29.921 8.28067C30.1007 8.79413 30.1109 9.29626 29.9515 9.81539C29.8696 10.0819 29.7564 10.3462 29.6469 10.6018C29.5989 10.7136 29.551 10.8253 29.5053 10.9378C29.4007 11.1957 29.4022 11.415 29.5106 11.5725C29.6189 11.7307 29.8277 11.8156 30.1139 11.8171C30.6998 11.8205 31.2865 11.8209 31.8736 11.8213Z" fill="#EE3CA7"/>
</svg>
