<svg width="753" height="577" viewBox="0 0 753 577" fill="none" xmlns="http://www.w3.org/2000/svg">
<path opacity="0.1" d="M85.3686 168.654C85.3686 168.654 141.318 54.6641 237.581 36.7946C333.82 18.9251 439.031 90.4271 499.478 101.62C559.925 112.788 633.77 97.1522 703.165 188.781C772.56 280.41 727.941 429.395 586.769 436.865C445.598 444.334 371.897 389.933 304.739 430.163C237.581 470.394 0.314514 412.27 85.3686 168.654Z" fill="url(#paint0_linear_7035_14902)"/>
<path d="M623.135 264.991C608.456 264.991 596.556 253.109 596.556 238.451C596.556 223.793 608.456 211.911 623.135 211.911C637.815 211.911 649.715 223.793 649.715 238.451C649.715 253.109 637.815 264.991 623.135 264.991Z" fill="white"/>
<path d="M587.274 266.312C575.53 266.312 566.01 256.806 566.01 245.08C566.01 233.354 575.53 223.848 587.274 223.848C599.017 223.848 608.537 233.354 608.537 245.08C608.537 256.806 599.017 266.312 587.274 266.312Z" fill="white"/>
<path d="M654.38 266.312C647.405 266.312 641.751 260.667 641.751 253.703C641.751 246.739 647.405 241.093 654.38 241.093C661.354 241.093 667.008 246.739 667.008 253.703C667.008 260.667 661.354 266.312 654.38 266.312Z" fill="white"/>
<path d="M666.335 237.13C663.027 237.13 660.345 234.452 660.345 231.149C660.345 227.847 663.027 225.169 666.335 225.169C669.643 225.169 672.324 227.847 672.324 231.149C672.324 234.452 669.643 237.13 666.335 237.13Z" fill="white"/>
<path d="M624.461 274.286C615.653 274.286 608.513 267.156 608.513 258.362C608.513 249.567 615.653 242.438 624.461 242.438C633.268 242.438 640.408 249.567 640.408 258.362C640.408 267.156 633.268 274.286 624.461 274.286Z" fill="white"/>
<path d="M324.747 260.115C306.667 260.115 292.01 245.48 292.01 227.426C292.01 209.373 306.667 194.738 324.747 194.738C342.827 194.738 357.484 209.373 357.484 227.426C357.484 245.48 342.827 260.115 324.747 260.115Z" fill="white"/>
<path d="M355.78 184.41C347.212 184.41 340.266 177.474 340.266 168.918C340.266 160.363 347.212 153.427 355.78 153.427C364.349 153.427 371.295 160.363 371.295 168.918C371.295 177.474 364.349 184.41 355.78 184.41Z" fill="#FDFBF9"/>
<path d="M247.202 280.795C224.352 280.795 205.829 262.299 205.829 239.484C205.829 216.668 224.352 198.172 247.202 198.172C270.051 198.172 288.574 216.668 288.574 239.484C288.574 262.299 270.051 280.795 247.202 280.795Z" fill="white"/>
<path d="M-0.000427246 515.404L46.5676 512.594C46.5676 512.594 58.4743 510.072 67.1337 508.799C75.793 507.526 79.0402 507.478 79.0402 507.478L35.6473 501.834L70.2365 491.89L37.6196 480.121C37.6196 480.121 40.8669 480.097 51.6911 477.575C60.0378 475.654 49.7427 476.014 65.9069 474.453L60.5428 474.165L96.7438 460.571L66.7488 458.433C66.7488 458.433 94.0016 458.193 111.2 452.02C128.398 445.847 138.381 443.35 152.861 439.603C167.366 435.856 159.211 439.555 159.211 439.555L195.484 434.415L209.099 434.295L210.061 440.323L227.211 429.323L227.308 441.38L246.31 432.782L250.977 446.016L257.23 435.111L267.213 435.015L258.962 426.657L286.239 428.819L272.553 420.508L300.72 422.67L347.023 422.262L372.448 422.045L357.823 412.534C357.823 412.534 376.946 417.194 399.653 419.403C422.384 421.613 428.758 425.168 436.936 425.096C445.114 425.024 462.361 423.655 462.361 423.655L476.889 423.535L476.986 433.19L495.916 416.137L497.864 430.596L511.407 422.045L510.589 431.701L520.475 420.748L538.66 424.207L530.409 414.624C530.409 414.624 567.789 429.971 583.231 432.253C598.698 434.535 622.343 437.945 622.343 437.945L655.056 441.284L638.843 455.887L690.655 460.258L677.065 464.005C677.065 464.005 659.866 470.178 657.148 472.628C656.86 472.892 656.282 473.252 655.465 473.66C657.341 474.309 658.471 474.741 658.471 474.741L652.434 475.15C651.159 475.75 649.668 476.398 648.104 477.071L673.697 479.425L704.125 488.816L713.915 492.347L673.818 492.707C673.818 492.707 708.599 503.251 711.871 505.629C715.142 508.006 735.78 513.867 735.78 513.867L752.064 517.349L690.343 522.705L709.97 536.996L670.979 540.959C670.979 540.959 642.836 544.826 624.435 547.396C606.034 549.966 561.751 566.034 561.751 566.034L571.421 556.307L549.772 560.126L537.745 549.39L538.924 559.021L522.592 550.711L520.547 565.193L497.648 548.501L497.744 558.156L480.401 558.3C480.401 558.3 459.811 557.268 450.045 557.364C440.304 557.46 432.727 561.134 405.666 563.776C378.606 566.418 355.875 571.438 355.875 571.438L373.122 561.639L342.79 561.903L287.514 562.383L253.935 565.097L270.123 556.523L237.627 559.213L247.296 550.687L235.366 550.783L227.693 539.998L222.401 553.305L199.574 545.066L199.67 557.123L178.984 546.459L177.949 552.488L161.689 552.632L118.296 548.189C118.296 548.189 128.086 551.719 110.719 548.261C93.3522 544.802 81.3975 542.496 60.7593 536.636C40.1212 530.776 7.60059 531.064 7.60059 531.064L43.3444 528.35L-0.000427246 515.404Z" fill="#F5EFEB"/>
<path d="M357.726 206.674C357.726 206.674 365.953 209.557 371.052 221.71C376.151 233.863 380.313 357.364 376.945 367.692C373.602 378.02 354.407 384.913 339.421 367.308C324.436 349.702 319.745 259.226 318.976 242.485C318.182 225.721 332.614 200.141 357.726 206.674Z" fill="url(#paint1_linear_7035_14902)"/>
<path d="M236.618 369.613L211.193 375.233L216.076 394.184L237.412 391.854L236.618 369.613Z" fill="#8AD4DF"/>
<path d="M211.189 375.233L184.633 368.484L153.82 383.904C153.82 383.904 146.725 390.221 152.642 391.301C158.559 392.382 173.833 387.29 179.053 387.579C184.273 387.867 189.228 392.646 198.849 394.688C208.471 396.729 216.096 394.184 216.096 394.184L211.189 375.233Z" fill="#F6BA99"/>
<path d="M235.824 369.709C253.022 364.738 270.197 356.259 288.79 351.023C319.603 342.353 350.32 340.72 350.32 340.72C379.593 340.816 384.043 372.952 371.343 377.107C359.244 381.046 269.042 395.673 237.412 391.854L235.824 369.709Z" fill="url(#paint2_linear_7035_14902)"/>
<path d="M351.834 428.938C351.834 428.938 276.041 375.882 218.649 375.474C161.232 375.042 155.315 386.715 158.177 411.213C161.04 435.736 258.746 480.481 298.242 497.894C337.739 515.308 371.799 519.631 392.269 506.949C412.738 494.268 383.489 446.928 351.834 428.938Z" fill="#363A46"/>
<path d="M173.935 379.773C173.935 379.773 141.078 392.215 146.826 409.772C152.575 427.329 168.403 444.19 182.715 455.526C197.027 466.863 272.002 508.727 280.156 512.665L302.719 497.582L208.163 402.062C208.139 402.062 202.463 385.61 173.935 379.773Z" fill="#363A46"/>
<path d="M471.813 418.154C471.813 418.154 477.658 458.216 474.219 473.06C470.779 487.903 449.852 495.709 401.6 496.189C346.517 496.717 349.716 462.804 348.923 451.611C348.129 440.443 351.256 421.108 351.256 421.108C351.256 421.108 407.494 441.788 471.813 418.154Z" fill="#2C303C"/>
<path d="M471.621 404.728L475.277 417.698C475.35 422.021 474.796 430.067 470.755 431.58C461.735 434.967 447.616 438.257 414.59 441.332C364.293 446.015 351.28 421.108 351.28 421.108L354.407 401.798C354.383 401.798 414.518 424.495 471.621 404.728Z" fill="#FF6B80"/>
<path d="M416.247 190.27C416.247 190.27 448.31 190.462 451.317 207.972C453.314 219.524 478.498 401.438 475.9 404.92C468.492 414.84 459.111 420.412 432.074 422.502C402.897 424.735 356.882 428.002 352.384 407.923C347.886 387.843 325.155 225.097 341.608 209.197C358.037 193.321 396.835 187.965 416.247 190.27Z" fill="url(#paint3_linear_7035_14902)"/>
<path d="M424.07 360.559L450.746 412.558C450.746 412.558 427.943 418.995 389.193 412.126C389.193 412.126 378.44 401.822 382.313 388.924C386.186 376.027 424.07 360.559 424.07 360.559Z" fill="#FF7083"/>
<path d="M450.746 412.558C450.746 412.558 447.114 413.567 440.331 414.383L414.641 364.786C420.102 362.168 424.046 360.559 424.046 360.559L450.746 412.558Z" fill="#FF7083"/>
<path d="M377.474 160.632C413.386 155.492 456.515 169.663 449.611 185.563C445.065 196.059 403.813 204.417 388.394 216.474C372.976 228.532 359.506 245.344 352.097 239.244C344.689 233.143 328.501 210.926 333.672 191.688C338.748 172.81 356.932 163.563 377.474 160.632Z" fill="url(#paint4_linear_7035_14902)"/>
<path d="M376.13 151.481C376.13 151.481 378.968 169.23 374.615 190.871C370.261 212.511 360.663 246.04 355.035 200.982C352.942 184.266 347.193 176.316 347.193 176.316L376.13 151.481Z" fill="#F2957E"/>
<path d="M275.031 53.4634C297.329 37.4193 335.622 35.5939 356.357 55.481C375.071 73.4465 387.29 102.052 388.853 127.776C390.826 160.32 363.813 188.517 333.698 191.688C323.283 192.769 318.256 188.181 310.27 183.426C295.188 174.419 283.378 165.364 281.502 157.702C278.615 145.981 288.237 142.042 267.214 114.95C251.098 94.1742 259.18 64.8961 275.031 53.4634Z" fill="#F6BA99"/>
<path d="M390.754 96.2393C390.754 96.2393 374.061 102.556 366.291 94.8223C358.522 87.0884 369.37 77.7694 355.491 77.4331C341.612 77.0969 331.726 76.7846 325.905 68.5464C314.72 52.7905 306.205 70.7321 287.804 88.6496C269.403 106.543 263.798 115.046 245.83 123.38C227.862 131.714 233.37 90.547 233.37 90.547C233.37 90.547 219.227 100.611 218.577 86.1037C217.904 71.6208 242.871 32.8555 278.158 17.2197C313.469 1.55987 346.254 5.42679 352.268 9.24567C352.268 9.24567 348.78 1.41577 354.529 0.118789C360.278 -1.17819 366.772 8.57317 366.772 8.57317C366.772 8.57317 376.442 5.54688 378.005 8.64522C379.569 11.7436 367.35 18.7809 367.35 18.7809C367.35 18.7809 383.802 22.864 387.29 38.4277C390.778 54.0155 390.754 96.2393 390.754 96.2393Z" fill="#1A1715"/>
<path d="M369.323 102.604C369.323 102.604 370.886 76.6165 384.116 75.6798C397.346 74.7431 402.252 91.0755 398.572 106.327C394.892 121.578 376.924 118.408 376.924 118.408" fill="#F6BA99"/>
<path d="M393.52 95.7353C393.52 95.7353 391.211 83.3899 384.62 83.8943C378.03 84.3747 375.985 102.34 375.985 102.34C375.985 102.34 380.315 98.7615 381.566 104.142C382.792 109.522 378.896 110.41 378.896 110.41C378.896 110.41 395.348 108.177 393.52 95.7353Z" fill="#F2957E"/>
<path d="M311.686 121.963C311.686 121.963 306.13 106.831 313.563 99.5778C320.995 92.3243 333.96 102.34 334.682 105.63C335.428 108.921 335.163 113.268 326.239 119.561C317.291 125.878 311.686 121.963 311.686 121.963Z" fill="#05384D"/>
<path d="M312.649 124.893C312.649 124.893 307.093 109.762 314.526 102.508C321.958 95.2549 334.202 103.709 334.947 106.976C335.693 110.266 336.15 116.175 327.226 122.491C318.278 128.808 312.649 124.893 312.649 124.893Z" fill="white"/>
<path d="M296.102 129.36C296.102 129.36 289.727 112.812 280.13 117.447C270.556 122.083 280.731 135.173 280.731 135.173C280.731 135.173 289.15 141.273 296.102 129.36Z" fill="#05384D"/>
<path d="M297.158 131.57C297.158 131.57 290.784 115.022 281.187 119.657C271.589 124.293 281.788 137.383 281.788 137.383C281.788 137.383 290.231 143.483 297.158 131.57Z" fill="white"/>
<path d="M321.067 124.869C316.523 124.869 312.84 121.191 312.84 116.655C312.84 112.118 316.523 108.44 321.067 108.44C325.61 108.44 329.293 112.118 329.293 116.655C329.293 121.191 325.61 124.869 321.067 124.869Z" fill="#6097CF"/>
<path d="M320.683 122.25C318.557 122.25 316.834 120.53 316.834 118.408C316.834 116.285 318.557 114.565 320.683 114.565C322.808 114.565 324.531 116.285 324.531 118.408C324.531 120.53 322.808 122.25 320.683 122.25Z" fill="#014397"/>
<path d="M287.224 138.872C283.598 138.872 280.658 135.936 280.658 132.315C280.658 128.693 283.598 125.758 287.224 125.758C290.851 125.758 293.791 128.693 293.791 132.315C293.791 135.936 290.851 138.872 287.224 138.872Z" fill="#6097CF"/>
<path d="M287.15 136.902C285.463 136.902 284.095 135.537 284.095 133.852C284.095 132.167 285.463 130.802 287.15 130.802C288.837 130.802 290.205 132.167 290.205 133.852C290.205 135.537 288.837 136.902 287.15 136.902Z" fill="#014397"/>
<path d="M300.314 125.398L300.122 142.979L307.001 141.442L307.747 160.872C307.747 160.872 343.322 155.997 341.037 129.697" stroke="#05384D" stroke-miterlimit="10" stroke-linecap="round"/>
<path d="M327.973 84.8548C327.973 84.8548 318.135 80.4355 309.837 84.9269C301.562 89.4423 296.078 94.6302 294.875 97.1041C293.673 99.578 294.972 101.499 300.215 101.211C305.459 100.923 313.349 90.7633 317.582 89.8026C321.792 88.8659 332.664 89.9707 332.375 88.6977C332.087 87.4728 327.973 84.8548 327.973 84.8548Z" fill="#05384D"/>
<path d="M267.984 113.172C267.984 113.172 268.032 104.621 274.19 102.748C280.348 100.875 286.072 101.091 288.334 102.003C290.595 102.916 291.581 104.91 289.584 107.768C287.588 110.602 277.341 108.584 275.2 110.41C273.059 112.235 270.197 119.224 269.355 118.24C268.537 117.255 267.984 113.172 267.984 113.172Z" fill="#05384D"/>
<path d="M336.342 130.513L347.527 129.144" stroke="#05384D" stroke-miterlimit="10" stroke-linecap="round"/>
<path d="M444.37 201.366C444.37 201.366 453.583 201.847 462.362 212.679C471.142 223.487 512.057 347.589 511.721 359.045C511.384 370.502 493.969 383.184 473.523 369.758C453.102 356.331 421.447 265.903 415.674 249.163C409.925 232.422 416.925 202.159 444.37 201.366Z" fill="url(#paint5_linear_7035_14902)"/>
<path d="M358.932 366.731L332.063 372.688L337.235 392.743L359.773 390.245L358.932 366.731Z" fill="url(#paint6_linear_7035_14902)"/>
<path d="M332.065 372.688L303.994 365.555L271.401 381.863C271.401 381.863 263.896 388.54 270.15 389.693C276.404 390.846 292.544 385.442 298.077 385.778C303.585 386.09 308.853 391.134 319.004 393.296C329.154 395.457 337.236 392.767 337.236 392.767L332.065 372.688Z" fill="#F6BA99"/>
<path d="M358.115 366.851C376.299 361.591 395.59 352.536 415.266 346.988C447.835 337.813 480.308 336.108 480.308 336.108C511.241 336.204 515.955 370.19 502.533 374.585C489.737 378.764 393.233 394.304 359.774 390.269L358.115 366.851Z" fill="url(#paint7_linear_7035_14902)"/>
<path d="M167.78 387.414L376.631 393.958L376.322 403.753L167.472 397.209L167.78 387.414Z" fill="#DADCF2"/>
<path d="M129.171 296.574L256.776 300.561L278.184 400.693L150.578 396.706L129.171 296.574Z" fill="#B5BAE5"/>
<path d="M195.44 344.842C189.991 345.763 184.577 340.637 183.348 333.391C182.119 326.145 185.54 319.524 190.989 318.602C196.438 317.681 201.852 322.808 203.081 330.054C204.31 337.299 200.889 343.92 195.44 344.842Z" fill="#DADCF2"/>
<path d="M474.221 473.059C474.221 473.059 474.173 474.26 473.667 476.302C472.152 482.475 466.596 496.333 446.39 508.726C419.426 525.251 388.253 513.962 371.319 497.198C354.385 480.433 337.932 375.978 361.769 363.056C385.607 350.135 415.024 368.268 431.886 399.66" fill="#2E323E"/>
<path d="M227.144 479.353C227.144 479.353 208.189 481.827 194.527 479.425C180.864 477.023 176.775 467.2 157.989 471.907C139.203 476.615 129.509 482.908 139.347 494.581C149.185 506.253 162.776 507.526 182.043 509.52C201.31 511.513 227.937 506.253 240.734 496.358C253.531 486.462 227.144 479.353 227.144 479.353Z" fill="#EE3E3C"/>
<path d="M226.159 481.25C226.159 481.25 207.205 483.724 193.543 481.322C179.88 478.921 175.791 469.097 157.005 473.805C146.517 476.423 138.868 479.545 135.862 483.82C137.738 478.56 146.012 474.91 157.991 471.907C176.777 467.2 180.866 477.023 194.529 479.425C208.191 481.827 227.146 479.353 227.146 479.353C227.146 479.353 249.492 485.381 243.045 494.076C245.306 486.414 226.159 481.25 226.159 481.25Z" fill="#BC0C0A"/>
<path d="M240.734 496.358C235.081 500.729 226.686 504.212 217.45 506.542C216.824 506.373 216.199 506.205 215.549 506.013C202.921 502.41 196.932 497.222 200.852 489.08C203.763 483.052 216.8 480.626 223.367 479.761C225.724 479.545 227.167 479.353 227.167 479.353C227.167 479.353 253.53 486.462 240.734 496.358Z" fill="#F6BA99"/>
<path d="M370.573 360.199C370.573 360.199 352.509 359.238 341.612 380.23C330.74 401.222 251.627 459.634 231.302 474.549C210.976 489.464 209.22 496.333 220.742 500.008C232.264 503.683 238.903 502.098 295.116 485.741C351.33 469.385 381.878 456.007 398.139 431.244C414.375 406.53 412.619 366.203 370.573 360.199Z" fill="#2E323E"/>
<path d="M266.326 531.832C257.739 525.203 256.921 512.737 264.474 504.955C269.982 499.287 277.655 493.451 287.084 491.481C299.111 488.983 300.987 492.418 313.014 497.342C325.041 502.265 333.532 501.161 335.841 509.831C338.15 518.502 328.721 523.329 320.519 525.491C312.317 527.677 301.132 536.275 290.716 538.052C280.325 539.83 272.219 536.371 266.326 531.832Z" fill="#CEBAAC"/>
<path d="M270.966 533.753C262.379 527.124 261.561 514.659 269.114 506.877C274.623 501.208 282.296 495.372 291.725 493.403C303.752 490.905 305.628 494.339 317.655 499.263C329.682 504.187 338.173 503.082 340.482 511.752C342.791 520.423 333.362 525.251 325.16 527.412C316.957 529.598 305.772 538.196 295.381 539.974C284.966 541.751 276.836 538.292 270.966 533.753Z" fill="#A48282"/>
<path d="M466.738 464.533C466.738 464.533 447.254 487.879 437.512 493.067C427.771 498.255 414.782 503.443 406.339 504.74C397.896 506.037 378.412 505.388 378.412 509.927C378.412 514.467 376.464 522.897 386.206 524.843C395.948 526.788 410.236 530.031 433.64 521.6C457.02 513.17 465.463 494.364 470.009 491.121C474.531 487.879 474.531 471.667 466.738 464.533Z" fill="#2C303C"/>
<path d="M385.534 506.06C385.534 506.06 395.275 518.382 411.512 520.976C427.363 523.498 442.036 527.461 462.842 526.164C483.625 524.867 525.863 535.242 525.863 535.242L522.616 550.806C522.616 550.806 490.143 543.024 467.389 543.673C444.658 544.321 404.368 540.43 389.43 535.242C374.493 530.055 371.895 506.709 385.534 506.06Z" fill="#5C5856"/>
<path d="M474.531 493.715C474.531 493.715 456.996 507.334 458.944 513.17C460.892 519.006 477.778 522.249 489.468 521.6C501.158 520.952 499.859 507.982 499.859 507.982C499.859 507.982 478.427 516.412 477.778 509.279C477.129 502.146 486.87 497.606 486.87 497.606L474.531 493.715Z" fill="#393732"/>
<path d="M503.012 410.805C503.012 410.805 520.932 399.3 541.401 401.87C561.871 404.416 570.819 436.36 584.915 444.022C598.986 451.683 622.03 454.253 646.324 468.304C670.642 482.355 692.387 505.364 679.59 523.233C679.59 523.233 672.831 535.819 662.921 543.961C653.011 552.103 604.639 570.741 578.998 575.977C553.356 581.213 510.805 560.269 500.318 554.457C492.115 549.893 493.871 533.633 493.366 523.401C493.583 523.69 493.799 524.002 494.04 524.29C493.799 523.738 493.583 523.185 493.342 522.657C493.366 522.897 493.366 523.161 493.39 523.401C491.298 520.471 490.552 517.901 490.552 516.484C487.425 510.36 483.167 505.1 473.618 501.521C453.1 493.859 455.65 433.814 503.012 410.805Z" fill="#B5BAE5"/>
<path d="M505.561 491.313C505.561 491.313 517.082 513.026 536.277 529.646C555.472 546.267 574.667 546.171 605.384 534.762C636.1 523.354 668.092 520.712 668.092 504.091C668.092 487.471 642.499 472.147 622.029 464.485C601.559 456.823 590.037 449.162 574.691 449.162C559.297 449.138 518.357 464.485 505.561 491.313Z" fill="#5C5856"/>
<path d="M592.562 449.138C592.562 449.138 554.173 459.37 542.651 467.032C531.129 474.693 508.11 495.133 502.986 496.43C497.863 497.703 491.465 496.43 494.038 486.198C496.588 475.966 517.611 459.706 538.081 450.747C558.551 441.813 578.491 440.203 592.562 449.138Z" fill="#E48A64"/>
<path d="M473.568 450.435C469.72 472.147 477.417 479.833 481.241 486.198C485.09 492.586 505.56 515.596 505.56 515.596C505.56 515.596 506.835 519.439 492.763 511.753C478.692 504.091 463.851 487.446 463.586 471.498C463.538 468.112 463.201 464.941 462.864 461.843C466.881 443.013 479.365 422.309 502.986 410.829C503.01 410.805 477.417 428.698 473.568 450.435Z" fill="#1A1715"/>
<path d="M520.114 411.885L527.113 423.534L510.781 432.253L504.382 420.604L520.114 411.885Z" fill="#1A1715"/>
<path d="M86.6375 567.138L7.01955 538.077L14.4762 534.042L94.3828 559.885L90.7988 564.929L86.6375 567.138Z" fill="#EE3E3C"/>
<path d="M12.7489 523.041C12.7489 523.041 14.8176 528.95 14.1441 532.673C13.4706 536.395 10.7525 537.74 10.7525 537.74L86.8345 566.106C86.8345 566.106 92.3428 561.35 87.3156 550.23L12.7489 523.041Z" fill="#DECBB6"/>
<path d="M111.371 496.357L193.082 518.838L87.3177 550.254L8.06059 522.561L111.371 496.357Z" fill="#EE3E3C"/>
<path d="M193.08 518.838C193.08 518.838 200.464 527.965 191.661 534.714L86.6419 567.138C86.6419 567.138 92.054 564.424 87.3154 550.254L193.08 518.838Z" fill="#C61614"/>
<path d="M126.377 571.102L52.1473 530.247L60.1332 527.365L135.133 565.097L130.803 569.564L126.377 571.102Z" fill="#5C5856"/>
<path d="M60.1116 516.269C60.1116 516.269 61.2421 522.441 60.0154 525.996C58.7646 529.575 55.9022 530.487 55.9022 530.487L126.716 570.117C126.716 570.117 132.898 566.25 129.627 554.506L60.1116 516.269Z" fill="#DECBB6"/>
<path d="M161.664 504.932L238.949 539.614L129.625 554.505L55.5393 515.044L161.664 504.932Z" fill="#5C5856"/>
<path d="M238.95 539.614C238.95 539.614 244.844 549.75 235.102 555.082L126.355 571.102C126.355 571.102 132.128 569.252 129.626 554.529L238.95 539.614Z" fill="#1A1715"/>
<defs>
<linearGradient id="paint0_linear_7035_14902" x1="753.86" y1="13.1698" x2="534.419" y2="604.697" gradientUnits="userSpaceOnUse">
<stop stop-color="#FFA091"/>
<stop offset="1" stop-color="#FF2D78"/>
</linearGradient>
<linearGradient id="paint1_linear_7035_14902" x1="343.464" y1="214.914" x2="271.764" y2="279.024" gradientUnits="userSpaceOnUse">
<stop stop-color="#FF7B89"/>
<stop offset="1" stop-color="#FF6184"/>
</linearGradient>
<linearGradient id="paint2_linear_7035_14902" x1="381.988" y1="338.083" x2="363.981" y2="419.499" gradientUnits="userSpaceOnUse">
<stop stop-color="#FFA091"/>
<stop offset="1" stop-color="#FF2D78"/>
</linearGradient>
<linearGradient id="paint3_linear_7035_14902" x1="453.88" y1="193.096" x2="280.79" y2="246.64" gradientUnits="userSpaceOnUse">
<stop stop-color="#FF8E6A"/>
<stop offset="0.0001" stop-color="#FFA3A3"/>
<stop offset="1" stop-color="#FF013E"/>
</linearGradient>
<linearGradient id="paint4_linear_7035_14902" x1="453.605" y1="155.437" x2="406.057" y2="269.144" gradientUnits="userSpaceOnUse">
<stop stop-color="#FFA091"/>
<stop offset="1" stop-color="#FF2D78"/>
</linearGradient>
<linearGradient id="paint5_linear_7035_14902" x1="514.435" y1="192.497" x2="371.204" y2="325.005" gradientUnits="userSpaceOnUse">
<stop stop-color="#FFA091"/>
<stop offset="1" stop-color="#FF2D78"/>
</linearGradient>
<linearGradient id="paint6_linear_7035_14902" x1="360.541" y1="365.406" x2="342.072" y2="397.784" gradientUnits="userSpaceOnUse">
<stop stop-color="#FFA091"/>
<stop offset="1" stop-color="#FF2D78"/>
</linearGradient>
<linearGradient id="paint7_linear_7035_14902" x1="513.813" y1="333.316" x2="494.842" y2="419.589" gradientUnits="userSpaceOnUse">
<stop stop-color="#FFA091"/>
<stop offset="1" stop-color="#FF2D78"/>
</linearGradient>
</defs>
</svg>
