<svg width="1720" height="395" viewBox="0 0 1720 395" fill="none" xmlns="http://www.w3.org/2000/svg">
<rect width="1720" height="395" fill="#EE3E3C"/>
<rect width="1720" height="395" fill="#0C1928" fill-opacity="0.15"/>
<mask id="mask0_8190_80569" style="mask-type:alpha" maskUnits="userSpaceOnUse" x="0" y="0" width="1720" height="395">
<rect width="1720" height="395" fill="#EE3E3C"/>
</mask>
<g mask="url(#mask0_8190_80569)">
<path opacity="0.13" d="M297.577 318.232C370.807 318.232 430.171 258.867 430.171 185.637C430.171 112.407 370.807 53.0425 297.577 53.0425C224.347 53.0425 164.982 112.407 164.982 185.637C164.982 258.867 224.347 318.232 297.577 318.232Z" fill="#F7F7F7"/>
<path opacity="0.5" d="M421.956 36.3981L313.656 150.237C313.559 150.34 313.397 150.344 313.294 150.246C313.192 150.149 313.188 149.987 313.285 149.885L421.585 36.0454C421.683 35.9429 421.845 35.9388 421.947 36.0364C422.049 36.1337 422.053 36.2957 421.956 36.3981Z" fill="#F4F4F4"/>
<path opacity="0.5" d="M426.792 40.9981L318.492 154.838C318.395 154.94 318.233 154.944 318.13 154.847C318.028 154.749 318.024 154.587 318.121 154.485L426.421 40.6454C426.518 40.5429 426.68 40.5388 426.783 40.6364C426.885 40.734 426.889 40.8957 426.792 40.9981Z" fill="#F4F4F4"/>
<path opacity="0.5" d="M431.626 45.5984L323.326 159.438C323.228 159.54 323.067 159.545 322.964 159.447C322.862 159.349 322.858 159.188 322.955 159.085L431.255 45.2457C431.352 45.1433 431.514 45.1392 431.617 45.2368C431.719 45.334 431.723 45.496 431.626 45.5984Z" fill="#F4F4F4"/>
<path opacity="0.5" d="M436.462 50.1987L328.162 164.038C328.065 164.141 327.903 164.145 327.8 164.047C327.698 163.95 327.694 163.788 327.791 163.685L436.091 49.8459C436.188 49.7435 436.35 49.7394 436.453 49.837C436.555 49.9342 436.559 50.0962 436.462 50.1987Z" fill="#F4F4F4"/>
<path opacity="0.5" d="M441.298 54.7986L332.998 168.638C332.901 168.741 332.739 168.745 332.636 168.647C332.534 168.55 332.53 168.388 332.627 168.285L440.927 54.4463C441.024 54.3438 441.186 54.3397 441.289 54.4373C441.391 54.5349 441.395 54.6966 441.298 54.7986Z" fill="#F4F4F4"/>
<path opacity="0.5" d="M446.134 59.3989L337.834 173.238C337.737 173.341 337.575 173.345 337.472 173.247C337.37 173.15 337.366 172.988 337.463 172.886L445.763 59.0461C445.86 58.9437 446.022 58.9396 446.125 59.0372C446.227 59.1348 446.231 59.2964 446.134 59.3989Z" fill="#F4F4F4"/>
<path opacity="0.5" d="M450.968 63.9992L342.668 177.839C342.57 177.941 342.409 177.945 342.306 177.848C342.204 177.75 342.2 177.588 342.297 177.486L450.597 63.6465C450.694 63.544 450.856 63.5399 450.959 63.6375C451.061 63.7347 451.065 63.8968 450.968 63.9992Z" fill="#F4F4F4"/>
<path opacity="0.5" d="M455.804 68.5993L347.504 182.438C347.406 182.541 347.244 182.545 347.142 182.447C347.04 182.35 347.036 182.188 347.133 182.086L455.433 68.2462C455.531 68.1438 455.692 68.1397 455.795 68.2372C455.897 68.3348 455.901 68.4969 455.804 68.5993Z" fill="#F4F4F4"/>
<path opacity="0.5" d="M460.64 73.1992L352.34 187.039C352.242 187.141 352.08 187.145 351.978 187.048C351.876 186.95 351.871 186.788 351.969 186.686L460.269 72.8464C460.366 72.744 460.528 72.7399 460.631 72.8375C460.733 72.9351 460.737 73.0967 460.64 73.1992Z" fill="#F4F4F4"/>
<path opacity="0.5" d="M465.475 77.7996L357.176 191.639C357.078 191.742 356.916 191.746 356.814 191.648C356.711 191.55 356.707 191.389 356.805 191.286L465.105 77.4469C465.202 77.3444 465.364 77.3403 465.467 77.4379C465.569 77.5351 465.573 77.6972 465.475 77.7996Z" fill="#F4F4F4"/>
<path opacity="0.5" d="M470.309 82.3998L362.01 196.239C361.912 196.342 361.75 196.346 361.648 196.248C361.545 196.151 361.541 195.989 361.639 195.887L469.939 82.0471C470.036 81.9447 470.198 81.9406 470.301 82.0381C470.403 82.1354 470.407 82.2974 470.309 82.3998Z" fill="#F4F4F4"/>
<path opacity="0.5" d="M475.146 87.0001L366.846 200.839C366.748 200.942 366.586 200.946 366.484 200.848C366.381 200.751 366.377 200.589 366.475 200.486L474.775 86.6469C474.872 86.5445 475.034 86.5404 475.136 86.638C475.239 86.7356 475.243 86.8976 475.146 87.0001Z" fill="#F4F4F4"/>
<path opacity="0.5" d="M479.981 91.6002L371.681 205.44C371.584 205.542 371.422 205.546 371.32 205.449C371.217 205.351 371.213 205.189 371.311 205.087L479.611 91.2474C479.708 91.145 479.87 91.1409 479.972 91.2385C480.075 91.3361 480.079 91.4981 479.981 91.6002Z" fill="#F4F4F4"/>
<path opacity="0.5" d="M484.817 96.2004L376.517 210.04C376.42 210.142 376.258 210.146 376.156 210.049C376.053 209.951 376.049 209.79 376.147 209.687L484.447 95.8476C484.544 95.7452 484.706 95.7411 484.808 95.8387C484.911 95.9363 484.915 96.0979 484.817 96.2004Z" fill="#F4F4F4"/>
<path opacity="0.5" d="M489.653 100.801L381.353 214.64C381.256 214.743 381.094 214.747 380.992 214.649C380.889 214.551 380.885 214.39 380.983 214.287L489.283 100.448C489.38 100.345 489.542 100.341 489.644 100.439C489.747 100.536 489.75 100.698 489.653 100.801Z" fill="#F4F4F4"/>
<path opacity="0.5" d="M494.487 105.401L386.187 219.24C386.09 219.342 385.928 219.347 385.826 219.249C385.723 219.151 385.719 218.99 385.817 218.887L494.117 105.048C494.214 104.945 494.376 104.941 494.478 105.039C494.581 105.136 494.585 105.298 494.487 105.401Z" fill="#F4F4F4"/>
<path opacity="0.5" d="M499.323 110.001L391.023 223.84C390.926 223.943 390.764 223.947 390.662 223.849C390.559 223.752 390.555 223.59 390.653 223.488L498.952 109.648C499.05 109.546 499.212 109.542 499.314 109.639C499.416 109.737 499.42 109.898 499.323 110.001Z" fill="#F4F4F4"/>
<path opacity="0.5" d="M504.159 114.601L395.859 228.441C395.762 228.543 395.6 228.547 395.498 228.449C395.395 228.352 395.391 228.19 395.489 228.088L503.788 114.248C503.886 114.146 504.048 114.142 504.15 114.239C504.253 114.337 504.257 114.499 504.159 114.601Z" fill="#F4F4F4"/>
<path opacity="0.5" d="M508.995 119.201L400.695 233.041C400.598 233.143 400.436 233.147 400.333 233.05C400.231 232.952 400.227 232.791 400.325 232.688L508.624 118.849C508.722 118.746 508.884 118.742 508.986 118.84C509.088 118.937 509.092 119.099 508.995 119.201Z" fill="#F4F4F4"/>
<path opacity="0.5" d="M513.829 123.801L405.529 237.641C405.432 237.743 405.27 237.747 405.167 237.65C405.065 237.552 405.061 237.39 405.159 237.288L513.458 123.448C513.556 123.346 513.718 123.342 513.82 123.44C513.922 123.537 513.927 123.699 513.829 123.801Z" fill="#F4F4F4"/>
<path opacity="0.5" d="M518.665 128.401L410.365 242.241C410.267 242.343 410.106 242.348 410.003 242.25C409.901 242.152 409.897 241.991 409.994 241.888L518.294 128.049C518.391 127.946 518.554 127.942 518.656 128.04C518.758 128.137 518.763 128.299 518.665 128.401Z" fill="#F4F4F4"/>
<path opacity="0.5" d="M523.501 133.002L415.201 246.841C415.104 246.944 414.942 246.948 414.839 246.85C414.737 246.753 414.733 246.591 414.83 246.488L523.13 132.649C523.227 132.546 523.389 132.542 523.492 132.64C523.594 132.738 523.598 132.899 523.501 133.002Z" fill="#F4F4F4"/>
<path opacity="0.5" d="M528.337 137.602L420.037 251.442C419.94 251.544 419.778 251.548 419.675 251.451C419.573 251.353 419.569 251.191 419.666 251.089L527.966 137.249C528.064 137.147 528.225 137.143 528.328 137.24C528.43 137.338 528.434 137.5 528.337 137.602Z" fill="#F4F4F4"/>
<path opacity="0.5" d="M533.171 142.202L424.871 256.041C424.774 256.144 424.612 256.148 424.509 256.05C424.407 255.953 424.403 255.791 424.5 255.689L532.8 141.849C532.898 141.747 533.059 141.743 533.162 141.84C533.264 141.938 533.268 142.099 533.171 142.202Z" fill="#F4F4F4"/>
<path opacity="0.35" d="M1402.61 330.26L1294.31 444.1C1294.21 444.202 1294.05 444.206 1293.94 444.109C1293.84 444.012 1293.84 443.85 1293.93 443.747L1402.23 329.908C1402.33 329.805 1402.49 329.801 1402.6 329.899C1402.7 329.996 1402.7 330.158 1402.61 330.26Z" fill="#F4F4F4"/>
<path opacity="0.35" d="M1407.44 334.861L1299.14 448.701C1299.04 448.803 1298.88 448.807 1298.78 448.71C1298.68 448.612 1298.67 448.45 1298.77 448.348L1407.07 334.508C1407.17 334.406 1407.33 334.402 1407.43 334.499C1407.53 334.597 1407.54 334.759 1407.44 334.861Z" fill="#F4F4F4"/>
<path opacity="0.35" d="M1412.28 339.461L1303.98 453.3C1303.88 453.403 1303.72 453.407 1303.61 453.309C1303.51 453.212 1303.51 453.05 1303.61 452.948L1411.91 339.108C1412 339.006 1412.16 339.002 1412.27 339.099C1412.37 339.196 1412.37 339.358 1412.28 339.461Z" fill="#F4F4F4"/>
<path opacity="0.35" d="M1417.11 344.061L1308.81 457.9C1308.71 458.003 1308.55 458.007 1308.45 457.909C1308.35 457.812 1308.34 457.65 1308.44 457.548L1416.74 343.708C1416.84 343.606 1417 343.602 1417.1 343.699C1417.2 343.797 1417.21 343.958 1417.11 344.061Z" fill="#F4F4F4"/>
<path opacity="0.35" d="M1421.95 348.661L1313.65 462.501C1313.55 462.603 1313.39 462.607 1313.29 462.51C1313.18 462.412 1313.18 462.25 1313.28 462.148L1421.58 348.308C1421.67 348.206 1421.84 348.202 1421.94 348.3C1422.04 348.397 1422.04 348.559 1421.95 348.661Z" fill="#F4F4F4"/>
<path opacity="0.35" d="M1426.78 353.262L1318.48 467.101C1318.39 467.204 1318.22 467.208 1318.12 467.11C1318.02 467.013 1318.01 466.851 1318.11 466.748L1426.41 352.909C1426.51 352.806 1426.67 352.802 1426.77 352.9C1426.88 352.997 1426.88 353.159 1426.78 353.262Z" fill="#F4F4F4"/>
<path opacity="0.35" d="M1431.62 357.862L1323.32 471.701C1323.22 471.804 1323.06 471.808 1322.96 471.71C1322.85 471.613 1322.85 471.451 1322.95 471.349L1431.25 357.509C1431.34 357.407 1431.51 357.402 1431.61 357.5C1431.71 357.597 1431.72 357.759 1431.62 357.862Z" fill="#F4F4F4"/>
<path opacity="0.35" d="M1436.45 362.462L1328.15 476.301C1328.06 476.404 1327.89 476.408 1327.79 476.31C1327.69 476.213 1327.69 476.051 1327.78 475.949L1436.08 362.109C1436.18 362.007 1436.34 362.002 1436.45 362.1C1436.55 362.198 1436.55 362.359 1436.45 362.462Z" fill="#F4F4F4"/>
<path opacity="0.35" d="M1441.29 367.062L1332.99 480.901C1332.89 481.004 1332.73 481.008 1332.63 480.91C1332.53 480.813 1332.52 480.651 1332.62 480.549L1440.92 366.709C1441.02 366.607 1441.18 366.603 1441.28 366.7C1441.38 366.797 1441.39 366.96 1441.29 367.062Z" fill="#F4F4F4"/>
<path opacity="0.35" d="M1446.12 371.662L1337.82 485.502C1337.73 485.604 1337.56 485.608 1337.46 485.511C1337.36 485.414 1337.36 485.251 1337.45 485.149L1445.75 371.31C1445.85 371.207 1446.01 371.203 1446.11 371.301C1446.22 371.398 1446.22 371.56 1446.12 371.662Z" fill="#F4F4F4"/>
<path opacity="0.35" d="M1450.96 376.262L1342.66 490.102C1342.56 490.204 1342.4 490.208 1342.3 490.111C1342.2 490.013 1342.19 489.851 1342.29 489.749L1450.59 375.909C1450.69 375.807 1450.85 375.803 1450.95 375.9C1451.05 375.998 1451.06 376.16 1450.96 376.262Z" fill="#F4F4F4"/>
<path opacity="0.35" d="M1455.8 380.863L1347.5 494.702C1347.4 494.805 1347.24 494.809 1347.13 494.711C1347.03 494.613 1347.03 494.452 1347.13 494.349L1455.43 380.51C1455.52 380.407 1455.68 380.403 1455.79 380.501C1455.89 380.599 1455.89 380.76 1455.8 380.863Z" fill="#F4F4F4"/>
<path opacity="0.35" d="M1460.63 385.463L1352.33 499.302C1352.23 499.405 1352.07 499.409 1351.97 499.311C1351.87 499.214 1351.86 499.052 1351.96 498.949L1460.26 385.11C1460.36 385.007 1460.52 385.003 1460.62 385.101C1460.72 385.198 1460.73 385.36 1460.63 385.463Z" fill="#F4F4F4"/>
<path opacity="0.35" d="M1465.47 390.063L1357.17 503.902C1357.07 504.005 1356.91 504.009 1356.81 503.911C1356.7 503.814 1356.7 503.652 1356.8 503.55L1465.1 389.71C1465.19 389.608 1465.36 389.604 1465.46 389.701C1465.56 389.798 1465.56 389.96 1465.47 390.063Z" fill="#F4F4F4"/>
<path opacity="0.35" d="M1470.3 394.663L1362 508.502C1361.9 508.605 1361.74 508.609 1361.64 508.511C1361.54 508.414 1361.53 508.252 1361.63 508.15L1469.93 394.31C1470.03 394.208 1470.19 394.203 1470.29 394.301C1470.4 394.399 1470.4 394.561 1470.3 394.663Z" fill="#F4F4F4"/>
<path opacity="0.3" d="M645.746 573.253C655.891 527.481 652.353 477.103 627.493 437.354C596.954 388.528 539.178 361.873 508.323 313.247C476.666 263.358 476.122 194.666 432.465 154.853C408.432 132.937 375.561 124.139 344.056 116.058C316.215 108.917 277.365 88.0413 249.524 80.9003C243.474 79.3485 236.985 77.8108 231.105 79.918C221.53 83.3498 217.694 94.6382 215.572 104.586C193.529 207.912 233.995 328.499 267.75 428.612C287.582 487.43 308.984 545.707 330.942 603.764C343.937 638.125 358.173 673.923 386.192 697.682C431.565 736.157 513.23 738.463 566.14 714.056C611.761 693.011 635.959 617.413 645.746 573.253Z" fill="url(#paint0_linear_8190_80569)"/>
<path opacity="0.3" d="M237.89 3.05949C247.621 47.4725 229.107 101.002 259.323 134.976C293.39 173.28 363.806 154.999 398.74 192.515C440.843 237.729 395.041 319.935 431.034 370.149C449.153 395.429 482.143 403.885 509.389 418.887C573.486 454.179 607.705 532.241 600.496 605.055C593.287 677.87 549.263 743.916 490.986 788.161C432.709 832.407 361.292 856.615 289.177 869C211.651 882.315 127.295 881.492 60.0121 840.741C5.93892 807.99 -31.5058 752.189 -51.591 692.246C-71.6761 632.304 -75.7612 568.142 -74.5339 504.935C-71.6806 357.995 -40.4278 211.768 16.302 76.2251C35.7312 29.8037 60.5448 -51.4573 111.985 -72.9367C163.41 -94.4101 226.846 -47.3536 237.89 3.05949Z" fill="url(#paint1_linear_8190_80569)"/>
<path opacity="0.3" d="M486.27 654.097C491.631 621.062 477.198 582.223 445.647 571.06C430.452 565.684 412.929 567.083 399.146 558.726C386.152 550.847 379.16 535.588 377.179 520.521C375.198 505.455 377.468 490.204 378.928 475.078C382.728 435.715 377.853 389.664 345.223 367.324C328.57 355.923 307.121 352.755 291.266 340.27C265.463 319.953 262.579 282.919 253.062 251.487C245.488 226.47 232.187 202.752 212.449 185.615C192.711 168.479 166.168 158.461 140.2 161.446C115.58 164.275 93.2052 178.435 76.8297 197.037C60.4542 215.638 49.5532 238.445 41.1822 261.771C0.522109 375.068 16.5553 499.845 33.0995 619.076C38.1513 655.484 44.8189 695.062 72.1404 719.651C94.9921 740.216 127.306 745.589 157.716 750.099C226.726 760.332 297.642 770.575 367.241 759.813C390.165 756.268 423.721 752.367 442.799 737.744C465.196 720.579 481.901 681.015 486.27 654.097Z" fill="url(#paint2_linear_8190_80569)"/>
<path opacity="0.3" d="M350.393 724.086C366.801 686.238 363.056 640.315 340.732 605.626C317.518 569.555 277.131 546.953 254.938 510.245C213.371 441.491 244.163 339.125 186.118 283.576C162.253 260.738 127.896 251.561 103.721 229.052C72.9977 200.446 63.6589 155.296 36.825 123.013C22.8524 106.203 -1.63931 92.9045 -20.2073 104.438C-35.7704 114.105 -38.1521 135.385 -38.8926 153.691C-45.4876 316.761 -52.0732 480.33 -38.4803 642.966C-34.7989 687.014 -28.6737 733.416 -1.54395 768.311C25.3202 802.864 69.4951 820.667 113.123 824.157C194.471 830.665 313.883 808.302 350.393 724.086Z" fill="url(#paint3_linear_8190_80569)"/>
<path opacity="0.3" d="M1132.94 -13.1235C1122.79 32.6491 1126.33 83.0272 1151.19 122.776C1181.73 171.602 1239.5 198.256 1270.36 246.883C1302.02 296.772 1302.56 365.463 1346.22 405.276C1370.25 427.193 1403.12 435.991 1434.63 444.072C1462.47 451.213 1501.32 472.088 1529.16 479.229C1535.21 480.781 1541.7 482.319 1547.58 480.212C1557.15 476.78 1560.99 465.492 1563.11 455.543C1585.15 352.217 1544.69 231.631 1510.93 131.517C1491.1 72.6998 1469.7 14.4231 1447.74 -43.6343C1434.74 -77.9952 1420.51 -113.793 1392.49 -137.552C1347.12 -176.027 1265.45 -178.333 1212.54 -153.926C1166.92 -132.882 1142.72 -57.2835 1132.94 -13.1235Z" fill="url(#paint4_linear_8190_80569)"/>
<path opacity="0.3" d="M1540.79 557.07C1531.06 512.657 1549.57 459.128 1519.36 425.154C1485.29 386.849 1414.88 405.13 1379.94 367.614C1337.84 322.401 1383.64 240.195 1347.65 189.981C1329.53 164.701 1296.54 156.245 1269.29 141.242C1205.2 105.951 1170.98 27.8886 1178.19 -44.9257C1185.39 -117.74 1229.42 -183.786 1287.7 -228.032C1345.97 -272.277 1417.39 -296.486 1489.5 -308.871C1567.03 -322.186 1651.39 -321.363 1718.67 -280.611C1772.74 -247.86 1810.19 -192.059 1830.27 -132.117C1850.36 -72.1743 1854.44 -8.01251 1853.22 55.1938C1850.36 202.134 1819.11 348.361 1762.38 483.904C1742.95 530.326 1718.14 611.587 1666.7 633.066C1615.27 654.54 1551.84 607.483 1540.79 557.07Z" fill="url(#paint5_linear_8190_80569)"/>
<path opacity="0.3" d="M1292.41 -93.9672C1287.05 -60.9327 1301.48 -22.0937 1333.03 -10.9305C1348.23 -5.55397 1365.75 -6.95303 1379.54 1.40382C1392.53 9.28278 1399.52 24.5415 1401.5 39.6081C1403.48 54.6747 1401.21 69.9256 1399.75 85.0518C1395.95 124.414 1400.83 170.465 1433.46 192.805C1450.11 204.206 1471.56 207.374 1487.42 219.859C1513.22 240.177 1516.1 277.21 1525.62 308.642C1533.19 333.66 1546.49 357.378 1566.23 374.514C1585.97 391.651 1612.51 401.668 1638.48 398.684C1663.1 395.854 1685.48 381.694 1701.85 363.093C1718.23 344.492 1729.13 321.684 1737.5 298.359C1778.16 185.061 1762.13 60.2844 1745.58 -58.9462C1740.53 -95.354 1733.86 -134.933 1706.54 -159.521C1683.69 -180.087 1651.38 -185.46 1620.97 -189.969C1551.95 -200.202 1481.04 -210.445 1411.44 -199.683C1388.52 -196.138 1354.96 -192.237 1335.88 -177.615C1313.49 -160.449 1296.78 -120.885 1292.41 -93.9672Z" fill="url(#paint6_linear_8190_80569)"/>
<path opacity="0.3" d="M1428.29 -163.956C1411.88 -126.108 1415.63 -80.1854 1437.95 -45.4964C1461.16 -9.42497 1501.55 13.1771 1523.74 49.8851C1565.31 118.639 1534.52 221.005 1592.56 276.553C1616.43 299.392 1650.78 308.568 1674.96 331.078C1705.68 359.684 1715.02 404.834 1741.86 437.117C1755.83 453.926 1780.32 467.225 1798.89 455.692C1814.45 446.025 1816.83 424.745 1817.57 406.439C1824.17 243.369 1830.75 79.7992 1817.16 -82.8368C1813.48 -126.884 1807.36 -173.286 1780.23 -208.181C1753.36 -242.734 1709.19 -260.538 1665.56 -264.028C1584.21 -270.535 1464.8 -248.173 1428.29 -163.956Z" fill="url(#paint7_linear_8190_80569)"/>
<path opacity="0.23" d="M129.585 260.277C295.594 260.277 430.171 125.7 430.171 -40.3084C430.171 -206.317 295.594 -340.894 129.585 -340.894C-36.4233 -340.894 -171 -206.317 -171 -40.3084C-171 125.7 -36.4233 260.277 129.585 260.277Z" fill="#F7F7F7"/>
<path opacity="0.23" d="M1167.43 96.3206C1333.44 96.3206 1468.02 -38.2561 1468.02 -204.265C1468.02 -370.274 1333.44 -504.85 1167.43 -504.85C1001.42 -504.85 866.845 -370.274 866.845 -204.265C866.845 -38.2561 1001.42 96.3206 1167.43 96.3206Z" fill="#F7F7F7"/>
<path opacity="0.5" d="M1853.41 239.57C2019.42 239.57 2154 104.994 2154 -61.0152C2154 -227.024 2019.42 -361.601 1853.41 -361.601C1687.41 -361.601 1552.83 -227.024 1552.83 -61.0152C1552.83 104.994 1687.41 239.57 1853.41 239.57Z" fill="url(#paint8_linear_8190_80569)"/>
<path opacity="0.23" d="M1747.3 745.723C1850.86 745.723 1934.82 661.768 1934.82 558.206C1934.82 454.643 1850.86 370.689 1747.3 370.689C1643.74 370.689 1559.78 454.643 1559.78 558.206C1559.78 661.768 1643.74 745.723 1747.3 745.723Z" fill="#F7F7F7"/>
<path opacity="0.35" d="M147.521 268.801L-67.1605 494.463C-67.3535 494.666 -67.6746 494.674 -67.8776 494.481C-68.0806 494.288 -68.0884 493.967 -67.8955 493.764L146.785 268.102C146.978 267.899 147.3 267.891 147.503 268.084C147.706 268.277 147.714 268.598 147.521 268.801Z" fill="#F4F4F4"/>
<path opacity="0.35" d="M157.106 277.92L-57.5746 503.582C-57.7675 503.785 -58.0886 503.793 -58.2916 503.6C-58.4946 503.407 -58.5025 503.086 -58.3095 502.883L156.371 277.221C156.564 277.018 156.885 277.01 157.088 277.203C157.291 277.396 157.299 277.717 157.106 277.92Z" fill="#F4F4F4"/>
<path opacity="0.35" d="M166.691 287.039L-47.9906 512.701C-48.1836 512.904 -48.5047 512.912 -48.7077 512.719C-48.9107 512.526 -48.9185 512.205 -48.7255 512.002L165.955 286.34C166.148 286.137 166.469 286.128 166.672 286.322C166.876 286.515 166.884 286.836 166.691 287.039Z" fill="#F4F4F4"/>
<path opacity="0.35" d="M176.276 296.158L-38.4047 521.82C-38.5976 522.023 -38.9187 522.031 -39.1217 521.838C-39.3247 521.645 -39.3325 521.324 -39.1396 521.121L175.541 295.459C175.734 295.256 176.055 295.248 176.258 295.441C176.461 295.634 176.469 295.955 176.276 296.158Z" fill="#F4F4F4"/>
<path opacity="0.35" d="M185.861 305.277L-28.8207 530.939C-29.0136 531.142 -29.3347 531.15 -29.5377 530.957C-29.7407 530.764 -29.7486 530.443 -29.5556 530.24L185.126 304.578C185.319 304.375 185.64 304.367 185.843 304.56C186.046 304.753 186.054 305.074 185.861 305.277Z" fill="#F4F4F4"/>
<path opacity="0.35" d="M195.447 314.395L-19.2348 540.057C-19.4277 540.26 -19.7488 540.268 -19.9518 540.075C-20.1548 539.882 -20.1626 539.561 -19.9697 539.358L194.712 313.696C194.905 313.493 195.226 313.485 195.429 313.678C195.631 313.872 195.64 314.193 195.447 314.395Z" fill="#F4F4F4"/>
<path opacity="0.35" d="M205.032 323.514L-9.64881 549.176C-9.84176 549.379 -10.1628 549.387 -10.3659 549.194C-10.5689 549.001 -10.5767 548.68 -10.3837 548.477L204.297 322.815C204.49 322.612 204.811 322.604 205.014 322.797C205.217 322.99 205.225 323.311 205.032 323.514Z" fill="#F4F4F4"/>
<path opacity="0.35" d="M214.618 332.633L-0.062873 558.295C-0.255824 558.498 -0.576913 558.506 -0.779921 558.313C-0.98293 558.12 -0.990748 557.799 -0.797797 557.596L213.883 331.934C214.076 331.731 214.397 331.723 214.6 331.916C214.803 332.109 214.811 332.43 214.618 332.633Z" fill="#F4F4F4"/>
<path opacity="0.35" d="M224.202 341.752L9.52111 567.414C9.32816 567.617 9.00707 567.624 8.80407 567.432C8.60106 567.239 8.59323 566.917 8.78618 566.714L223.467 341.052C223.66 340.849 223.982 340.842 224.185 341.035C224.388 341.228 224.395 341.549 224.202 341.752Z" fill="#F4F4F4"/>
<path opacity="0.35" d="M233.788 350.871L19.1071 576.533C18.9141 576.736 18.593 576.744 18.39 576.551C18.187 576.358 18.1792 576.037 18.3721 575.834L233.053 350.172C233.246 349.969 233.567 349.961 233.77 350.154C233.973 350.347 233.981 350.668 233.788 350.871Z" fill="#F4F4F4"/>
<path opacity="0.35" d="M243.372 359.99L28.691 585.652C28.4981 585.855 28.177 585.863 27.974 585.67C27.771 585.477 27.7632 585.156 27.9561 584.953L242.637 359.291C242.83 359.088 243.151 359.079 243.354 359.273C243.557 359.466 243.565 359.787 243.372 359.99Z" fill="#F4F4F4"/>
<path opacity="0.35" d="M252.958 369.108L38.277 594.77C38.084 594.973 37.7629 594.981 37.5599 594.788C37.3569 594.595 37.3491 594.274 37.542 594.071L252.223 368.409C252.416 368.206 252.737 368.198 252.94 368.391C253.143 368.585 253.151 368.905 252.958 369.108Z" fill="#F4F4F4"/>
<path opacity="0.35" d="M262.544 378.228L47.8629 603.89C47.67 604.093 47.3489 604.1 47.1459 603.907C46.9429 603.715 46.935 603.393 47.128 603.19L261.809 377.528C262.002 377.325 262.323 377.318 262.526 377.511C262.729 377.704 262.737 378.025 262.544 378.228Z" fill="#F4F4F4"/>
<path opacity="0.35" d="M272.13 387.347L57.4488 613.009C57.2559 613.212 56.9348 613.219 56.7318 613.026C56.5288 612.833 56.521 612.512 56.7139 612.309L271.395 386.647C271.588 386.444 271.909 386.436 272.112 386.629C272.315 386.822 272.323 387.144 272.13 387.347Z" fill="#F4F4F4"/>
<path opacity="0.35" d="M1612.54 -211.315L1397.86 14.3474C1397.66 14.5504 1397.34 14.5582 1397.14 14.3653C1396.94 14.1719 1396.93 13.8512 1397.12 13.6482L1611.8 -212.014C1612 -212.217 1612.32 -212.225 1612.52 -212.032C1612.72 -211.839 1612.73 -211.518 1612.54 -211.315Z" fill="#F4F4F4"/>
<path opacity="0.35" d="M1622.12 -202.196L1407.44 23.4664C1407.25 23.6694 1406.93 23.6772 1406.73 23.4843C1406.52 23.2913 1406.52 22.9702 1406.71 22.7672L1621.39 -202.895C1621.58 -203.098 1621.9 -203.106 1622.11 -202.913C1622.31 -202.72 1622.32 -202.399 1622.12 -202.196Z" fill="#F4F4F4"/>
<path opacity="0.35" d="M1631.71 -193.077L1417.03 32.5853C1416.83 32.7883 1416.51 32.7961 1416.31 32.6032C1416.11 32.4099 1416.1 32.0891 1416.29 31.8861L1630.97 -193.776C1631.17 -193.979 1631.49 -193.987 1631.69 -193.794C1631.89 -193.601 1631.9 -193.28 1631.71 -193.077Z" fill="#F4F4F4"/>
<path opacity="0.35" d="M1641.29 -183.958L1426.61 41.7039C1426.42 41.907 1426.1 41.9148 1425.9 41.7218C1425.69 41.5289 1425.69 41.2078 1425.88 41.0048L1640.56 -184.657C1640.75 -184.86 1641.07 -184.868 1641.28 -184.675C1641.48 -184.482 1641.49 -184.161 1641.29 -183.958Z" fill="#F4F4F4"/>
<path opacity="0.35" d="M1650.88 -174.839L1436.2 50.823C1436.01 51.026 1435.68 51.0338 1435.48 50.8408C1435.28 50.6479 1435.27 50.3268 1435.46 50.1238L1650.15 -175.538C1650.34 -175.741 1650.66 -175.749 1650.86 -175.556C1651.07 -175.363 1651.07 -175.042 1650.88 -174.839Z" fill="#F4F4F4"/>
<path opacity="0.35" d="M1660.46 -165.72L1445.78 59.942C1445.59 60.145 1445.27 60.1528 1445.07 59.9599C1444.86 59.7665 1444.85 59.4458 1445.05 59.2428L1659.73 -166.419C1659.92 -166.622 1660.24 -166.63 1660.45 -166.437C1660.65 -166.244 1660.66 -165.923 1660.46 -165.72Z" fill="#F4F4F4"/>
<path opacity="0.35" d="M1670.05 -156.601L1455.37 69.0605C1455.18 69.2635 1454.85 69.2713 1454.65 69.0784C1454.45 68.8854 1454.44 68.5643 1454.63 68.3613L1669.32 -157.301C1669.51 -157.504 1669.83 -157.512 1670.03 -157.319C1670.23 -157.126 1670.24 -156.805 1670.05 -156.601Z" fill="#F4F4F4"/>
<path opacity="0.35" d="M1679.63 -147.482L1464.95 78.1795C1464.76 78.3825 1464.44 78.3904 1464.24 78.1974C1464.03 78.0045 1464.03 77.6834 1464.22 77.4804L1678.9 -148.182C1679.09 -148.385 1679.41 -148.392 1679.62 -148.2C1679.82 -148.007 1679.83 -147.685 1679.63 -147.482Z" fill="#F4F4F4"/>
<path opacity="0.35" d="M1689.22 -138.364L1474.54 87.2984C1474.35 87.5014 1474.03 87.5092 1473.82 87.3163C1473.62 87.1234 1473.61 86.8023 1473.8 86.5993L1688.49 -139.063C1688.68 -139.266 1689 -139.274 1689.2 -139.081C1689.41 -138.888 1689.41 -138.567 1689.22 -138.364Z" fill="#F4F4F4"/>
<path opacity="0.35" d="M1698.81 -129.245L1484.12 96.4171C1483.93 96.6201 1483.61 96.6279 1483.41 96.435C1483.2 96.242 1483.2 95.9209 1483.39 95.7179L1698.07 -129.944C1698.26 -130.147 1698.58 -130.155 1698.79 -129.962C1698.99 -129.769 1699 -129.448 1698.81 -129.245Z" fill="#F4F4F4"/>
<path opacity="0.35" d="M1708.39 -120.126L1493.71 105.536C1493.52 105.739 1493.2 105.747 1492.99 105.554C1492.79 105.361 1492.78 105.04 1492.98 104.837L1707.66 -120.825C1707.85 -121.028 1708.17 -121.036 1708.37 -120.843C1708.58 -120.65 1708.58 -120.329 1708.39 -120.126Z" fill="#F4F4F4"/>
<path opacity="0.35" d="M1717.98 -111.007L1503.3 114.655C1503.1 114.858 1502.78 114.866 1502.58 114.673C1502.38 114.48 1502.37 114.159 1502.56 113.956L1717.24 -111.706C1717.43 -111.909 1717.76 -111.917 1717.96 -111.724C1718.16 -111.531 1718.17 -111.21 1717.98 -111.007Z" fill="#F4F4F4"/>
<path opacity="0.35" d="M1727.56 -101.888L1512.88 123.774C1512.69 123.977 1512.37 123.985 1512.16 123.792C1511.96 123.599 1511.95 123.278 1512.15 123.075L1726.83 -102.587C1727.02 -102.79 1727.34 -102.798 1727.54 -102.605C1727.75 -102.412 1727.75 -102.091 1727.56 -101.888Z" fill="#F4F4F4"/>
<path opacity="0.35" d="M1737.15 -92.7694L1522.47 132.893C1522.27 133.096 1521.95 133.103 1521.75 132.911C1521.55 132.718 1521.54 132.396 1521.73 132.193L1736.41 -93.4685C1736.61 -93.6715 1736.93 -93.6793 1737.13 -93.4864C1737.33 -93.2934 1737.34 -92.9724 1737.15 -92.7694Z" fill="#F4F4F4"/>
<path opacity="0.35" d="M1746.73 -83.6505L1532.05 142.012C1531.86 142.215 1531.54 142.222 1531.33 142.029C1531.13 141.836 1531.12 141.515 1531.32 141.312L1746 -84.3496C1746.19 -84.5526 1746.51 -84.5605 1746.71 -84.3675C1746.92 -84.1746 1746.92 -83.8535 1746.73 -83.6505Z" fill="#F4F4F4"/>
<path opacity="0.35" d="M1756.32 -74.5318L1541.64 151.13C1541.44 151.333 1541.12 151.341 1540.92 151.148C1540.72 150.955 1540.71 150.634 1540.9 150.431L1755.58 -75.231C1755.78 -75.434 1756.1 -75.4418 1756.3 -75.2488C1756.5 -75.0555 1756.51 -74.7348 1756.32 -74.5318Z" fill="#F4F4F4"/>
<path opacity="0.35" d="M1765.9 -65.4128L1551.22 160.249C1551.03 160.452 1550.71 160.46 1550.51 160.267C1550.3 160.074 1550.29 159.753 1550.49 159.55L1765.17 -66.1119C1765.36 -66.315 1765.68 -66.3228 1765.89 -66.1298C1766.09 -65.9369 1766.1 -65.6158 1765.9 -65.4128Z" fill="#F4F4F4"/>
<path opacity="0.35" d="M1775.49 -56.294L1560.81 169.368C1560.61 169.571 1560.29 169.579 1560.09 169.386C1559.89 169.193 1559.88 168.872 1560.07 168.669L1774.75 -56.9932C1774.95 -57.1962 1775.27 -57.204 1775.47 -57.0111C1775.67 -56.8181 1775.68 -56.497 1775.49 -56.294Z" fill="#F4F4F4"/>
<path opacity="0.35" d="M1785.07 -47.1752L1570.39 178.487C1570.2 178.69 1569.88 178.698 1569.68 178.505C1569.47 178.312 1569.46 177.991 1569.66 177.788L1784.34 -47.8744C1784.53 -48.0774 1784.85 -48.0852 1785.06 -47.8923C1785.26 -47.699 1785.27 -47.3779 1785.07 -47.1752Z" fill="#F4F4F4"/>
<path opacity="0.35" d="M1794.66 -38.0563L1579.98 187.606C1579.78 187.809 1579.46 187.817 1579.26 187.624C1579.06 187.431 1579.05 187.11 1579.24 186.907L1793.92 -38.7555C1794.12 -38.9585 1794.44 -38.9667 1794.64 -38.7734C1794.84 -38.5804 1794.85 -38.2593 1794.66 -38.0563Z" fill="#F4F4F4"/>
<path opacity="0.35" d="M1804.24 -28.9374L1589.56 196.725C1589.37 196.928 1589.05 196.935 1588.85 196.742C1588.64 196.549 1588.63 196.228 1588.83 196.025L1803.51 -29.6366C1803.7 -29.8396 1804.02 -29.8474 1804.23 -29.6545C1804.43 -29.4615 1804.44 -29.1404 1804.24 -28.9374Z" fill="#F4F4F4"/>
<path opacity="0.35" d="M1813.83 -19.8187L1599.15 205.843C1598.96 206.046 1598.63 206.054 1598.43 205.861C1598.23 205.668 1598.22 205.347 1598.41 205.144L1813.09 -20.5178C1813.29 -20.7208 1813.61 -20.7287 1813.81 -20.5357C1814.01 -20.3424 1814.02 -20.0213 1813.83 -19.8187Z" fill="#F4F4F4"/>
<path opacity="0.35" d="M1823.41 -10.6996L1608.73 214.962C1608.54 215.165 1608.22 215.173 1608.02 214.98C1607.81 214.787 1607.81 214.466 1608 214.263L1822.68 -11.3988C1822.87 -11.6018 1823.19 -11.6096 1823.4 -11.4167C1823.6 -11.2237 1823.61 -10.9027 1823.41 -10.6996Z" fill="#F4F4F4"/>
<path opacity="0.97" d="M314.662 217.216L326.139 240.861" stroke="white" stroke-opacity="0.7" stroke-width="3" stroke-miterlimit="10" stroke-linecap="round" stroke-linejoin="round"/>
<path opacity="0.97" d="M332.222 223.3L308.578 234.777" stroke="white" stroke-opacity="0.7" stroke-width="3" stroke-miterlimit="10" stroke-linecap="round" stroke-linejoin="round"/>
<path opacity="0.97" d="M1674.46 119.425L1698.86 129.186" stroke="white" stroke-opacity="0.7" stroke-width="3" stroke-miterlimit="10" stroke-linecap="round" stroke-linejoin="round"/>
<path opacity="0.97" d="M1691.54 112.104L1681.78 136.506" stroke="white" stroke-opacity="0.7" stroke-width="3" stroke-miterlimit="10" stroke-linecap="round" stroke-linejoin="round"/>
<path d="M1642.52 343.227L1626.43 338.402L1621.61 354.489L1637.7 359.315L1642.52 343.227Z" stroke="white" stroke-opacity="0.7" stroke-width="3" stroke-miterlimit="10" stroke-linecap="round" stroke-linejoin="round"/>
<path d="M1312.2 190.401L1296.12 185.576L1291.29 201.663L1307.38 206.488L1312.2 190.401Z" stroke="white" stroke-opacity="0.7" stroke-width="3" stroke-miterlimit="10" stroke-linecap="round" stroke-linejoin="round"/>
<path d="M110.849 302.135L94.7617 297.309L89.9362 313.397L106.023 318.222L110.849 302.135Z" stroke="white" stroke-opacity="0.7" stroke-width="3" stroke-miterlimit="10" stroke-linecap="round" stroke-linejoin="round"/>
</g>
<defs>
<linearGradient id="paint0_linear_8190_80569" x1="686.823" y1="-36.9901" x2="419.518" y2="373.378" gradientUnits="userSpaceOnUse">
<stop stop-color="#B153F2"/>
<stop offset="1" stop-color="#FF747D"/>
</linearGradient>
<linearGradient id="paint1_linear_8190_80569" x1="484.237" y1="26.0727" x2="205.639" y2="539.973" gradientUnits="userSpaceOnUse">
<stop stop-color="#B153F2"/>
<stop offset="1" stop-color="#FF747D"/>
</linearGradient>
<linearGradient id="paint2_linear_8190_80569" x1="345.338" y1="769.436" x2="19.6792" y2="225.416" gradientUnits="userSpaceOnUse">
<stop stop-color="#B153F2"/>
<stop offset="1" stop-color="#FF747D"/>
</linearGradient>
<linearGradient id="paint3_linear_8190_80569" x1="258.031" y1="221.824" x2="32.141" y2="677.37" gradientUnits="userSpaceOnUse">
<stop stop-color="#B153F2"/>
<stop offset="1" stop-color="#FF747D"/>
</linearGradient>
<linearGradient id="paint4_linear_8190_80569" x1="1091.86" y1="597.12" x2="1359.16" y2="186.752" gradientUnits="userSpaceOnUse">
<stop stop-color="#B153F2"/>
<stop offset="1" stop-color="#FF747D"/>
</linearGradient>
<linearGradient id="paint5_linear_8190_80569" x1="1294.44" y1="534.057" x2="1573.04" y2="20.1567" gradientUnits="userSpaceOnUse">
<stop stop-color="#B153F2"/>
<stop offset="1" stop-color="#FF747D"/>
</linearGradient>
<linearGradient id="paint6_linear_8190_80569" x1="1433.34" y1="-209.306" x2="1759" y2="334.714" gradientUnits="userSpaceOnUse">
<stop stop-color="#B153F2"/>
<stop offset="1" stop-color="#FF747D"/>
</linearGradient>
<linearGradient id="paint7_linear_8190_80569" x1="1520.65" y1="338.306" x2="1746.54" y2="-117.24" gradientUnits="userSpaceOnUse">
<stop stop-color="#B153F2"/>
<stop offset="1" stop-color="#FF747D"/>
</linearGradient>
<linearGradient id="paint8_linear_8190_80569" x1="1552.83" y1="-61.0151" x2="2154" y2="-61.0151" gradientUnits="userSpaceOnUse">
<stop stop-color="#FFC358"/>
<stop offset="1" stop-color="#B153F2"/>
</linearGradient>
</defs>
</svg>
