<svg width="1000" height="244" viewBox="0 0 1000 244" fill="none" xmlns="http://www.w3.org/2000/svg">
<rect width="1000" height="244" fill="white"/>
<mask id="mask0_1700_1039" style="mask-type:alpha" maskUnits="userSpaceOnUse" x="0" y="0" width="1000" height="244">
<rect width="1000" height="244" fill="white"/>
</mask>
<g mask="url(#mask0_1700_1039)">
<path fill-rule="evenodd" clip-rule="evenodd" d="M731.058 48.373C769.964 39.8937 807.158 60.2551 845.229 72.0331C890.879 86.156 945.19 86.5324 975.145 123.887C1006.59 163.095 1018.11 230.295 1002.76 268.475C987.405 306.655 945.229 303.411 945.229 303.411L812.676 303.411L707.005 301.557L581.404 301.557C530.221 257.598 481.881 260.742 490.102 202.946C498.379 144.753 589.254 148.719 638.594 117.067C671.717 95.8185 692.627 56.7485 731.058 48.373Z" fill="url(#paint0_linear_1700_1039)"/>
<path d="M895.71 171.951C895.71 171.951 918.355 203.856 919.802 233.272C921.249 262.668 923.775 408.919 923.775 408.919L899.317 410.559L882.091 226.675L879.14 226.694L853.273 413.722L830.146 413.047L842.915 240.119C843.86 229.414 846.001 218.843 849.473 208.678C852.425 199.978 855.723 185.454 861.259 177.584L895.71 171.951Z" fill="#11206B"/>
<path d="M868.241 227.215L881.975 227.138C882.168 227.138 882.322 226.983 882.322 226.79C882.322 226.597 882.168 226.443 881.975 226.443L868.241 226.52C868.048 226.52 867.894 226.675 867.894 226.867C867.894 227.06 868.048 227.215 868.241 227.215Z" fill="#0D164C"/>
<path d="M927.729 135.977L947.674 161.863C954.676 171.353 940.209 182.599 932.706 173.552L899.085 134.414L927.729 135.977Z" fill="#F7A9B0"/>
<path d="M899.258 106.194C910.446 101.661 929.87 130.036 937.47 140.22L911.043 160.262C905.353 152.18 868.954 120.488 899.258 106.194Z" fill="#F5B048"/>
<path d="M853.699 108.895C853.699 108.895 833.986 111.518 835.124 140.683L848.915 142.901L853.699 108.895Z" fill="#F5B048"/>
<path d="M902.093 105.538C879.679 102.954 867.45 103.764 851.131 109.589C832.671 116.186 851.999 165.894 857.689 184.875L901.765 181.924L912.779 123.651C910.445 119.214 909.037 105.5 902.093 105.538Z" fill="#FFBA52"/>
<path d="M869.938 114.045L883.132 104.613L882.091 99.9447L884.367 99.7903C885.312 99.7325 886.238 100.041 886.932 100.658L891.33 104.497L882.785 119.35C881.898 120.912 879.853 121.336 878.406 120.275L869.938 114.045Z" fill="white"/>
<path d="M864.925 101.102L863.209 101.218C862.032 101.295 860.952 101.97 860.373 102.992L857.808 107.448L859.871 119.678C860.084 120.931 861.569 121.452 862.514 120.623L869.94 114.064L865.041 106.985L864.925 101.102Z" fill="white"/>
<path d="M870.326 121.298C869.569 121.298 868.956 120.685 868.956 119.928C868.956 119.172 869.569 118.559 870.326 118.559C871.082 118.559 871.695 119.172 871.695 119.928C871.695 120.685 871.082 121.298 870.326 121.298Z" fill="white"/>
<path d="M870.384 126.738C869.628 126.738 869.015 126.124 869.015 125.368C869.015 124.612 869.628 123.999 870.384 123.999C871.141 123.999 871.754 124.612 871.754 125.368C871.754 126.124 871.141 126.738 870.384 126.738Z" fill="white"/>
<path d="M884.444 150.598C884.444 150.598 875.841 137.5 856.224 146.894L865.155 162.982L882.747 161.207L884.444 150.598Z" fill="#F7A9B0"/>
<path d="M884.444 150.598L939.226 156.269L937.393 176.677L882.747 161.207L884.444 150.598Z" fill="#F7A9B0"/>
<path d="M883.496 194.153L886.891 189.832L861.101 138.966C861.101 138.966 820.632 134.896 804.641 141.551L883.496 194.153Z" fill="white"/>
<path d="M804.641 141.532L813.417 142.13L842.698 191.202C842.698 191.202 835.195 191.896 831.395 185.608L804.641 141.532Z" fill="#2FB69F"/>
<path d="M813.419 142.13L858.228 143.114L883.497 194.153L842.7 191.221L813.419 142.13Z" fill="#1B967E"/>
<path d="M829.238 153.472L854.256 154.013L857.092 159.819L832.71 159.143L829.238 153.472Z" fill="white"/>
<path d="M804.642 141.532L808.268 117.054L813.399 116.707L824.896 138.928L804.642 141.532Z" fill="white"/>
<path d="M825.859 176.465C825.859 176.465 820.034 178.317 814.498 170.987C808.962 163.657 813.553 159.278 813.553 159.278L825.531 149.595C826.033 149.19 826.747 149.19 827.248 149.614C827.827 150.096 827.885 150.984 827.383 151.543L820.4 159.22L831.183 151.042C832.013 150.424 833.189 150.598 833.768 151.447C834.289 152.199 834.173 153.221 833.478 153.839L823.564 162.712L832.63 157.214C833.343 156.771 834.289 157.021 834.713 157.754C835.08 158.391 834.944 159.201 834.385 159.683L825.281 167.283L833.189 162.847C833.941 162.422 834.906 162.673 835.369 163.406C835.793 164.081 835.639 164.988 835.041 165.489L824.567 174.266L825.859 176.465Z" fill="#F7A9B0"/>
<path d="M857.635 74.3091C857.307 72.1488 856.593 70.0269 855.436 68.098C853.874 65.4361 851.54 62.9478 848.357 64.6645C842.937 67.5965 848.916 76.3731 854.664 76.7975C856.362 76.9132 857.847 75.6787 857.635 74.3091Z" fill="#F7A9B0"/>
<path d="M850.073 77.1256C849.221 77.1256 848.53 76.4347 848.53 75.5825C848.53 74.7302 849.221 74.0393 850.073 74.0393C850.925 74.0393 851.616 74.7302 851.616 75.5825C851.616 76.4347 850.925 77.1256 850.073 77.1256Z" fill="white"/>
<path d="M892.103 90.5893C884.284 90.5893 877.945 84.2504 877.945 76.431C877.945 68.6116 884.284 62.2727 892.103 62.2727C899.923 62.2727 906.262 68.6116 906.262 76.431C906.262 84.2504 899.923 90.5893 892.103 90.5893Z" fill="#0D164C"/>
<path d="M886.201 40.0709C886.201 40.0709 890.232 37.544 895.016 43.5237C899.819 49.5034 900.012 62.6779 891.254 65.6677L886.201 40.0709Z" fill="#0D164C"/>
<path d="M886.201 40.0707C886.201 40.0707 882.999 27.9763 864.732 31.7185C846.465 35.4606 834.795 44.1601 848.761 60.7681L886.201 40.0707Z" fill="#0D164C"/>
<path d="M848.86 57.4119C849.477 69.3133 859.006 78.4564 871.814 77.8006C884.622 77.1255 894.518 66.9408 893.881 55.0393C893.264 43.1379 882.365 34.0333 869.538 34.7085C856.749 35.3643 848.243 45.5104 848.86 57.4119Z" fill="#0D164C"/>
<path d="M876.133 73.2097L883.135 104.632L869.941 114.045L865.041 106.966L864.443 77.5112L876.133 73.2097Z" fill="#F7A9B0"/>
<path d="M864.812 95.8745L876.019 83.7416L864.541 79.7488L864.812 95.8745Z" fill="#B53C50"/>
<path d="M873.47 39.3569C869.477 38.4889 865.311 38.4696 861.356 39.5112C856.013 40.9386 849.281 44.7 848.934 54.6147C848.356 71.1456 850.998 83.3556 859.312 86.6541C865.697 89.181 870.191 87.85 877.154 83.2785C879.739 81.581 882.015 75.7942 882.575 72.6115L885.198 63.642C885.179 63.642 892.509 43.5041 873.47 39.3569Z" fill="#F7A9B0"/>
<path d="M859.256 75.5439C859.372 75.5439 859.488 75.486 859.565 75.3896C859.68 75.216 859.642 74.9845 859.468 74.8495L857.674 73.5957L859.507 69.5835C859.603 69.3906 859.507 69.1592 859.314 69.082C859.121 68.9856 858.89 69.082 858.812 69.2749L856.845 73.5764C856.768 73.75 856.826 73.9429 856.98 74.0586L859.025 75.5053C859.102 75.5053 859.179 75.5439 859.256 75.5439Z" fill="#0D164C"/>
<path d="M856.072 55.271C856.072 55.271 856.824 56.8527 854.317 57.3156C852.407 57.6628 851.192 57.875 850.131 58.2994C849.533 58.5501 848.8 58.4151 848.414 57.9908C848.106 57.6436 848.067 57.1999 848.337 56.8141C848.896 56.0618 850.112 54.8659 852.426 54.4223C855.435 53.8436 856.072 55.271 856.072 55.271Z" fill="#0D164C"/>
<path d="M863.692 54.7306C863.692 54.7306 862.94 56.4087 866.509 56.5051C869.228 56.5823 872.488 57.161 874.031 57.431C874.899 57.5853 875.883 57.3539 876.346 56.8716C876.713 56.4858 876.674 56.0229 876.23 55.695C875.324 55.0199 871.871 53.4767 868.572 53.3417C864.31 53.2067 863.692 54.7306 863.692 54.7306Z" fill="#0D164C"/>
<path d="M857.87 78.8234C857.87 78.8234 859.046 84.0893 861.901 83.7614C865.798 83.2985 866.781 77.2803 866.781 77.2803L857.87 78.8234Z" fill="#B53C50"/>
<path d="M857.866 78.8234C857.866 78.8234 858.965 81.8325 861.8 81.4853C865.697 81.0224 866.758 77.2803 866.758 77.2803L857.866 78.8234Z" fill="white"/>
<path d="M866.393 77.319C866.393 77.319 858.349 76.4703 857.983 78.7271C858.002 78.7271 863.596 79.19 866.393 77.319Z" fill="#B53C50"/>
<path d="M860.354 79.4019C862.148 79.4019 864.579 78.9583 867.222 77.2609C867.395 77.1451 867.453 76.9137 867.337 76.7401C867.222 76.5665 866.99 76.5085 866.797 76.6243C861.801 79.8263 857.577 78.2253 857.538 78.206C857.345 78.1289 857.114 78.2253 857.037 78.4182C856.96 78.6111 857.056 78.8426 857.249 78.9197C857.365 78.939 858.522 79.4019 860.354 79.4019Z" fill="#0D164C"/>
<path d="M854.731 68.6171C853.965 68.7494 853.201 68.0311 853.026 67.0129C852.85 65.9946 853.329 65.0619 854.095 64.9296C854.861 64.7973 855.625 65.5155 855.801 66.5338C855.976 67.5521 855.498 68.4848 854.731 68.6171Z" fill="#0D164C"/>
<path d="M867.321 67.8264C866.555 67.9586 865.791 67.2404 865.615 66.2221C865.44 65.2039 865.918 64.2712 866.685 64.1389C867.451 64.0067 868.215 64.7248 868.391 65.7431C868.566 66.7614 868.088 67.6941 867.321 67.8264Z" fill="#0D164C"/>
<path d="M882.497 68.6379C882.497 68.6379 872.428 50.2167 884.118 43.3305C884.118 43.3305 887.744 39.2411 890.387 49.4065C894.63 65.6867 882.497 68.6379 882.497 68.6379Z" fill="#0D164C"/>
<path d="M880.337 73.0747C880.704 70.7986 881.456 68.5804 882.671 66.555C884.33 63.7581 886.799 61.154 890.136 62.9672C895.826 66.0728 889.48 75.2737 883.443 75.6981C881.649 75.8331 880.106 74.5214 880.337 73.0747Z" fill="#F7A9B0"/>
<path d="M882.461 71.5699C882.615 71.5699 882.75 71.4735 882.808 71.3384C882.885 71.1455 884.756 66.7283 888.749 67.8664C888.961 67.9243 889.173 67.8085 889.231 67.5963C889.289 67.3841 889.173 67.172 888.961 67.1141C884.293 65.7831 882.114 70.9912 882.094 71.0298C882.017 71.2227 882.114 71.4542 882.306 71.5313C882.364 71.5699 882.422 71.5699 882.461 71.5699Z" fill="#0D164C"/>
<path d="M884.272 76.5853C883.42 76.5853 882.729 75.8944 882.729 75.0422C882.729 74.1899 883.42 73.499 884.272 73.499C885.125 73.499 885.815 74.1899 885.815 75.0422C885.815 75.8944 885.125 76.5853 884.272 76.5853Z" fill="white"/>
<path d="M882.748 44.2372C882.748 44.2372 872.37 49.3681 862.977 45.5488C853.583 41.7488 848.78 50.4675 848.78 50.4675C848.78 50.4675 851.133 36.9651 866.275 36.9844C881.436 37.023 882.748 44.2372 882.748 44.2372Z" fill="#0D164C"/>
<path d="M574.687 229.111C576.302 223.083 579.434 211.46 579.671 210.751L578.509 210.357C578.193 211.303 573.702 228.087 573.505 228.796L574.687 229.111Z" fill="#0D164C"/>
<path d="M575.284 225.534L575.476 224.328L614.547 230.519L614.356 231.725L575.284 225.534Z" fill="#0D164C"/>
<path d="M615.229 232.894C615.229 232.894 614.304 227.989 613.594 233.012L615.229 232.894Z" fill="#0D164C"/>
<path d="M622.172 232.44L635.158 225.772L635.716 226.859L622.73 233.527L622.172 232.44Z" fill="#0D164C"/>
<path d="M621.829 208.604L622.977 208.186L630.469 228.771L629.321 229.189L621.829 208.604Z" fill="#0D164C"/>
<path d="M548.404 243.079H634.789L621.984 204.565C621.117 200.743 617.709 198.025 613.789 198.025H544.661C539.264 198.025 535.265 203.029 536.466 208.308L548.404 243.079Z" fill="#5C5856"/>
<path d="M547.481 244.379H636.604L623.227 204.151C622.242 199.817 618.361 196.725 613.791 196.725H544.663C541.689 196.725 538.931 198.064 537.079 200.389C535.227 202.713 534.538 205.708 535.207 208.604L535.247 208.742L547.481 244.379ZM632.998 241.779H549.352L537.729 207.954C537.276 205.846 537.768 203.698 539.108 202.004C540.467 200.31 542.496 199.325 544.663 199.325H613.791C617.14 199.325 619.977 201.591 620.725 204.861L632.998 241.779Z" fill="#1A1715"/>
<path d="M667.453 168.888C667.197 168.219 671.846 159.748 669.994 159.452C668.122 159.157 664.911 168.041 664.182 167.194C663.454 166.367 666.862 157.719 665.818 157.187C664.773 156.655 658.923 172.277 660.912 163.491C662.922 154.724 661.484 154.448 659.454 159.314C658.036 162.683 655.869 167.253 654.667 169.736C654.273 170.563 653.21 170.76 652.678 170.11C651.496 168.652 649.644 166.603 648.718 166.564C647.26 166.524 651.279 178.601 651.279 178.601C651.279 178.601 651.279 178.601 651.299 178.601C648.738 180.413 638.356 197 632.426 209.195C628.762 216.74 629.904 225.349 637.883 228.048L639.36 228.54C647.556 231.338 657.209 222.847 658.686 214.356C660.873 201.827 662.449 186.185 662.272 183.289C662.272 183.289 662.272 183.289 662.291 183.289C663.276 182.284 674.308 164.909 671.747 163.924C670.979 163.648 667.709 169.558 667.453 168.888Z" fill="#F7A9B0"/>
<path d="M617.377 181.753C612.57 183.447 607.33 191.957 611.073 199.266C618.618 214.061 634.93 227.043 634.93 227.043C634.93 227.043 641.529 197.04 640.407 196.291C623.346 184.905 627.129 179.073 617.377 181.753Z" fill="#EE3E3C"/>
<path d="M601.932 173.321C601.932 173.321 576.479 160.083 587.137 139.536C587.137 139.536 598.839 161.856 601.932 173.321Z" fill="#0D164C"/>
<path d="M594.445 157.837C594.445 158.192 594.169 158.487 593.814 158.467C592.337 158.428 588.791 158.763 588.239 162.624C587.688 166.525 593.105 167.313 595.351 167.49C596.001 167.529 596.592 167.845 597.026 168.317C598.345 169.815 601.222 176.04 602.187 180.039C604.315 188.904 597.557 189.909 597.557 189.909C597.557 189.909 618.479 196.607 625.394 191.957C625.394 191.957 616.213 171.588 618.597 170.701C622.833 169.145 627.167 166.899 624.172 151.888C621.355 137.743 609.811 138.669 607.23 139.082C605.063 139.417 594.228 140.265 594.445 157.837Z" fill="#F7A9B0"/>
<path d="M617.494 171.351C617.494 171.351 612.195 171.587 607.132 170.76C605.142 170.445 612.806 176.985 614.933 175.803C617.474 174.385 617.494 171.351 617.494 171.351Z" fill="#B53C50"/>
<path d="M587.452 139.319C601.104 125.489 615.249 135.635 615.249 135.635C617.928 136.226 623.602 142.431 624.843 148.913C624.843 148.913 615.466 141.111 613.239 139.851C604.67 150.095 596.179 159.59 594.071 158.27C591.432 157.994 585.088 153.503 584.97 146.509L587.452 139.319Z" fill="#0D164C"/>
<path d="M590.19 162.348C590.19 162.348 592.495 157.679 595.214 164.042L590.19 162.348Z" fill="#B53C50"/>
<path d="M622.813 160.634L615.623 162.151C615.623 162.151 617.731 165.284 619.74 164.476C621.75 163.688 622.813 160.634 622.813 160.634Z" fill="white"/>
<path d="M618.679 157.463L618.954 160.28L620.353 159.846C620.609 159.768 620.688 159.433 620.491 159.255L618.679 157.463Z" fill="#B53C50"/>
<path d="M612.453 154.429C611.901 155.039 612.453 152.774 613.28 152.321C614.107 151.887 615.092 152.124 615.486 152.833C615.486 152.833 613.772 152.971 612.453 154.429Z" fill="#0D164C"/>
<path d="M622.046 151.611C620.41 151.316 619.13 151.966 619.13 151.966C619.071 151.158 619.8 150.449 620.745 150.37C621.1 150.351 621.553 150.567 621.927 150.824C621.927 150.843 622.38 151.651 622.046 151.611Z" fill="#0D164C"/>
<path d="M621.727 157.743C621.339 157.849 620.845 157.28 620.625 156.472C620.404 155.664 620.539 154.923 620.928 154.816C621.316 154.71 621.81 155.279 622.031 156.088C622.252 156.896 622.116 157.637 621.727 157.743Z" fill="#0D164C"/>
<path d="M616.544 159.016C616.156 159.122 615.662 158.553 615.441 157.744C615.221 156.936 615.357 156.195 615.745 156.089C616.133 155.983 616.627 156.552 616.848 157.36C617.068 158.169 616.933 158.91 616.544 159.016Z" fill="#0D164C"/>
<path d="M594.426 134.65C594.426 134.65 594.977 121.155 584.379 122.042C558.04 124.268 581.542 159.452 581.542 159.452" fill="#0D164C"/>
<path d="M622.32 181.516C626.181 189.357 630.535 202.93 632.052 210.337C633.214 216.09 638.139 237.464 638.69 239.75C638.69 239.75 616.292 240.912 583.235 240.321C583.629 232.323 586.702 194.459 590.209 185.102C590.209 185.102 600.137 182.009 602.895 181.851C602.895 181.851 624.112 192.509 622.32 181.516Z" fill="#EE3E3C"/>
<path d="M603.957 188.057C601.455 183.624 593.752 181.753 587.212 186.717C573.973 196.744 565.699 221.566 565.699 221.566C565.699 221.566 594.678 222.867 595.013 222.079C602.775 203.107 608.291 197.178 603.957 188.057Z" fill="#EE3E3C"/>
<path d="M596.532 184.294L601.063 178.916L619.128 186.343L616.133 198.301L596.532 184.294Z" fill="white"/>
<path d="M619.13 186.343L621.04 176.729L626.812 183.762V196.587L619.13 186.343Z" fill="white"/>
<path d="M627.007 239.493C627.579 239.06 636.995 241.286 636.779 239.395C636.562 237.523 627.145 236.814 627.756 235.888C628.367 234.962 637.606 235.928 637.823 234.785C638.059 233.643 621.452 232.185 630.435 231.751C639.418 231.318 639.3 229.88 634.08 229.21C630.455 228.757 625.471 227.89 622.752 227.398C621.846 227.24 621.373 226.275 621.866 225.585C622.949 224.049 624.427 221.724 624.21 220.818C623.855 219.399 613.316 226.511 613.316 226.511C613.316 226.511 613.316 226.511 613.316 226.531C610.893 224.561 592.119 218.986 578.782 216.563C570.527 215.065 562.549 218.473 562.076 226.885L561.997 228.442C561.505 237.09 572.281 244.103 580.85 243.256C593.498 241.995 609.002 239.336 611.72 238.371C611.72 238.371 611.72 238.371 611.74 238.371C612.981 239.04 632.661 245.009 632.937 242.271C633.016 241.503 626.436 239.927 627.007 239.493Z" fill="#F7A9B0"/>
<path opacity="0.51" d="M579.941 205.806C580.788 206.929 581.635 208.072 582.483 209.195C582.837 209.667 582.561 210.436 582.089 210.712C581.517 211.046 580.926 210.79 580.572 210.318C579.725 209.195 578.877 208.052 578.03 206.929C577.676 206.456 577.952 205.688 578.424 205.412C578.996 205.077 579.587 205.333 579.941 205.806Z" fill="white"/>
<path opacity="0.51" d="M584.375 202.024C585.32 201.472 586.266 200.901 587.211 200.349C588.433 199.621 589.556 201.531 588.334 202.26C587.389 202.812 586.443 203.383 585.497 203.935C584.256 204.664 583.153 202.753 584.375 202.024Z" fill="white"/>
<path opacity="0.51" d="M593.063 191.997C593.732 192.844 594.383 193.691 595.052 194.538C595.427 195.011 595.505 195.641 595.052 196.094C594.678 196.469 593.851 196.567 593.496 196.094C592.826 195.247 592.176 194.4 591.506 193.553C591.132 193.08 591.053 192.45 591.506 191.997C591.881 191.622 592.688 191.524 593.063 191.997Z" fill="white"/>
<path opacity="0.51" d="M593.025 208.17C593.97 209.214 594.896 210.259 595.842 211.283C596.787 212.347 595.231 213.903 594.285 212.839C593.34 211.795 592.414 210.751 591.468 209.727C590.503 208.683 592.059 207.107 593.025 208.17Z" fill="white"/>
<path opacity="0.51" d="M599.368 202.851C599.644 202.654 599.939 202.477 600.215 202.28C601.397 201.492 602.52 203.403 601.338 204.191C601.062 204.388 600.766 204.565 600.491 204.762C599.289 205.57 598.186 203.639 599.368 202.851Z" fill="white"/>
<path opacity="0.51" d="M586.704 215.479C586.901 215.282 587.078 215.105 587.275 214.908C588.28 213.903 589.856 215.459 588.831 216.464C588.634 216.661 588.457 216.838 588.26 217.035C587.255 218.06 585.679 216.484 586.704 215.479Z" fill="white"/>
<path opacity="0.51" d="M606.931 209.254C607.601 210.002 608.251 210.771 608.921 211.519C609.847 212.583 608.291 214.159 607.365 213.076C606.695 212.327 606.045 211.559 605.375 210.81C604.43 209.746 605.986 208.19 606.931 209.254Z" fill="white"/>
<path opacity="0.51" d="M599.189 217.508C599.741 217.035 600.312 216.562 600.863 216.07C601.947 215.144 603.523 216.72 602.42 217.626C601.868 218.099 601.297 218.572 600.745 219.064C599.662 219.99 598.086 218.434 599.189 217.508Z" fill="white"/>
<path opacity="0.51" d="M604.983 195.07C605.732 195.838 606.46 196.606 607.209 197.375C608.194 198.399 606.638 199.955 605.653 198.931C604.904 198.163 604.175 197.394 603.427 196.626C602.422 195.621 603.998 194.045 604.983 195.07Z" fill="white"/>
<path opacity="0.51" d="M611.582 204.999C612.133 204.427 612.704 203.856 613.256 203.285C614.241 202.26 615.817 203.836 614.812 204.841C614.261 205.412 613.689 205.984 613.138 206.555C612.153 207.599 610.597 206.023 611.582 204.999Z" fill="white"/>
<path opacity="0.51" d="M611.6 219.734C612.172 219.064 612.723 218.414 613.295 217.745C614.22 216.661 615.777 218.237 614.851 219.301C614.28 219.971 613.728 220.621 613.157 221.291C612.231 222.374 610.674 220.798 611.6 219.734Z" fill="white"/>
<path opacity="0.51" d="M619.937 211.263C620.981 212.386 622.025 213.509 623.069 214.632C624.034 215.676 622.478 217.232 621.513 216.188C620.469 215.065 619.424 213.942 618.38 212.82C617.395 211.795 618.952 210.219 619.937 211.263Z" fill="white"/>
<path opacity="0.51" d="M619.658 196.252C620.308 196.922 620.939 197.611 621.589 198.281C622.574 199.305 621.018 200.881 620.033 199.837C619.383 199.168 618.752 198.478 618.102 197.808C617.117 196.784 618.673 195.208 619.658 196.252Z" fill="white"/>
<path opacity="0.51" d="M624.703 207.796C625.215 206.535 625.964 205.57 627.067 204.782C627.56 204.427 628.308 204.703 628.584 205.176C628.919 205.727 628.682 206.338 628.19 206.693C627.599 207.106 627.126 207.717 626.85 208.387C626.634 208.939 626.121 209.333 625.491 209.155C624.939 209.017 624.467 208.348 624.703 207.796Z" fill="white"/>
<path opacity="0.51" d="M631.303 198.202C632.347 199.148 633.372 200.093 634.416 201.039C635.48 202.004 633.904 203.56 632.859 202.595C631.815 201.65 630.791 200.704 629.747 199.758C628.683 198.793 630.239 197.237 631.303 198.202Z" fill="white"/>
<path opacity="0.51" d="M628.566 190.007C628.763 189.81 628.94 189.633 629.137 189.436C630.142 188.431 631.718 189.987 630.694 190.992C630.497 191.189 630.319 191.366 630.122 191.563C629.137 192.588 627.561 191.031 628.566 190.007Z" fill="white"/>
<path opacity="0.51" d="M632.661 210.987C633.331 211.637 633.981 212.307 634.651 212.957C635.656 213.962 634.099 215.518 633.095 214.514C632.425 213.864 631.775 213.194 631.105 212.544C630.08 211.539 631.637 209.983 632.661 210.987Z" fill="white"/>
<path opacity="0.51" d="M626.99 220.522C627.365 219.951 627.739 219.399 628.113 218.828C628.901 217.646 630.812 218.749 630.024 219.951C629.65 220.522 629.276 221.074 628.901 221.645C628.113 222.808 626.202 221.704 626.99 220.522Z" fill="white"/>
<path opacity="0.51" d="M632.404 223.97C632.68 224.246 632.976 224.541 633.251 224.817C634.256 225.822 632.7 227.398 631.695 226.373C631.419 226.097 631.124 225.802 630.848 225.526C629.824 224.521 631.4 222.965 632.404 223.97Z" fill="white"/>
<path opacity="0.51" d="M635.439 205.511C635.813 204.94 636.187 204.368 636.561 203.817C637.349 202.635 639.26 203.738 638.472 204.94C638.098 205.511 637.724 206.082 637.35 206.634C636.581 207.796 634.651 206.693 635.439 205.511Z" fill="white"/>
<path opacity="0.51" d="M586.64 187.86C587.211 187.485 587.763 187.111 588.334 186.737C589.516 185.949 590.639 187.86 589.457 188.648C588.886 189.022 588.334 189.396 587.763 189.77C586.561 190.558 585.458 188.648 586.64 187.86Z" fill="white"/>
<path d="M653.052 152.931L647.969 150.961L647.87 156.162L649.171 158.211L654.214 154.882L653.052 152.931Z" fill="#FFFDDB"/>
<path d="M650.274 151.848L647.969 150.961L647.93 153.207C647.91 153.207 649.309 153.995 650.274 151.848Z" fill="#3149B2"/>
<path d="M647.888 156.143C648.223 156.478 648.735 156.556 649.168 156.3C649.582 156.044 649.74 155.532 649.582 155.099L649.621 155.079C649.956 155.414 650.468 155.493 650.902 155.236C651.316 154.98 651.473 154.468 651.316 154.035L651.355 154.015C651.69 154.35 652.202 154.429 652.635 154.173C653.029 153.917 653.207 153.444 653.069 153.01L669.538 179.408L664.357 182.639L647.868 156.202L647.888 156.143Z" fill="#F75C03"/>
<path d="M649.168 156.281C649.582 156.024 649.74 155.512 649.582 155.079L649.621 155.059C649.956 155.394 650.468 155.473 650.902 155.217C651.316 154.961 651.473 154.449 651.316 154.015L651.355 153.995C651.69 154.33 652.202 154.409 652.635 154.153C653.029 153.897 653.207 153.424 653.069 152.991L669.538 179.389L665.224 181.91C665.224 181.891 648.755 156.556 649.168 156.281Z" fill="#F47D3A"/>
<path d="M663.583 181.286L668.765 178.054L669.547 179.307L664.365 182.54L663.583 181.286Z" fill="#FFFDDB"/>
<path d="M669.479 179.271L664.297 182.501L665.342 184.176C666.228 185.614 668.119 186.047 669.538 185.141C670.976 184.255 671.409 182.363 670.503 180.945L669.479 179.271Z" fill="#B53C50"/>
<path d="M669.48 179.271L664.93 182.107L665.974 183.782C666.86 185.22 668.614 185.732 669.855 184.944C671.115 184.156 671.411 182.363 670.524 180.945L669.48 179.271Z" fill="#F75C03"/>
<path d="M651.173 153.938L651.509 153.732L666.229 177.658L665.894 177.865L651.173 153.938Z" fill="#FFFDDB"/>
<path d="M649.522 155.155L649.857 154.948L664.578 178.874L664.242 179.081L649.522 155.155Z" fill="#FFFDDB"/>
<path d="M614.36 235.888H655.868V240.793H614.36V235.888Z" fill="#F5A733"/>
<path d="M697.223 243.424H787.941L774.683 204.339C773.777 200.32 770.192 197.464 766.074 197.464H693.5C687.826 197.464 683.63 202.724 684.891 208.259L697.223 243.424Z" fill="#5C5856"/>
<path d="M696.296 244.724H789.753L775.924 203.925C774.899 199.414 770.841 196.164 766.093 196.164H693.538C690.445 196.164 687.549 197.562 685.619 199.985C683.688 202.408 682.979 205.521 683.668 208.555L683.708 208.693L696.296 244.724ZM786.128 242.124H698.148L686.151 207.905C685.658 205.679 686.21 203.393 687.628 201.601C689.066 199.808 691.213 198.764 693.518 198.764H766.074C769.62 198.764 772.634 201.167 773.402 204.615L786.128 242.124Z" fill="#1A1715"/>
<path d="M737.707 174.907C737.707 174.907 729.591 174.966 723.11 187.18C716.057 200.458 719.505 244.212 719.505 244.212L778.585 242.951L770.882 194.725C770.744 190.904 769.011 187.397 766.785 183.91C758.983 171.736 740.8 174.395 740.8 174.395L737.707 174.907Z" fill="#6783FF"/>
<path d="M728.94 167.008L734.318 179.675C734.318 179.675 743.163 186.215 747.793 183.871C750.669 182.413 752.166 175.557 752.166 175.557L746.453 166.968L729.984 163.304C729.984 163.304 728.881 165.648 728.94 166.239C728.979 166.811 728.94 167.008 728.94 167.008Z" fill="#F7A9B0"/>
<path d="M726.948 163.816L746.746 167.027L750.923 174.257C750.923 174.257 742.885 176.483 735.36 169.115" fill="#B53C50"/>
<path d="M726.061 159.443C726.061 159.935 723.5 158.95 723.047 158.773C721.53 158.123 718.535 159.049 719.323 163.599C720.387 169.805 728.248 167.559 729.016 168.15C730.612 169.352 738.452 172.248 743.968 171.578C758.369 169.825 758.408 160.27 746.844 138.718C746.844 138.718 744.973 138.048 743.141 139.546C741.309 141.023 729.351 140.55 729.508 147.997C729.548 151.444 726.1 156.566 726.061 159.443Z" fill="#F7A9B0"/>
<path d="M753.582 158.497C753.582 158.497 752.006 159.758 747.573 160.329C747.573 160.329 750.253 162.319 752.085 162.043C753.168 161.886 753.582 158.497 753.582 158.497Z" fill="white"/>
<path d="M720.624 162.871L725.49 164.722C725.51 164.722 721.984 157.946 720.624 162.871Z" fill="#B53C50"/>
<path d="M746.972 154.03C747.344 153.947 747.782 154.491 747.95 155.245C748.119 155.998 747.955 156.677 747.583 156.76C747.211 156.843 746.773 156.3 746.605 155.546C746.436 154.792 746.6 154.113 746.972 154.03Z" fill="#0D164C"/>
<path d="M751.254 152.428C751.626 152.345 752.063 152.888 752.232 153.642C752.401 154.396 752.236 155.075 751.864 155.158C751.493 155.241 751.055 154.697 750.886 153.943C750.718 153.189 750.882 152.511 751.254 152.428Z" fill="#0D164C"/>
<path d="M741.388 153.001C740.443 154.104 741.27 150.026 742.728 149.199C744.186 148.371 745.959 148.706 746.688 149.967C746.688 149.967 743.634 150.322 741.388 153.001Z" fill="#0D164C"/>
<path d="M751.891 149.376C750.354 149.612 749.349 150.223 749.349 150.223C749.211 148.884 750.059 147.642 751.339 147.229" fill="#0D164C"/>
<path d="M749.582 154.794L752.162 157.65C752.202 157.689 752.162 157.768 752.083 157.788L749.936 158.379C749.857 158.399 749.798 158.379 749.779 158.32L749.365 154.872C749.345 154.774 749.522 154.715 749.582 154.794Z" fill="#B53C50"/>
<path d="M727.6 161.334C729.688 158.34 730.515 153.71 731.776 150.302C732.249 149.021 732.801 147.761 733.451 146.559C734.002 145.515 734.652 144.451 735.677 143.86C737.233 142.934 739.302 143.348 740.779 144.372C741.331 144.766 741.981 145.259 742.611 145.022C742.927 144.904 743.143 144.648 743.34 144.372C745.153 141.949 747.359 138.758 747.26 135.744C747.26 135.744 745.586 127.647 733.549 130.641C724.724 132.828 711.86 132.927 715.504 150.657C717.77 161.689 727.6 161.334 727.6 161.334Z" fill="#0D164C"/>
<path d="M745.564 134.089C745.564 134.089 749.287 136.827 749.582 139.959C749.878 143.092 749.346 143.722 749.346 143.722L744.224 138.364L745.564 134.089Z" fill="#0D164C"/>
<path d="M771.357 199.67C770.726 199.788 732.843 244.113 732.843 244.113C732.843 244.113 779.512 243.345 778.606 242.951C777.68 242.537 771.357 199.67 771.357 199.67Z" fill="#6783FF"/>
<path d="M780.988 206.407C780.988 206.407 791.508 236.568 792.099 235.682C792.099 235.682 808.745 242.616 806.775 243.759C804.805 244.921 777.422 244.054 777.422 244.054L760.933 212.849L780.988 206.407Z" fill="#F7A9B0"/>
<path d="M762.173 179.379C773.974 181.29 784.021 206.053 784.021 206.053L758.371 215.548L748.226 201.207L762.173 179.379Z" fill="#6783FF"/>
<path d="M719.23 199.276C719.23 199.276 695.039 200.182 685.189 193.563C675.339 186.944 678.51 148.214 678.51 148.214C678.51 148.214 677.388 140.964 678.786 139.25C680.185 137.536 682.372 148.155 682.372 148.155C682.372 148.155 679.692 135.724 681.347 134.089C683.002 132.454 685.839 146.854 685.839 146.854C685.839 146.854 681.938 133.183 684.815 131.961C687.691 130.74 689.956 146.047 689.956 146.047C689.956 146.047 687.021 136.827 689.326 134.857C691.631 132.887 692.655 146.973 692.655 146.973C692.655 146.973 694.625 150.105 696.457 144.687C698.289 139.27 700.811 144.786 698.329 153.001C695.827 161.216 695.039 177.429 714.877 176.424L719.23 199.276Z" fill="#F7A9B0"/>
<path d="M741.156 192.322C741.156 192.322 732.862 214.504 702.209 201.167L715.388 170.199C715.388 170.179 741.963 171.991 741.156 192.322Z" fill="#6783FF"/>
<path d="M685.619 243.837L681.01 240.37L685.619 237.376H688.2L688.023 243.778L685.619 243.837Z" fill="#FFFDDB"/>
<path d="M683.097 241.946L681.008 240.37L683.018 239.07C682.998 239.07 684.476 239.878 683.097 241.946Z" fill="#3149B2"/>
<path d="M685.618 237.415C686.11 237.514 686.465 237.947 686.465 238.479C686.465 238.991 686.11 239.425 685.618 239.543V239.602C686.11 239.7 686.465 240.134 686.465 240.666C686.465 241.178 686.11 241.611 685.618 241.73V241.789C686.11 241.887 686.465 242.321 686.465 242.852C686.465 243.345 686.13 243.759 685.677 243.897L718.596 243.877V237.415L685.618 237.435V237.415Z" fill="#F75C03"/>
<path d="M686.465 238.459C686.465 238.972 686.11 239.405 685.618 239.523V239.582C686.11 239.681 686.465 240.114 686.465 240.646C686.465 241.158 686.11 241.592 685.618 241.71V241.769C686.11 241.867 686.465 242.301 686.465 242.833C686.465 243.325 686.13 243.739 685.677 243.877L718.596 243.857L718.438 238.578C718.438 238.518 686.465 237.947 686.465 238.459Z" fill="#F47D3A"/>
<path d="M716.982 237.356H718.538V243.818H716.982V237.356Z" fill="#FFFDDB"/>
<path d="M718.48 243.818V237.356H720.548C722.341 237.356 723.779 238.794 723.779 240.587C723.779 242.38 722.341 243.818 720.548 243.818H718.48Z" fill="#B53C50"/>
<path d="M718.48 243.818V238.144H720.548C722.341 238.144 723.779 239.405 723.779 240.981C723.779 242.557 722.341 243.818 720.548 243.818H718.48Z" fill="#F75C03"/>
<path d="M685.487 241.601L715.215 241.419L715.217 241.813L685.49 241.995L685.487 241.601Z" fill="#FFFDDB"/>
<path d="M685.644 239.434L715.371 239.253L715.374 239.647L685.646 239.828L685.644 239.434Z" fill="#FFFDDB"/>
<path d="M726.143 239.267H770.055V244.448H726.143V239.267Z" fill="white"/>
</g>
<defs>
<linearGradient id="paint0_linear_1700_1039" x1="717.811" y1="50.8636" x2="772.464" y2="338.008" gradientUnits="userSpaceOnUse">
<stop stop-color="#F5EFEB"/>
<stop offset="1" stop-color="#F5EFEB" stop-opacity="0"/>
</linearGradient>
</defs>
</svg>
